<?xml version="1.0" encoding="UTF-8"?><svg
  version="1.1"
  viewBox="0 0 512 512"
  xmlns="http://www.w3.org/2000/svg">
<path d="M0 0 C1.34657433 -0.01058945 1.34657433 -0.01058945 2.72035217 -0.02139282 C72.82325228 -0.44741227 138.09967747 20.94558177 189.2421875 70.203125 C190.2312207 71.15131104 190.2312207 71.15131104 191.24023438 72.11865234 C200.19557692 80.74949638 208.65447934 89.47914339 216.01123047 99.5234375 C217.24004457 101.2002009 218.49163258 102.85799653 219.74609375 104.515625 C226.75539705 113.9110741 232.61386281 123.93313168 238.2421875 134.203125 C238.60554199 134.86505859 238.96889648 135.52699219 239.34326172 136.20898438 C252.98905429 161.42332585 261.87732143 188.91589901 266.2421875 217.203125 C266.42023926 218.32992676 266.59829102 219.45672852 266.78173828 220.61767578 C268.43706036 232.22564037 268.64091171 243.74031639 268.6171875 255.453125 C268.61637177 256.97114716 268.61637177 256.97114716 268.61553955 258.51983643 C268.5747926 275.05429895 267.65105657 290.97377364 264.2421875 307.203125 C264.03319824 308.21842285 263.82420898 309.2337207 263.60888672 310.27978516 C255.69699941 347.51603084 239.52724752 382.14371967 216.2421875 412.203125 C215.55640625 413.10160156 214.870625 414.00007813 214.1640625 414.92578125 C208.89411275 421.68459892 203.15064076 428.00249548 197.2421875 434.203125 C196.38463867 435.10369629 196.38463867 435.10369629 195.50976562 436.02246094 C187.51373469 444.35847382 179.30095322 452.00197108 170.01904297 458.88378906 C168.18739803 460.24380682 166.37278267 461.62461874 164.55859375 463.0078125 C156.13125417 469.3761623 147.43477235 475.00782286 138.2421875 480.203125 C137.61183594 480.56615723 136.98148437 480.92918945 136.33203125 481.30322266 C110.30186995 496.20483267 80.88340025 505.84926 51.2421875 510.203125 C50.03755859 510.38045166 48.83292969 510.55777832 47.59179688 510.74047852 C35.93471132 512.33942293 24.37018864 512.56264807 12.6171875 512.515625 C11.64630188 512.51346985 10.67541626 512.5113147 9.67510986 512.50909424 C-4.66253215 512.4580454 -18.66487984 512.0669983 -32.7578125 509.203125 C-34.2730249 508.90510986 -34.2730249 508.90510986 -35.81884766 508.60107422 C-79.47835069 499.81653216 -119.93715207 481.38490696 -153.7578125 452.203125 C-154.89283203 451.23439453 -154.89283203 451.23439453 -156.05078125 450.24609375 C-168.20071951 439.60217799 -180.01716777 428.11175512 -189.7578125 415.203125 C-190.37052002 414.41301025 -190.37052002 414.41301025 -190.99560547 413.60693359 C-202.81683877 398.35076891 -212.65672232 381.70920661 -220.7578125 364.203125 C-221.11439941 363.44547852 -221.47098633 362.68783203 -221.83837891 361.90722656 C-237.33126076 328.69188471 -244.20921279 293.54116254 -244.0703125 257.078125 C-244.06848969 256.08489227 -244.06666687 255.09165955 -244.06478882 254.06832886 C-244.02006561 239.59738337 -243.65611465 225.42786967 -240.7578125 211.203125 C-240.57557129 210.2867627 -240.39333008 209.37040039 -240.20556641 208.42626953 C-238.89391473 201.97320627 -237.39174002 195.58167868 -235.7578125 189.203125 C-235.56993164 188.45901367 -235.38205078 187.71490234 -235.18847656 186.94824219 C-230.44653971 168.52991703 -222.6964126 150.94793029 -213.7578125 134.203125 C-213.41814453 133.55714355 -213.07847656 132.91116211 -212.72851562 132.24560547 C-204.72622329 117.10905345 -194.93851629 103.16445939 -183.7578125 90.203125 C-183.12359375 89.45804687 -182.489375 88.71296875 -181.8359375 87.9453125 C-170.02479735 74.44032667 -157.27421022 61.76893757 -142.7578125 51.203125 C-141.60786419 50.34663434 -140.45812661 49.48986067 -139.30859375 48.6328125 C-131.11691724 42.5921836 -122.60136172 37.23307429 -113.7578125 32.203125 C-113.12601074 31.83864258 -112.49420898 31.47416016 -111.84326172 31.09863281 C-78.54410582 12.03930286 -38.4686043 0.20283155 0 0 Z " fill="#FEC107" transform="translate(243.7578125,-0.203125)"/>
<path d="M0 0 C2.83695371 3.39738735 5.16215581 6.80700554 7.328125 10.6640625 C7.95468994 11.77217285 8.58125488 12.8802832 9.22680664 14.02197266 C9.55584991 14.6081134 9.88489319 15.19425415 10.22390747 15.79815674 C11.99686689 18.95471317 13.78536336 22.10243224 15.57421875 25.25 C15.94175766 25.89707916 16.30929657 26.54415833 16.68797302 27.21084595 C20.399634 33.73005253 24.22143115 40.18116999 28.0625 46.625 C33.95451454 56.51860851 39.75624097 66.45944287 45.49633789 76.44189453 C49.63781311 83.64355968 53.80709 90.82816548 58 98 C62.82451738 106.25217815 67.61002949 114.52581141 72.375 122.8125 C78.49025928 133.44351878 84.71172476 144.00840333 90.98583984 154.54614258 C91.62730957 155.62404053 92.2687793 156.70193848 92.9296875 157.8125 C93.78409424 159.24529297 93.78409424 159.24529297 94.65576172 160.70703125 C96.81661578 164.3929632 97.30474515 167.04641016 97.8125 171.3125 C101.57405908 198.39019369 116.16248048 223.92410685 137.50390625 241.00390625 C139.95418841 242.76197387 142.44478169 244.39862646 145 246 C145.90105469 246.58394531 146.80210937 247.16789063 147.73046875 247.76953125 C164.33358407 258.05405207 182.4638825 262.59262424 201.9375 262.375 C203.25637207 262.36484863 204.57524414 262.35469727 205.93408203 262.34423828 C225.17529564 262.03700761 241.85045229 256.92859604 258.42578125 247.3203125 C261 246 261 246 264 246 C246.4453125 277.34765624 246.4453125 277.34765624 244.71948242 280.42944336 C243.56333584 282.49402601 242.40724959 284.55864246 241.2512207 286.62329102 C238.34726072 291.80953976 235.4422958 296.9952203 232.53515625 302.1796875 C226.47939914 312.98203312 220.44391126 323.79513013 214.4375 334.625 C209.31098433 343.86733592 204.1416024 353.08373588 198.92480469 362.27539062 C195.96744719 367.49383016 193.0367682 372.72606507 190.13671875 377.9765625 C189.64324448 378.86906708 189.64324448 378.86906708 189.13980103 379.77960205 C187.54749729 382.66013238 185.95847339 385.5423319 184.375 388.42773438 C180.13859547 396.10095716 175.65081765 403.57294831 171 411 C162.33934009 410.5378058 154.12229679 409.44637718 145.6875 407.4375 C144.01034912 407.04050903 144.01034912 407.04050903 142.29931641 406.63549805 C103.37689569 397.13373543 67.37702551 379.21047974 37 353 C35.86498047 352.03126953 35.86498047 352.03126953 34.70703125 351.04296875 C22.55709299 340.39905299 10.74064473 328.90863012 1 316 C0.38729248 315.20988525 0.38729248 315.20988525 -0.23779297 314.40380859 C-12.05902627 299.14764391 -21.89890982 282.50608161 -30 265 C-30.35658691 264.24235352 -30.71317383 263.48470703 -31.08056641 262.70410156 C-46.57344826 229.48875971 -53.45140029 194.33803754 -53.3125 157.875 C-53.31067719 156.88176727 -53.30885437 155.88853455 -53.30697632 154.86520386 C-53.26225311 140.39425837 -52.89830215 126.22474467 -50 112 C-49.81775879 111.0836377 -49.63551758 110.16727539 -49.44775391 109.22314453 C-48.13610223 102.77008127 -46.63392752 96.37855368 -45 90 C-44.81211914 89.25588867 -44.62423828 88.51177734 -44.43066406 87.74511719 C-39.68872721 69.32679203 -31.9386001 51.74480529 -23 35 C-22.66033203 34.35401855 -22.32066406 33.70803711 -21.97070312 33.04248047 C-15.94608402 21.64675076 -9.17041361 9.17041361 0 0 Z " fill="#4CAF50" transform="translate(53,99)"/>
<path d="M0 0 C1.34657433 -0.01058945 1.34657433 -0.01058945 2.72035217 -0.02139282 C72.82325228 -0.44741227 138.09967747 20.94558177 189.2421875 70.203125 C190.2312207 71.15131104 190.2312207 71.15131104 191.24023438 72.11865234 C200.19557692 80.74949638 208.65447934 89.47914339 216.01123047 99.5234375 C217.24004457 101.2002009 218.49163258 102.85799653 219.74609375 104.515625 C228.66041147 116.46460408 235.97565708 129.46988635 242.6796875 142.765625 C242.98535645 143.37132324 243.29102539 143.97702148 243.60595703 144.60107422 C245.35409018 148.15441846 246.89055434 151.76019528 248.35180664 155.44116211 C248.70723038 156.3349205 249.06265411 157.22867889 249.42884827 158.14952087 C249.69725021 158.82721024 249.96565216 159.5048996 250.2421875 160.203125 C225.35452967 160.34359298 200.46693169 160.44924172 175.5789566 160.51399803 C164.02174081 160.54487132 152.46477204 160.58692663 140.90771484 160.65576172 C130.82879604 160.71576398 120.75005623 160.75432153 110.67096376 160.76765597 C105.33931078 160.77544455 100.00816965 160.79361219 94.67668152 160.83750534 C89.64672889 160.87857604 84.61749339 160.89072515 79.58738899 160.88177109 C77.7525294 160.88340645 75.91764296 160.8951345 74.08292961 160.91835785 C63.31815281 161.04780116 54.5999565 159.99899909 44.67803192 155.66868019 C26.58092244 147.94938051 6.02026346 148.82157394 -12.7578125 153.203125 C-13.93085938 153.46996094 -15.10390625 153.73679688 -16.3125 154.01171875 C-41.40003505 160.41160014 -64.23558281 177.35013012 -77.72705078 199.44921875 C-89.41875829 219.34339846 -93.64060614 239.30039466 -94.7578125 262.203125 C-97.50244254 258.90160811 -99.81404175 255.60018216 -101.9375 251.87109375 C-102.52926025 250.83774902 -103.12102051 249.8044043 -103.73071289 248.73974609 C-104.35840576 247.63453613 -104.98609863 246.52932617 -105.6328125 245.390625 C-106.63915656 243.63039778 -107.64710874 241.87109757 -108.65510559 240.11181641 C-109.34340325 238.91026965 -110.03121503 237.70844443 -110.71855164 236.50634766 C-114.05247543 230.67745103 -117.43141914 224.87522004 -120.8203125 219.078125 C-121.39313965 218.09739014 -121.9659668 217.11665527 -122.55615234 216.10620117 C-123.71186727 214.12764451 -124.86779098 212.14920978 -126.02392578 210.17089844 C-128.9379209 205.18321543 -131.84763818 200.19303795 -134.7578125 195.203125 C-135.92445893 193.2031132 -137.09112559 191.20311319 -138.2578125 189.203125 C-155.7578125 159.203125 -173.2578125 129.203125 -190.7578125 99.203125 C-177.78738774 80.97441994 -160.79407025 64.37748013 -142.7578125 51.203125 C-141.60676233 50.34506348 -140.45572073 49.48699049 -139.3046875 48.62890625 C-131.11350636 42.59075671 -122.59977145 37.23216979 -113.7578125 32.203125 C-113.12601074 31.83864258 -112.49420898 31.47416016 -111.84326172 31.09863281 C-78.54410582 12.03930286 -38.4686043 0.20283155 0 0 Z " fill="#F34336" transform="translate(243.7578125,-0.203125)"/>
<path d="M0 0 C1.155 0.31839844 2.31 0.63679687 3.5 0.96484375 C24.14193545 7.24625239 42.57304654 20.68703909 53.1875 39.82421875 C63.7822151 59.87729969 67.70742626 82.33885358 62.0390625 104.66796875 C57.27166477 119.95590206 50.3150395 132.49824368 39 144 C38.23945313 144.7734375 37.47890625 145.546875 36.6953125 146.34375 C18.63662472 163.63272322 -3.7339202 168.78276588 -28.078125 168.3046875 C-50.33027637 167.44883552 -70.1246678 155.7860574 -85.359375 140.05078125 C-92.92764565 131.59880697 -98.16563601 121.62752853 -102 111 C-102.46019531 109.7625 -102.46019531 109.7625 -102.9296875 108.5 C-109.69811866 89.41947026 -107.67504928 65.92808512 -99.2644043 47.76464844 C-88.85644251 26.45274979 -72.58380489 11.00852196 -50.609375 2.21875 C-34.93339626 -3.07443763 -16.06340484 -4.45946268 0 0 Z " fill="#2196F3" transform="translate(277,173)"/>
<path d="M0 0 C20.76099906 19.09297044 34.25652449 45.28469624 35.53369141 73.70166016 C36.35910552 102.42857253 26.69122915 130.53708825 7.27587891 151.90869141 C-10.3275262 170.53611731 -34.97973233 184.39086832 -61.01147461 185.65185547 C-64.75692481 185.69774317 -68.50185128 185.72596852 -72.24755859 185.74072266 C-74.17051758 185.77166016 -74.17051758 185.77166016 -76.13232422 185.80322266 C-104.58865213 185.91813968 -128.91732974 173.18245355 -148.87255859 153.61572266 C-169.34932992 132.92698977 -178.96977085 105.00924194 -178.86376953 76.29760742 C-178.43992937 47.06171865 -164.97611033 21.17468497 -144.50488281 0.95629883 C-139.91209109 -3.44529547 -135.10704769 -7.16811402 -129.68505859 -10.50927734 C-128.33734375 -11.38132813 -128.33734375 -11.38132813 -126.96240234 -12.27099609 C-87.130494 -36.98500652 -34.59191578 -30.98337052 0 0 Z M-135.89208984 22.24853516 C-152.8241955 41.25859259 -157.86635809 63.70909174 -156.90405273 88.52612305 C-155.36655129 109.33981323 -145.1674795 126.96698244 -130.68505859 141.49072266 C-129.62351562 142.58707031 -129.62351562 142.58707031 -128.54052734 143.70556641 C-113.64574015 158.0877223 -93.18222533 164.93494368 -72.81005859 164.74072266 C-71.74505127 164.73105469 -70.68004395 164.72138672 -69.58276367 164.71142578 C-45.97570658 164.34927104 -25.55726598 155.17644146 -8.93481445 138.27807617 C8.30652805 119.85522766 14.22441851 96.71912902 13.43798828 71.94897461 C12.34176965 50.04852744 1.99824885 31.38934849 -13.68505859 16.49072266 C-14.55904297 15.65798828 -15.43302734 14.82525391 -16.33349609 13.96728516 C-51.22810357 -16.73577787 -105.07392217 -10.56438596 -135.89208984 22.24853516 Z " fill="#F8F8F8" transform="translate(327.68505859375,176.50927734375)"/>
</svg>
