<?xml version="1.0" encoding="UTF-8"?>
<svg
  version="1.1"
  viewBox="0 0 512 512"
  xmlns="http://www.w3.org/2000/svg">
<path d="M0 0 C4.87902518 3.73369345 9.28181373 7.90650598 13.62451172 12.24316406 C14.49978516 13.10683594 15.37505859 13.97050781 16.27685547 14.86035156 C35.10434976 34.41309602 43.98544808 61.60082245 43.79248047 88.46191406 C43.59341481 91.75807098 43.12916243 94.98110189 42.62451172 98.24316406 C43.18734863 98.22745361 43.75018555 98.21174316 44.33007812 98.19555664 C69.17502848 97.5955716 91.77210563 102.41516301 110.3972168 120.06079102 C111.81843866 121.44255407 113.22188456 122.84252928 114.62451172 124.24316406 C115.36701172 124.9740625 116.10951172 125.70496094 116.87451172 126.45800781 C133.34394707 143.73161481 138.29959076 165.88594987 137.94091797 189.01269531 C137.17248016 210.30067314 127.38429541 229.23981959 112.62451172 244.24316406 C111.86396484 245.01660156 111.10341797 245.79003906 110.31982422 246.58691406 C89.85897323 266.17566321 64.33582783 269.42377427 37.20751953 269.35668945 C35.59000653 269.35640677 33.9724934 269.3565669 32.35498047 269.35713196 C28.00044659 269.35741677 23.64594072 269.35157149 19.29141331 269.344558 C14.72705289 269.3382715 10.16269171 269.3377165 5.59832764 269.33653259 C-3.0286085 269.33343481 -11.65553184 269.32524251 -20.28246236 269.3151831 C-30.11084693 269.30397355 -39.93923214 269.29849935 -49.76762152 269.29348767 C-69.97025248 269.28305847 -90.17286592 269.26473246 -110.37548828 269.24316406 C-110.37548828 280.46316406 -110.37548828 291.68316406 -110.37548828 303.24316406 C-105.59032715 303.22745361 -100.80516602 303.21174316 -95.875 303.19555664 C-80.08111496 303.14589146 -64.28722689 303.11257459 -48.49328423 303.08772755 C-38.91556696 303.07225935 -29.33792368 303.05117072 -19.76025391 303.0168457 C-11.41225514 302.98694192 -3.06430996 302.96758871 5.28374088 302.96089858 C9.70388794 302.95698798 14.12388171 302.94779851 18.54397964 302.92597389 C22.70538884 302.90559328 26.86658176 302.89933344 31.02803612 302.90384102 C32.55423216 302.90301652 34.08043552 302.89706017 35.60658836 302.88554764 C37.69356631 302.87057835 39.77973223 302.87422592 41.86672974 302.88240051 C43.03371965 302.87963513 44.20070957 302.87686975 45.40306282 302.87402058 C51.24795347 303.54378234 55.82758151 306.35745316 59.45977783 310.8977356 C62.0384856 316.09048792 61.34381596 322.04385949 61.21044922 327.70800781 C61.19924309 329.11046017 61.19070959 330.51293619 61.1847229 331.91542053 C61.16193464 335.58702715 61.10310335 339.25718439 61.03649902 342.92822266 C60.97485679 346.68209226 60.94766151 350.43619865 60.91748047 354.19042969 C60.85334558 361.54199825 60.75109353 368.89237723 60.62451172 376.24316406 C61.75034668 376.43579834 61.75034668 376.43579834 62.89892578 376.63232422 C63.88602539 376.80554199 64.873125 376.97875977 65.89013672 377.15722656 C66.86756836 377.32689941 67.845 377.49657227 68.85205078 377.67138672 C81.95456343 380.37357804 93.30488548 389.8574747 100.56201172 400.74316406 C109.14284165 415.35931456 111.55571983 430.06880699 107.71826172 446.55566406 C103.36079016 461.24656817 94.64960369 472.99215222 81.43310547 480.80957031 C67.65340784 487.84315728 52.11406865 489.58356826 37.12451172 485.61816406 C23.08671025 480.97663293 10.74772953 471.32958458 3.62451172 458.24316406 C-3.32963419 441.73384106 -4.72650389 426.16672508 1.77294922 409.25488281 C8.22273621 394.88266959 19.75170832 384.47202815 34.43701172 378.86816406 C38.25769181 377.53872924 41.53725848 376.92437294 45.62451172 376.24316406 C45.29451172 357.43316406 44.96451172 338.62316406 44.62451172 319.24316406 C-32.10048828 318.74816406 -32.10048828 318.74816406 -110.37548828 318.24316406 C-110.37548828 337.38316406 -110.37548828 356.52316406 -110.37548828 376.24316406 C-106.41548828 377.23316406 -102.45548828 378.22316406 -98.37548828 379.24316406 C-83.37907571 385.53795452 -72.67897271 396.33454365 -65.93798828 411.05566406 C-60.75979213 425.8027849 -61.31269527 442.18955641 -67.83251953 456.39550781 C-75.56726844 470.67052541 -86.48946745 480.01708036 -101.66455078 485.44628906 C-117.27885414 490.03608429 -133.27426467 487.47478073 -147.45361328 480.03613281 C-160.37310988 472.1082599 -169.63710952 459.69007515 -173.68798828 445.11816406 C-176.6140345 429.44693578 -174.32449067 413.53993885 -165.37548828 400.24316406 C-154.72785932 386.56767828 -143.32567485 379.63320138 -126.37548828 376.24316406 C-126.37548828 357.10316406 -126.37548828 337.96316406 -126.37548828 318.24316406 C-177.85548828 318.24316406 -229.33548828 318.24316406 -282.37548828 318.24316406 C-282.04548828 337.38316406 -281.71548828 356.52316406 -281.37548828 376.24316406 C-277.08548828 377.56316406 -272.79548828 378.88316406 -268.37548828 380.24316406 C-253.19155684 387.75521436 -243.72975287 397.9438617 -237.40673828 413.64941406 C-233.05767155 426.69661427 -234.17733338 441.6809564 -239.37548828 454.24316406 C-239.66423828 454.97535156 -239.95298828 455.70753906 -240.25048828 456.46191406 C-246.15103586 469.73814612 -257.62214292 478.78899472 -270.78173828 484.27832031 C-285.93903961 489.91665379 -301.95028561 488.23691148 -316.43798828 481.61816406 C-329.63750282 474.69354827 -339.31055023 463.18597106 -344.37548828 449.24316406 C-348.25580336 436.1181685 -347.76936025 421.85704647 -342.37548828 409.24316406 C-341.97458984 408.30214844 -341.57369141 407.36113281 -341.16064453 406.39160156 C-334.32038178 392.3145391 -322.06991509 383.72796671 -307.89501953 378.00488281 C-304.75503814 377.05558611 -301.62208084 376.68257214 -298.37548828 376.24316406 C-298.38437073 375.46721893 -298.39325317 374.6912738 -298.40240479 373.89181519 C-298.48268493 366.56507957 -298.54352034 359.2385584 -298.58273697 351.91149712 C-298.60357683 348.14490815 -298.63182736 344.37868382 -298.67724609 340.61230469 C-298.72083426 336.97479819 -298.74465247 333.33764154 -298.75499725 329.69989395 C-298.76236554 328.31483582 -298.77675433 326.92979599 -298.79840851 325.54488754 C-298.96277527 314.59320131 -298.96277527 314.59320131 -296.78857422 309.59521484 C-289.22680068 302.2247043 -281.79589176 302.68955935 -271.80151367 302.7890625 C-270.21429473 302.79019177 -268.62707369 302.78955557 -267.03985596 302.78729248 C-262.74476846 302.78614749 -258.45013018 302.80962173 -254.15514684 302.83758831 C-249.66151425 302.86263795 -245.16787072 302.86494677 -240.67417908 302.86968994 C-232.17093941 302.88210926 -223.6679061 302.91491672 -215.16475719 302.9550879 C-205.48161601 302.99983812 -195.79846483 303.02180082 -186.11524594 303.04186964 C-166.20185272 303.08365034 -146.28874228 303.15698963 -126.37548828 303.24316406 C-126.37548828 292.02316406 -126.37548828 280.80316406 -126.37548828 269.24316406 C-131.24927246 269.2536377 -136.12305664 269.26411133 -141.14453125 269.27490234 C-157.29357974 269.30812363 -173.44262962 269.33026842 -189.59170341 269.34678841 C-199.37755968 269.35706677 -209.16338339 269.3710607 -218.94921875 269.39404297 C-227.48630965 269.41408284 -236.02337696 269.42690544 -244.56049073 269.43134105 C-249.07376221 269.43393063 -253.58696622 269.43994406 -258.10021591 269.45462418 C-262.36340639 269.46837628 -266.62650274 269.47235181 -270.88971329 269.46937943 C-272.43988815 269.46992182 -273.99006674 269.47379288 -275.54022217 269.48157501 C-289.4269531 269.5477664 -304.37842293 269.45452704 -317.56298828 264.68066406 C-318.29799561 264.42236816 -319.03300293 264.16407227 -319.7902832 263.89794922 C-341.98330984 255.68291705 -357.96886047 239.48067307 -368.09423828 218.30175781 C-376.30649996 198.69748679 -378.05993973 174.31771421 -370.37548828 154.24316406 C-361.5057259 132.92910457 -346.65569805 114.63843891 -325.14892578 105.35253906 C-321.59054546 103.88754279 -317.99920557 102.53734881 -314.37548828 101.24316406 C-314.31079346 100.66574463 -314.24609863 100.0883252 -314.17944336 99.4934082 C-311.10430475 72.84132703 -304.14383207 51.75123751 -286.37548828 31.24316406 C-285.39322266 30.10814453 -285.39322266 30.10814453 -284.39111328 28.95019531 C-265.68361084 8.92357411 -237.2474322 -1.6723762 -210.32470703 -3.00683594 C-186.34003153 -3.40533522 -163.68769455 4.08087947 -144.37548828 18.24316406 C-140.96749958 16.81136137 -139.23524906 15.10834454 -136.93798828 12.24316406 C-103.52145668 -26.08756336 -40.04742406 -29.12755038 0 0 Z " fill="#D8F1F1" transform="translate(374.37548828125,21.7568359375)"/>
<path d="M0 0 C4.87902518 3.73369345 9.28181373 7.90650598 13.62451172 12.24316406 C14.49978516 13.10683594 15.37505859 13.97050781 16.27685547 14.86035156 C35.10434976 34.41309602 43.98544808 61.60082245 43.79248047 88.46191406 C43.59341481 91.75807098 43.12916243 94.98110189 42.62451172 98.24316406 C43.18734863 98.22745361 43.75018555 98.21174316 44.33007812 98.19555664 C69.17502848 97.5955716 91.77210563 102.41516301 110.3972168 120.06079102 C111.81843866 121.44255407 113.22188456 122.84252928 114.62451172 124.24316406 C115.36701172 124.9740625 116.10951172 125.70496094 116.87451172 126.45800781 C133.34394707 143.73161481 138.29959076 165.88594987 137.94091797 189.01269531 C137.17248016 210.30067314 127.38429541 229.23981959 112.62451172 244.24316406 C111.86396484 245.01660156 111.10341797 245.79003906 110.31982422 246.58691406 C89.85897323 266.17566321 64.33582783 269.42377427 37.20751953 269.35668945 C35.59000653 269.35640677 33.9724934 269.3565669 32.35498047 269.35713196 C28.00044659 269.35741677 23.64594072 269.35157149 19.29141331 269.344558 C14.72705289 269.3382715 10.16269171 269.3377165 5.59832764 269.33653259 C-3.0286085 269.33343481 -11.65553184 269.32524251 -20.28246236 269.3151831 C-30.11084693 269.30397355 -39.93923214 269.29849935 -49.76762152 269.29348767 C-69.97025248 269.28305847 -90.17286592 269.26473246 -110.37548828 269.24316406 C-110.37548828 280.46316406 -110.37548828 291.68316406 -110.37548828 303.24316406 C-105.59032715 303.22745361 -100.80516602 303.21174316 -95.875 303.19555664 C-80.08111496 303.14589146 -64.28722689 303.11257459 -48.49328423 303.08772755 C-38.91556696 303.07225935 -29.33792368 303.05117072 -19.76025391 303.0168457 C-11.41225514 302.98694192 -3.06430996 302.96758871 5.28374088 302.96089858 C9.70388794 302.95698798 14.12388171 302.94779851 18.54397964 302.92597389 C22.70538884 302.90559328 26.86658176 302.89933344 31.02803612 302.90384102 C32.55423216 302.90301652 34.08043552 302.89706017 35.60658836 302.88554764 C37.69356631 302.87057835 39.77973223 302.87422592 41.86672974 302.88240051 C43.03371965 302.87963513 44.20070957 302.87686975 45.40306282 302.87402058 C51.24795347 303.54378234 55.82758151 306.35745316 59.45977783 310.8977356 C62.0384856 316.09048792 61.34381596 322.04385949 61.21044922 327.70800781 C61.19924309 329.11046017 61.19070959 330.51293619 61.1847229 331.91542053 C61.16193464 335.58702715 61.10310335 339.25718439 61.03649902 342.92822266 C60.97485679 346.68209226 60.94766151 350.43619865 60.91748047 354.19042969 C60.85334558 361.54199825 60.75109353 368.89237723 60.62451172 376.24316406 C61.75034668 376.43579834 61.75034668 376.43579834 62.89892578 376.63232422 C63.88602539 376.80554199 64.873125 376.97875977 65.89013672 377.15722656 C66.86756836 377.32689941 67.845 377.49657227 68.85205078 377.67138672 C81.95456343 380.37357804 93.30488548 389.8574747 100.56201172 400.74316406 C109.14284165 415.35931456 111.55571983 430.06880699 107.71826172 446.55566406 C103.36079016 461.24656817 94.64960369 472.99215222 81.43310547 480.80957031 C67.65340784 487.84315728 52.11406865 489.58356826 37.12451172 485.61816406 C23.08671025 480.97663293 10.74772953 471.32958458 3.62451172 458.24316406 C-3.32963419 441.73384106 -4.72650389 426.16672508 1.77294922 409.25488281 C8.22273621 394.88266959 19.75170832 384.47202815 34.43701172 378.86816406 C38.25769181 377.53872924 41.53725848 376.92437294 45.62451172 376.24316406 C45.29451172 357.43316406 44.96451172 338.62316406 44.62451172 319.24316406 C-32.10048828 318.74816406 -32.10048828 318.74816406 -110.37548828 318.24316406 C-110.37548828 337.38316406 -110.37548828 356.52316406 -110.37548828 376.24316406 C-106.41548828 377.23316406 -102.45548828 378.22316406 -98.37548828 379.24316406 C-83.37907571 385.53795452 -72.67897271 396.33454365 -65.93798828 411.05566406 C-60.75979213 425.8027849 -61.31269527 442.18955641 -67.83251953 456.39550781 C-75.56726844 470.67052541 -86.48946745 480.01708036 -101.66455078 485.44628906 C-117.27885414 490.03608429 -133.27426467 487.47478073 -147.45361328 480.03613281 C-160.37310988 472.1082599 -169.63710952 459.69007515 -173.68798828 445.11816406 C-176.6140345 429.44693578 -174.32449067 413.53993885 -165.37548828 400.24316406 C-154.72785932 386.56767828 -143.32567485 379.63320138 -126.37548828 376.24316406 C-126.37548828 357.10316406 -126.37548828 337.96316406 -126.37548828 318.24316406 C-177.85548828 318.24316406 -229.33548828 318.24316406 -282.37548828 318.24316406 C-282.04548828 337.38316406 -281.71548828 356.52316406 -281.37548828 376.24316406 C-277.08548828 377.56316406 -272.79548828 378.88316406 -268.37548828 380.24316406 C-253.19155684 387.75521436 -243.72975287 397.9438617 -237.40673828 413.64941406 C-233.05767155 426.69661427 -234.17733338 441.6809564 -239.37548828 454.24316406 C-239.66423828 454.97535156 -239.95298828 455.70753906 -240.25048828 456.46191406 C-246.15103586 469.73814612 -257.62214292 478.78899472 -270.78173828 484.27832031 C-285.93903961 489.91665379 -301.95028561 488.23691148 -316.43798828 481.61816406 C-329.63750282 474.69354827 -339.31055023 463.18597106 -344.37548828 449.24316406 C-348.25580336 436.1181685 -347.76936025 421.85704647 -342.37548828 409.24316406 C-341.97458984 408.30214844 -341.57369141 407.36113281 -341.16064453 406.39160156 C-334.32038178 392.3145391 -322.06991509 383.72796671 -307.89501953 378.00488281 C-304.75503814 377.05558611 -301.62208084 376.68257214 -298.37548828 376.24316406 C-298.38437073 375.46721893 -298.39325317 374.6912738 -298.40240479 373.89181519 C-298.48268493 366.56507957 -298.54352034 359.2385584 -298.58273697 351.91149712 C-298.60357683 348.14490815 -298.63182736 344.37868382 -298.67724609 340.61230469 C-298.72083426 336.97479819 -298.74465247 333.33764154 -298.75499725 329.69989395 C-298.76236554 328.31483582 -298.77675433 326.92979599 -298.79840851 325.54488754 C-298.96277527 314.59320131 -298.96277527 314.59320131 -296.78857422 309.59521484 C-289.22680068 302.2247043 -281.79589176 302.68955935 -271.80151367 302.7890625 C-270.21429473 302.79019177 -268.62707369 302.78955557 -267.03985596 302.78729248 C-262.74476846 302.78614749 -258.45013018 302.80962173 -254.15514684 302.83758831 C-249.66151425 302.86263795 -245.16787072 302.86494677 -240.67417908 302.86968994 C-232.17093941 302.88210926 -223.6679061 302.91491672 -215.16475719 302.9550879 C-205.48161601 302.99983812 -195.79846483 303.02180082 -186.11524594 303.04186964 C-166.20185272 303.08365034 -146.28874228 303.15698963 -126.37548828 303.24316406 C-126.37548828 292.02316406 -126.37548828 280.80316406 -126.37548828 269.24316406 C-131.24927246 269.2536377 -136.12305664 269.26411133 -141.14453125 269.27490234 C-157.29357974 269.30812363 -173.44262962 269.33026842 -189.59170341 269.34678841 C-199.37755968 269.35706677 -209.16338339 269.3710607 -218.94921875 269.39404297 C-227.48630965 269.41408284 -236.02337696 269.42690544 -244.56049073 269.43134105 C-249.07376221 269.43393063 -253.58696622 269.43994406 -258.10021591 269.45462418 C-262.36340639 269.46837628 -266.62650274 269.47235181 -270.88971329 269.46937943 C-272.43988815 269.46992182 -273.99006674 269.47379288 -275.54022217 269.48157501 C-289.4269531 269.5477664 -304.37842293 269.45452704 -317.56298828 264.68066406 C-318.29799561 264.42236816 -319.03300293 264.16407227 -319.7902832 263.89794922 C-341.98330984 255.68291705 -357.96886047 239.48067307 -368.09423828 218.30175781 C-376.30649996 198.69748679 -378.05993973 174.31771421 -370.37548828 154.24316406 C-361.5057259 132.92910457 -346.65569805 114.63843891 -325.14892578 105.35253906 C-321.59054546 103.88754279 -317.99920557 102.53734881 -314.37548828 101.24316406 C-314.31079346 100.66574463 -314.24609863 100.0883252 -314.17944336 99.4934082 C-311.10430475 72.84132703 -304.14383207 51.75123751 -286.37548828 31.24316406 C-285.39322266 30.10814453 -285.39322266 30.10814453 -284.39111328 28.95019531 C-265.68361084 8.92357411 -237.2474322 -1.6723762 -210.32470703 -3.00683594 C-186.34003153 -3.40533522 -163.68769455 4.08087947 -144.37548828 18.24316406 C-140.96749958 16.81136137 -139.23524906 15.10834454 -136.93798828 12.24316406 C-103.52145668 -26.08756336 -40.04742406 -29.12755038 0 0 Z M-129.71972656 26.74951172 C-132.35834209 29.84633581 -134.87289637 33.03635442 -137.37548828 36.24316406 C-138.37548828 37.24316406 -138.37548828 37.24316406 -141.31298828 37.80566406 C-146.23027301 37.73598594 -148.94322803 34.59473913 -152.51611328 31.53613281 C-167.78390927 19.29269532 -187.61907124 12.61736999 -207.06298828 12.80566406 C-208.20002197 12.8154126 -209.33705566 12.82516113 -210.50854492 12.83520508 C-236.46410971 13.37782372 -258.77771871 24.66014784 -276.77001953 43.22363281 C-291.63914741 60.45577052 -298.1566894 81.40554457 -298.89306641 103.87402344 C-298.92722656 104.64939453 -298.96138672 105.42476563 -298.99658203 106.22363281 C-299.03416626 107.27393677 -299.03416626 107.27393677 -299.07250977 108.34545898 C-299.37548828 110.24316406 -299.37548828 110.24316406 -301.37548828 113.24316406 C-303.86143871 114.12660099 -306.27417028 114.86825532 -308.81298828 115.55566406 C-326.89524172 120.87361788 -341.58203076 132.18252649 -350.96533203 148.62207031 C-360.60254204 166.53500083 -363.04683491 184.54149808 -357.37548828 204.24316406 C-351.26936997 222.33785167 -339.36550274 237.31742407 -322.37548828 246.24316406 C-309.39116909 252.63032916 -296.74211239 254.69815969 -282.37347412 254.63084412 C-280.90181234 254.63502662 -279.43015378 254.64050912 -277.9585011 254.64716393 C-273.95026579 254.66151755 -269.94223785 254.65740568 -265.93399167 254.64999712 C-261.59709362 254.64524248 -257.26023897 254.65779557 -252.9233551 254.66801453 C-244.44038154 254.68516389 -235.95748218 254.68605047 -227.4744958 254.68080162 C-220.5746771 254.67675098 -213.67488023 254.67821408 -206.77506256 254.68354988 C-205.79092826 254.6842983 -204.80679395 254.68504673 -203.7928374 254.68581783 C-201.79318577 254.6873494 -199.79353414 254.68888775 -197.79388252 254.69043279 C-179.06332297 254.70414421 -160.33280525 254.69873001 -141.60224667 254.68724758 C-124.49438732 254.6773197 -107.3866362 254.69025061 -90.27879354 254.71418177 C-72.68286556 254.73860888 -55.08698791 254.74817159 -37.49104333 254.74152905 C-27.62416197 254.73804445 -17.75736377 254.74021841 -7.8904953 254.75778008 C0.51014303 254.77254741 8.91063965 254.77307869 17.31127533 254.75570916 C21.59092358 254.74723338 25.87031918 254.74496501 30.14995384 254.76036072 C58.04363209 254.85334565 81.67543421 253.43046961 102.95654297 233.00488281 C117.34895804 218.02402147 123.23565855 199.57425109 122.90185547 179.05566406 C122.12466545 159.75351203 112.68443898 143.60276346 99.06591797 130.37597656 C83.01527721 116.3541368 63.70158327 112.78999115 43.02954102 112.80737305 C41.05979649 112.8038094 39.09014388 112.77578656 37.12060547 112.74707031 C35.9674585 112.74521729 34.81431152 112.74336426 33.6262207 112.74145508 C29.98661086 112.13727096 28.77265537 111.2061322 26.62451172 108.24316406 C26.66100171 105.42735304 26.88795936 103.10597434 27.37451172 100.36816406 C27.59776999 98.83123646 27.81514764 97.29344399 28.02685547 95.75488281 C28.13368652 94.99095215 28.24051758 94.22702148 28.35058594 93.43994141 C31.01218437 72.09496572 24.17914814 48.75249207 11.04638672 31.81738281 C-4.26703432 12.90717664 -25.03554358 -0.25726206 -49.37548828 -3.75683594 C-80.79714508 -6.01754746 -108.29847997 2.7449546 -129.71972656 26.74951172 Z " fill="#4D4D4D" transform="translate(374.37548828125,21.7568359375)"/>
<path d="M0 0 C3.6875 0.3125 3.6875 0.3125 6 1.625 C7.79157401 4.4782475 8.08341904 6.14905111 8.5625 9.4375 C9.64005425 16.38586709 12.21696971 22.45866129 17.75390625 27.01171875 C22.69056745 30.18463728 26.64538829 31.43703214 32.54722881 31.44392776 C33.77790701 31.44776891 35.0085852 31.45161005 36.27655667 31.4555676 C37.64959639 31.45478731 39.02263606 31.45390852 40.39567566 31.45294189 C41.84861862 31.45552483 43.30156086 31.45853779 44.75450212 31.4619453 C48.75703827 31.47002706 52.75955651 31.47180552 56.76209986 31.47254276 C61.07512878 31.4743913 65.38814835 31.48193767 69.70117188 31.48867798 C79.13717958 31.50227063 88.57318304 31.50828759 98.0091989 31.51268864 C103.89975751 31.51544973 109.79031447 31.51968687 115.68087196 31.52419281 C131.98586391 31.53638716 148.29085454 31.54668584 164.59585094 31.5500679 C166.16177431 31.55039725 166.16177431 31.55039725 167.7593325 31.55073325 C168.80580116 31.55095153 169.85226983 31.55116981 170.93044966 31.5513947 C173.05104522 31.55183817 175.17164077 31.55228473 177.29223633 31.55273438 C178.34412835 31.5529558 179.39602038 31.55317723 180.47978792 31.55340537 C197.52320944 31.55735315 214.56658819 31.57480581 231.60999318 31.5980939 C249.10272046 31.62180322 266.59542627 31.63426958 284.08816987 31.63543582 C293.91186845 31.63635287 303.73551132 31.64211255 313.55919456 31.66025543 C321.92480515 31.67565082 330.29034282 31.68078023 338.65596487 31.67251733 C342.92426838 31.66860871 347.19242505 31.6695507 351.46071053 31.68357468 C355.36980537 31.69630099 359.27864284 31.69512732 363.18773726 31.68298396 C364.60029986 31.68102475 366.0128806 31.68411582 367.42541768 31.69282833 C376.56072646 31.74559756 383.26111088 31.37692324 390.9375 26.0625 C396.95815867 20.04184133 398.32739402 14.42888907 399.78125 6.203125 C400.6875 3.3125 400.6875 3.3125 402.55859375 1.4140625 C405.84758193 -0.28776258 408.18500914 0.42095687 411.6875 1.3125 C413.40234375 2.52734375 413.40234375 2.52734375 414.6875 4.3125 C415.6608954 14.03124467 412.12194819 23.50049842 406.5546875 31.30078125 C399.15570061 40.09153898 390.07272741 45.41984649 378.6875 47.3125 C373.95889789 47.60178072 369.23417225 47.58294541 364.49867249 47.56646729 C363.05450055 47.5687738 361.61032979 47.5719516 360.16616148 47.57592177 C356.21102883 47.58425236 352.25599299 47.5801524 348.30086005 47.57394934 C344.0301617 47.5694187 339.75947985 47.57641167 335.48878479 47.58190918 C327.12746831 47.59079851 318.76618775 47.58888315 310.40486986 47.5830839 C303.60831903 47.57856531 296.81177826 47.57795536 290.01522636 47.58013153 C288.56368535 47.58059123 288.56368535 47.58059123 287.08282028 47.58106022 C285.11689413 47.58169967 283.15096798 47.5823481 281.18504184 47.5830054 C262.75376525 47.58870742 244.32250855 47.58215295 225.89123522 47.57140467 C210.08185844 47.56247069 194.27251102 47.56402018 178.46313477 47.57324219 C160.09890762 47.5839495 141.73469791 47.58815662 123.37046808 47.58201766 C121.41150852 47.58138057 119.45254896 47.58075183 117.4935894 47.58013153 C116.52977712 47.57982298 115.56596484 47.57951443 114.57294612 47.57919653 C107.78633362 47.57747087 100.9997322 47.58038194 94.21312141 47.58509064 C85.93989348 47.59070465 77.66670349 47.58917211 69.39347989 47.57852915 C65.17365784 47.57327925 60.95389901 47.57120407 56.73407745 47.57782745 C52.86834805 47.58380319 49.00274026 47.58048505 45.13702183 47.56987235 C43.74141815 47.56764519 42.34580411 47.5687592 40.95020712 47.57362393 C26.67999183 47.61953613 15.06250684 45.72580394 4.375 35.625 C-2.54091616 28.32908844 -6.75528269 19.77622075 -7.625 9.6875 C-7.13164993 4.35931924 -5.47463826 0.51647531 0 0 Z " fill="#505050" transform="translate(52.3125,197.6875)"/>
<path d="M0 0 C1.2684375 0.9590625 1.2684375 0.9590625 2.5625 1.9375 C3.76712891 2.82695312 3.76712891 2.82695312 4.99609375 3.734375 C12.63240187 10.28974453 17.03462569 19.98853451 17.91015625 29.85546875 C18.51578961 42.60829479 15.39136365 53.14617906 6.81640625 62.9296875 C2.48975358 67.53466286 -1.57000023 70.61961364 -7.4375 72.9375 C-8.45070313 73.38416016 -8.45070313 73.38416016 -9.484375 73.83984375 C-19.67590023 77.87553896 -31.32665169 76.74144153 -41.4375 72.9375 C-44.66258333 71.19037595 -47.55559355 69.19987954 -50.4375 66.9375 C-51.27152344 66.31875 -52.10554688 65.7 -52.96484375 65.0625 C-60.94255194 58.2064601 -64.63683497 48.28360161 -65.75 38.0703125 C-66.24793852 26.33763616 -63.02057752 15.54619725 -55.69921875 6.34375 C-40.4990985 -9.82770782 -18.36730307 -11.64190169 0 0 Z " fill="#6F2AE0" transform="translate(452.4375,419.0625)"/>
<path d="M0 0 C2.31190463 1.70371386 4.4102567 3.49246992 6.50390625 5.45703125 C7.14199219 6.05386719 7.78007812 6.65070313 8.4375 7.265625 C16.24241931 15.33910067 19.92521658 26.23375678 19.77734375 37.32421875 C18.76542737 48.91788933 13.68296846 58.87878712 5.19140625 66.76953125 C-4.4680841 74.41482294 -15.33010689 77.48889334 -27.49609375 76.45703125 C-39.34823691 74.612992 -48.70099751 68.66779055 -55.83984375 59.0859375 C-61.98895043 49.32568091 -63.72205834 38.83016732 -62.49609375 27.45703125 C-59.80589045 15.62013671 -52.53410867 6.55429304 -42.6328125 -0.29296875 C-29.44765704 -8.00640521 -13.09231722 -8.09305994 0 0 Z " fill="#7DD43F" transform="translate(277.49609375,418.54296875)"/>
<path d="M0 0 C7.72397956 6.52751998 11.81546795 14.1534351 14.9921875 23.68359375 C15.93177194 37.97759968 14.22656817 48.50874901 5.265625 60.16796875 C-2.26069775 68.49606472 -11.83481556 72.92990061 -22.95703125 73.84375 C-35.30451353 74.35361013 -45.92270949 70.01866695 -55.07421875 61.8359375 C-64.01619117 52.43045031 -66.51432191 41.33840642 -66.28515625 28.80078125 C-65.80346611 18.34738618 -60.38265075 8.48432653 -52.7578125 1.43359375 C-37.14520222 -10.97377866 -16.29958075 -11.97093751 0 0 Z " fill="#FBFBFB" transform="translate(109.0078125,421.31640625)"/>
<path d="M0 0 C5.25448398 2.74666208 7.42927705 7.88043259 10 13 C10.66 13 11.32 13 12 13 C13.59888681 10.56512381 14.96129981 8.03094039 16.3671875 5.48046875 C18.50039107 2.23983654 20.33217672 0.35803004 24.18359375 -0.46875 C28.28573209 -0.5256254 30.4892172 -0.31272416 34.0625 1.875 C36.83903344 6.35327974 36.89220637 9.84218527 36 15 C34.30729176 19.07379496 32.21074074 22.82064541 29.92089844 26.58813477 C28.87432703 28.31360953 27.86512296 30.0571195 26.859375 31.80664062 C19.25258333 44.67106771 19.25258333 44.67106771 12.875 46.6640625 C12.25625 46.65117187 11.6375 46.63828125 11 46.625 C10.38125 46.63789063 9.7625 46.65078125 9.125 46.6640625 C0.8051008 44.064094 -2.50235523 35.4079431 -6.3125 28.3125 C-7.26092773 26.58290039 -7.26092773 26.58290039 -8.22851562 24.81835938 C-15.07170985 12.31284367 -15.07170985 12.31284367 -14 5 C-10.46082737 -0.59417609 -6.14960135 -1.16707763 0 0 Z " fill="#FFFFFF" transform="translate(417,432)"/>
<path d="M0 0 C3.6875 0.3125 3.6875 0.3125 5.90234375 1.78515625 C8.51383688 5.48239051 8.12749997 8.65596233 7.9375 13.0625 C7.91945313 13.85527344 7.90140625 14.64804687 7.8828125 15.46484375 C7.83583082 17.41458348 7.76409044 19.36369878 7.6875 21.3125 C9.22470703 21.26029297 9.22470703 21.26029297 10.79296875 21.20703125 C12.15362936 21.17887965 13.5143078 21.15158096 14.875 21.125 C15.54853516 21.09986328 16.22207031 21.07472656 16.91601562 21.04882812 C21.40165591 20.98318461 24.09146893 21.62394193 27.6875 24.3125 C28.6875 25.3125 28.6875 25.3125 29.0625 28.625 C28.6875 32.3125 28.6875 32.3125 26.68359375 34.52734375 C22.73921662 36.8775137 19.86186294 36.7710048 15.375 36.5625 C14.63443359 36.54445313 13.89386719 36.52640625 13.13085938 36.5078125 C11.3158429 36.46097337 9.50149834 36.38923789 7.6875 36.3125 C7.71070313 37.42109375 7.73390625 38.5296875 7.7578125 39.671875 C7.77657577 41.13540992 7.79477537 42.59895214 7.8125 44.0625 C7.82925781 44.79210937 7.84601563 45.52171875 7.86328125 46.2734375 C7.92636395 53.21253453 7.92636395 53.21253453 5.6875 56.3125 C2.63766004 57.83741998 0.0451631 57.54812548 -3.3125 57.3125 C-5.38973362 55.92767759 -6.07834261 54.99720849 -6.87890625 52.65625 C-7.47452571 49.43668536 -7.40528947 46.3337627 -7.375 43.0625 C-7.36597656 41.79921875 -7.35695312 40.5359375 -7.34765625 39.234375 C-7.33605469 38.27015625 -7.32445312 37.3059375 -7.3125 36.3125 C-8.84970703 36.36470703 -8.84970703 36.36470703 -10.41796875 36.41796875 C-11.77862936 36.44612035 -13.1393078 36.47341904 -14.5 36.5 C-15.51030273 36.53770508 -15.51030273 36.53770508 -16.54101562 36.57617188 C-20.99123595 36.64129705 -23.8414966 36.16251409 -27.3125 33.3125 C-28.40052535 29.57241287 -28.90682564 27.44171872 -27.0625 23.9375 C-23.46150594 20.5937198 -19.23160956 21.1940841 -14.625 21.25 C-13.92310547 21.25451172 -13.22121094 21.25902344 -12.49804688 21.26367188 C-10.76949462 21.27543073 -9.04098635 21.29336546 -7.3125 21.3125 C-7.36470703 19.77529297 -7.36470703 19.77529297 -7.41796875 18.20703125 C-7.44612035 16.84637064 -7.47341904 15.4856922 -7.5 14.125 C-7.52513672 13.45146484 -7.55027344 12.77792969 -7.57617188 12.08398438 C-7.64181539 7.59834409 -7.00105807 4.90853107 -4.3125 1.3125 C-3.3125 0.3125 -3.3125 0.3125 0 0 Z " fill="#4D4E4C" transform="translate(255.3125,424.6875)"/>
<path d="M0 0 C1.134375 0.020625 2.26875 0.04125 3.4375 0.0625 C3.94583591 1.30913331 4.44381145 2.55999387 4.9375 3.8125 C5.2159375 4.50859375 5.494375 5.2046875 5.78125 5.921875 C6.4375 8.0625 6.4375 8.0625 6.4375 12.0625 C9.0775 12.0625 11.7175 12.0625 14.4375 12.0625 C13.385625 13.7021875 13.385625 13.7021875 12.3125 15.375 C9.55847165 20.96118517 10.86873795 25.25520196 12.4375 31.0625 C12.78413797 32.37362292 13.13047616 33.68482512 13.4765625 34.99609375 C14.17462335 37.62925739 14.89640549 40.25188597 15.6328125 42.875 C16.4375 46.0625 16.4375 46.0625 16.4375 49.0625 C14.1275 49.0625 11.8175 49.0625 9.4375 49.0625 C8.76623871 46.6261811 8.10033646 44.18861117 7.4375 41.75 C7.24671875 41.05970703 7.0559375 40.36941406 6.859375 39.65820312 C6.06033816 36.70462051 5.4375 34.13690781 5.4375 31.0625 C3.24409112 33.0971523 1.80651712 34.97312155 0.45703125 37.63671875 C0.09673828 38.30380859 -0.26355469 38.97089844 -0.63476562 39.65820312 C-1.37887424 41.05389546 -2.10294426 42.46045527 -2.80664062 43.87695312 C-3.92637061 45.90191298 -4.86801746 47.48170297 -6.5625 49.0625 C-9.47722496 49.69952 -11.54502054 49.43530369 -14.5625 49.0625 C-11.97918811 43.62234908 -9.36811385 38.27111958 -6.16015625 33.171875 C-5.75144287 32.51968994 -5.34272949 31.86750488 -4.92163086 31.19555664 C-4.11440974 29.92300567 -3.2940404 28.65867659 -2.45922852 27.40405273 C0.25554754 23.11685977 1.02178733 20.10048768 0.4375 15.0625 C-0.19004025 13.71031086 -0.84996838 12.37189716 -1.5625 11.0625 C-2.18910522 12.14966309 -2.18910522 12.14966309 -2.82836914 13.25878906 C-4.41422315 16.00990768 -6.00035856 18.76086382 -7.58666992 21.51171875 C-8.59640074 23.26290015 -9.60582207 25.01425998 -10.61523438 26.765625 C-11.93774897 29.05885227 -13.26466411 31.3495473 -14.59594727 33.63769531 C-15.91412703 35.93334096 -17.20356073 38.24571823 -18.46459961 40.57324219 C-19.06409424 41.66282227 -19.66358887 42.75240234 -20.28125 43.875 C-20.80783203 44.85597656 -21.33441406 45.83695312 -21.87695312 46.84765625 C-23.5625 49.0625 -23.5625 49.0625 -25.76367188 49.80859375 C-28 49.8125 -28 49.8125 -31.5625 49.0625 C-30.10177861 45.13740464 -28.26496571 41.60831862 -26.18359375 37.9765625 C-25.85521515 37.40193771 -25.52683655 36.82731293 -25.18850708 36.23527527 C-24.12910935 34.38402103 -23.06481639 32.53564198 -22 30.6875 C-21.27261705 29.42021654 -20.54532232 28.15288243 -19.81811523 26.88549805 C-4.41284867 0.0774184 -4.41284867 0.0774184 0 0 Z " fill="#050505" transform="translate(90.5625,426.9375)"/>
<path d="M0 0 C0.66 0.33 1.32 0.66 2 1 C-1.3 4.3 -4.6 7.6 -8 11 C-8.66 10.67 -9.32 10.34 -10 10 C-6.92118304 6.12948725 -3.99926986 2.97088618 0 0 Z " fill="#6A34CC" transform="translate(404,419)"/>
</svg>
