<?xml version="1.0" encoding="UTF-8"?>
<svg
  version="1.1"
  viewBox="0 0 512 512"
  xmlns="http://www.w3.org/2000/svg">
<path d="M0 0 C1.81878978 -0.01059839 1.81878978 -0.01059839 3.67432278 -0.02141088 C5.01651872 -0.01915961 6.35871435 -0.01671313 7.70090961 -0.01409245 C9.12940654 -0.01854538 10.557901 -0.02385961 11.98639184 -0.02996117 C15.91215411 -0.04414517 19.83783722 -0.04580439 23.76362145 -0.04536426 C27.99759155 -0.04701213 32.23152901 -0.06007813 36.46548176 -0.07155704 C45.72382584 -0.09440906 54.98214701 -0.10232795 64.24051547 -0.10738349 C70.0222217 -0.11064043 75.80392127 -0.11716291 81.58562374 -0.12438488 C97.59559604 -0.14395146 113.60556215 -0.1603552 129.61554718 -0.16326141 C130.64011706 -0.16344898 131.66468694 -0.16363655 132.72030439 -0.16382981 C134.79733582 -0.16419606 136.87436726 -0.16455975 138.95139869 -0.16492092 C139.98243191 -0.16510373 141.01346512 -0.16528654 142.07574177 -0.16547489 C143.62418084 -0.16574572 143.62418084 -0.16574572 145.20390151 -0.16602201 C161.929023 -0.1695633 178.65401571 -0.19658261 195.37909254 -0.23397278 C212.55323449 -0.27205938 229.72731254 -0.29141892 246.90149766 -0.29172093 C256.54306512 -0.29230543 266.18447898 -0.30079313 275.82600689 -0.32971859 C284.03637761 -0.35423723 292.24653871 -0.36151214 300.45693614 -0.34647106 C304.64458919 -0.33930399 308.83182834 -0.34015056 313.01943493 -0.36288166 C316.8571652 -0.38351359 320.6941645 -0.38083273 324.53188721 -0.36000682 C326.56924875 -0.35487481 328.60662717 -0.37425911 330.64389294 -0.39466852 C339.65743855 -0.31238052 346.6733155 1.27915396 353.43096638 7.50615597 C354.20440388 8.59090206 354.20440388 8.59090206 354.99346638 9.69756222 C355.79784138 10.77844112 355.79784138 10.77844112 356.61846638 11.88115597 C359.70398513 17.21945403 360.27144428 22.06301633 360.11846638 28.13506222 C360.10944294 28.82342159 360.1004195 29.51178097 360.09112263 30.22099972 C360.0677915 31.9008406 360.03192964 33.58049968 359.99346638 35.26006222 C360.5521944 35.23911495 361.11092243 35.21816769 361.68658161 35.19658566 C364.26785311 35.11239928 366.84883461 35.06108529 369.43096638 35.01006222 C370.74871052 34.95978878 370.74871052 34.95978878 372.09307575 34.90849972 C380.07399408 34.79070019 385.6735771 37.02552136 392.24346638 41.44756222 C398.92076797 48.27662067 401.11597508 55.12348184 401.12489414 64.4894352 C401.12694678 65.22242001 401.12899941 65.95540482 401.13111424 66.7106013 C401.13679304 69.18004182 401.13532591 71.64942672 401.13390827 74.11887264 C401.1364914 75.90194984 401.13950442 77.68502646 401.14291167 79.46810228 C401.15099105 84.37857371 401.15277177 89.28903054 401.15350914 94.19950783 C401.15535807 99.49141497 401.1629046 104.7833145 401.16964436 110.07521725 C401.18323495 121.65166073 401.18925355 133.22810075 401.19365501 144.80455089 C401.19641626 152.03101249 401.2006534 159.25747275 401.20515919 166.48393345 C401.21735289 186.48623699 401.22765195 206.48853946 401.23103428 226.49084663 C401.23125384 227.77141776 401.23147341 229.05198889 401.23169963 230.37136521 C401.23191791 231.65502615 401.23213619 232.9386871 401.23236108 234.26124686 C401.23280455 236.86249586 401.23325111 239.46374486 401.23370075 242.06499386 C401.23392218 243.35530725 401.23414361 244.64562065 401.23437175 245.97503445 C401.23832011 266.88469599 401.25577485 287.79432268 401.27906027 308.70397075 C401.30276622 330.16420773 401.31523579 351.62442723 401.3164022 373.08467752 C401.31731939 385.13677703 401.32308291 397.18883114 401.34122181 409.24091816 C401.35661258 419.5033362 401.3617493 429.76569482 401.35348371 440.02812221 C401.34957357 445.26462379 401.35052462 450.50100567 401.36454105 455.73749256 C401.37725798 460.53231976 401.37610181 465.32693705 401.36395034 470.12176386 C401.36198952 471.85530774 401.36508954 473.58886638 401.3737947 475.32238951 C401.47196128 496.19440634 401.47196128 496.19440634 394.36846638 504.07256222 C393.75745075 504.78025753 393.14643513 505.48795284 392.51690388 506.21709347 C384.64186477 512.59270563 376.6740072 512.83641748 366.84296894 512.77472591 C365.41514016 512.78005748 363.987317 512.78712667 362.55950445 512.79577297 C358.65407853 512.81434659 354.74903318 512.80811374 350.84359181 512.79761994 C346.62467212 512.79061286 342.40582942 512.80663728 338.18693256 512.81961727 C329.92899605 512.84123727 321.67119744 512.84113552 313.41324193 512.83299173 C306.70014178 512.82668683 299.98708178 512.82783325 293.27398205 512.8342638 C292.3178137 512.83516546 291.36164535 512.83606711 290.3765022 512.83699609 C288.43393131 512.83884733 286.49136042 512.84070989 284.54878955 512.84258365 C266.34064449 512.85915515 248.13257696 512.85044843 229.92443656 512.83359807 C213.27392434 512.81890169 196.62359258 512.83352979 179.97310359 512.86236823 C162.86662296 512.89177529 145.76022559 512.90273069 128.6537208 512.89318603 C126.71806937 512.8921635 124.78241793 512.89116889 122.84676647 512.89020252 C121.89444633 512.88972613 120.94212619 512.88924974 119.96094786 512.88875892 C113.25842271 512.88659652 106.55597654 512.89638959 99.85346889 512.91097355 C91.68160412 512.92850699 83.50996939 512.928365 75.33811361 512.90562189 C71.17069795 512.89448887 67.00368744 512.89129565 62.83628941 512.9099226 C59.01720057 512.92677275 55.19886882 512.92031599 51.37982862 512.89570581 C49.35261573 512.88853999 47.32536126 512.90581608 45.29821831 512.92411715 C36.6934086 512.83647534 29.56229766 511.51896507 23.09098583 505.48663718 C16.9129597 498.78919857 14.832304 491.92583885 14.93096638 482.94756222 C14.93998981 481.87892941 14.94901325 480.81029659 14.95831013 479.70928097 C14.96991169 478.90103878 14.98151325 478.09279659 14.99346638 477.26006222 C13.72631794 477.30646847 12.4591695 477.35287472 11.15362263 477.40068722 C-6.45373079 477.85852035 -6.45373079 477.85852035 -13.00653362 473.26006222 C-13.63559612 472.84756222 -14.26465862 472.43506222 -14.91278362 472.01006222 C-20.07170643 468.16272995 -23.02504806 463.33831383 -25.00653362 457.26006222 C-25.72724869 451.34739559 -25.68287958 445.48345414 -25.64145184 439.53459835 C-25.64721813 437.73054898 -25.65516265 435.92650548 -25.66508806 434.12247419 C-25.68591479 429.18172516 -25.67566513 424.24146049 -25.66015697 419.30070996 C-25.64883033 413.96591497 -25.6663127 408.63120245 -25.68005657 403.29642391 C-25.70227943 392.85217309 -25.69749197 382.40810202 -25.68299337 371.96384418 C-25.67169741 363.47492713 -25.67017178 354.98606043 -25.67561245 346.49713802 C-25.67637861 345.28854729 -25.67714478 344.07995656 -25.67793416 342.83474186 C-25.6795328 340.3794455 -25.68115387 337.92414915 -25.68279712 335.46885282 C-25.69705184 312.45027236 -25.6806662 289.4317915 -25.65379529 266.41322738 C-25.63145679 246.66599615 -25.635337 226.91891189 -25.65838909 207.17168331 C-25.68515194 184.23497934 -25.69567857 161.29836263 -25.68032777 138.36164522 C-25.67873504 135.91542563 -25.67716319 133.46920603 -25.67561245 131.02298641 C-25.67484107 129.81942722 -25.67406969 128.61586803 -25.67327494 127.37583736 C-25.66895941 118.89797973 -25.67624136 110.4201775 -25.68801022 101.94232845 C-25.70203909 91.60939685 -25.69822694 81.27665513 -25.6716065 70.94374526 C-25.65847371 65.67258703 -25.653307 60.40174531 -25.66985226 55.13058949 C-25.68477563 50.30310721 -25.67652399 45.47623417 -25.6499645 40.64880699 C-25.64438969 38.90466568 -25.6471975 37.16047266 -25.65934344 35.41636473 C-25.72871012 24.6259742 -25.04069604 16.12175818 -17.72528362 7.60381222 C-16.99309612 6.99537472 -16.26090862 6.38693722 -15.50653362 5.76006222 C-14.77434612 5.13099972 -14.04215862 4.50193722 -13.28778362 3.85381222 C-8.94409186 0.81917824 -5.26067367 0.00980447 0 0 Z " fill="#D8F1F1" transform="translate(68.0065336227417,-0.26006221771240234)"/>
<path d="M0 0 C1.81878978 -0.01059839 1.81878978 -0.01059839 3.67432278 -0.02141088 C5.01651872 -0.01915961 6.35871435 -0.01671313 7.70090961 -0.01409245 C9.12940654 -0.01854538 10.557901 -0.02385961 11.98639184 -0.02996117 C15.91215411 -0.04414517 19.83783722 -0.04580439 23.76362145 -0.04536426 C27.99759155 -0.04701213 32.23152901 -0.06007813 36.46548176 -0.07155704 C45.72382584 -0.09440906 54.98214701 -0.10232795 64.24051547 -0.10738349 C70.0222217 -0.11064043 75.80392127 -0.11716291 81.58562374 -0.12438488 C97.59559604 -0.14395146 113.60556215 -0.1603552 129.61554718 -0.16326141 C130.64011706 -0.16344898 131.66468694 -0.16363655 132.72030439 -0.16382981 C134.79733582 -0.16419606 136.87436726 -0.16455975 138.95139869 -0.16492092 C139.98243191 -0.16510373 141.01346512 -0.16528654 142.07574177 -0.16547489 C143.62418084 -0.16574572 143.62418084 -0.16574572 145.20390151 -0.16602201 C161.929023 -0.1695633 178.65401571 -0.19658261 195.37909254 -0.23397278 C212.55323449 -0.27205938 229.72731254 -0.29141892 246.90149766 -0.29172093 C256.54306512 -0.29230543 266.18447898 -0.30079313 275.82600689 -0.32971859 C284.03637761 -0.35423723 292.24653871 -0.36151214 300.45693614 -0.34647106 C304.64458919 -0.33930399 308.83182834 -0.34015056 313.01943493 -0.36288166 C316.8571652 -0.38351359 320.6941645 -0.38083273 324.53188721 -0.36000682 C326.56924875 -0.35487481 328.60662717 -0.37425911 330.64389294 -0.39466852 C339.65743855 -0.31238052 346.6733155 1.27915396 353.43096638 7.50615597 C354.20440388 8.59090206 354.20440388 8.59090206 354.99346638 9.69756222 C355.79784138 10.77844112 355.79784138 10.77844112 356.61846638 11.88115597 C359.70398513 17.21945403 360.27144428 22.06301633 360.11846638 28.13506222 C360.10944294 28.82342159 360.1004195 29.51178097 360.09112263 30.22099972 C360.0677915 31.9008406 360.03192964 33.58049968 359.99346638 35.26006222 C360.5521944 35.23911495 361.11092243 35.21816769 361.68658161 35.19658566 C364.26785311 35.11239928 366.84883461 35.06108529 369.43096638 35.01006222 C370.74871052 34.95978878 370.74871052 34.95978878 372.09307575 34.90849972 C380.07399408 34.79070019 385.6735771 37.02552136 392.24346638 41.44756222 C398.92076797 48.27662067 401.11597508 55.12348184 401.12489414 64.4894352 C401.12694678 65.22242001 401.12899941 65.95540482 401.13111424 66.7106013 C401.13679304 69.18004182 401.13532591 71.64942672 401.13390827 74.11887264 C401.1364914 75.90194984 401.13950442 77.68502646 401.14291167 79.46810228 C401.15099105 84.37857371 401.15277177 89.28903054 401.15350914 94.19950783 C401.15535807 99.49141497 401.1629046 104.7833145 401.16964436 110.07521725 C401.18323495 121.65166073 401.18925355 133.22810075 401.19365501 144.80455089 C401.19641626 152.03101249 401.2006534 159.25747275 401.20515919 166.48393345 C401.21735289 186.48623699 401.22765195 206.48853946 401.23103428 226.49084663 C401.23125384 227.77141776 401.23147341 229.05198889 401.23169963 230.37136521 C401.23191791 231.65502615 401.23213619 232.9386871 401.23236108 234.26124686 C401.23280455 236.86249586 401.23325111 239.46374486 401.23370075 242.06499386 C401.23392218 243.35530725 401.23414361 244.64562065 401.23437175 245.97503445 C401.23832011 266.88469599 401.25577485 287.79432268 401.27906027 308.70397075 C401.30276622 330.16420773 401.31523579 351.62442723 401.3164022 373.08467752 C401.31731939 385.13677703 401.32308291 397.18883114 401.34122181 409.24091816 C401.35661258 419.5033362 401.3617493 429.76569482 401.35348371 440.02812221 C401.34957357 445.26462379 401.35052462 450.50100567 401.36454105 455.73749256 C401.37725798 460.53231976 401.37610181 465.32693705 401.36395034 470.12176386 C401.36198952 471.85530774 401.36508954 473.58886638 401.3737947 475.32238951 C401.47196128 496.19440634 401.47196128 496.19440634 394.36846638 504.07256222 C393.75745075 504.78025753 393.14643513 505.48795284 392.51690388 506.21709347 C384.64186477 512.59270563 376.6740072 512.83641748 366.84296894 512.77472591 C365.41514016 512.78005748 363.987317 512.78712667 362.55950445 512.79577297 C358.65407853 512.81434659 354.74903318 512.80811374 350.84359181 512.79761994 C346.62467212 512.79061286 342.40582942 512.80663728 338.18693256 512.81961727 C329.92899605 512.84123727 321.67119744 512.84113552 313.41324193 512.83299173 C306.70014178 512.82668683 299.98708178 512.82783325 293.27398205 512.8342638 C292.3178137 512.83516546 291.36164535 512.83606711 290.3765022 512.83699609 C288.43393131 512.83884733 286.49136042 512.84070989 284.54878955 512.84258365 C266.34064449 512.85915515 248.13257696 512.85044843 229.92443656 512.83359807 C213.27392434 512.81890169 196.62359258 512.83352979 179.97310359 512.86236823 C162.86662296 512.89177529 145.76022559 512.90273069 128.6537208 512.89318603 C126.71806937 512.8921635 124.78241793 512.89116889 122.84676647 512.89020252 C121.89444633 512.88972613 120.94212619 512.88924974 119.96094786 512.88875892 C113.25842271 512.88659652 106.55597654 512.89638959 99.85346889 512.91097355 C91.68160412 512.92850699 83.50996939 512.928365 75.33811361 512.90562189 C71.17069795 512.89448887 67.00368744 512.89129565 62.83628941 512.9099226 C59.01720057 512.92677275 55.19886882 512.92031599 51.37982862 512.89570581 C49.35261573 512.88853999 47.32536126 512.90581608 45.29821831 512.92411715 C36.6934086 512.83647534 29.56229766 511.51896507 23.09098583 505.48663718 C16.9129597 498.78919857 14.832304 491.92583885 14.93096638 482.94756222 C14.93998981 481.87892941 14.94901325 480.81029659 14.95831013 479.70928097 C14.96991169 478.90103878 14.98151325 478.09279659 14.99346638 477.26006222 C13.72631794 477.30646847 12.4591695 477.35287472 11.15362263 477.40068722 C-6.45373079 477.85852035 -6.45373079 477.85852035 -13.00653362 473.26006222 C-13.63559612 472.84756222 -14.26465862 472.43506222 -14.91278362 472.01006222 C-20.07170643 468.16272995 -23.02504806 463.33831383 -25.00653362 457.26006222 C-25.72724869 451.34739559 -25.68287958 445.48345414 -25.64145184 439.53459835 C-25.64721813 437.73054898 -25.65516265 435.92650548 -25.66508806 434.12247419 C-25.68591479 429.18172516 -25.67566513 424.24146049 -25.66015697 419.30070996 C-25.64883033 413.96591497 -25.6663127 408.63120245 -25.68005657 403.29642391 C-25.70227943 392.85217309 -25.69749197 382.40810202 -25.68299337 371.96384418 C-25.67169741 363.47492713 -25.67017178 354.98606043 -25.67561245 346.49713802 C-25.67637861 345.28854729 -25.67714478 344.07995656 -25.67793416 342.83474186 C-25.6795328 340.3794455 -25.68115387 337.92414915 -25.68279712 335.46885282 C-25.69705184 312.45027236 -25.6806662 289.4317915 -25.65379529 266.41322738 C-25.63145679 246.66599615 -25.635337 226.91891189 -25.65838909 207.17168331 C-25.68515194 184.23497934 -25.69567857 161.29836263 -25.68032777 138.36164522 C-25.67873504 135.91542563 -25.67716319 133.46920603 -25.67561245 131.02298641 C-25.67484107 129.81942722 -25.67406969 128.61586803 -25.67327494 127.37583736 C-25.66895941 118.89797973 -25.67624136 110.4201775 -25.68801022 101.94232845 C-25.70203909 91.60939685 -25.69822694 81.27665513 -25.6716065 70.94374526 C-25.65847371 65.67258703 -25.653307 60.40174531 -25.66985226 55.13058949 C-25.68477563 50.30310721 -25.67652399 45.47623417 -25.6499645 40.64880699 C-25.64438969 38.90466568 -25.6471975 37.16047266 -25.65934344 35.41636473 C-25.72871012 24.6259742 -25.04069604 16.12175818 -17.72528362 7.60381222 C-16.99309612 6.99537472 -16.26090862 6.38693722 -15.50653362 5.76006222 C-14.77434612 5.13099972 -14.04215862 4.50193722 -13.28778362 3.85381222 C-8.94409186 0.81917824 -5.26067367 0.00980447 0 0 Z M-8.28722417 19.48866284 C-10.50628351 23.06562198 -10.50991472 25.40414785 -10.51548481 29.60245228 C-10.52189777 30.33550176 -10.52831072 31.06855123 -10.53491801 31.82381433 C-10.55156174 34.28773354 -10.53965597 36.75068588 -10.52792645 39.21462154 C-10.53396591 40.99586826 -10.54174308 42.77710979 -10.55111158 44.5583421 C-10.57173557 49.45910002 -10.56729189 54.35956637 -10.55875039 59.26034856 C-10.55382746 64.54336655 -10.5718298 69.82631328 -10.58682537 75.10930538 C-10.61235598 85.46162823 -10.61590221 95.81384742 -10.61122485 106.16619645 C-10.60766223 114.57897798 -10.61114973 122.99172798 -10.61967373 131.40450573 C-10.6214593 133.19889205 -10.6214593 133.19889205 -10.62328093 135.0295286 C-10.62570438 137.45954481 -10.62813265 139.88956102 -10.63056569 142.31957723 C-10.65233094 165.12103833 -10.647985 187.9224403 -10.635796 210.72390474 C-10.62545673 231.59287985 -10.64796836 252.46166827 -10.68599243 273.33060645 C-10.72471719 294.74794127 -10.74126686 316.16518772 -10.73374593 337.5825578 C-10.72991691 349.61114749 -10.7349453 361.63957827 -10.76317501 373.66813946 C-10.78696392 383.90833353 -10.78985628 394.14827089 -10.76559468 404.38846837 C-10.75378962 409.61472493 -10.75169297 414.8405115 -10.77559948 420.06673717 C-10.79722542 424.84993243 -10.79122242 429.63226274 -10.76307611 434.41541673 C-10.7577566 436.14687382 -10.76259557 437.8783977 -10.77854784 439.60978948 C-11.22599853 449.82345335 -11.22599853 449.82345335 -7.0847559 458.77309513 C-3.23163186 461.8861233 -1.80243261 462.38508939 3.01429462 462.38704586 C4.08449848 462.38986946 5.15470234 462.39269306 6.25733662 462.39560223 C8.03674892 462.39256021 8.03674892 462.39256021 9.85210896 462.38945675 C11.73354099 462.39203424 11.73354099 462.39203424 13.65298176 462.39466381 C17.15426838 462.39919709 20.65552668 462.39728314 24.15681386 462.39423609 C27.17038216 462.39239734 30.18394388 462.39420077 33.19751185 462.39602482 C43.19288527 462.40201704 53.18823616 462.39575367 63.18360615 462.38719654 C66.66536366 462.38436276 70.14712146 462.38220455 73.62887943 462.38002396 C96.03982226 462.36569227 118.45070932 462.33236436 140.86161292 462.28871727 C142.34302631 462.28583246 142.34302631 462.28583246 143.85436726 462.28288937 C145.34305665 462.27998567 145.34305665 462.27998567 146.86182058 462.27702332 C154.06664985 462.26319049 161.27148072 462.25168297 168.4763155 462.24114132 C191.55048048 462.20687204 214.62449867 462.1581692 237.69853783 462.07294559 C247.86119239 462.03562603 258.0237752 462.00437592 268.18649006 461.98961544 C276.88066225 461.97685232 285.57465521 461.95022404 294.26872486 461.90564978 C298.7289721 461.88316052 303.18900098 461.86712029 307.64931011 461.86814404 C311.74716757 461.86888271 315.84451868 461.85121097 319.94224489 461.81888652 C321.42842375 461.81039457 322.91465934 461.80864492 324.40085185 461.81426167 C326.42181818 461.82089496 328.44281929 461.80063066 330.46368122 461.77904415 C331.58769337 461.77535698 332.71170551 461.77166981 333.86977863 461.7678709 C337.7583003 461.13572543 339.92667273 459.69267424 342.99346638 457.26006222 C345.4813316 453.52826438 345.24687351 451.62262403 345.25352859 447.1609745 C345.25733427 446.42993312 345.26113994 445.69889173 345.26506093 444.94569758 C345.27543172 442.4768221 345.27146051 440.0081742 345.26762104 437.5392828 C345.27207048 435.75905373 345.27738354 433.97882665 345.28348976 432.1986025 C345.29771558 427.29146918 345.29933219 422.38439906 345.29889286 417.47724807 C345.30053704 412.19082467 345.31359603 406.90442762 345.32508564 401.61801815 C345.34796554 390.05204648 345.35585941 378.48609312 345.36091208 366.92010188 C345.36416552 359.70221002 345.37068583 352.48432351 345.37791348 345.26643467 C345.39748301 325.29333289 345.41388524 305.32023609 345.41679001 285.3471241 C345.41707136 283.42878411 345.41707136 283.42878411 345.4173584 281.47168978 C345.41772466 278.8789109 345.41808836 276.28613202 345.41844951 273.69335314 C345.41863232 272.4062436 345.41881514 271.11913406 345.41900349 269.7930212 C345.41918404 268.50434599 345.41936458 267.21567077 345.41955061 265.8879448 C345.42309353 244.99879569 345.45012175 224.10974958 345.48750138 203.22063621 C345.52554637 181.78869154 345.5449472 160.35679802 345.54524952 138.92481881 C345.54583494 126.88562288 345.55438112 114.84654983 345.58324718 102.80738544 C345.60771013 92.55726852 345.6150784 82.30731928 345.59999966 72.05718108 C345.59281 66.82503075 345.59377654 61.59321187 345.61641026 56.36109829 C345.63692238 51.57366171 345.63447289 46.78681304 345.61353541 41.99938337 C345.61002559 40.26518768 345.61501329 38.53095023 345.62923985 36.79680934 C345.6473115 34.44271319 345.63467753 32.0907051 345.61429214 29.73667336 C345.6151066 28.42826443 345.61592106 27.11985551 345.61676019 25.77179784 C344.79850172 21.16160059 343.26909766 19.54710972 339.99346638 16.26006222 C337.36542974 14.9460439 335.41177213 15.12530937 332.46704865 15.11301708 C331.28527894 15.10569254 330.10350924 15.098368 328.88592833 15.0908215 C327.57613314 15.08779704 326.26633795 15.08477257 324.916852 15.08165646 C323.52037996 15.07494686 322.12390993 15.06780937 320.72744209 15.06027865 C316.87649011 15.04081344 313.02553791 15.0276308 309.17455685 15.01547647 C305.02652124 15.00133764 300.87851205 14.98153459 296.73049641 14.96253109 C287.65414013 14.92209945 278.57776585 14.88921451 269.50137401 14.85794449 C263.83714666 14.83841863 258.1729253 14.81743472 252.50870419 14.7961874 C236.83512452 14.73767364 221.16154058 14.68106454 205.4879303 14.63134289 C203.98239205 14.62656212 203.98239205 14.62656212 202.4464389 14.62168477 C201.44030503 14.61849155 200.43417115 14.61529832 199.39754838 14.61200833 C197.35863887 14.60553596 195.31972938 14.59906043 193.28081989 14.59258175 C192.26944404 14.5893697 191.25806819 14.58615766 190.21604458 14.58284828 C173.82361867 14.53042597 157.43127741 14.46446165 141.03892603 14.39266291 C124.2208956 14.31919335 107.40285438 14.25699623 90.58473998 14.20615935 C81.13724794 14.17733771 71.68982884 14.14362742 62.24240398 14.09750271 C54.19841056 14.05828416 46.15446329 14.02933101 38.11038765 14.0138751 C34.00445882 14.00567612 29.89869872 13.99255772 25.79284191 13.96636295 C22.03563254 13.94250981 18.27865307 13.9325121 14.52137051 13.93364605 C12.51495135 13.93062951 10.50857174 13.91272418 8.50223464 13.89432931 C7.31264169 13.89743576 6.12304875 13.90054221 4.89740753 13.90374279 C3.35717935 13.89829051 3.35717935 13.89829051 1.78583544 13.89272809 C-2.67713959 14.47982922 -5.11611097 16.38997642 -8.28722417 19.48866284 Z " fill="#4E4F4F" transform="translate(68.0065336227417,-0.26006221771240234)"/>
<path d="M0 0 C0.9378685 -0.00004028 1.875737 -0.00008057 2.84202576 -0.00012207 C4.81980104 0.00522769 6.79757616 0.02278714 8.77514648 0.05175781 C11.80192996 0.09365775 14.82649066 0.09282101 17.85351562 0.0859375 C19.77735921 0.09642892 21.70119133 0.10936676 23.625 0.125 C24.5292421 0.12520142 25.43348419 0.12540283 26.36512756 0.12561035 C29.89139052 0.19205514 32.55184977 0.26932187 35.77050781 1.7734375 C37.74852546 4.21355986 38.04263789 6.08298255 38.4765625 9.1875 C38.63962891 10.30125 38.80269531 11.415 38.97070312 12.5625 C39.12345703 13.7278125 39.27621094 14.893125 39.43359375 16.09375 C39.59794922 17.228125 39.76230469 18.3625 39.93164062 19.53125 C40.92362458 26.53537965 41.68020818 33.54290495 42.24609375 40.59375 C47.14980324 40.97657409 49.38357996 40.28384152 53.21484375 37.234375 C54.11589844 36.53054687 55.01695312 35.82671875 55.9453125 35.1015625 C57.33169922 33.98394531 57.33169922 33.98394531 58.74609375 32.84375 C60.58871029 31.38918799 62.43243081 29.93602323 64.27734375 28.484375 C65.139646 27.8035083 66.00194824 27.1226416 66.89038086 26.42114258 C74.03807115 20.87647869 74.03807115 20.87647869 78.18359375 19.90625 C82.19294688 20.80630887 83.70278309 22.65246887 86.42578125 25.62890625 C88.11346777 27.45059363 89.84093847 29.0061206 91.74609375 30.59375 C96.08751954 34.333394 100.12830183 38.3624137 104.18359375 42.40625 C105.19679688 43.41268555 105.19679688 43.41268555 106.23046875 44.43945312 C107.17986328 45.39174805 107.17986328 45.39174805 108.1484375 46.36328125 C108.72070068 46.93667236 109.29296387 47.51006348 109.88256836 48.10083008 C111.8939725 50.30311053 112.25251409 51.63464022 112.72265625 54.62890625 C112.03594076 60.34215401 109.12241006 63.59648417 105.62109375 68.03125 C105.00363281 68.83884766 104.38617188 69.64644531 103.75 70.47851562 C101.3447279 73.62056055 98.94347698 76.75625918 96.41113281 79.79736328 C95.57533691 80.82772705 95.57533691 80.82772705 94.72265625 81.87890625 C93.96976318 82.7762146 93.96976318 82.7762146 93.20166016 83.69165039 C91.89578714 86.29105169 92.45851658 87.86600789 93.24609375 90.59375 C94.1182251 90.70444824 94.99035645 90.81514648 95.88891602 90.92919922 C99.15284499 91.34611099 102.41607148 91.76788475 105.67895508 92.19287109 C107.0859336 92.37513473 108.49315832 92.55550891 109.90063477 92.73388672 C111.93444853 92.99198857 113.96725271 93.25708149 116 93.5234375 C117.22017822 93.68054199 118.44035645 93.83764648 119.69750977 93.99951172 C128.94901039 95.54874822 128.94901039 95.54874822 132.15429688 98.13110352 C133.87462284 102.01145414 133.71388507 105.79629572 133.71484375 109.99609375 C133.72245728 110.91080948 133.7300708 111.82552521 133.73791504 112.76795959 C133.74870868 114.70034051 133.75157213 116.63277973 133.74707031 118.56518555 C133.74609819 121.5177564 133.78772247 124.46772632 133.83203125 127.41992188 C133.83723862 129.29947376 133.83992644 131.17903466 133.83984375 133.05859375 C133.85623901 133.93893784 133.87263428 134.81928192 133.88952637 135.7263031 C133.84188962 139.96290641 133.63533909 142.0323147 131.16821289 145.59082031 C127.66144583 147.99448954 125.1003234 148.57828826 120.8984375 149.17578125 C120.20472549 149.27968674 119.51101349 149.38359222 118.79627991 149.49064636 C116.59435837 149.81535347 114.38961173 150.11081193 112.18359375 150.40625 C110.69829849 150.62250795 109.21326757 150.84058968 107.72851562 151.06054688 C97.17010692 152.59375 97.17010692 152.59375 92.24609375 152.59375 C92.50262865 159.33442561 95.24031569 162.8535374 99.43359375 167.96875 C100.61996664 169.47279442 101.80488073 170.97799077 102.98828125 172.484375 C103.55385742 173.19658203 104.11943359 173.90878906 104.70214844 174.64257812 C106.54068325 176.96603958 108.33711591 179.30701776 110.05859375 181.71875 C110.71794922 182.61980469 110.71794922 182.61980469 111.390625 183.5390625 C112.75093586 186.80629315 112.65722563 189.06863733 112.24609375 192.59375 C110.51313501 195.36880286 108.29110523 197.55424768 105.96484375 199.83984375 C105.31793579 200.49582047 104.67102783 201.15179718 104.0045166 201.82765198 C102.63442956 203.20686539 101.25539697 204.57724239 99.86816406 205.93920898 C97.7542607 208.02319862 95.68336347 210.14406393 93.61328125 212.27148438 C92.27454628 213.60918791 90.93347348 214.94455674 89.58984375 216.27734375 C88.97492065 216.91159775 88.35999756 217.54585175 87.72644043 218.19932556 C84.61528404 221.19646366 82.45280734 222.98527897 78.03051758 223.13500977 C74.58097851 222.64164623 72.98650898 222.38198382 70.3515625 220.25 C69.71130127 219.74887695 69.07104004 219.24775391 68.41137695 218.73144531 C67.7587085 218.19100586 67.10604004 217.65056641 66.43359375 217.09375 C65.03538853 215.99449616 63.63695002 214.89553898 62.23828125 213.796875 C61.56120117 213.25353516 60.88412109 212.71019531 60.18652344 212.15039062 C57.50908843 210.00251373 54.8002796 207.90930194 52.05859375 205.84375 C51.24003906 205.20953125 50.42148437 204.5753125 49.578125 203.921875 C46.90323011 202.39848427 45.27541175 202.31395509 42.24609375 202.59375 C42.12492188 203.86347656 42.00375 205.13320312 41.87890625 206.44140625 C41.44468096 210.94391415 40.98401514 215.44336388 40.51513672 219.94238281 C40.27363064 222.32237921 40.05608831 224.70320991 39.84375 227.0859375 C39.64072266 229.03886719 39.64072266 229.03886719 39.43359375 231.03125 C39.32402344 232.18496094 39.21445312 233.33867187 39.1015625 234.52734375 C37.96056866 238.61720753 36.62588198 240.00662882 33.24609375 242.59375 C29.92082244 243.32840213 26.66833582 243.29499527 23.2734375 243.2578125 C21.83334068 243.26498795 21.83334068 243.26498795 20.364151 243.27230835 C18.33934892 243.27570372 16.31449176 243.26652675 14.28979492 243.24560547 C11.19000259 243.21880541 8.0938215 243.24538067 4.99414062 243.27734375 C3.02473159 243.27404016 1.05532481 243.26763498 -0.9140625 243.2578125 C-2.30323631 243.27299423 -2.30323631 243.27299423 -3.72047424 243.28848267 C-10.05842018 243.17293114 -10.05842018 243.17293114 -13.28979492 240.48193359 C-14.98357983 237.14068372 -15.56472221 234.43718873 -16.01953125 230.71875 C-16.10265564 230.07180176 -16.18578003 229.42485352 -16.27142334 228.75830078 C-16.53105499 226.70502495 -16.76741171 224.64980459 -17.00390625 222.59375 C-17.17694107 221.21335985 -17.35140713 219.83314831 -17.52734375 218.453125 C-18.86688957 207.69001879 -18.86688957 207.69001879 -18.75390625 202.59375 C-23.65761574 202.21092591 -25.89139246 202.90365848 -29.72265625 205.953125 C-30.62371094 206.65695313 -31.52476562 207.36078125 -32.453125 208.0859375 C-33.37738281 208.83101562 -34.30164063 209.57609375 -35.25390625 210.34375 C-37.09652279 211.79831201 -38.94024331 213.25147677 -40.78515625 214.703125 C-41.64737793 215.3839917 -42.50959961 216.0648584 -43.39794922 216.76635742 C-50.53514575 222.30230727 -50.53514575 222.30230727 -54.62890625 223.28125 C-62.962556 221.44784706 -70.11822682 211.54043417 -76.12915039 205.62353516 C-77.17707089 204.59739515 -78.23121899 203.57757929 -79.29125977 202.56396484 C-80.84438533 201.07786866 -82.37677592 199.57288217 -83.90625 198.0625 C-84.81366943 197.18013672 -85.72108887 196.29777344 -86.65600586 195.38867188 C-89.20597326 191.99148501 -89.70086717 189.81879504 -89.75390625 185.59375 C-88.80102539 183.32128906 -88.80102539 183.32128906 -87.2890625 181.359375 C-86.73943848 180.62533447 -86.18981445 179.89129395 -85.62353516 179.13500977 C-85.02718262 178.37889404 -84.43083008 177.62277832 -83.81640625 176.84375 C-83.22263184 176.05605225 -82.62885742 175.26835449 -82.01708984 174.45678711 C-80.27994006 172.15528769 -78.52026373 169.87287112 -76.75390625 167.59375 C-75.11521885 165.45743304 -73.49307435 163.31135144 -71.87890625 161.15625 C-71.24210937 160.33253906 -70.6053125 159.50882813 -69.94921875 158.66015625 C-69.55476563 157.97824219 -69.1603125 157.29632813 -68.75390625 156.59375 C-69.08390625 155.60375 -69.41390625 154.61375 -69.75390625 153.59375 C-72.26042851 153.15238622 -74.76715813 152.71225808 -77.27416992 152.27368164 C-79.39063706 151.90285532 -81.50668594 151.52963403 -83.62231445 151.15405273 C-90.30906833 149.97518879 -90.30906833 149.97518879 -97.03515625 149.05859375 C-98.15921875 148.92582031 -99.28328125 148.79304687 -100.44140625 148.65625 C-101.87033203 148.51896484 -101.87033203 148.51896484 -103.328125 148.37890625 C-106.85579104 147.2371013 -107.80556691 145.74643457 -109.75390625 142.59375 C-110.33727769 139.42487518 -110.31483337 136.30891925 -110.28515625 133.09375 C-110.28898315 132.18044922 -110.29281006 131.26714844 -110.29675293 130.32617188 C-110.29946878 128.39972834 -110.29213049 126.47324772 -110.27539062 124.546875 C-110.25397593 121.60332792 -110.27520296 118.66222145 -110.30078125 115.71875 C-110.29813792 113.84374463 -110.29301282 111.96874077 -110.28515625 110.09375 C-110.29325317 109.21654297 -110.3013501 108.33933594 -110.30969238 107.43554688 C-110.2481326 103.41075663 -110.05757291 101.11690311 -108.00219727 97.57592773 C-105.59648068 95.45495771 -104.38222325 94.8382903 -101.25 94.37890625 C-99.93298096 94.17225342 -99.93298096 94.17225342 -98.58935547 93.96142578 C-97.65365723 93.84009277 -96.71795898 93.71875977 -95.75390625 93.59375 C-94.7911377 93.4582373 -93.82836914 93.32272461 -92.83642578 93.18310547 C-89.8323186 92.77472774 -86.82586517 92.39797323 -83.81640625 92.03125 C-81.78611693 91.78272118 -79.75614987 91.53154125 -77.7265625 91.27734375 C-76.84234619 91.16962646 -75.95812988 91.06190918 -75.04711914 90.95092773 C-72.6000994 90.63495843 -72.6000994 90.63495843 -69.75390625 89.59375 C-68.67684836 87.82603051 -68.67684836 87.82603051 -68.75390625 85.59375 C-70.21648954 83.25511314 -70.21648954 83.25511314 -72.44140625 80.90625 C-76.61021854 76.01299955 -80.57452657 71.02683012 -84.37890625 65.84375 C-84.92377686 65.13516846 -85.46864746 64.42658691 -86.0300293 63.6965332 C-86.52929932 63.007771 -87.02856934 62.31900879 -87.54296875 61.609375 C-87.99365723 61.00383789 -88.4443457 60.39830078 -88.90869141 59.77441406 C-90.25603238 56.2982588 -89.7572709 54.16237179 -88.75390625 50.59375 C-86.91222575 47.96235318 -84.70014495 45.81535915 -82.3828125 43.6015625 C-81.74528549 42.9701535 -81.10775848 42.33874451 -80.45091248 41.6882019 C-78.41975095 39.68388981 -76.36841344 37.70169116 -74.31640625 35.71875 C-72.93943871 34.36331528 -71.5637723 33.00655741 -70.18945312 31.6484375 C-59.22789965 20.87040722 -59.22789965 20.87040722 -55.21484375 20.1171875 C-49.88590492 20.85096914 -46.54448459 23.96357322 -42.37890625 27.21875 C-41.56679687 27.83621094 -40.7546875 28.45367187 -39.91796875 29.08984375 C-33.50645177 33.97040556 -33.50645177 33.97040556 -30.58105469 36.39355469 C-26.42248544 39.78372116 -26.42248544 39.78372116 -21.25390625 40.96875 C-20.42890625 40.845 -19.60390625 40.72125 -18.75390625 40.59375 C-18.71652344 39.82675781 -18.67914063 39.05976562 -18.640625 38.26953125 C-18.18984775 30.65935061 -17.44783577 23.09516681 -16.50390625 15.53125 C-16.40682373 14.62737549 -16.30974121 13.72350098 -16.2097168 12.79223633 C-16.09539307 11.93138428 -15.98106934 11.07053223 -15.86328125 10.18359375 C-15.77014648 9.41909912 -15.67701172 8.65460449 -15.58105469 7.86694336 C-12.74206248 0.06474253 -7.22853601 -0.13135824 0 0 Z " fill="#98A3AB" transform="translate(223.75390625,45.40625)"/>
<path d="M0 0 C2.70894767 -0.08144943 5.41541263 -0.14070614 8.125 -0.1875 C8.88554687 -0.21263672 9.64609375 -0.23777344 10.4296875 -0.26367188 C15.35833189 -0.32740435 18.80238126 0.12892843 23 3 C26.285452 6.95592587 26.37564151 10.29132372 26.37752342 15.33235931 C26.38188374 16.06431961 26.38624407 16.79627991 26.39073652 17.55042082 C26.40171102 20.01048583 26.39126076 22.46999251 26.38095093 24.93005371 C26.38440663 26.70859741 26.3891706 28.48713896 26.39513266 30.26567602 C26.40768438 35.15886258 26.40145333 40.05187416 26.39217401 44.94506145 C26.38540092 50.21984098 26.39585609 55.4945899 26.40411377 60.7693634 C26.41747191 71.10496786 26.4145641 81.44050706 26.40587585 91.77611411 C26.39910789 100.17412771 26.39817873 108.572123 26.4014473 116.97013855 C26.401907 118.16419818 26.40236669 119.35825781 26.40284032 120.58850107 C26.40379947 123.01401175 26.40477211 125.43952242 26.4057581 127.86503309 C26.41431809 150.62303178 26.4044683 173.38099425 26.388357 196.138987 C26.37495327 215.67747432 26.37728119 235.21590818 26.39111328 254.75439453 C26.40715834 277.42950716 26.41349406 300.10458802 26.40427649 322.77970552 C26.40332082 325.19642416 26.4023777 327.6131428 26.4014473 330.02986145 C26.40098447 331.21901448 26.40052164 332.4081675 26.40004479 333.63335547 C26.39745168 342.02382248 26.40183282 350.41426938 26.40888596 358.80473328 C26.41728922 369.02626092 26.41504556 379.24771942 26.39904372 389.46923912 C26.3911452 394.68701857 26.38809631 399.90468265 26.39799118 405.12246132 C26.40690586 409.89546193 26.40205865 414.6682398 26.38605852 419.4412201 C26.382697 421.17129397 26.3844354 422.90138651 26.39168589 424.63144845 C26.40076506 426.97711611 26.39149643 429.32201369 26.37752342 431.66764069 C26.37679284 433.62464079 26.37679284 433.62464079 26.37604749 435.62117624 C25.87210782 440.14912384 24.40520976 442.77044146 21 445.75 C17.42954188 447.98153633 14.51127813 448.126986 10.40017986 448.13422108 C8.64113906 448.14090784 8.64113906 448.14090784 6.84656209 448.14772969 C5.5520347 448.14754533 4.25750732 448.14736097 2.92375183 448.14717102 C1.53950485 448.1504698 0.15525883 448.15419539 -1.22898597 448.1583125 C-5.0415545 448.16833883 -8.85410728 448.1720503 -12.66668713 448.17470181 C-16.77517881 448.17860291 -20.88365801 448.18818129 -24.99214172 448.19691467 C-34.91758735 448.21668316 -44.843034 448.22674516 -54.7684944 448.23564246 C-59.44038191 448.24002418 -64.11226828 448.24539124 -68.78415489 448.25063133 C-84.31023454 448.26764295 -99.83631347 448.28213822 -115.36240101 448.28938007 C-119.39207269 448.29129002 -123.42174436 448.29321035 -127.45141602 448.29516602 C-128.45299221 448.29564976 -129.45456841 448.2961335 -130.4864954 448.2966319 C-146.71973446 448.30493631 -162.95289993 448.33028045 -179.18610684 448.36274669 C-195.84487508 448.39579303 -212.5036059 448.41382658 -229.1624071 448.41702431 C-238.51881294 448.41919151 -247.87511142 448.42797094 -257.23148537 448.45348549 C-265.1978864 448.47515927 -273.164154 448.48325928 -281.13058118 448.47351871 C-285.19615962 448.46896451 -289.26146257 448.47092493 -293.32700348 448.49028015 C-297.04855595 448.50784498 -300.76963058 448.50696904 -304.49118765 448.49138286 C-306.47592381 448.48786571 -308.46066459 448.50408276 -310.44533187 448.52098733 C-321.30394973 448.44205867 -321.30394973 448.44205867 -326 444 C-328.50505953 441.4173158 -328.98243868 440.20698938 -329.29296875 436.546875 C-329.25816406 435.29390625 -329.22335937 434.0409375 -329.1875 432.75 C-329.16042969 431.48671875 -329.13335937 430.2234375 -329.10546875 428.921875 C-329.05326172 427.47554688 -329.05326172 427.47554688 -329 426 C-328.35131911 425.99902319 -327.70263822 425.99804638 -327.03430033 425.99703997 C-288.58828543 425.9387681 -250.14232836 425.86497142 -211.69638339 425.77101372 C-207.08014128 425.75974555 -202.46389887 425.7486071 -197.84765625 425.73754883 C-196.46913995 425.7342433 -196.46913995 425.7342433 -195.06277484 425.730871 C-180.18224426 425.69549851 -165.30171374 425.6706341 -150.4211567 425.64965298 C-135.15235686 425.62789055 -119.88361158 425.5948359 -104.61485815 425.55129844 C-95.19320657 425.52478937 -85.77162298 425.50708851 -76.34993595 425.50065396 C-69.88915194 425.49539781 -63.42845348 425.47917317 -56.96771532 425.45433434 C-53.24019206 425.44032714 -49.51282191 425.43114561 -45.78527069 425.43499184 C-41.74165356 425.43903764 -37.69847043 425.41998118 -33.65490723 425.39872742 C-31.89224321 425.40599878 -31.89224321 425.40599878 -30.09396982 425.41341704 C-21.87073704 425.34199683 -14.78797283 424.39639368 -8.3828125 418.65625 C-2.8556175 412.03610684 -0.87962561 404.62777943 -0.8613348 396.21400833 C-0.85707147 395.18646337 -0.85707147 395.18646337 -0.85272202 394.13815993 C-0.84436901 391.83194237 -0.84310633 389.525775 -0.84178162 387.21954346 C-0.83721668 385.55379548 -0.83221676 383.88804864 -0.82681805 382.22230315 C-0.81321977 377.63650881 -0.80581369 373.0507219 -0.79939139 368.46491265 C-0.79139487 363.5228693 -0.77769452 358.58084143 -0.76467896 353.6388092 C-0.74290558 345.07358535 -0.72476424 336.50835994 -0.70907402 327.94312286 C-0.68638324 315.55915308 -0.65823931 303.17520044 -0.62875474 290.79124519 C-0.58106913 270.70019316 -0.53780756 250.60913413 -0.49731445 230.51806641 C-0.45796446 210.99885513 -0.41653943 191.47965008 -0.37231445 171.96044922 C-0.36822804 170.15638673 -0.36822804 170.15638673 -0.36405908 168.31587854 C-0.35037969 162.28238028 -0.3366594 156.24888212 -0.32291877 150.21538401 C-0.20893876 100.14360232 -0.10213277 50.07180715 0 0 Z " fill="#98A2AA" transform="translate(428,50)"/>
<path d="M0 0 C0.9378685 -0.00004028 1.875737 -0.00008057 2.84202576 -0.00012207 C4.81980104 0.00522769 6.79757616 0.02278714 8.77514648 0.05175781 C11.80192996 0.09365775 14.82649066 0.09282101 17.85351562 0.0859375 C19.77735921 0.09642892 21.70119133 0.10936676 23.625 0.125 C24.5292421 0.12520142 25.43348419 0.12540283 26.36512756 0.12561035 C29.89139052 0.19205514 32.55184977 0.26932187 35.77050781 1.7734375 C37.74852546 4.21355986 38.04263789 6.08298255 38.4765625 9.1875 C38.63962891 10.30125 38.80269531 11.415 38.97070312 12.5625 C39.12345703 13.7278125 39.27621094 14.893125 39.43359375 16.09375 C39.59794922 17.228125 39.76230469 18.3625 39.93164062 19.53125 C40.92362458 26.53537965 41.68020818 33.54290495 42.24609375 40.59375 C47.14980324 40.97657409 49.38357996 40.28384152 53.21484375 37.234375 C54.11589844 36.53054687 55.01695312 35.82671875 55.9453125 35.1015625 C57.33169922 33.98394531 57.33169922 33.98394531 58.74609375 32.84375 C60.58871029 31.38918799 62.43243081 29.93602323 64.27734375 28.484375 C65.139646 27.8035083 66.00194824 27.1226416 66.89038086 26.42114258 C74.03807115 20.87647869 74.03807115 20.87647869 78.18359375 19.90625 C82.19294688 20.80630887 83.70278309 22.65246887 86.42578125 25.62890625 C88.11346777 27.45059363 89.84093847 29.0061206 91.74609375 30.59375 C96.08751954 34.333394 100.12830183 38.3624137 104.18359375 42.40625 C105.19679688 43.41268555 105.19679688 43.41268555 106.23046875 44.43945312 C107.17986328 45.39174805 107.17986328 45.39174805 108.1484375 46.36328125 C108.72070068 46.93667236 109.29296387 47.51006348 109.88256836 48.10083008 C111.8939725 50.30311053 112.25251409 51.63464022 112.72265625 54.62890625 C112.03594076 60.34215401 109.12241006 63.59648417 105.62109375 68.03125 C105.00363281 68.83884766 104.38617188 69.64644531 103.75 70.47851562 C101.3447279 73.62056055 98.94347698 76.75625918 96.41113281 79.79736328 C95.57533691 80.82772705 95.57533691 80.82772705 94.72265625 81.87890625 C93.96976318 82.7762146 93.96976318 82.7762146 93.20166016 83.69165039 C91.89578714 86.29105169 92.45851658 87.86600789 93.24609375 90.59375 C94.1182251 90.70444824 94.99035645 90.81514648 95.88891602 90.92919922 C99.15284499 91.34611099 102.41607148 91.76788475 105.67895508 92.19287109 C107.0859336 92.37513473 108.49315832 92.55550891 109.90063477 92.73388672 C111.93444853 92.99198857 113.96725271 93.25708149 116 93.5234375 C117.22017822 93.68054199 118.44035645 93.83764648 119.69750977 93.99951172 C128.94901039 95.54874822 128.94901039 95.54874822 132.15429688 98.13110352 C133.87462284 102.01145414 133.71388507 105.79629572 133.71484375 109.99609375 C133.72245728 110.91080948 133.7300708 111.82552521 133.73791504 112.76795959 C133.74870868 114.70034051 133.75157213 116.63277973 133.74707031 118.56518555 C133.74609819 121.5177564 133.78772247 124.46772632 133.83203125 127.41992188 C133.83723862 129.29947376 133.83992644 131.17903466 133.83984375 133.05859375 C133.85623901 133.93893784 133.87263428 134.81928192 133.88952637 135.7263031 C133.84188962 139.96290641 133.63533909 142.0323147 131.16821289 145.59082031 C127.66144583 147.99448954 125.1003234 148.57828826 120.8984375 149.17578125 C120.20472549 149.27968674 119.51101349 149.38359222 118.79627991 149.49064636 C116.59435837 149.81535347 114.38961173 150.11081193 112.18359375 150.40625 C110.69829849 150.62250795 109.21326757 150.84058968 107.72851562 151.06054688 C97.17010692 152.59375 97.17010692 152.59375 92.24609375 152.59375 C92.50262865 159.33442561 95.24031569 162.8535374 99.43359375 167.96875 C100.61996664 169.47279442 101.80488073 170.97799077 102.98828125 172.484375 C103.55385742 173.19658203 104.11943359 173.90878906 104.70214844 174.64257812 C106.54068325 176.96603958 108.33711591 179.30701776 110.05859375 181.71875 C110.71794922 182.61980469 110.71794922 182.61980469 111.390625 183.5390625 C112.75093586 186.80629315 112.65722563 189.06863733 112.24609375 192.59375 C110.51313501 195.36880286 108.29110523 197.55424768 105.96484375 199.83984375 C105.31793579 200.49582047 104.67102783 201.15179718 104.0045166 201.82765198 C102.63442956 203.20686539 101.25539697 204.57724239 99.86816406 205.93920898 C97.7542607 208.02319862 95.68336347 210.14406393 93.61328125 212.27148438 C92.27454628 213.60918791 90.93347348 214.94455674 89.58984375 216.27734375 C88.97492065 216.91159775 88.35999756 217.54585175 87.72644043 218.19932556 C84.61528404 221.19646366 82.45280734 222.98527897 78.03051758 223.13500977 C74.58097851 222.64164623 72.98650898 222.38198382 70.3515625 220.25 C69.71130127 219.74887695 69.07104004 219.24775391 68.41137695 218.73144531 C67.7587085 218.19100586 67.10604004 217.65056641 66.43359375 217.09375 C65.03538853 215.99449616 63.63695002 214.89553898 62.23828125 213.796875 C61.56120117 213.25353516 60.88412109 212.71019531 60.18652344 212.15039062 C57.50908843 210.00251373 54.8002796 207.90930194 52.05859375 205.84375 C51.24003906 205.20953125 50.42148437 204.5753125 49.578125 203.921875 C46.90323011 202.39848427 45.27541175 202.31395509 42.24609375 202.59375 C42.12492188 203.86347656 42.00375 205.13320312 41.87890625 206.44140625 C41.44468096 210.94391415 40.98401514 215.44336388 40.51513672 219.94238281 C40.27363064 222.32237921 40.05608831 224.70320991 39.84375 227.0859375 C39.64072266 229.03886719 39.64072266 229.03886719 39.43359375 231.03125 C39.32402344 232.18496094 39.21445312 233.33867187 39.1015625 234.52734375 C37.96056866 238.61720753 36.62588198 240.00662882 33.24609375 242.59375 C29.92082244 243.32840213 26.66833582 243.29499527 23.2734375 243.2578125 C21.83334068 243.26498795 21.83334068 243.26498795 20.364151 243.27230835 C18.33934892 243.27570372 16.31449176 243.26652675 14.28979492 243.24560547 C11.19000259 243.21880541 8.0938215 243.24538067 4.99414062 243.27734375 C3.02473159 243.27404016 1.05532481 243.26763498 -0.9140625 243.2578125 C-2.30323631 243.27299423 -2.30323631 243.27299423 -3.72047424 243.28848267 C-10.05842018 243.17293114 -10.05842018 243.17293114 -13.28979492 240.48193359 C-14.98357983 237.14068372 -15.56472221 234.43718873 -16.01953125 230.71875 C-16.10265564 230.07180176 -16.18578003 229.42485352 -16.27142334 228.75830078 C-16.53105499 226.70502495 -16.76741171 224.64980459 -17.00390625 222.59375 C-17.17694107 221.21335985 -17.35140713 219.83314831 -17.52734375 218.453125 C-18.86688957 207.69001879 -18.86688957 207.69001879 -18.75390625 202.59375 C-23.65761574 202.21092591 -25.89139246 202.90365848 -29.72265625 205.953125 C-30.62371094 206.65695313 -31.52476562 207.36078125 -32.453125 208.0859375 C-33.37738281 208.83101562 -34.30164063 209.57609375 -35.25390625 210.34375 C-37.09652279 211.79831201 -38.94024331 213.25147677 -40.78515625 214.703125 C-41.64737793 215.3839917 -42.50959961 216.0648584 -43.39794922 216.76635742 C-50.53514575 222.30230727 -50.53514575 222.30230727 -54.62890625 223.28125 C-62.962556 221.44784706 -70.11822682 211.54043417 -76.12915039 205.62353516 C-77.17707089 204.59739515 -78.23121899 203.57757929 -79.29125977 202.56396484 C-80.84438533 201.07786866 -82.37677592 199.57288217 -83.90625 198.0625 C-84.81366943 197.18013672 -85.72108887 196.29777344 -86.65600586 195.38867188 C-89.20597326 191.99148501 -89.70086717 189.81879504 -89.75390625 185.59375 C-88.80102539 183.32128906 -88.80102539 183.32128906 -87.2890625 181.359375 C-86.73943848 180.62533447 -86.18981445 179.89129395 -85.62353516 179.13500977 C-85.02718262 178.37889404 -84.43083008 177.62277832 -83.81640625 176.84375 C-83.22263184 176.05605225 -82.62885742 175.26835449 -82.01708984 174.45678711 C-80.27994006 172.15528769 -78.52026373 169.87287112 -76.75390625 167.59375 C-75.11521885 165.45743304 -73.49307435 163.31135144 -71.87890625 161.15625 C-71.24210937 160.33253906 -70.6053125 159.50882813 -69.94921875 158.66015625 C-69.55476563 157.97824219 -69.1603125 157.29632813 -68.75390625 156.59375 C-69.08390625 155.60375 -69.41390625 154.61375 -69.75390625 153.59375 C-72.26042851 153.15238622 -74.76715813 152.71225808 -77.27416992 152.27368164 C-79.39063706 151.90285532 -81.50668594 151.52963403 -83.62231445 151.15405273 C-90.30906833 149.97518879 -90.30906833 149.97518879 -97.03515625 149.05859375 C-98.15921875 148.92582031 -99.28328125 148.79304687 -100.44140625 148.65625 C-101.87033203 148.51896484 -101.87033203 148.51896484 -103.328125 148.37890625 C-106.85579104 147.2371013 -107.80556691 145.74643457 -109.75390625 142.59375 C-110.33727769 139.42487518 -110.31483337 136.30891925 -110.28515625 133.09375 C-110.28898315 132.18044922 -110.29281006 131.26714844 -110.29675293 130.32617188 C-110.29946878 128.39972834 -110.29213049 126.47324772 -110.27539062 124.546875 C-110.25397593 121.60332792 -110.27520296 118.66222145 -110.30078125 115.71875 C-110.29813792 113.84374463 -110.29301282 111.96874077 -110.28515625 110.09375 C-110.29325317 109.21654297 -110.3013501 108.33933594 -110.30969238 107.43554688 C-110.2481326 103.41075663 -110.05757291 101.11690311 -108.00219727 97.57592773 C-105.59648068 95.45495771 -104.38222325 94.8382903 -101.25 94.37890625 C-99.93298096 94.17225342 -99.93298096 94.17225342 -98.58935547 93.96142578 C-97.65365723 93.84009277 -96.71795898 93.71875977 -95.75390625 93.59375 C-94.7911377 93.4582373 -93.82836914 93.32272461 -92.83642578 93.18310547 C-89.8323186 92.77472774 -86.82586517 92.39797323 -83.81640625 92.03125 C-81.78611693 91.78272118 -79.75614987 91.53154125 -77.7265625 91.27734375 C-76.84234619 91.16962646 -75.95812988 91.06190918 -75.04711914 90.95092773 C-72.6000994 90.63495843 -72.6000994 90.63495843 -69.75390625 89.59375 C-68.67684836 87.82603051 -68.67684836 87.82603051 -68.75390625 85.59375 C-70.21648954 83.25511314 -70.21648954 83.25511314 -72.44140625 80.90625 C-76.61021854 76.01299955 -80.57452657 71.02683012 -84.37890625 65.84375 C-84.92377686 65.13516846 -85.46864746 64.42658691 -86.0300293 63.6965332 C-86.52929932 63.007771 -87.02856934 62.31900879 -87.54296875 61.609375 C-87.99365723 61.00383789 -88.4443457 60.39830078 -88.90869141 59.77441406 C-90.25603238 56.2982588 -89.7572709 54.16237179 -88.75390625 50.59375 C-86.91222575 47.96235318 -84.70014495 45.81535915 -82.3828125 43.6015625 C-81.74528549 42.9701535 -81.10775848 42.33874451 -80.45091248 41.6882019 C-78.41975095 39.68388981 -76.36841344 37.70169116 -74.31640625 35.71875 C-72.93943871 34.36331528 -71.5637723 33.00655741 -70.18945312 31.6484375 C-59.22789965 20.87040722 -59.22789965 20.87040722 -55.21484375 20.1171875 C-49.88590492 20.85096914 -46.54448459 23.96357322 -42.37890625 27.21875 C-41.56679687 27.83621094 -40.7546875 28.45367187 -39.91796875 29.08984375 C-33.50645177 33.97040556 -33.50645177 33.97040556 -30.58105469 36.39355469 C-26.42248544 39.78372116 -26.42248544 39.78372116 -21.25390625 40.96875 C-20.42890625 40.845 -19.60390625 40.72125 -18.75390625 40.59375 C-18.71652344 39.82675781 -18.67914063 39.05976562 -18.640625 38.26953125 C-18.18984775 30.65935061 -17.44783577 23.09516681 -16.50390625 15.53125 C-16.40682373 14.62737549 -16.30974121 13.72350098 -16.2097168 12.79223633 C-16.09539307 11.93138428 -15.98106934 11.07053223 -15.86328125 10.18359375 C-15.77014648 9.41909912 -15.67701172 8.65460449 -15.58105469 7.86694336 C-12.74206248 0.06474253 -7.22853601 -0.13135824 0 0 Z M-0.75390625 15.59375 C-2.1486527 23.9622287 -3.47138036 32.31509728 -4.609375 40.71875 C-4.72925781 41.5540625 -4.84914063 42.389375 -4.97265625 43.25 C-5.12637695 44.36084961 -5.12637695 44.36084961 -5.28320312 45.49414062 C-5.80248113 47.81042218 -6.51705741 49.56808757 -7.75390625 51.59375 C-10.328125 53.078125 -10.328125 53.078125 -13.44140625 54.34375 C-14.96314453 54.98570313 -14.96314453 54.98570313 -16.515625 55.640625 C-20.375535 56.77671431 -22.74414768 57.19923625 -26.75390625 56.59375 C-30.17449141 54.6832748 -33.1852829 52.33254698 -36.25390625 49.90625 C-37.88911533 48.65207305 -39.52452866 47.39816235 -41.16015625 46.14453125 C-41.93488281 45.54205566 -42.70960938 44.93958008 -43.5078125 44.31884766 C-46.5343784 41.99431346 -49.63210714 39.78824051 -52.75390625 37.59375 C-57.59700479 39.76154311 -60.84101634 43.27484226 -64.56640625 46.96875 C-65.27216797 47.64164063 -65.97792969 48.31453125 -66.70507812 49.0078125 C-67.36701172 49.66265625 -68.02894531 50.3175 -68.7109375 50.9921875 C-69.3191333 51.58692871 -69.9273291 52.18166992 -70.55395508 52.79443359 C-71.97577384 54.5193946 -71.97577384 54.5193946 -71.5715332 56.63867188 C-70.28751978 59.70895539 -68.19955704 62.14926577 -66.12890625 64.71875 C-65.21965738 65.87236257 -64.31211995 67.027326 -63.40625 68.18359375 C-62.95749512 68.75577637 -62.50874023 69.32795898 -62.04638672 69.91748047 C-52.34962698 82.49359538 -52.34962698 82.49359538 -52.75390625 89.59375 C-53.88310862 94.59870424 -55.50773627 98.5917716 -58.75390625 102.59375 C-63.2929907 104.53380003 -67.59531539 105.0530028 -72.48828125 105.41845703 C-75.60539931 105.65963061 -78.69772542 106.0556705 -81.79956055 106.44262695 C-83.96604379 106.70652491 -86.13408225 106.93708971 -88.3046875 107.1640625 C-91.72732503 107.47570838 -91.72732503 107.47570838 -94.75390625 108.59375 C-94.75390625 117.17375 -94.75390625 125.75375 -94.75390625 134.59375 C-87.60599249 136.21491766 -87.60599249 136.21491766 -80.45703125 137.375 C-79.56113281 137.49488281 -78.66523438 137.61476563 -77.7421875 137.73828125 C-75.90129953 137.97725529 -74.06014732 138.2142017 -72.21875 138.44921875 C-63.47370198 139.62619337 -63.47370198 139.62619337 -59.75390625 141.59375 C-58.19140625 143.65625 -58.19140625 143.65625 -56.75390625 146.59375 C-56.38910156 147.29242188 -56.02429688 147.99109375 -55.6484375 148.7109375 C-55.27074219 149.47664062 -54.89304688 150.24234375 -54.50390625 151.03125 C-53.97023438 152.11212891 -53.97023438 152.11212891 -53.42578125 153.21484375 C-52.47592567 156.5779952 -52.7001654 158.21698955 -53.75390625 161.59375 C-55.79243456 164.90428684 -58.12878394 167.95657244 -60.50390625 171.03125 C-61.74905158 172.67551349 -62.99384907 174.32004046 -64.23828125 175.96484375 C-64.83447266 176.74585449 -65.43066406 177.52686523 -66.04492188 178.33154297 C-68.34474815 181.37585586 -70.55505911 184.47591903 -72.75390625 187.59375 C-67.38733781 194.30196055 -61.13722998 199.88181145 -54.75390625 205.59375 C-49.06821599 202.54032375 -44.08242991 198.93939328 -39.00390625 194.96875 C-37.5096987 193.80914278 -36.01492994 192.65025825 -34.51953125 191.4921875 C-33.86758789 190.98349121 -33.21564453 190.47479492 -32.54394531 189.95068359 C-28.27989616 186.71833428 -26.11100795 186.16831664 -20.75390625 186.59375 C-17.296875 187.765625 -17.296875 187.765625 -13.94140625 189.34375 C-12.26111328 190.10945313 -12.26111328 190.10945313 -10.546875 190.890625 C-7.47880146 192.76150621 -6.99805965 193.34584763 -5.75390625 196.59375 C-5.33827683 198.87629064 -5.00252448 201.17390933 -4.71875 203.4765625 C-4.59337608 204.45977982 -4.59337608 204.45977982 -4.46546936 205.46286011 C-4.20054862 207.54735861 -3.94533951 209.63288683 -3.69140625 211.71875 C-3.43262851 213.81155789 -3.17173989 215.90404762 -2.90663147 217.99606323 C-2.66733568 219.88887555 -2.43494007 221.78255639 -2.20288086 223.67626953 C-1.91723771 226.52205981 -1.91723771 226.52205981 -0.75390625 228.59375 C7.82609375 228.59375 16.40609375 228.59375 25.24609375 228.59375 C25.58382812 226.33015625 25.9215625 224.0665625 26.26953125 221.734375 C26.602213 219.53653209 26.93722401 217.339056 27.27246094 215.14160156 C27.50374044 213.61722994 27.73260638 212.09249005 27.95898438 210.56738281 C28.28528236 208.37202705 28.62031077 206.17815328 28.95703125 203.984375 C29.05607758 203.3050592 29.1551239 202.62574341 29.25717163 201.92584229 C29.79067632 198.50786452 30.29634428 195.49237467 32.24609375 192.59375 C35.2578125 190.85546875 35.2578125 190.85546875 38.93359375 189.28125 C40.13371094 188.74886719 41.33382812 188.21648437 42.5703125 187.66796875 C46.87930574 186.40869867 48.94409278 186.29195144 53.24609375 187.59375 C56.43481654 189.59829055 59.29369017 191.93427765 62.18359375 194.34375 C63.71052844 195.59223604 65.24045283 196.83707507 66.7734375 198.078125 C67.44109131 198.63209961 68.10874512 199.18607422 68.79663086 199.75683594 C72.12671844 202.25415269 75.71633462 204.38765055 79.24609375 206.59375 C85.18609375 200.65375 91.12609375 194.71375 97.24609375 188.59375 C93.26704382 182.6251751 89.31228746 176.9602121 84.859375 171.390625 C77.1639327 161.5964257 77.1639327 161.5964257 77.37109375 156.546875 C77.65984375 155.57234375 77.94859375 154.5978125 78.24609375 153.59375 C78.53484375 152.55734375 78.82359375 151.5209375 79.12109375 150.453125 C79.67796875 148.91398437 79.67796875 148.91398437 80.24609375 147.34375 C80.59671875 146.30734375 80.94734375 145.2709375 81.30859375 144.203125 C83.81370511 140.82930566 85.50740664 140.62965828 89.53564453 139.96630859 C90.43009277 139.84336426 91.32454102 139.72041992 92.24609375 139.59375 C94.33856937 139.24886596 96.43101565 138.90380388 98.5234375 138.55859375 C101.88909447 138.03513557 105.25598435 137.52019204 108.62304688 137.00585938 C109.70392578 136.83763672 110.78480469 136.66941406 111.8984375 136.49609375 C113.3678479 136.27167603 113.3678479 136.27167603 114.86694336 136.04272461 C117.2513852 135.7051023 117.2513852 135.7051023 119.24609375 134.59375 C119.24609375 126.01375 119.24609375 117.43375 119.24609375 108.59375 C111.51425456 107.36606549 111.51425456 107.36606549 103.78198242 106.14111328 C96.91923154 105.04723815 90.07738375 103.86951938 83.24609375 102.59375 C82.52994792 100.38020833 81.81380208 98.16666667 81.09765625 95.953125 C80.3368954 93.61462141 80.3368954 93.61462141 79.14453125 91.734375 C77.78115356 88.48597946 77.86295272 86.08665706 78.24609375 82.59375 C79.64278613 80.11236125 80.94826443 78.1142174 82.68359375 75.90625 C83.13009277 75.31118652 83.5765918 74.71612305 84.03662109 74.10302734 C84.96343487 72.871087 85.89743583 71.64452243 86.83837891 70.42333984 C88.21463123 68.63464145 89.56790478 66.83095316 90.9140625 65.01953125 C93.0104387 62.20001341 95.12325939 59.3934301 97.24609375 56.59375 C95.85261999 53.44170019 94.22124296 51.33203227 91.76953125 48.921875 C91.09921875 48.25800781 90.42890625 47.59414062 89.73828125 46.91015625 C89.03960937 46.22824219 88.3409375 45.54632813 87.62109375 44.84375 C86.9146875 44.14636719 86.20828125 43.44898437 85.48046875 42.73046875 C83.74010672 41.01362512 81.99524394 39.30163168 80.24609375 37.59375 C75.27149107 39.14415198 71.86041009 42.12265333 67.93359375 45.40625 C55.18392983 56.02878152 55.18392983 56.02878152 48.99609375 57.21875 C42.88002873 56.19940583 35.71075736 54.05841361 31.24609375 49.59375 C30.68359375 47.32226562 30.68359375 47.32226562 30.24609375 44.5 C30.08109375 43.46875 29.91609375 42.4375 29.74609375 41.375 C29.58109375 40.2921875 29.41609375 39.209375 29.24609375 38.09375 C28.91435507 35.97891591 28.58103695 33.86432893 28.24609375 31.75 C28.02953125 30.33944336 28.02953125 30.33944336 27.80859375 28.90039062 C27.051072 24.44732005 26.13195875 20.023075 25.24609375 15.59375 C16.66609375 15.59375 8.08609375 15.59375 -0.75390625 15.59375 Z " fill="#4E4E4E" transform="translate(223.75390625,45.40625)"/>
<path d="M0 0 C8.31834727 4.91356629 14.6339503 12.59233434 17.4375 21.9375 C17.78125 23.859375 17.78125 23.859375 18 26 C18.0928125 26.89203125 18.185625 27.7840625 18.28125 28.703125 C18.8188739 38.97174155 15.82655498 48.10384586 9.1875 56 C2.28009718 63.0895189 -5.33685395 67.14038802 -15.3190918 67.48217773 C-26.32909395 67.56727357 -34.40975265 65.34865656 -42.875 57.875 C-50.75576262 49.24092919 -53.44596 39.08483603 -53.33984375 27.7421875 C-52.49192198 18.40530184 -48.07718367 10.1208075 -41 4 C-28.39154521 -4.9660123 -14.12833472 -7.33712592 0 0 Z " fill="#F0F0F0" transform="translate(253,135)"/>
<path d="M0 0 C10.62912987 8.07174524 18.84741374 18.55490022 21.58203125 31.82421875 C23.53422648 46.65725352 21.63034267 59.89666579 13.03515625 72.43359375 C5.02443403 82.53540661 -5.4490122 89.05231849 -18 92 C-34.7458475 93.80791604 -48.74700504 89.95826658 -61.9921875 79.4140625 C-70.46910957 71.69064461 -76.79196635 59.73141954 -77.43359375 48.203125 C-77.45699174 46.55224862 -77.45775666 44.90091791 -77.4375 43.25 C-77.42992676 42.37819092 -77.42235352 41.50638184 -77.41455078 40.6081543 C-77.12593886 29.20377008 -73.99723367 20.01743237 -67 11 C-66.2575 9.96875 -65.515 8.9375 -64.75 7.875 C-47.67511449 -9.97601667 -20.90036163 -13.40967202 0 0 Z M-55 18 C-61.87720908 27.67107526 -64.02676529 36.15369546 -63 48 C-60.43229161 59.48174152 -53.67644103 67.67281463 -44.1875 74.2578125 C-36.17886514 78.73138588 -24.86093528 78.41361312 -16.1171875 76.3046875 C-13.88762165 75.38023337 -12.00376995 74.34140109 -10 73 C-9.30777344 72.56429687 -8.61554688 72.12859375 -7.90234375 71.6796875 C0.60414901 65.86029245 5.63378096 58.01298341 8 48 C9.37015497 36.09966528 6.51420063 26.90183555 -0.76171875 17.484375 C-7.05009331 10.50460847 -14.97708817 6.64995451 -24.2578125 5.6484375 C-36.30782166 5.1452503 -46.9754463 8.72160979 -55 18 Z " fill="#4E4E4E" transform="translate(263,125)"/>
<path d="M0 0 C1.00106576 -0.00623996 2.00213153 -0.01247993 3.03353262 -0.01890898 C6.39779604 -0.03490117 9.76134118 -0.02221 13.12561035 -0.00964355 C15.53347701 -0.01506188 17.94134035 -0.02218291 20.34919739 -0.03088379 C26.21619435 -0.04725554 32.08300384 -0.04482371 37.94999564 -0.03323323 C42.71771336 -0.02420391 47.48537371 -0.02297271 52.25309753 -0.02732849 C52.93136419 -0.02794142 53.60963084 -0.02855436 54.30845103 -0.02918586 C55.68628698 -0.03046475 57.06412292 -0.0317616 58.44195884 -0.03307623 C71.36546525 -0.04448558 84.28885821 -0.0313628 97.21234602 -0.00987476 C108.30409642 0.00799658 119.39567938 0.00489258 130.48742676 -0.0135498 C143.364314 -0.0349503 156.24110178 -0.04338691 169.11800432 -0.03110075 C170.49080434 -0.02982654 171.86360437 -0.02856906 173.23640442 -0.02732849 C173.91186864 -0.02671139 174.58733285 -0.02609429 175.28326568 -0.02545848 C180.04589828 -0.02200311 184.80846786 -0.02783795 189.5710907 -0.0372467 C195.97986396 -0.04962905 202.38839505 -0.04082792 208.79714012 -0.01766968 C211.15301677 -0.01236834 213.50891997 -0.01392054 215.86478615 -0.02272034 C219.07338829 -0.03360278 222.28096564 -0.01999983 225.48950195 0 C226.42840444 -0.00892289 227.36730693 -0.01784577 228.33466101 -0.02703905 C234.60224515 0.0490756 234.60224515 0.0490756 237.82711029 2.35218048 C239.75856799 5.28927722 239.74801231 7.05699974 239.24475098 10.50793457 C237.46490693 13.64385027 236.72166891 14.34896193 233.24475098 15.50793457 C231.86895332 15.60112324 230.48911344 15.64055422 229.11017036 15.64494896 C227.84136329 15.65256077 227.84136329 15.65256077 226.54692376 15.66032636 C225.15273321 15.661073 225.15273321 15.661073 223.7303772 15.66183472 C222.74312208 15.66621697 221.75586696 15.67059922 220.73869503 15.67511427 C217.41535371 15.68851802 214.09203891 15.69468462 210.76867676 15.70080566 C208.39213948 15.70870522 206.01560341 15.71697408 203.6390686 15.72558594 C196.49749199 15.74955268 189.35591009 15.76473353 182.21430665 15.77764601 C180.19759422 15.78135821 178.18088248 15.7853314 176.16417074 15.78939867 C163.64237815 15.81463086 151.12058445 15.83668525 138.59877205 15.84912682 C135.6990267 15.85205653 132.79928139 15.85501819 129.89953613 15.85803223 C129.17881541 15.85877828 128.4580947 15.85952433 127.71553396 15.86029299 C116.03401485 15.8729532 104.35264772 15.90618629 92.67119969 15.94783406 C80.68051796 15.99023438 68.68991411 16.01381946 56.6991576 16.01904738 C49.96570752 16.02246322 43.23249515 16.03423877 36.4991188 16.06715012 C30.16747892 16.09713042 23.8362542 16.10357826 17.50455856 16.09176636 C15.17810777 16.0915448 12.85163826 16.0999172 10.5252533 16.1174202 C7.3540276 16.13998494 4.18432363 16.1318751 1.01309204 16.11593628 C0.08809312 16.12981837 -0.8369058 16.14370045 -1.78993499 16.15800321 C-6.27154019 16.10233408 -8.16489828 15.95838952 -11.83061409 13.16134071 C-13.75524902 10.50793457 -13.75524902 10.50793457 -14.31774902 7.44543457 C-12.78520754 -0.5578376 -6.77507369 -0.06438711 0 0 Z " fill="#505050" transform="translate(122.7552490234375,415.4920654296875)"/>
<path d="M0 0 C1.49441497 -0.00935994 1.49441497 -0.00935994 3.01902014 -0.01890898 C6.3671312 -0.03490088 9.71452049 -0.02221009 13.06263733 -0.00964355 C15.4590294 -0.01506193 17.85541814 -0.02218298 20.25180054 -0.03088379 C26.09105933 -0.04725582 31.93012975 -0.04482336 37.76938336 -0.03323323 C42.51516275 -0.02420318 47.26088449 -0.02297303 52.00667 -0.02732849 C52.68187257 -0.02794142 53.35707513 -0.02855436 54.05273839 -0.02918586 C55.42437161 -0.03046475 56.79600482 -0.03176161 58.16763801 -0.03307623 C71.03347086 -0.04448591 83.89918976 -0.03136274 96.76500393 -0.00987476 C107.80470185 0.00799256 118.84423151 0.00489596 129.88392639 -0.0135498 C142.70185971 -0.03495671 155.51969308 -0.04338296 168.33764178 -0.03110075 C169.70456189 -0.02982655 171.07148203 -0.02856907 172.43840218 -0.02732849 C173.11096157 -0.02671139 173.78352096 -0.02609429 174.47646094 -0.02545848 C179.21608155 -0.02200473 183.95563877 -0.02783454 188.69524956 -0.0372467 C195.07532623 -0.04878641 201.45508465 -0.04081338 207.83512688 -0.01766968 C210.17929556 -0.01237237 212.52349095 -0.01391371 214.86764908 -0.02272034 C218.06276461 -0.03361874 221.25685447 -0.01998022 224.4519043 0 C225.38400299 -0.00892289 226.31610169 -0.01784577 227.27644581 -0.02703905 C231.44736413 0.02370148 233.72650275 0.1712491 237.3730402 2.35218048 C239.28944397 4.50793457 239.28944397 4.50793457 239.78944397 7.50793457 C239.20893694 10.99097675 238.93089168 12.16148131 236.28944397 14.50793457 C233.06129281 15.13249053 229.85054975 15.04665586 226.5717926 15.01586914 C225.05816659 15.02522908 225.05816659 15.02522908 223.51396227 15.03477812 C220.11662285 15.05079338 216.71999244 15.03807021 213.32264709 15.0255127 C210.89360127 15.03093 208.46455873 15.03805045 206.03552246 15.04675293 C200.11324498 15.06313489 194.19115313 15.06068749 188.26888072 15.04910237 C183.45679425 15.04007778 178.64476462 15.0388398 173.83267212 15.04319763 C173.14843053 15.04381056 172.46418894 15.0444235 171.75921276 15.045055 C170.36929554 15.04633387 168.97937834 15.04763072 167.58946115 15.04894537 C154.5486742 15.06035826 141.50799962 15.0472264 128.46723109 15.0257439 C117.27168196 15.00787224 106.07629871 15.01097615 94.88075256 15.02941895 C81.88742003 15.0508132 68.89418606 15.05925956 55.90083838 15.04696989 C54.51596421 15.04569566 53.13109002 15.04443818 51.74621582 15.04319763 C51.06478768 15.04258053 50.38335955 15.04196343 49.68128207 15.04132763 C44.8736078 15.03787037 40.06599591 15.04371111 35.2583313 15.05311584 C28.79047931 15.06548981 22.32286742 15.05671102 15.85504341 15.03353882 C13.47617173 15.02823341 11.09727375 15.02979655 8.7184124 15.03858948 C5.48094514 15.04945599 2.24449695 15.03588855 -0.99290466 15.01586914 C-2.41832368 15.02925347 -2.41832368 15.02925347 -3.87253904 15.04290819 C-10.19320475 14.96664545 -10.19320475 14.96664545 -12.79056549 12.66368866 C-14.0577299 9.69442459 -14.17663252 7.70388765 -13.71055603 4.50793457 C-10.2526032 -0.7401065 -5.69851537 -0.05442107 0 0 Z " fill="#4D4D4D" transform="translate(122.71055603027344,368.4920654296875)"/>
<path d="M0 0 C1.00106576 -0.00623996 2.00213153 -0.01247993 3.03353262 -0.01890898 C6.39779604 -0.03490117 9.76134118 -0.02221 13.12561035 -0.00964355 C15.53347701 -0.01506188 17.94134035 -0.02218291 20.34919739 -0.03088379 C26.21619435 -0.04725554 32.08300384 -0.04482371 37.94999564 -0.03323323 C42.71771336 -0.02420391 47.48537371 -0.02297271 52.25309753 -0.02732849 C52.93136419 -0.02794142 53.60963084 -0.02855436 54.30845103 -0.02918586 C55.68628698 -0.03046475 57.06412292 -0.0317616 58.44195884 -0.03307623 C71.36546525 -0.04448558 84.28885821 -0.0313628 97.21234602 -0.00987476 C108.30409642 0.00799658 119.39567938 0.00489258 130.48742676 -0.0135498 C143.364314 -0.0349503 156.24110178 -0.04338691 169.11800432 -0.03110075 C170.49080434 -0.02982654 171.86360437 -0.02856906 173.23640442 -0.02732849 C173.91186864 -0.02671139 174.58733285 -0.02609429 175.28326568 -0.02545848 C180.04589828 -0.02200311 184.80846786 -0.02783795 189.5710907 -0.0372467 C195.97986396 -0.04962905 202.38839505 -0.04082792 208.79714012 -0.01766968 C211.15301677 -0.01236834 213.50891997 -0.01392054 215.86478615 -0.02272034 C219.07338829 -0.03360278 222.28096564 -0.01999983 225.48950195 0 C226.42840444 -0.00892289 227.36730693 -0.01784577 228.33466101 -0.02703905 C234.60224515 0.0490756 234.60224515 0.0490756 237.82711029 2.35218048 C239.75856799 5.28927722 239.74801231 7.05699974 239.24475098 10.50793457 C238.32196712 12.66368866 238.32196712 12.66368866 236.24475098 14.50793457 C233.03142278 15.1320905 229.83590385 15.04666654 226.5717926 15.01586914 C225.56749771 15.0221091 224.56320282 15.02834907 223.52847475 15.03477812 C220.14728771 15.0507932 216.7668131 15.03807026 213.38562012 15.0255127 C210.96804888 15.03093005 208.55048095 15.03805052 206.13291931 15.04675293 C200.23838001 15.06313522 194.3440272 15.06068712 188.449493 15.04910237 C183.65934487 15.04007709 178.86925384 15.0388401 174.07909966 15.04319763 C173.39792215 15.04381056 172.71674465 15.0444235 172.0149254 15.045055 C170.63121091 15.04633388 169.24749644 15.04763073 167.86378198 15.04894537 C154.88066859 15.0603586 141.89766807 15.04722631 128.91457319 15.0257439 C117.77107653 15.00787622 106.62774656 15.01097279 95.48425293 15.02941895 C82.54987433 15.05081952 69.61559475 15.05925566 56.68120092 15.04696989 C55.30220665 15.04569567 53.92321236 15.04443819 52.54421806 15.04319763 C51.86569475 15.04258053 51.18717144 15.04196343 50.48808681 15.04132763 C45.70342454 15.03787197 40.918825 15.04370776 36.13417244 15.05311584 C29.69504415 15.06549852 23.25615689 15.05669659 16.81705666 15.03353882 C14.44989293 15.02823739 12.08270277 15.02978983 9.71554947 15.03858948 C6.49156882 15.0494717 3.26860812 15.03586915 0.04469299 15.01586914 C-1.37052034 15.02925347 -1.37052034 15.02925347 -2.81432384 15.04290819 C-9.11304065 14.96677887 -9.11304065 14.96677887 -12.3364954 12.66368866 C-14.28457305 9.7036424 -14.33441745 7.98294515 -13.75524902 4.50793457 C-10.28802895 -0.75005141 -5.71078718 -0.05427263 0 0 Z " fill="#4D4D4D" transform="translate(122.7552490234375,321.4920654296875)"/>
</svg>
