<?xml version="1.0" encoding="UTF-8"?>
<svg
  version="1.1"
  viewBox="0 0 512 512"
  xmlns="http://www.w3.org/2000/svg">
  <path
    d="M0 0 C1.84078125 -0.01546875 1.84078125 -0.01546875 3.71875 -0.03125 C13.46645261 1.33826194 19.08305501 7.54080942 25.6875 14.296875 C26.63925465 15.25610468 27.59190721 16.21444419 28.54541016 17.17193604 C31.03343581 19.67511882 33.50920413 22.19008159 35.98248291 24.70782471 C38.51608534 27.28259575 41.0612751 29.84585779 43.60546875 32.41015625 C48.58161366 37.42899641 53.54488099 42.46039261 58.5 47.5 C60.4135393 45.11817045 62.31983287 42.74279665 64.140625 40.2890625 C73.57053822 27.60903356 85.7015665 19.91812758 101.5 17.5 C117.10110711 16.12343173 131.13752204 20.14990262 143.48046875 29.83984375 C153.09580368 38.65942683 160.50928476 51.27610531 161.5 64.5 C161.57992188 65.39460938 161.65984375 66.28921875 161.7421875 67.2109375 C162.40437521 81.74011497 157.80070114 95.51333186 148.65625 106.76953125 C143.67975368 112.10294842 137.75570495 115.82017356 131.5 119.5 C136.06139112 124.99109854 140.93498798 130.01005133 146.0390625 134.99609375 C147.68794368 136.62259721 149.33636747 138.24956447 150.984375 139.87695312 C153.55823753 142.41370209 156.13497371 144.94724567 158.71972656 147.47290039 C161.23124737 149.92977104 163.72974184 152.39929684 166.2265625 154.87109375 C167.38135605 155.990214 167.38135605 155.990214 168.55947876 157.13194275 C173.99588127 162.54173382 177.93201115 167.45725586 179.03125 175.28125 C179.0209375 176.5084375 179.010625 177.735625 179 179 C179.0103125 180.2271875 179.020625 181.454375 179.03125 182.71875 C177.73807468 191.92311552 172.17590004 197.41880561 165.82421875 203.70703125 C164.9808345 204.5542424 164.13745026 205.40145355 163.26850891 206.27433777 C161.49064089 208.054917 159.70775451 209.83049808 157.92016602 211.60131836 C155.19266493 214.30737567 152.48719007 217.03414086 149.78320312 219.76367188 C148.04815627 221.49607584 146.31186919 223.22723876 144.57421875 224.95703125 C143.76981857 225.76952835 142.9654184 226.58202545 142.13664246 227.41914368 C137.25016002 232.22533639 133.18414846 235.66031082 126.27734375 236.8984375 C120.85175331 236.8293217 116.93253473 235.90706317 113.0078125 232.0234375 C110.31925349 228.9726892 107.94142772 225.73139992 105.5625 222.4375 C99.71393514 214.6040595 92.20512247 209.41189092 82.5 207.5 C70.52966221 206.58730562 60.87225077 208.83670091 51.5 216.5 C43.29205999 224.28748874 40.14903042 233.29429113 39.5 244.5 C39.91152323 252.41390833 42.40601454 261.41564744 48.16015625 267.15625 C49.5 268.5 49.5 268.5 49.5 270.5 C50.056875 270.76167969 50.61375 271.02335937 51.1875 271.29296875 C58.08683868 274.89414384 64.94388364 279.38776729 68.5 286.5 C68.67455695 288.4115417 68.76715146 290.33104056 68.8125 292.25 C68.84988281 293.27609375 68.88726562 294.3021875 68.92578125 295.359375 C67.91264256 302.83243468 61.21262487 308.13838254 56.1484375 313.2578125 C55.33436432 314.08328583 54.52029114 314.90875916 53.68154907 315.75924683 C51.96125543 317.49837948 50.2380769 319.23466263 48.51220703 320.96826172 C45.89057157 323.6093131 43.29106175 326.27092824 40.69140625 328.93359375 C39.01174383 330.62631796 37.33079511 332.31776695 35.6484375 334.0078125 C34.88139496 334.79954865 34.11435242 335.59128479 33.32406616 336.40701294 C27.30750187 342.37524164 21.19808816 346.5 12.5 346.5 C12.4071875 348.2325 12.4071875 348.2325 12.3125 350 C11.14103421 358.99066998 4.33092374 365.08796929 -1.86328125 371.15625 C-3.05125557 372.33785706 -3.05125557 372.33785706 -4.26322937 373.54333496 C-6.77264608 376.03607663 -9.29233386 378.51813132 -11.8125 381 C-13.52478028 382.69721908 -15.23637608 384.395129 -16.94726562 386.09375 C-21.12362672 390.23719017 -25.30845156 394.37192716 -29.5 398.5 C-27.19910274 400.86610986 -24.90567519 402.64856733 -22.125 404.4375 C-9.21083521 412.75848247 -1.84500129 424.61034976 1.5 439.5 C2.9994698 456.37472293 -0.11162754 470.36696579 -10.41015625 484.03515625 C-19.10465237 494.28978626 -32.1073563 501.18985007 -45.5 502.5 C-61.0071424 503.67802877 -74.86172125 499.32320338 -87.25 489.875 C-92.52420101 485.02485536 -97.29012468 477.91975063 -100.5 471.5 C-103.60432482 472.8769363 -105.67774387 474.44794198 -108.04003906 476.87646484 C-108.71464172 477.56412933 -109.38924438 478.25179382 -110.08428955 478.96029663 C-111.1640506 480.07436386 -111.1640506 480.07436386 -112.265625 481.2109375 C-113.81091457 482.78152883 -115.35649679 484.35183228 -116.90234375 485.921875 C-119.32646553 488.3955287 -121.74729777 490.87222284 -124.16259766 493.35449219 C-126.50049778 495.75309837 -128.85092127 498.13886802 -131.203125 500.5234375 C-132.27074066 501.63143204 -132.27074066 501.63143204 -133.35992432 502.7618103 C-138.69014935 508.14444867 -143.65335032 511.95956162 -151.28125 513.03125 C-152.5084375 513.0209375 -153.735625 513.010625 -155 513 C-156.2271875 513.0103125 -157.454375 513.020625 -158.71875 513.03125 C-168.52982504 511.6528345 -174.33463579 505.26166804 -181.01953125 498.51171875 C-182.00923991 497.52471039 -182.99954121 496.53829596 -183.99040222 495.55244446 C-186.05509193 493.49362174 -188.1124508 491.42781693 -190.16479492 489.35668945 C-192.78497644 486.71369008 -195.42275313 484.08910072 -198.06628895 481.46948528 C-200.11112482 479.43915771 -202.14627175 477.39933196 -204.17868614 475.35657692 C-205.14731744 474.38529378 -206.11888328 473.41692738 -207.0935154 472.45166588 C-217.49019337 462.13313696 -217.49019337 462.13313696 -218.8984375 454.27734375 C-218.82927215 448.84786352 -217.88905167 444.97321881 -214.05859375 441.0078125 C-210.90900408 438.1870663 -207.58919167 435.91083887 -204 433.6875 C-195.16110637 427.86015445 -190.70477877 419.73647285 -188.5 409.5 C-187.25898382 399.1770018 -189.71659105 390.01479036 -195.78125 381.6015625 C-201.85739486 374.17209447 -208.75994145 369.44437965 -218.4609375 368.26074219 C-230.31140407 367.27503888 -240.3343681 369.1053029 -249.875 376.6875 C-253.43688629 380.05109572 -255.62130022 383.87554083 -257.9921875 388.125 C-260.82911132 392.59352249 -264.47887513 395.82629171 -269.5 397.5 C-275.74865761 398.02954726 -280.33690838 397.28216251 -285.5 393.5 C-296.27972028 383.94055944 -296.27972028 383.94055944 -298.5 379.5 C-298.40460938 378.84128906 -298.30921875 378.18257813 -298.2109375 377.50390625 C-297.56886096 372.8376523 -297.94156491 370.32381984 -300.62890625 366.359375 C-305.39521793 360.77638245 -305.39521793 360.77638245 -311.953125 358.27734375 C-313.4350342 358.59082454 -314.90993238 358.9396385 -316.375 359.32421875 C-318.5 359.5 -318.5 359.5 -320.625 358.33203125 C-325.88830616 353.81635381 -331.27923836 348.16228493 -333.5 341.5 C-333.67307524 339.10815698 -333.76680736 336.71016141 -333.8125 334.3125 C-333.86857422 332.40404297 -333.86857422 332.40404297 -333.92578125 330.45703125 C-332.9322822 321.22387038 -327.40436902 315.86599701 -321.015625 309.6953125 C-320.20003113 308.89012177 -319.38443726 308.08493103 -318.54412842 307.25534058 C-315.95547679 304.70212657 -313.35376508 302.16279212 -310.75 299.625 C-308.1338136 297.0640074 -305.52060164 294.50014842 -302.9130249 291.9303894 C-301.29366351 290.33559789 -299.66898709 288.74618246 -298.03863525 287.16262817 C-297.3107782 286.44783295 -296.58292114 285.73303772 -295.83300781 284.99658203 C-294.8651535 284.05348679 -294.8651535 284.05348679 -293.87774658 283.09133911 C-292.28181772 281.59880721 -292.28181772 281.59880721 -292.5 279.5 C-294.58191997 278.04409654 -294.58191997 278.04409654 -297.1875 276.625 C-309.49123218 269.66199898 -317.14889299 258.88353897 -321.5 245.5 C-325.22936731 231.42464597 -322.74963569 215.68350417 -315.6875 203.1875 C-307.35727213 190.39243536 -296.47115441 182.2113366 -281.5 178.5 C-265.42217567 175.38479087 -251.24236102 178.81080023 -237.5 187.5 C-229.81983545 192.86083818 -224.90423126 200.36911151 -220.5 208.5 C-215.41916983 204.26617876 -210.75412721 199.81475799 -206.16796875 195.0546875 C-204.77876382 193.63336253 -203.38876525 192.2128129 -201.99804688 190.79296875 C-199.83825089 188.58384667 -197.683416 186.37075383 -195.54174805 184.14404297 C-193.45204465 181.97504439 -191.34322192 179.82621052 -189.23046875 177.6796875 C-188.2908857 176.6889473 -188.2908857 176.6889473 -187.33232117 175.67819214 C-182.67908976 170.9972148 -177.90177049 168.22812946 -171.5 166.5 C-170.18 166.5 -168.86 166.5 -167.5 166.5 C-167.438125 165.345 -167.37625 164.19 -167.3125 163 C-166.14103421 154.00933002 -159.33092374 147.91203071 -153.13671875 141.84375 C-152.34473587 141.05601196 -151.55275299 140.26827393 -150.73677063 139.45666504 C-148.22735392 136.96392337 -145.70766614 134.48186868 -143.1875 132 C-141.47521972 130.30278092 -139.76362392 128.604871 -138.05273438 126.90625 C-133.87637328 122.76280983 -129.69154844 118.62807284 -125.5 114.5 C-128.89359593 111.75897768 -132.34150334 109.21874097 -135.9375 106.75 C-140.72003269 103.27296948 -144.78327693 99.83364815 -147.5 94.5 C-148.04473431 91.02731875 -147.94667468 89.34633097 -146.3125 86.25 C-145.16888549 82.37930473 -146.48678639 79.88898796 -147.76171875 76.1484375 C-148.87080085 72.16982554 -148.69879542 68.60843866 -148.5 64.5 C-149.675625 64.066875 -149.675625 64.066875 -150.875 63.625 C-153.5 62.5 -153.5 62.5 -155.5 60.5 C-156.70026564 49.69760926 -151.9885679 39.86931221 -145.5 31.5 C-144.98695313 30.81164062 -144.47390625 30.12328125 -143.9453125 29.4140625 C-136.39048387 19.97956359 -124.47479503 13.30465221 -112.5 11.5 C-94.9438728 10.24443391 -81.86854197 13.54202062 -67.375 23.6875 C-62.00552744 28.38195315 -57.4760399 35.04685227 -54.5 41.5 C-51.39567518 40.1230637 -49.32225613 38.55205802 -46.95996094 36.12353516 C-46.28535828 35.43587067 -45.61075562 34.74820618 -44.91571045 34.03970337 C-44.19586975 33.29699188 -43.47602905 32.5542804 -42.734375 31.7890625 C-41.18908543 30.21847117 -39.64350321 28.64816772 -38.09765625 27.078125 C-35.67353447 24.6044713 -33.25270223 22.12777716 -30.83740234 19.64550781 C-28.49950222 17.24690163 -26.14907873 14.86113198 -23.796875 12.4765625 C-23.08513123 11.73789948 -22.37338745 10.99923645 -21.64007568 10.2381897 C-15.15995471 3.6943482 -9.44886751 -0.07940225 0 0 Z "
    fill="#FE6236"
    transform="translate(333.5,-0.5)"
  />

  <path
    d="M0 0 C3.88273503 2.80180853 7.07243947 6.18824668 10.36328125 9.65234375 C11.3254036 10.63450147 12.28948496 11.61474358 13.25541687 12.59315491 C15.78200584 15.16141798 18.28447273 17.75189419 20.78155518 20.34881592 C24.78860601 24.50699183 28.83396815 28.62800332 32.87492943 32.75317574 C34.27931894 34.19284233 35.67432671 35.64164155 37.06916809 37.09056091 C37.92072983 37.96809525 38.77229156 38.84562958 39.6496582 39.74975586 C40.39528519 40.5239537 41.14091217 41.29815155 41.90913391 42.09580994 C46.44557595 46.22723084 50.35161111 46.45519599 56.3203125 46.296875 C60.30994908 45.85487445 62.09014692 44.77758703 65 42 C66.84977721 39.56050024 68.58190264 37.06598431 70.29296875 34.52734375 C76.54237615 25.27478863 83.94330053 19.59325574 95 17 C106.64262488 15.85145445 116.09518188 16.99328055 125.78515625 24.01953125 C131.28672904 28.64603797 135.1179204 33.41925158 138 40 C138.36222656 40.73605469 138.72445313 41.47210938 139.09765625 42.23046875 C142.17144194 51.66472872 140.93104673 63.63490828 136.6015625 72.390625 C131.88752567 80.07105573 126.33250766 84.87475281 118.515625 89.296875 C115.11759286 91.59740608 112.83348065 94.33303871 111 98 C110.76346547 100.23626747 110.76346547 100.23626747 110.75 102.75 C110.72421875 103.59046875 110.6984375 104.4309375 110.671875 105.296875 C111.34922892 110.87698112 114.37010524 114.74488097 118.27197266 118.59667969 C119.12941071 119.45066345 119.98684875 120.30464722 120.87026978 121.18450928 C122.25319717 122.53950531 122.25319717 122.53950531 123.6640625 123.921875 C124.62217824 124.8718448 125.5795543 125.82256116 126.53622437 126.77398682 C129.04468637 129.26540463 131.56159844 131.74809694 134.08087158 134.22857666 C138.12198658 138.21027054 142.15027339 142.20493482 146.17811203 146.20005035 C147.58523317 147.59320772 148.99640652 148.98226838 150.40762329 150.37127686 C151.25875702 151.21265198 152.10989075 152.0540271 152.98681641 152.92089844 C153.73943756 153.66225037 154.49205872 154.40360229 155.26748657 155.16741943 C157.09978396 157.10554732 157.93273441 158.19104295 158.1542511 160.85507202 C157.8122233 168.28311336 154.3497546 171.77964466 149.16796875 176.7890625 C148.37981277 177.57775726 147.5916568 178.36645203 146.77961731 179.17904663 C145.11708183 180.83390712 143.44477709 182.47900412 141.76342773 184.11474609 C139.18342517 186.62897094 136.64014821 189.17643599 134.09960938 191.73046875 C132.47861267 193.33540667 130.85563263 194.93834441 129.23046875 196.5390625 C128.46679489 197.30344635 127.70312103 198.0678302 126.91630554 198.8553772 C125.84047966 199.89303726 125.84047966 199.89303726 124.74291992 200.95166016 C124.11528244 201.56627106 123.48764496 202.18088196 122.84098816 202.81411743 C121 204 121 204 118.86152649 203.8086853 C116.26305454 202.67985577 115.50386901 201.161598 114.0625 198.75 C111.6895876 194.99486612 109.31873651 191.99495734 106 189 C105.53464844 188.53078125 105.06929688 188.0615625 104.58984375 187.578125 C93.23072771 176.74928711 79.40143237 175.43423607 64.546875 175.66015625 C51.14603748 176.20459351 40.26064314 183.27598381 31.1875 192.8125 C21.40200419 204.23754096 17.6346757 217.97038917 18.74560547 232.89306641 C20.61286313 248.35797394 28.54479182 260.17920711 40.625 269.6875 C43.04486288 271.54988594 45.45735309 273.30490206 48 275 C46.62800577 278.07644987 45.06323072 280.1854025 42.68359375 282.55932617 C42.00949463 283.23650192 41.33539551 283.91367767 40.64086914 284.6113739 C39.55020142 285.69126335 39.55020142 285.69126335 38.4375 286.79296875 C37.69040771 287.53960281 36.94331543 288.28623688 36.17358398 289.05549622 C34.595627 290.63043531 33.01524347 292.20294642 31.43261719 293.77319336 C29.0039759 296.18355403 26.58345607 298.60184503 24.1640625 301.02148438 C22.63067997 302.54995247 21.09684132 304.07796313 19.5625 305.60546875 C18.83538818 306.33146774 18.10827637 307.05746674 17.35913086 307.8054657 C16.68503174 308.47318497 16.01093262 309.14090424 15.31640625 309.82885742 C14.42610718 310.7134388 14.42610718 310.7134388 13.51782227 311.6158905 C10.6944332 314.19055271 7.9843723 314.52355844 4.19432068 314.46807861 C1.47164346 313.88729432 0.30568781 312.89025389 -1.73413086 311.01074219 C-2.42852264 310.3727771 -3.12291443 309.73481201 -3.83834839 309.07751465 C-7.50122527 305.55720622 -11.07911945 301.96217213 -14.62890625 298.328125 C-16.25671635 296.67794622 -17.88498519 295.02821987 -19.51367188 293.37890625 C-22.04827284 290.8071295 -24.57964637 288.23245327 -27.10327148 285.64990234 C-29.56101509 283.13762688 -32.03131548 280.63827778 -34.50390625 278.140625 C-35.62606285 276.9827951 -35.62606285 276.9827951 -36.77088928 275.80157471 C-41.51946835 271.02953372 -45.47639748 267.88246025 -52.22265625 266.56640625 C-57.34736775 266.55552576 -60.11521587 267.73324971 -64 271 C-66.04571516 273.23750095 -67.71473954 275.54826789 -69.33203125 278.109375 C-75.27609251 287.45676421 -82.01573033 293.23629189 -93 296 C-104.36192327 297.39363024 -115.2634202 297.07236556 -124.640625 290.01171875 C-133.3419012 282.64616477 -139.20028183 274.23124559 -140.3203125 262.703125 C-140.68999979 251.41533981 -138.19201855 242.713261 -130.92578125 234 C-127.00648656 229.92965744 -122.49924858 226.95144622 -117.75 223.9375 C-114.28437126 221.49580703 -111.89702597 218.79405194 -110 215 C-109.72558771 213.02840797 -109.72558771 213.02840797 -109.6875 210.8125 C-109.65011719 210.07644531 -109.61273438 209.34039062 -109.57421875 208.58203125 C-110.93549737 200.32693795 -117.86406353 194.75996056 -123.54296875 189.19921875 C-124.95473114 187.7975634 -126.36649135 186.39590584 -127.77811909 184.99411488 C-129.74283056 183.04686095 -131.71441893 181.10664152 -133.68597412 179.1663208 C-137.1523264 175.7523844 -140.60866736 172.32832125 -144.06355286 168.90278625 C-145.90113762 167.0822144 -147.74178997 165.26473274 -149.58573914 163.4506073 C-150.41362442 162.63248062 -151.2415097 161.81435394 -152.09448242 160.97143555 C-153.19224251 159.8905793 -153.19224251 159.8905793 -154.31217957 158.78788757 C-157.09709864 155.83785681 -157.52401721 153.25642733 -157.47221375 149.19831848 C-156.88202257 146.4507742 -155.84331165 145.25884549 -153.94458008 143.2019043 C-153.30702789 142.50793549 -152.66947571 141.81396667 -152.01260376 141.09896851 C-148.85688757 137.80783439 -145.6467057 134.58227209 -142.38671875 131.39453125 C-140.96000432 129.98531162 -139.53358032 128.57579792 -138.10742188 127.16601562 C-135.88756782 124.97723608 -133.66545107 122.79090578 -131.43823242 120.60961914 C-129.26847149 118.4821556 -127.10824548 116.34537997 -124.94921875 114.20703125 C-124.28153976 113.55797318 -123.61386078 112.9089151 -122.9259491 112.2401886 C-118.22726915 107.56777516 -115.73263434 103.87575351 -115.625 97.0625 C-115.76119144 92.22411979 -116.61642741 89.63115108 -120 86 C-122.15778389 84.42723414 -124.3669926 82.98911548 -126.62890625 81.5703125 C-130.98919795 78.68260696 -134.85549529 75.10224846 -138.5859375 71.4453125 C-141.48145553 68.73363689 -142.84342268 68.0126272 -146.875 67.6875 C-147.90625 67.790625 -148.9375 67.89375 -150 68 C-152.4942663 62.36078923 -154.14466534 57.99456575 -154.0625 51.75 C-154.05347656 50.85796875 -154.04445312 49.9659375 -154.03515625 49.046875 C-154.02355469 48.37140625 -154.01195312 47.6959375 -154 47 C-153.07058594 46.82597656 -152.14117187 46.65195312 -151.18359375 46.47265625 C-147.68786727 45.26199816 -147.68786727 45.26199816 -146.34765625 41.62109375 C-145.90174439 40.23206744 -145.47418014 38.83705383 -145.0625 37.4375 C-141.11933929 25.70597648 -135.16106212 18.67214168 -124.046875 13.00390625 C-114.94873064 8.87018414 -104.8074366 8.75568623 -95.40625 11.96875 C-84.86581051 16.48608121 -77.87910608 24.56778294 -72.15625 34.2734375 C-70.07107992 37.38710363 -67.30956 39.34522 -64 41 C-57.51503975 41.5590483 -53.46097687 40.52051149 -48 37 C-44.87235804 34.36617493 -42.04024129 31.48452827 -39.1953125 28.55078125 C-38.39012177 27.73755905 -37.58493103 26.92433685 -36.75534058 26.08647156 C-34.20220799 23.50449063 -31.66316792 20.90918545 -29.125 18.3125 C-26.56280435 15.70780917 -23.99778313 13.10596044 -21.4303894 10.50639343 C-19.8375178 8.89180076 -18.24815359 7.27373897 -16.66262817 5.65193176 C-15.59043533 4.56025948 -15.59043533 4.56025948 -14.49658203 3.4465332 C-13.86785187 2.80351761 -13.2391217 2.16050201 -12.59133911 1.4980011 C-8.84617862 -2.02749167 -4.62783976 -1.5290118 0 0 Z "
    fill="#00CFFA"
    transform="translate(339,16)"
  />

  <path
    d="M0 0 C1.84078125 -0.01546875 1.84078125 -0.01546875 3.71875 -0.03125 C13.46645261 1.33826194 19.08305501 7.54080942 25.6875 14.296875 C26.63925465 15.25610468 27.59190721 16.21444419 28.54541016 17.17193604 C31.03343581 19.67511882 33.50920413 22.19008159 35.98248291 24.70782471 C38.51608534 27.28259575 41.0612751 29.84585779 43.60546875 32.41015625 C48.58161366 37.42899641 53.54488099 42.46039261 58.5 47.5 C60.4135393 45.11817045 62.31983287 42.74279665 64.140625 40.2890625 C73.57053822 27.60903356 85.7015665 19.91812758 101.5 17.5 C117.10110711 16.12343173 131.13752204 20.14990262 143.48046875 29.83984375 C153.09580368 38.65942683 160.50928476 51.27610531 161.5 64.5 C161.57992188 65.39460938 161.65984375 66.28921875 161.7421875 67.2109375 C162.40437521 81.74011497 157.80070114 95.51333186 148.65625 106.76953125 C143.67975368 112.10294842 137.75570495 115.82017356 131.5 119.5 C136.06139112 124.99109854 140.93498798 130.01005133 146.0390625 134.99609375 C147.68794368 136.62259721 149.33636747 138.24956447 150.984375 139.87695312 C153.55823753 142.41370209 156.13497371 144.94724567 158.71972656 147.47290039 C161.23124737 149.92977104 163.72974184 152.39929684 166.2265625 154.87109375 C167.38135605 155.990214 167.38135605 155.990214 168.55947876 157.13194275 C173.99588127 162.54173382 177.93201115 167.45725586 179.03125 175.28125 C179.0209375 176.5084375 179.010625 177.735625 179 179 C179.0103125 180.2271875 179.020625 181.454375 179.03125 182.71875 C177.73807468 191.92311552 172.17590004 197.41880561 165.82421875 203.70703125 C164.9808345 204.5542424 164.13745026 205.40145355 163.26850891 206.27433777 C161.49064089 208.054917 159.70775451 209.83049808 157.92016602 211.60131836 C155.19266493 214.30737567 152.48719007 217.03414086 149.78320312 219.76367188 C148.04815627 221.49607584 146.31186919 223.22723876 144.57421875 224.95703125 C143.76981857 225.76952835 142.9654184 226.58202545 142.13664246 227.41914368 C137.25016002 232.22533639 133.18414846 235.66031082 126.27734375 236.8984375 C120.85175331 236.8293217 116.93253473 235.90706317 113.0078125 232.0234375 C110.31925349 228.9726892 107.94142772 225.73139992 105.5625 222.4375 C99.71393514 214.6040595 92.20512247 209.41189092 82.5 207.5 C70.52966221 206.58730562 60.87225077 208.83670091 51.5 216.5 C43.29205999 224.28748874 40.14903042 233.29429113 39.5 244.5 C39.91152323 252.41390833 42.40601454 261.41564744 48.16015625 267.15625 C49.5 268.5 49.5 268.5 49.5 270.5 C50.056875 270.76167969 50.61375 271.02335937 51.1875 271.29296875 C58.08683868 274.89414384 64.94388364 279.38776729 68.5 286.5 C68.67455695 288.4115417 68.76715146 290.33104056 68.8125 292.25 C68.84988281 293.27609375 68.88726562 294.3021875 68.92578125 295.359375 C67.91264256 302.83243468 61.21262487 308.13838254 56.1484375 313.2578125 C55.33436432 314.08328583 54.52029114 314.90875916 53.68154907 315.75924683 C51.96125543 317.49837948 50.2380769 319.23466263 48.51220703 320.96826172 C45.89057157 323.6093131 43.29106175 326.27092824 40.69140625 328.93359375 C39.01174383 330.62631796 37.33079511 332.31776695 35.6484375 334.0078125 C34.88139496 334.79954865 34.11435242 335.59128479 33.32406616 336.40701294 C27.30750187 342.37524164 21.19808816 346.5 12.5 346.5 C12.4071875 348.2325 12.4071875 348.2325 12.3125 350 C11.14103421 358.99066998 4.33092374 365.08796929 -1.86328125 371.15625 C-3.05125557 372.33785706 -3.05125557 372.33785706 -4.26322937 373.54333496 C-6.77264608 376.03607663 -9.29233386 378.51813132 -11.8125 381 C-13.52478028 382.69721908 -15.23637608 384.395129 -16.94726562 386.09375 C-21.12362672 390.23719017 -25.30845156 394.37192716 -29.5 398.5 C-27.19910274 400.86610986 -24.90567519 402.64856733 -22.125 404.4375 C-9.21083521 412.75848247 -1.84500129 424.61034976 1.5 439.5 C2.9994698 456.37472293 -0.11162754 470.36696579 -10.41015625 484.03515625 C-19.10465237 494.28978626 -32.1073563 501.18985007 -45.5 502.5 C-61.0071424 503.67802877 -74.86172125 499.32320338 -87.25 489.875 C-92.52420101 485.02485536 -97.29012468 477.91975063 -100.5 471.5 C-103.60432482 472.8769363 -105.67774387 474.44794198 -108.04003906 476.87646484 C-108.71464172 477.56412933 -109.38924438 478.25179382 -110.08428955 478.96029663 C-111.1640506 480.07436386 -111.1640506 480.07436386 -112.265625 481.2109375 C-113.81091457 482.78152883 -115.35649679 484.35183228 -116.90234375 485.921875 C-119.32646553 488.3955287 -121.74729777 490.87222284 -124.16259766 493.35449219 C-126.50049778 495.75309837 -128.85092127 498.13886802 -131.203125 500.5234375 C-132.27074066 501.63143204 -132.27074066 501.63143204 -133.35992432 502.7618103 C-138.69014935 508.14444867 -143.65335032 511.95956162 -151.28125 513.03125 C-152.5084375 513.0209375 -153.735625 513.010625 -155 513 C-156.2271875 513.0103125 -157.454375 513.020625 -158.71875 513.03125 C-168.52982504 511.6528345 -174.33463579 505.26166804 -181.01953125 498.51171875 C-182.00923991 497.52471039 -182.99954121 496.53829596 -183.99040222 495.55244446 C-186.05509193 493.49362174 -188.1124508 491.42781693 -190.16479492 489.35668945 C-192.78497644 486.71369008 -195.42275313 484.08910072 -198.06628895 481.46948528 C-200.11112482 479.43915771 -202.14627175 477.39933196 -204.17868614 475.35657692 C-205.14731744 474.38529378 -206.11888328 473.41692738 -207.0935154 472.45166588 C-217.49019337 462.13313696 -217.49019337 462.13313696 -218.8984375 454.27734375 C-218.82927215 448.84786352 -217.88905167 444.97321881 -214.05859375 441.0078125 C-210.90900408 438.1870663 -207.58919167 435.91083887 -204 433.6875 C-195.16110637 427.86015445 -190.70477877 419.73647285 -188.5 409.5 C-187.25898382 399.1770018 -189.71659105 390.01479036 -195.78125 381.6015625 C-201.85739486 374.17209447 -208.75994145 369.44437965 -218.4609375 368.26074219 C-230.31140407 367.27503888 -240.3343681 369.1053029 -249.875 376.6875 C-253.43688629 380.05109572 -255.62130022 383.87554083 -257.9921875 388.125 C-260.82911132 392.59352249 -264.47887513 395.82629171 -269.5 397.5 C-275.74865761 398.02954726 -280.33690838 397.28216251 -285.5 393.5 C-298.30785355 382.14201376 -298.30785355 382.14201376 -298.75 376.0625 C-298.5 372.5 -298.5 372.5 -297.4375 370.625 C-294.22254151 368.75824991 -292.25185255 368.37698844 -288.5 368.5 C-284.84943923 370.8552005 -281.9747523 373.95665457 -278.98828125 377.08203125 C-277.86111794 378.25658281 -276.68444505 379.38323753 -275.5 380.5 C-274.51 380.5 -273.52 380.5 -272.5 380.5 C-270.81512056 378.27543253 -270.81512056 378.27543253 -269.25 375.4375 C-262.32259925 364.15697269 -252.08422825 356.1797648 -239.046875 352.87890625 C-221.55049232 349.25465555 -206.22457568 352.23132266 -191.3359375 361.90625 C-182.13853813 369.12977827 -174.96427882 381.10548848 -172.5 392.5 C-171.01576814 408.99751891 -172.75669523 423.68891091 -183.32421875 437.0625 C-188.68066193 443.06325501 -194.3332545 447.84038528 -201.5 451.5 C-200.92875478 455.25193126 -199.40460654 456.96563697 -196.74633789 459.61010742 C-195.95203873 460.40740768 -195.15773956 461.20470795 -194.33937073 462.02616882 C-193.47585495 462.8773378 -192.61233917 463.72850677 -191.72265625 464.60546875 C-190.400131 465.92518425 -190.400131 465.92518425 -189.05088806 467.27156067 C-187.18551323 469.13021123 -185.31763478 470.98581182 -183.44458008 472.83666992 C-181.04232577 475.21060129 -178.64887143 477.59316219 -176.25850773 479.97906017 C-173.97887785 482.25353814 -171.69457536 484.52330237 -169.41015625 486.79296875 C-168.5486647 487.65021042 -167.68717316 488.50745209 -166.79957581 489.39067078 C-166.00212448 490.17851456 -165.20467316 490.96635834 -164.38305664 491.77807617 C-163.67991837 492.47438644 -162.97678009 493.17069672 -162.25233459 493.8881073 C-159.62057075 496.30894688 -157.95877973 496.72819645 -154.4543457 496.59741211 C-147.96534089 495.76518953 -144.5460718 491.51550927 -140.23046875 486.94140625 C-139.38704422 486.08191879 -138.54361969 485.22243134 -137.67463684 484.3368988 C-134.99265586 481.59708174 -132.33943625 478.83138036 -129.6875 476.0625 C-127.01267299 473.30260527 -124.33221144 470.54841347 -121.64680481 467.79881287 C-119.98002906 466.08870369 -118.32031734 464.37167473 -116.66850281 462.64710999 C-115.91704483 461.86967941 -115.16558685 461.09224884 -114.39135742 460.29125977 C-113.7345549 459.60588638 -113.07775238 458.920513 -112.40104675 458.21437073 C-108.4522489 454.65333077 -105.05222041 454.04203953 -99.875 454.1953125 C-95.10763118 454.80691574 -91.13420254 456.43670518 -88.1015625 460.265625 C-87.27120695 461.60900277 -86.47227148 462.97222647 -85.703125 464.3515625 C-79.89617188 474.72112163 -71.77358956 481.74213681 -60.5 485.5 C-48.40697635 486.34595693 -37.27820895 485.53986069 -27.5 477.5 C-18.99252295 469.24225319 -14.49320819 460.81370936 -14.1875 448.875 C-14.30705822 438.06162331 -18.59006361 429.49706076 -26.08984375 421.88671875 C-29.3762872 418.89412201 -32.80732042 416.72195383 -36.6875 414.5625 C-41.19056536 411.90315546 -44.10620589 409.6629275 -45.5 404.5 C-46.31230192 398.57192427 -46.35859428 394.29439513 -42.87960815 389.2580719 C-39.9944229 385.58140247 -36.59826688 382.37944221 -33.26953125 379.109375 C-32.4785051 378.32355042 -31.68747894 377.53772583 -30.8724823 376.72808838 C-28.35721661 374.23056809 -25.83533563 371.73987154 -23.3125 369.25 C-20.77985779 366.74496217 -18.24868813 364.23847993 -15.72038269 361.72906494 C-14.14947912 360.1704357 -12.57591044 358.61448716 -10.99946594 357.0614624 C-10.29170517 356.36023254 -9.5839444 355.65900269 -8.85473633 354.93652344 C-8.22948563 354.31952576 -7.60423492 353.70252808 -6.96003723 353.0668335 C-4.31899776 350.23261186 -3.97679565 347.5417 -4.03034973 343.69506836 C-4.61459189 340.96441628 -5.62571072 339.7963476 -7.5144043 337.75390625 C-8.15219818 337.05974609 -8.78999207 336.36558594 -9.44711304 335.65039062 C-12.85199543 332.08379037 -16.28547201 328.55192049 -19.76953125 325.0625 C-20.53174484 324.29695801 -21.29395844 323.53141602 -22.07926941 322.74267578 C-23.67548212 321.14143771 -25.27301792 319.54151757 -26.87182617 317.94287109 C-29.32824177 315.48424406 -31.7765204 313.01769604 -34.22460938 310.55078125 C-35.78076129 308.99169956 -37.33738484 307.43308843 -38.89453125 305.875 C-39.99448174 304.76427124 -39.99448174 304.76427124 -41.11665344 303.63110352 C-41.79463486 302.95619873 -42.47261627 302.28129395 -43.17114258 301.5859375 C-43.76735916 300.9882959 -44.36357574 300.3906543 -44.9778595 299.77490234 C-46.42462034 298.28596662 -46.42462034 298.28596662 -48.5 298.5 C-49.6053347 300.12514074 -50.63353881 301.80298735 -51.625 303.5 C-58.83321335 315.07772824 -68.49614156 322.38211149 -81.5 326.5 C-97.32889781 329.83487165 -113.37790908 328.13874622 -127.0625 319.30078125 C-138.48009854 310.86566438 -147.10671477 298.68876245 -149.5 284.5 C-150.564115 274.02015248 -149.9196839 264.16805852 -145.5 254.5 C-145.149375 253.71496094 -144.79875 252.92992187 -144.4375 252.12109375 C-139.13057909 241.52567873 -130.08166614 232.79083307 -119.5 227.5 C-120.94232831 224.19856259 -122.73239693 222.01937242 -125.27539062 219.48168945 C-126.04959351 218.70440994 -126.82379639 217.92713043 -127.62145996 217.126297 C-128.45794067 216.2970018 -129.29442139 215.4677066 -130.15625 214.61328125 C-131.01432251 213.75566696 -131.87239502 212.89805267 -132.75646973 212.01445007 C-134.56981924 210.20412006 -136.38559699 208.39621954 -138.20361328 206.59057617 C-140.99438963 203.81807364 -143.77706378 201.03763519 -146.55859375 198.25585938 C-148.31984083 196.49952689 -150.08154409 194.7436517 -151.84375 192.98828125 C-153.09847107 191.73522942 -153.09847107 191.73522942 -154.37854004 190.4568634 C-155.15274292 189.68904037 -155.9269458 188.92121735 -156.72460938 188.13012695 C-157.40696655 187.45158157 -158.08932373 186.77303619 -158.7923584 186.07392883 C-161.713196 183.38180039 -164.335822 182.97716039 -168.30168152 183.02778625 C-171.0492258 183.61797743 -172.24115451 184.65668835 -174.2980957 186.55541992 C-174.99206451 187.19297211 -175.68603333 187.83052429 -176.40103149 188.48739624 C-179.69216561 191.64311243 -182.91772791 194.8532943 -186.10546875 198.11328125 C-187.51468838 199.53999568 -188.92420208 200.96641968 -190.33398438 202.39257812 C-192.52276392 204.61243218 -194.70909422 206.83454893 -196.89038086 209.06176758 C-199.0178444 211.23152851 -201.15462003 213.39175452 -203.29296875 215.55078125 C-204.26655586 216.55229973 -204.26655586 216.55229973 -205.2598114 217.5740509 C-209.93222484 222.27273085 -213.62424649 224.76736566 -220.4375 224.875 C-225.21230817 224.76857783 -227.84721681 223.71792805 -231.5 220.5 C-233.53561409 218.27354709 -235.19884354 215.98166891 -236.796875 213.42578125 C-242.76646207 203.97393505 -249.63589604 198.38373688 -260.2890625 194.91796875 C-271.25169954 192.84552677 -281.41485971 194.14258093 -290.89453125 199.97265625 C-299.12617707 205.74709436 -304.58870626 214.6145381 -306.5 224.5 C-307.7492483 235.14637161 -305.71191113 244.49719753 -299.515625 253.328125 C-295.17109372 258.47377552 -290.68158023 261.84552623 -284.8046875 265.05859375 C-280.73668769 267.60281736 -277.64256068 271.21487864 -275.5 275.5 C-274.9409517 281.98496025 -275.97948851 286.03902313 -279.5 291.5 C-282.13382507 294.62764196 -285.01547173 297.45975871 -287.94921875 300.3046875 C-288.76244095 301.10987823 -289.57566315 301.91506897 -290.41352844 302.74465942 C-292.99550937 305.29779201 -295.59081455 307.83683208 -298.1875 310.375 C-300.79219083 312.93719565 -303.39403956 315.50221687 -305.99360657 318.0696106 C-307.60819924 319.6624822 -309.22626103 321.25184641 -310.84806824 322.83737183 C-311.57584976 323.55216705 -312.30363129 324.26696228 -313.0534668 325.00341797 C-313.69648239 325.63214813 -314.33949799 326.2608783 -315.0019989 326.90866089 C-316.72259763 328.73646733 -317.44640252 329.86990277 -317.66015625 332.3828125 C-317.4928267 336.22469903 -317.23606568 338.65523263 -314.6484375 341.625 C-313.18596736 342.94794119 -311.72115635 344.26829967 -310.25390625 345.5859375 C-308.5 347.5 -308.5 347.5 -307.875 351.25 C-308.42420625 354.10587252 -308.85356882 356.12182163 -310.5 358.5 C-313.51778937 360.00889469 -315.12322637 360.00026276 -318.5 359.5 C-324.84411946 355.35483828 -331.08036005 348.75891984 -333.5 341.5 C-333.67307524 339.10815698 -333.76680736 336.71016141 -333.8125 334.3125 C-333.86857422 332.40404297 -333.86857422 332.40404297 -333.92578125 330.45703125 C-332.9322822 321.22387038 -327.40436902 315.86599701 -321.015625 309.6953125 C-320.20003113 308.89012177 -319.38443726 308.08493103 -318.54412842 307.25534058 C-315.95547679 304.70212657 -313.35376508 302.16279212 -310.75 299.625 C-308.1338136 297.0640074 -305.52060164 294.50014842 -302.9130249 291.9303894 C-301.29366351 290.33559789 -299.66898709 288.74618246 -298.03863525 287.16262817 C-297.3107782 286.44783295 -296.58292114 285.73303772 -295.83300781 284.99658203 C-294.8651535 284.05348679 -294.8651535 284.05348679 -293.87774658 283.09133911 C-292.28181772 281.59880721 -292.28181772 281.59880721 -292.5 279.5 C-294.58191997 278.04409654 -294.58191997 278.04409654 -297.1875 276.625 C-309.49123218 269.66199898 -317.14889299 258.88353897 -321.5 245.5 C-325.22936731 231.42464597 -322.74963569 215.68350417 -315.6875 203.1875 C-307.35727213 190.39243536 -296.47115441 182.2113366 -281.5 178.5 C-265.42217567 175.38479087 -251.24236102 178.81080023 -237.5 187.5 C-229.81983545 192.86083818 -224.90423126 200.36911151 -220.5 208.5 C-215.41916983 204.26617876 -210.75412721 199.81475799 -206.16796875 195.0546875 C-204.77876382 193.63336253 -203.38876525 192.2128129 -201.99804688 190.79296875 C-199.83825089 188.58384667 -197.683416 186.37075383 -195.54174805 184.14404297 C-193.45204465 181.97504439 -191.34322192 179.82621052 -189.23046875 177.6796875 C-188.2908857 176.6889473 -188.2908857 176.6889473 -187.33232117 175.67819214 C-182.67908976 170.9972148 -177.90177049 168.22812946 -171.5 166.5 C-170.18 166.5 -168.86 166.5 -167.5 166.5 C-167.438125 165.345 -167.37625 164.19 -167.3125 163 C-166.14103421 154.00933002 -159.33092374 147.91203071 -153.13671875 141.84375 C-152.34473587 141.05601196 -151.55275299 140.26827393 -150.73677063 139.45666504 C-148.22735392 136.96392337 -145.70766614 134.48186868 -143.1875 132 C-141.47521972 130.30278092 -139.76362392 128.604871 -138.05273438 126.90625 C-133.87637328 122.76280983 -129.69154844 118.62807284 -125.5 114.5 C-128.89359593 111.75897768 -132.34150334 109.21874097 -135.9375 106.75 C-141.64122249 102.6032396 -146.81319066 98.46823173 -148.0625 91.25 C-147.41067319 88.06329113 -146.96419799 86.64623696 -144.5 84.5 C-141.3125 83.3125 -141.3125 83.3125 -137.5 83.5 C-134.47657406 85.47205779 -132.04249782 87.95245754 -129.5 90.5 C-125.95346491 93.74321301 -122.45222048 96.60621484 -118.3125 99.0625 C-114.28314856 101.48323439 -111.61968657 104.26062685 -109.5 108.5 C-109.296875 110.671875 -109.296875 110.671875 -109.25 113.25 C-109.21132813 114.51070312 -109.21132813 114.51070312 -109.171875 115.796875 C-110.09852347 123.43069338 -115.63479388 128.0154594 -120.8515625 133.109375 C-121.66619965 133.91739563 -122.48083679 134.72541626 -123.32015991 135.55792236 C-125.91475066 138.12916643 -128.51931507 140.69000353 -131.125 143.25 C-133.73604484 145.82600692 -136.34494309 148.40413745 -138.95126343 150.98492432 C-140.57183799 152.58849009 -142.19547907 154.18896373 -143.82241821 155.78607178 C-144.55342743 156.50732239 -145.28443665 157.228573 -146.03759766 157.97167969 C-146.68362946 158.60644226 -147.32966125 159.24120483 -147.99526978 159.89520264 C-150.66858911 162.74630229 -151.02495739 165.4199521 -150.96807861 169.30581665 C-150.3873133 172.02823452 -149.39058874 173.19280581 -147.51074219 175.23193359 C-146.55379456 176.27350616 -146.55379456 176.27350616 -145.57751465 177.33612061 C-142.05315186 181.00699533 -138.46087782 184.60061948 -134.828125 188.1640625 C-133.17810011 189.79658669 -131.5283691 191.42940795 -129.87890625 193.0625 C-127.30580632 195.60456311 -124.73044693 198.14420424 -122.14990234 200.67871094 C-119.64003051 203.14623612 -117.13971824 205.62312786 -114.640625 208.1015625 C-113.8687384 208.85482819 -113.09685181 209.60809387 -112.30157471 210.38418579 C-107.95736833 214.70749074 -104.22178235 218.59847377 -103.06640625 224.84375 C-103.05663998 230.23473027 -103.85525226 233.27976577 -107.5 237.5 C-110.79203231 240.56235563 -114.1229692 242.88862379 -117.9375 245.25 C-126.29647765 250.78043471 -131.34975671 258.74801424 -133.5 268.5 C-134.86036295 279.5240733 -132.8844892 289.18219272 -126.515625 298.359375 C-121.02473957 304.94064902 -113.45541615 310.79181869 -104.60571289 311.69287109 C-92.2115915 312.16100204 -81.98159829 311.6577908 -71.6875 303.875 C-68.08628256 300.50921324 -65.7983863 296.32283419 -63.26953125 292.1328125 C-60.47709615 287.97806359 -57.0175443 284.75877215 -52.5 282.5 C-46.17784079 281.95498628 -41.86665975 282.9831335 -36.5 286.5 C-33.00301767 289.49114955 -29.80983291 292.74711172 -26.6015625 296.04296875 C-25.20207391 297.45472573 -23.80258338 298.86648078 -22.40297508 300.27811909 C-20.46162317 302.24130105 -18.52975445 304.21369099 -16.59765625 306.18597412 C-13.19528125 309.65504853 -9.77760525 313.10905416 -6.36044312 316.56355286 C-4.54500876 318.40072552 -2.73307704 320.2413671 -0.92495728 322.08573914 C-0.11005829 322.91362442 0.7048407 323.7415097 1.54443359 324.59448242 C2.26198822 325.32632248 2.97954285 326.05816254 3.71884155 326.81217957 C6.66786735 329.60666762 9.26456101 330.04715968 13.33056641 329.9440918 C21.72638687 328.22543352 30.54001876 315.64601736 36.49365234 309.69165039 C38.51772043 307.66979898 40.54969734 305.65611673 42.58203125 303.64257812 C43.86767498 302.3598634 45.15284889 301.07667758 46.4375 299.79296875 C47.35136475 298.88988228 47.35136475 298.88988228 48.28369141 297.96855164 C51.43528911 295.24572117 51.43528911 295.24572117 52.5 291.5 C50.42191216 289.81924338 50.42191216 289.81924338 47.8125 288.125 C35.02018996 279.52098702 27.16052384 268.64999223 23.86328125 253.56152344 C21.53895291 240.37158493 24.05454141 227.17214156 30.96875 215.68359375 C38.95252902 204.29856193 50.43201213 194.10421962 64.5 191.5 C68.23271641 191.13048732 71.93777149 191.02229738 75.6875 191 C76.60176758 190.99363525 77.51603516 190.98727051 78.45800781 190.98071289 C91.14515243 191.21731099 103.35730838 196.07776185 112.80078125 204.65234375 C116.8605416 209.06674984 120.81062728 214.12125455 123.5 219.5 C126.90595644 218.91221062 128.59463571 217.80018261 131.05932617 215.40820312 C132.0750898 214.43083191 132.0750898 214.43083191 133.1113739 213.43371582 C133.8313002 212.7234021 134.5512265 212.01308838 135.29296875 211.28125 C136.03960281 210.54934448 136.78623688 209.81743896 137.55549622 209.06335449 C139.13219228 207.51061198 140.70465879 205.95356471 142.27319336 204.39257812 C144.67009403 202.01724932 147.09468166 199.67284287 149.52148438 197.328125 C151.05128499 195.81432273 152.57933873 194.29875268 154.10546875 192.78125 C155.19446724 191.74007019 155.19446724 191.74007019 156.3054657 190.67785645 C160.20499637 186.72530474 162.79747035 183.41740469 162.96728516 177.70918274 C162.01607067 173.21212867 158.74309952 170.54819163 155.5 167.5 C154.08201208 166.06185474 152.66496841 164.62277797 151.2487793 163.18286133 C149.69279308 161.64701861 148.13451141 160.11349877 146.57421875 158.58203125 C144.87406502 156.89937538 143.17420367 155.21642405 141.47460938 153.53320312 C138.82019637 150.90985896 136.16352007 148.28893423 133.50170898 145.6730957 C130.91497574 143.12862391 128.33772646 140.57485471 125.76171875 138.01953125 C124.96279709 137.2392305 124.16387543 136.45892975 123.34074402 135.65498352 C122.60270035 134.92039413 121.86465668 134.18580475 121.10424805 133.42895508 C120.45473679 132.78912186 119.80522552 132.14928864 119.1360321 131.49006653 C115.47152849 127.03257088 115.05933836 122.50851882 115.18359375 116.93359375 C115.78761489 112.28785091 118.272917 109.61881097 121.625 106.5625 C123.33678415 105.33448093 125.06695649 104.13057609 126.83203125 102.98046875 C132.62484341 99.13306877 136.95941932 95.53005146 140.5 89.5 C140.9125 88.80777344 141.325 88.11554688 141.75 87.40234375 C145.95243497 78.89533129 146.01103802 67.75637654 143.8046875 58.62109375 C142.88085535 56.38914634 141.84245828 54.50534917 140.5 52.5 C140.06429688 51.80777344 139.62859375 51.11554687 139.1796875 50.40234375 C133.73792052 42.4478483 125.93972713 36.71379635 116.5 34.5 C104.79099423 33.3230948 94.66663726 34.64567664 84.8125 41.5 C80.28289595 45.23692334 77.45133109 49.80878036 74.35546875 54.74609375 C71.68828667 58.70475347 68.79732127 61.35133937 64.5 63.5 C62.109375 63.73828125 62.109375 63.73828125 59.25 63.8125 C58.31671875 63.84988281 57.3834375 63.88726562 56.421875 63.92578125 C48.59757584 62.78560931 43.22418319 55.3517582 38.04296875 49.95703125 C36.66408394 48.54483057 35.28517403 47.13265344 33.90482807 45.72188091 C30.52032123 42.26147857 27.14496917 38.79267034 23.79370117 35.30004883 C21.90648903 33.3343367 20.00890046 31.37983679 18.09870911 29.43644714 C16.30580629 27.6117314 14.52852469 25.77149866 12.76933289 23.91426086 C6.74026604 17.83324952 6.74026604 17.83324952 -1.34075928 15.96592712 C-5.76409695 17.06000832 -8.47319227 20.26764379 -11.5 23.5 C-12.74412367 24.7289492 -13.98899084 25.9571462 -15.23461914 27.18457031 C-16.5036472 28.48028806 -17.77042319 29.77821462 -19.03515625 31.078125 C-20.43510247 32.50043755 -21.83550665 33.92229947 -23.23632812 35.34375 C-25.40880357 37.55339755 -27.57800959 39.76593224 -29.73950195 41.98632812 C-31.84972319 44.15114666 -33.97252962 46.30294996 -36.09765625 48.453125 C-36.73639175 49.1156427 -37.37512726 49.7781604 -38.03321838 50.46075439 C-42.46601435 54.91902098 -46.42261171 57.70458682 -52.72265625 58.93359375 C-57.86600084 58.9445138 -60.60837648 57.78625986 -64.5 54.5 C-67.55789261 51.21276544 -69.92126685 47.85237896 -72.3125 44.0625 C-77.81701591 35.72147334 -85.17696761 30.25472022 -94.9453125 27.9140625 C-105.76295464 26.16074435 -115.67184393 28.03824299 -124.76171875 34.1953125 C-133.2960239 40.60083592 -137.711323 48.93625398 -140.640625 58.99609375 C-141.5 61.5 -141.5 61.5 -143.5 63.5 C-147.53865032 64.56681329 -149.63957894 64.92105712 -153.4375 63.0625 C-155.71962983 60.22712657 -156.16738362 58.52222988 -155.91796875 54.90234375 C-154.37523075 46.03520475 -150.98787527 38.57856375 -145.5 31.5 C-144.98695313 30.81164062 -144.47390625 30.12328125 -143.9453125 29.4140625 C-136.39048387 19.97956359 -124.47479503 13.30465221 -112.5 11.5 C-94.9438728 10.24443391 -81.86854197 13.54202062 -67.375 23.6875 C-62.00552744 28.38195315 -57.4760399 35.04685227 -54.5 41.5 C-51.39567518 40.1230637 -49.32225613 38.55205802 -46.95996094 36.12353516 C-46.28535828 35.43587067 -45.61075562 34.74820618 -44.91571045 34.03970337 C-44.19586975 33.29699188 -43.47602905 32.5542804 -42.734375 31.7890625 C-41.18908543 30.21847117 -39.64350321 28.64816772 -38.09765625 27.078125 C-35.67353447 24.6044713 -33.25270223 22.12777716 -30.83740234 19.64550781 C-28.49950222 17.24690163 -26.14907873 14.86113198 -23.796875 12.4765625 C-23.08513123 11.73789948 -22.37338745 10.99923645 -21.64007568 10.2381897 C-15.15995471 3.6943482 -9.44886751 -0.07940225 0 0 Z "
    fill="#000101"
    transform="translate(333.5,-0.5)"
  />

  <path
    d="M0 0 C2.59678027 0.73442252 3.86371605 1.80666999 5.85290527 3.62110901 C6.54996582 4.25614349 7.24702637 4.89117798 7.96520996 5.54545593 C11.63812555 9.0241189 15.23162068 12.57453274 18.79626465 16.16383362 C19.58400269 16.9529866 20.37174072 17.74213959 21.18334961 18.5552063 C23.67128567 21.04868999 26.15570089 23.54564771 28.64001465 26.04273987 C30.33769875 27.74544574 32.03561323 29.44792194 33.73376465 31.15016174 C37.87184745 35.29920399 42.007054 39.45109563 46.14001465 43.60523987 C44.85582639 47.45780465 43.47098707 47.84004069 40.01501465 49.85523987 C27.70819448 57.48132895 20.5417472 68.58195511 16.60510254 82.49586487 C14.53431867 91.88776652 15.17994853 103.85066513 19.14001465 112.60523987 C19.60407715 113.64035706 20.06813965 114.67547424 20.54626465 115.74195862 C27.82929306 130.53131584 38.20142331 138.37169684 53.44470215 143.77711487 C58.05655493 144.8106379 62.36838725 144.89763261 67.07751465 144.85523987 C67.93280762 144.86297424 68.78810059 144.87070862 69.66931152 144.87867737 C83.83924227 144.83544341 96.09310265 139.6845338 106.0814209 129.65602112 C110.02650513 125.31898468 113.21298086 120.67696662 116.14001465 115.60523987 C119.48542857 117.06058 121.68075299 118.89781797 124.25012207 121.47242737 C125.04742233 122.266651 125.8447226 123.06087463 126.66618347 123.87916565 C127.51735245 124.73752014 128.36852142 125.59587463 129.2454834 126.48023987 C130.12529373 127.36050842 131.00510406 128.24077698 131.91157532 129.14772034 C134.24438069 131.48431839 136.57251569 133.82545012 138.89886475 136.16847229 C140.8018426 138.08226298 142.71038076 139.99045717 144.61907482 141.89854431 C146.89317895 144.17298539 149.16302319 146.4516641 151.4329834 148.73023987 C152.29022507 149.58859436 153.14746674 150.44694885 154.03068542 151.33131409 C154.81852921 152.12553772 155.60637299 152.91976135 156.41809082 153.73805237 C157.11440109 154.43817444 157.81071136 155.13829651 158.52812195 155.8596344 C161.27120495 158.83026681 161.58097464 161.40012633 161.5736084 165.42945862 C160.7771988 169.42585633 157.94699681 171.83065163 155.14001465 174.60523987 C150.30702659 170.57775933 145.75891461 166.36144573 141.3314209 161.89430237 C140.71983627 161.2813028 140.10825165 160.66830322 139.47813416 160.03672791 C137.55053906 158.10359423 135.62647537 156.16699 133.70251465 154.23023987 C132.38569061 152.90839288 131.06863539 151.58677615 129.75134277 150.26539612 C126.54489092 147.04799687 123.34159836 143.82748306 120.14001465 140.60523987 C117.1818048 142.02216877 115.16129843 143.42328119 112.82751465 145.73023987 C98.95157519 158.03871209 81.27283072 162.64044483 63.07751465 161.98414612 C45.77576882 160.91286178 31.33799557 153.92918962 19.14001465 141.60523987 C18.44263184 140.94137268 17.74524902 140.27750549 17.0267334 139.59352112 C5.14080586 127.47679887 -0.45664807 110.58043476 -0.35998535 93.91773987 C-0.35426514 92.77160217 -0.34854492 91.62546448 -0.34265137 90.44459534 C0.05276383 71.61644137 8.12101998 56.94897137 21.14001465 43.60523987 C19.85250068 40.77283813 18.51171522 38.73285978 16.29846191 36.55250549 C15.72769424 35.98511658 15.15692657 35.41772766 14.56886292 34.83314514 C13.95425705 34.2319989 13.33965118 33.63085266 12.7064209 33.01148987 C12.07268051 32.38295105 11.43894012 31.75441223 10.78599548 31.10682678 C8.76286558 29.1014828 6.73317797 27.10295271 4.70251465 25.10523987 C2.67628886 23.1066849 0.65155719 21.10667352 -1.37025452 19.10365295 C-2.62736172 17.85874313 -3.88713297 16.61651619 -5.14988708 15.37733459 C-7.96591762 12.59334905 -10.60963687 9.88470805 -12.85998535 6.60523987 C-9.08992145 2.64667277 -5.75513207 -0.62045177 0 0 Z "
    fill="#FC4027"
    transform="translate(168.8599853515625,181.39476013183594)"
  />
</svg>
