<?xml version="1.0" encoding="UTF-8"?>
<svg
  version="1.1"
  viewBox="0 0 512 512"
  xmlns="http://www.w3.org/2000/svg">
<path d="M0 0 C0.81832241 -0.00320648 1.63664482 -0.00641296 2.47976488 -0.0097166 C5.22750273 -0.01803155 7.97502347 -0.01208706 10.72276497 -0.00622082 C12.710397 -0.00924082 14.69802786 -0.01312953 16.68565667 -0.01781338 C22.15223419 -0.02812166 27.61874634 -0.02590436 33.08532929 -0.02163279 C38.97909969 -0.0191707 44.87285413 -0.02817329 50.76661873 -0.03567028 C62.31494029 -0.0484337 73.86324005 -0.05021476 85.41156732 -0.04787002 C94.7963706 -0.0460377 104.18116704 -0.04779568 113.56596947 -0.05209446 C114.91405168 -0.05269686 116.2621339 -0.05329806 117.61021612 -0.05389806 C119.6416242 -0.05480531 121.67303229 -0.05571398 123.70444037 -0.05663041 C142.59288265 -0.0650607 161.48132235 -0.06939512 180.36976624 -0.06522369 C181.43797744 -0.06498913 181.43797744 -0.06498913 182.52776866 -0.06474983 C186.13721677 -0.06394404 189.74666485 -0.06309827 193.35611294 -0.06223653 C194.07296624 -0.06206544 194.78981954 -0.06189435 195.52839567 -0.06171808 C196.97804734 -0.06137142 198.427699 -0.06102289 199.87735067 -0.06067249 C222.43489721 -0.05531506 244.99240467 -0.06324602 267.54994392 -0.08170605 C292.89127323 -0.10241989 318.23257831 -0.11314994 343.57391655 -0.10913056 C346.2757353 -0.10873521 348.97755404 -0.10837367 351.67937279 -0.10803318 C352.67726301 -0.10789708 352.67726301 -0.10789708 353.69531262 -0.10775824 C363.74008663 -0.10659204 373.78483518 -0.1132784 383.8296032 -0.1238451 C395.25288586 -0.13574012 406.676111 -0.13718491 418.09939443 -0.12505493 C423.92918171 -0.11915306 429.75886367 -0.11810296 435.58864403 -0.13005733 C440.92427698 -0.1408714 446.25971608 -0.13786621 451.59533979 -0.12379565 C453.52664925 -0.12113636 455.45797369 -0.12355371 457.3892685 -0.13153151 C460.01351058 -0.14162021 462.63707657 -0.13323045 465.2612915 -0.12025452 C466.38713647 -0.13121854 466.38713647 -0.13121854 467.53572577 -0.14240405 C473.49120267 -0.08132663 479.15096659 1.03459207 483.81508064 5.00838184 C484.27011971 5.60521778 484.72515877 6.20205372 485.19398689 6.81697559 C485.66707283 7.41638966 486.14015877 8.01580372 486.62758064 8.63338184 C488.82161331 11.78398239 488.8838953 13.83776243 488.89070797 17.65036774 C488.89516581 18.80303688 488.89962366 19.95570602 488.90421659 21.14330453 C488.90394004 23.05925957 488.90394004 23.05925957 488.90365791 25.01392078 C488.90695571 26.37596804 488.9106811 27.73801431 488.91479939 29.10005933 C488.92483727 32.85594874 488.92853906 36.61182218 488.9311887 40.36772311 C488.93508651 44.413538 488.94466525 48.45934018 488.95340157 52.50514698 C488.97318157 62.28270129 488.98323446 72.06025666 488.99212936 81.83782598 C488.99651004 86.43985291 489.00187744 91.04187868 489.00711823 95.64390469 C489.02413259 110.938326 489.03862712 126.23274658 489.04586697 141.5271759 C489.04777693 145.49788063 489.04969725 149.46858535 489.05165291 153.43929005 C489.05213665 154.42621636 489.05262039 155.41314267 489.05311879 156.42997584 C489.06142034 172.42010874 489.08675844 188.41016685 489.11923359 204.40026709 C489.15228834 220.80927579 489.17031432 237.21824647 489.17351121 253.62728864 C489.17567785 262.84345466 489.18444898 272.05951165 489.20997238 281.27564526 C489.23165782 289.12419756 489.23974048 296.97261437 489.2300056 304.82119324 C489.22545451 308.82613225 489.22739377 312.83079158 489.24676704 316.83569241 C489.26435437 320.50306023 489.26343749 324.16994342 489.24786975 327.83731607 C489.24435913 329.79054237 489.26055312 331.74377348 489.27747422 333.69692963 C489.22783659 340.44016569 488.87062538 344.81115365 484.75648689 350.25447559 C480.17267488 354.60322032 475.82785032 356.49399343 469.52362251 356.53294849 C467.97352234 356.54969372 467.97352234 356.54969372 466.39210701 356.56677723 C465.26929329 356.56893742 464.14647957 356.5710976 462.98964119 356.57332325 C461.79897545 356.58336887 460.60830971 356.5934145 459.38156319 356.60376453 C456.1257565 356.62932231 452.8700446 356.64619828 449.61416793 356.65919256 C446.20817298 356.67484608 442.80226584 356.70162919 439.39633369 356.7272234 C432.95082724 356.77397195 426.50530421 356.81073499 420.05971509 356.84389627 C412.71990215 356.88214543 405.38017749 356.93154825 398.04043901 356.98188043 C382.94585358 357.08514189 367.85121458 357.17442104 352.75648689 357.25447559 C353.17011482 357.81433155 353.58374275 358.37418751 354.00990486 358.9510088 C355.88448171 361.48913636 357.75799563 364.02804663 359.63148689 366.56697559 C360.28246346 367.44804981 360.93344002 368.32912403 361.60414314 369.23689747 C362.22933846 370.08445606 362.85453377 370.93201466 363.49867439 371.80525684 C364.3627491 372.97568531 364.3627491 372.97568531 365.24427986 374.1697588 C368.44795502 378.58632034 369.57266332 380.72261317 368.75648689 386.25447559 C367.43947029 388.09677601 367.43947029 388.09677601 365.69984627 389.99495411 C365.06272713 390.69403889 364.42560799 391.39312366 363.76918221 392.11339283 C358.43194586 397.79108516 352.99420661 403.36261842 347.51381111 408.90218067 C346.00265004 410.43507919 344.49779445 411.97421819 342.99916267 413.51936817 C340.8180457 415.76732199 338.61793308 417.99501251 336.41273689 420.21931934 C335.41711739 421.25668484 335.41711739 421.25668484 334.40138435 422.31500721 C331.27723896 425.42555713 329.34773299 427.08043552 325.04579353 428.34676075 C321.53418749 428.24823874 320.23363271 427.89280526 317.47133064 425.81306934 C316.71062263 425.25474415 315.94991463 424.69641895 315.16615486 424.12117481 C314.37096443 423.50516407 313.575774 422.88915333 312.75648689 422.25447559 C311.92391365 421.63201954 311.09134041 421.00956348 310.23353767 420.36824512 C307.57871456 418.37201372 304.94667174 416.34876995 302.31898689 414.31697559 C299.68014645 412.27919359 297.0381753 410.24803922 294.37416267 408.24324512 C292.60801748 406.90142282 290.86683503 405.52618461 289.15052986 404.12117481 C288.30764412 403.46262501 287.46475838 402.8040752 286.59633064 402.12556934 C285.8563282 401.52543018 285.11632576 400.92529102 284.353899 400.30696583 C280.37552498 398.69489981 277.7871263 399.96876949 273.75648689 401.25447559 C273.67545219 401.87199696 273.5944175 402.48951832 273.5109272 403.12575245 C272.6652943 409.55151371 271.80283437 415.97485597 270.93055916 422.39705372 C270.60722178 424.79426053 270.28818229 427.19205112 269.97352791 429.59041309 C269.52054655 433.03735158 269.05215901 436.48189625 268.58070564 439.92635059 C268.37425674 441.53591633 268.37425674 441.53591633 268.16363716 443.17799854 C267.95375916 444.67910175 267.95375916 444.67910175 267.73964119 446.21053028 C267.56310257 447.52957355 267.56310257 447.52957355 267.38299751 448.87526417 C266.65784506 451.62907381 265.69081179 453.17597257 263.75648689 455.25447559 C260.67620815 456.28123517 258.49269113 456.40542608 255.26283455 456.44734669 C253.57560783 456.47144108 253.57560783 456.47144108 251.85429573 456.49602222 C246.72014926 456.54046947 241.58609049 456.5819574 236.45179939 456.60457325 C233.74149557 456.61791849 231.03194363 456.64578469 228.32191658 456.6866045 C224.4173148 456.74540907 220.51307884 456.76323218 216.60804939 456.77791309 C215.39646156 456.80058247 214.18487373 456.82325184 212.93657112 456.84660816 C204.71475926 456.82589204 204.71475926 456.82589204 200.57728767 454.35872364 C198.03816346 450.02981986 197.41970007 445.99647801 196.77211189 441.06306934 C196.62618599 440.08080875 196.48026009 439.09854816 196.32991219 438.0865221 C195.8692234 434.95747802 195.43722158 431.82526963 195.00648689 428.69197559 C194.55499655 425.55630542 194.09778899 422.42150475 193.64021492 419.28671741 C193.35812199 417.33864683 193.08080199 415.38987774 192.80879402 413.44037342 C192.68486275 412.55588017 192.56093147 411.67138691 192.43324471 410.76009083 C192.32619209 409.98463413 192.21913948 409.20917744 192.10884285 408.41022205 C191.60030145 405.29191165 191.60030145 405.29191165 190.75648689 402.25447559 C188.29329673 400.85644875 186.66776333 400.11709666 183.83094978 400.5447588 C181.46746257 401.35335681 179.8727637 402.42120363 177.87758064 403.92244434 C177.13016609 404.47980274 176.38275154 405.03716114 175.61268806 405.61140919 C174.81451668 406.2154961 174.01634529 406.81958302 173.19398689 407.44197559 C172.36423347 408.05895313 171.53448006 408.67593067 170.6795826 409.3116045 C166.25519275 412.60419305 161.86341231 415.93639318 157.49086189 419.29744434 C156.64467293 419.9398003 155.79848396 420.58215626 154.92665291 421.24397755 C153.30055989 422.47893835 151.68342218 423.72580162 150.07655525 424.98567677 C146.97128137 427.33412664 144.49382177 429.05570753 140.71351814 430.07478809 C133.27207689 428.01045168 127.13780415 419.78458077 121.79164314 414.42244434 C121.07286491 413.70462284 120.35408669 412.98680134 119.6135273 412.24722767 C118.1107176 410.74509307 116.60914823 409.24171662 115.10878181 407.73714161 C112.80433929 405.42729364 110.494543 403.12289468 108.18422127 400.81892872 C106.7197074 399.35375487 105.25550331 397.8882713 103.79164314 396.42244434 C103.10006615 395.73289158 102.40848915 395.04333881 101.69595528 394.33289051 C101.06116753 393.6949506 100.42637978 393.05701069 99.77235603 392.39973927 C99.21246483 391.83905247 98.65257362 391.27836567 98.07571602 390.70068836 C96.00494962 388.43059839 95.74890669 387.1856642 95.40492439 384.06306934 C95.83141466 379.44275812 97.60464608 376.85366826 100.38148689 373.31697559 C100.80816658 372.7478545 101.23484627 372.17873341 101.67445564 371.59236622 C102.52676064 370.45892778 103.38603622 369.33068697 104.25322151 368.20859241 C105.8284872 366.16088134 107.38136807 364.09766634 108.92982674 362.02962208 C109.4616758 361.3195853 109.99352486 360.60954853 110.54149055 359.87799549 C110.94243935 359.34223392 111.34338814 358.80647236 111.75648689 358.25447559 C110.83076331 358.25089306 110.83076331 358.25089306 109.88633823 358.24723816 C94.85405545 358.1880439 79.82195139 358.11246566 64.78984928 358.01876068 C57.52036109 357.97383828 50.2509215 357.9344155 42.98134041 357.90804005 C36.64349936 357.88503106 30.30581257 357.85160085 23.96809393 357.80577403 C20.6138075 357.78188065 17.25967348 357.76312655 13.90530396 357.75686169 C10.1561673 357.74723716 6.40758643 357.71919571 2.6585865 357.68684864 C1.55231407 357.68828373 0.44604164 357.68971882 -0.6937542 357.6911974 C-7.46122521 357.60863572 -12.95307111 357.19752032 -18.20445061 352.50056934 C-18.67109123 351.90373341 -19.13773186 351.30689747 -19.61851311 350.69197559 C-20.10062248 350.09256153 -20.58273186 349.49314747 -21.07945061 348.87556934 C-23.33568381 345.73349961 -23.37092802 343.65870313 -23.37773418 339.8245554 C-23.38219203 338.66430277 -23.38664987 337.50405014 -23.3912428 336.30863833 C-23.39105844 335.02287095 -23.39087408 333.73710357 -23.39068413 332.41237354 C-23.3939819 331.041364 -23.39770729 329.67035544 -23.40182561 328.29934812 C-23.41186358 324.51872495 -23.41556528 320.73811766 -23.41821492 316.95748305 C-23.42211266 312.88510221 -23.43169135 308.81273401 -23.44042778 304.74036121 C-23.46020725 294.89903708 -23.47026029 285.05771189 -23.47915557 275.21637285 C-23.48353606 270.5848292 -23.48890349 265.9532867 -23.49414444 261.32174397 C-23.51115823 245.93038514 -23.52565314 230.53902704 -23.53289318 215.14766026 C-23.53480316 211.1518526 -23.53672348 207.15604495 -23.53867912 203.16023731 C-23.53940473 201.67048253 -23.53940473 201.67048253 -23.540145 200.1506317 C-23.54844804 184.05635906 -23.5737889 167.96216068 -23.6062598 151.86792049 C-23.63930684 135.35382547 -23.65733981 118.83976823 -23.66053742 102.32563996 C-23.66270471 93.0497024 -23.67148527 83.77387311 -23.6969986 74.49796772 C-23.71867345 66.59924807 -23.72677191 58.700663 -23.71703181 50.80191699 C-23.71247773 46.77077413 -23.71443728 42.73990913 -23.73379326 38.70880413 C-23.75135923 35.01866761 -23.75048122 31.32901299 -23.73489597 27.63887182 C-23.7313791 25.67098844 -23.74759514 23.70310038 -23.76450044 21.73528647 C-23.68649044 11.09245115 -23.68649044 11.09245115 -19.24351311 6.25447559 C-13.49827596 0.81161935 -7.68744545 -0.04475065 0 0 Z " fill="#4D4D4D" transform="translate(23.243513107299805,27.745524406433105)"/>
<path d="M0 0 C159.39 0 318.78 0 483 0 C483 75.57 483 151.14 483 229 C482 230 482 230 479.78422451 230.12304783 C478.79698422 230.12212604 477.80974394 230.12120424 476.79258728 230.12025452 C475.66371597 230.12162918 474.53484467 230.12300385 473.37176514 230.12442017 C472.12236145 230.12082489 470.87295776 230.11722961 469.58569336 230.11352539 C468.27856888 230.11367142 466.9714444 230.11381744 465.62471008 230.1139679 C462.02982901 230.11425586 458.43498103 230.10835928 454.84010768 230.10139394 C451.08713748 230.09516026 447.3341666 230.09455659 443.58119202 230.09336853 C436.46969174 230.09025526 429.35820675 230.08204192 422.24671322 230.07201904 C414.15252934 230.06085778 406.05834474 230.05534742 397.96415508 230.05032361 C381.30942775 230.03985931 364.65471582 230.02225994 348 230 C349.485 225.545 349.485 225.545 351 221 C354.87445764 220.39232386 358.74962752 219.789313 362.625 219.1875 C363.79313232 219.00517822 364.96126465 218.82285645 366.16479492 218.63500977 C371.91909112 217.74604602 377.67146935 216.89443069 383.44921875 216.171875 C384.44034668 216.04659424 385.43147461 215.92131348 386.45263672 215.79223633 C388.31893908 215.56074091 390.18645567 215.3387774 392.05517578 215.12768555 C392.89935059 215.02238525 393.74352539 214.91708496 394.61328125 214.80859375 C395.34329346 214.72407959 396.07330566 214.63956543 396.82543945 214.55249023 C399.71839269 213.81747809 401.61459544 212.80928239 404 211 C404.74442654 208.35499518 404.74442654 208.35499518 404.61523438 205.29101562 C404.62453979 204.11970093 404.63384521 202.94838623 404.64343262 201.74157715 C404.62703735 200.47591919 404.61064209 199.21026123 404.59375 197.90625 C404.59381042 195.95893982 404.59381042 195.95893982 404.59387207 193.97229004 C404.59221866 191.22484584 404.57351965 188.47821746 404.54199219 185.73095703 C404.50231282 182.20997285 404.49794633 178.69005724 404.50545502 175.16889191 C404.50926331 171.81038108 404.48844617 168.4522079 404.46875 165.09375 C404.46844788 163.19526306 404.46844788 163.19526306 404.46813965 161.25842285 C404.45222778 160.08710815 404.43631592 158.91579346 404.41992188 157.70898438 C404.41150269 156.67656616 404.4030835 155.64414795 404.39440918 154.58044434 C403.94508794 151.64073476 403.35070615 150.75403453 401 149 C391.21893576 145.49072264 379.20047275 145.45541455 368.91235352 144.25268555 C366.35797827 143.95215686 363.80600761 143.63559423 361.25390625 143.31640625 C360.07738243 143.18498985 360.07738243 143.18498985 358.87709045 143.05091858 C353.47312091 142.35771684 353.47312091 142.35771684 351.06225586 140.53491211 C347.88693733 135.94671914 347.88693733 135.94671914 348.28637695 132.60205078 C349.03661492 129.8664927 349.8953276 128.42831917 351.66796875 126.2421875 C352.22532715 125.54319336 352.78268555 124.84419922 353.35693359 124.12402344 C353.96102051 123.3818457 354.56510742 122.63966797 355.1875 121.875 C356.45609646 120.27475949 357.72296749 118.67314991 358.98828125 117.0703125 C359.64521973 116.24176758 360.3021582 115.41322266 360.97900391 114.55957031 C364.32358889 110.32368858 367.61911046 106.05436776 370.875 101.75 C371.48754639 100.9647998 372.10009277 100.17959961 372.73120117 99.37060547 C375.07557696 96.24948882 376.79998276 93.74292118 377.8203125 89.953125 C376.94374371 86.79747734 376.06217293 85.69506114 373.91137695 83.30175781 C373.27665466 82.59500916 372.64193237 81.8882605 371.98797607 81.16009521 C366.8475613 75.57462288 361.56178114 70.13648518 356.23950195 64.72460938 C354.78186194 63.23509319 353.33234559 61.73758582 351.89086914 60.23242188 C349.79129166 58.04172392 347.66672809 55.87827384 345.53515625 53.71875 C344.89844498 53.0438855 344.2617337 52.369021 343.60572815 51.67370605 C340.49063404 48.57184713 338.31286489 46.58732401 333.7980957 46.41723633 C330.18275404 46.971959 328.50701892 47.39060351 325.6953125 49.60546875 C324.58567139 50.45395386 324.58567139 50.45395386 323.45361328 51.31958008 C322.6851709 51.93599365 321.91672852 52.55240723 321.125 53.1875 C319.45896624 54.46697037 317.79228233 55.74559455 316.125 57.0234375 C315.28066406 57.68053711 314.43632812 58.33763672 313.56640625 59.01464844 C309.46988086 62.18368805 305.30589144 65.25610334 301.125 68.3125 C300.38266113 68.86897217 299.64032227 69.42544434 298.87548828 69.9987793 C292.30257864 74.81593246 292.30257864 74.81593246 288 75 C284.8125 74.1875 284.8125 74.1875 282 72 C278.6610931 62.58916621 278.47095409 51.16803052 277.17724609 41.28417969 C276.86282028 38.89187163 276.54119938 36.50061289 276.21875 34.109375 C276.12597778 33.3842572 276.03320557 32.6591394 275.93762207 31.91204834 C275.37198143 27.74967895 274.59817894 23.8942591 273 20 C270.37943765 18.68971882 268.43097061 18.86573693 265.49633789 18.85473633 C264.34496841 18.84835648 263.19359894 18.84197662 262.00733948 18.83540344 C260.75839401 18.83429062 259.50944855 18.8331778 258.22265625 18.83203125 C256.94523056 18.82870285 255.66780487 18.82537445 254.35166931 18.82194519 C251.64562505 18.81687438 248.93968119 18.81410529 246.23364258 18.81469727 C242.7655282 18.8147989 239.2976185 18.80114546 235.82955265 18.78392506 C232.52309476 18.77013526 229.21663901 18.77071642 225.91015625 18.76953125 C224.0397744 18.75875298 224.0397744 18.75875298 222.13160706 18.74775696 C220.97708542 18.75083359 219.82256378 18.75391022 218.63305664 18.75708008 C217.61538712 18.75565506 216.59771759 18.75423004 215.54920959 18.75276184 C212.75705175 18.82122893 212.75705175 18.82122893 210 21 C209.16275983 23.85667102 209.16275983 23.85667102 208.71875 27.2734375 C208.41831787 29.21041504 208.41831787 29.21041504 208.11181641 31.18652344 C208.01201477 31.87097534 207.91221313 32.55542725 207.80938721 33.26062012 C207.49932954 35.37958198 207.1706954 37.49492989 206.83740234 39.61035156 C205.86229376 45.86053611 204.95829025 52.11038074 204.2578125 58.3984375 C204.14759766 59.31705566 204.03738281 60.23567383 203.92382812 61.18212891 C203.7296674 62.8505787 203.56271896 64.5225007 203.42773438 66.19677734 C203.1640625 68.421875 203.1640625 68.421875 202 72 C198.71154413 74.07774172 196.42967967 74.97503734 192.5390625 75.04296875 C188.64953245 73.44526948 185.64039574 70.92807328 182.375 68.3125 C180.8640015 67.13709435 179.35225354 65.96265166 177.83984375 64.7890625 C175.38334766 62.86868449 172.9298514 60.94471328 170.48095703 59.01464844 C167.98016579 57.05382808 165.46080947 55.11921421 162.9375 53.1875 C162.16519043 52.57108643 161.39288086 51.95467285 160.59716797 51.31958008 C159.85225098 50.75392334 159.10733398 50.1882666 158.33984375 49.60546875 C157.69394287 49.10168701 157.04804199 48.59790527 156.38256836 48.07885742 C152.77699218 46.44620642 149.79187904 45.96401756 146 47 C142.48999306 49.36033328 139.65882083 52.29117751 136.72265625 55.3203125 C135.87070175 56.17172821 135.01874725 57.02314392 134.14097595 57.90036011 C132.34730755 59.7017187 130.56343217 61.51287459 128.78881836 63.33300781 C126.07029937 66.11701275 123.31872894 68.86471947 120.56054688 71.609375 C118.82084913 73.36514129 117.08314882 75.12288947 115.34765625 76.8828125 C114.52483658 77.70492218 113.70201691 78.52703186 112.85426331 79.37405396 C112.09935104 80.1544101 111.34443878 80.93476624 110.56665039 81.73876953 C109.56692955 82.75803024 109.56692955 82.75803024 108.54701233 83.79788208 C106.61801104 86.54374792 106.24964471 88.67786467 106 92 C106.90671825 94.31622013 106.90671825 94.31622013 108.515625 96.33203125 C109.07443359 97.10240723 109.63324219 97.8727832 110.20898438 98.66650391 C111.09553711 99.82158447 111.09553711 99.82158447 112 101 C112.54462891 101.71978027 113.08925781 102.43956055 113.65039062 103.18115234 C115.32964438 105.36687143 117.0376771 107.52762187 118.75 109.6875 C119.97239514 111.26221331 121.19373869 112.83774346 122.4140625 114.4140625 C124.65658811 117.30247405 126.93974614 120.14589544 129.2734375 122.9609375 C130.22506132 124.16058421 131.17565038 125.36105278 132.125 126.5625 C132.58100586 127.08481201 133.03701172 127.60712402 133.50683594 128.14526367 C134.6953125 129.69140625 134.6953125 129.69140625 136 133 C135.42862708 136.4998253 134.20176912 139.22200223 132 142 C128.445744 143.66226332 124.874664 143.96607906 120.99609375 144.33984375 C119.92126236 144.47773819 118.84643097 144.61563263 117.73902893 144.75770569 C114.30865053 145.19025312 110.87492842 145.56555471 107.4375 145.9375 C103.99881044 146.34599298 100.56179086 146.76603071 97.1252594 147.192276 C94.98774812 147.45341991 92.84866494 147.7020604 90.70811462 147.93699646 C89.74023514 148.04794144 88.77235565 148.15888641 87.77514648 148.27319336 C86.49751686 148.41234413 86.49751686 148.41234413 85.19407654 148.55430603 C82.72157984 148.91264067 82.72157984 148.91264067 80 151 C79.53969771 153.65034234 79.53969771 153.65034234 79.61181641 156.79492188 C79.59763168 158.61691101 79.59763168 158.61691101 79.5831604 160.47570801 C79.58923309 161.79341187 79.59530579 163.11111572 79.6015625 164.46875 C79.59954235 165.82873694 79.59663141 167.18872283 79.59286499 168.54870605 C79.58843877 171.4002513 79.59488184 174.25151482 79.60888672 177.10302734 C79.62597928 180.76195449 79.61613961 184.42022154 79.59816933 188.07912445 C79.58733922 190.88780713 79.59077416 193.69633278 79.5985527 196.50502014 C79.60153309 198.51144844 79.59240702 200.51788279 79.5831604 202.52429199 C79.59261688 203.73895142 79.60207336 204.95361084 79.61181641 206.20507812 C79.61539658 207.81485535 79.61539658 207.81485535 79.61904907 209.45715332 C79.74476288 210.29629272 79.87047668 211.13543213 80 212 C83.0190227 214.0126818 84.443522 214.41687245 87.93041992 214.96142578 C89.43163643 215.20144821 89.43163643 215.20144821 90.96318054 215.44631958 C92.5804882 215.69332108 92.5804882 215.69332108 94.23046875 215.9453125 C95.33602615 216.12005096 96.44158356 216.29478943 97.5806427 216.474823 C101.11521042 217.03183928 104.65128771 217.57853154 108.1875 218.125 C110.58278877 218.50062373 112.97797257 218.87691746 115.37304688 219.25390625 C121.24750774 220.1770525 127.12334317 221.09094231 133 222 C133.99 224.97 134.98 227.94 136 231 C118.56312055 231.04667308 101.12626053 231.08196577 83.68933296 231.10362434 C75.59348592 231.11394706 67.49767764 231.12802632 59.40185547 231.15087891 C52.34743438 231.17078241 45.29304136 231.18370919 38.23859298 231.18817699 C34.50159792 231.19078954 30.76468316 231.19695067 27.02771378 231.21146011 C22.86104993 231.22750743 18.69452665 231.22798165 14.52783203 231.22705078 C13.28202362 231.23424133 12.03621521 231.24143188 10.75265503 231.24884033 C9.62240906 231.246091 8.49216309 231.24334167 7.32766724 231.24050903 C6.34134874 231.24235262 5.35503025 231.24419621 4.33882332 231.24609566 C2 231 2 231 0 229 C0 153.43 0 77.86 0 0 Z " fill="#F0F0F0" transform="translate(14,138)"/>
<path d="M0 0 C1.6874269 0.00015917 3.37485866 0.00585622 5.06225586 0.01586914 C6.39189613 0.01799156 6.39189613 0.01799156 7.74839783 0.02015686 C10.59133215 0.02577324 13.43418892 0.03832848 16.27709961 0.05102539 C18.19962452 0.05603828 20.12215065 0.06060155 22.04467773 0.06469727 C26.7680151 0.07574798 31.49129419 0.09302356 36.21459961 0.11352539 C36.82204087 3.84216598 37.42532199 7.57146664 38.02709961 11.30102539 C38.20869629 12.42404053 38.39029297 13.54705566 38.57739258 14.70410156 C39.46341929 20.23261215 40.32039499 25.76113002 41.07788086 31.30883789 C41.20767334 32.25863525 41.33746582 33.20843262 41.47119141 34.18701172 C41.71204308 35.97767771 41.94683811 37.76917151 42.17480469 39.56152344 C42.28332764 40.36887939 42.39185059 41.17623535 42.50366211 42.00805664 C42.63828857 43.0576355 42.63828857 43.0576355 42.77563477 44.12841797 C43.28128267 46.41508264 43.98140468 48.12051736 45.21459961 50.11352539 C47.57612345 51.54970552 49.78124921 52.72438114 52.27709961 53.86352539 C52.9080957 54.1793457 53.5390918 54.49516602 54.18920898 54.82055664 C59.12303014 57.12068315 63.81765595 58.40291673 69.21459961 57.11352539 C72.9105075 55.10075846 76.04482885 52.54425429 79.27709961 49.86352539 C81.11508862 48.39928973 82.95363693 46.93575588 84.79272461 45.47290039 C85.69958008 44.74006836 86.60643555 44.00723633 87.54077148 43.25219727 C91.4668672 40.11189426 95.49034645 37.10932572 99.52709961 34.11352539 C100.83599204 33.13475801 102.14461845 32.15563471 103.45288086 31.17602539 C104.36424805 30.49540039 105.27561523 29.81477539 106.21459961 29.11352539 C112.76837058 34.49993463 118.68706596 40.47237666 124.65209961 46.48852539 C125.67985944 47.52131134 126.70785246 48.5538653 127.73608398 49.58618164 C130.23161559 52.09262826 132.72398043 54.60219619 135.21459961 57.11352539 C133.9797224 60.50339159 132.62692227 63.15977509 130.37866211 65.97680664 C129.81421387 66.69126953 129.24976563 67.40573242 128.66821289 68.1418457 C127.76304932 69.27251465 127.76304932 69.27251465 126.83959961 70.42602539 C125.57849217 72.03095159 124.31808978 73.63643202 123.05834961 75.24243164 C121.17074713 77.63768479 119.2804971 80.0306442 117.38256836 82.41772461 C115.6880234 84.55610133 114.01231286 86.70805375 112.33959961 88.86352539 C111.82220215 89.50588135 111.30480469 90.1482373 110.77172852 90.81005859 C108.52392847 93.73019512 107.30236202 95.5257385 106.74975586 99.22680664 C107.25391786 102.35769506 108.12850524 104.70845454 109.52709961 107.55102539 C111.08576305 110.73781916 112.47107014 113.8134022 113.58959961 117.17602539 C114.94640033 120.38789227 114.94640033 120.38789227 118.21508789 121.20507812 C122.70148691 122.32426816 127.25547967 122.95764003 131.83178711 123.58618164 C133.17842941 123.77814369 133.17842941 123.77814369 134.55227661 123.97398376 C137.39741756 124.37930181 140.24338308 124.77833552 143.08959961 125.17602539 C145.95719632 125.57755613 148.82454188 125.98054628 151.69119263 126.38877869 C153.47014924 126.64209046 155.24966439 126.89151529 157.02975464 127.13673401 C163.10198006 128.00090584 163.10198006 128.00090584 164.21459961 129.11352539 C164.31570314 132.05888109 164.3542924 134.98030099 164.34741211 137.92602539 C164.3488472 139.25210815 164.3488472 139.25210815 164.35031128 140.60498047 C164.35099312 142.47794669 164.34913854 144.35091525 164.3449707 146.22387695 C164.3396225 149.10120927 164.34491554 151.97838547 164.35131836 154.85571289 C164.35065758 156.6708174 164.34937642 158.48592182 164.34741211 160.30102539 C164.34943634 161.16767822 164.35146057 162.03433105 164.35354614 162.92724609 C164.3295497 168.9985753 164.3295497 168.9985753 163.21459961 170.11352539 C161.76749352 170.37990167 160.30983328 170.58936201 158.85009766 170.77441406 C157.92210861 170.89511765 156.99411957 171.01582123 156.03800964 171.1401825 C154.52247246 171.33388176 154.52247246 171.33388176 152.97631836 171.53149414 C150.8556889 171.81852921 148.73525143 172.10698567 146.61499023 172.39672852 C143.25876371 172.8527549 139.90241164 173.30098601 136.54199219 173.72509766 C133.3079541 174.13610537 130.0800286 174.58076788 126.85131836 175.03149414 C125.84703293 175.15050583 124.8427475 175.26951752 123.80802917 175.39213562 C117.97588637 176.20511766 117.97588637 176.20511766 113.64257812 180.04248047 C112.16730751 183.21523292 110.72417967 186.34794745 109.46459961 189.61352539 C109.03663086 190.69633789 108.60866211 191.77915039 108.16772461 192.89477539 C106.91346099 197.1304853 106.32606366 200.4766236 108.49291992 204.46850586 C109.38382324 205.58829834 109.38382324 205.58829834 110.29272461 206.73071289 C110.95401367 207.57802979 111.61530273 208.42534668 112.29663086 209.29833984 C113.01206055 210.18610107 113.72749023 211.0738623 114.46459961 211.98852539 C115.9287616 213.85392408 117.39229632 215.71981527 118.85522461 217.58618164 C119.58805664 218.51188965 120.32088867 219.43759766 121.07592773 220.39135742 C124.18883396 224.35356113 127.20592269 228.38444983 130.21459961 232.42602539 C131.19358971 233.73475124 132.17273726 235.04335933 133.15209961 236.35180664 C133.83272461 237.26317383 134.51334961 238.17454102 135.21459961 239.11352539 C133.57681916 243.30978448 130.48136779 246.10029324 127.33178711 249.19165039 C126.75751984 249.76308777 126.18325256 250.33452515 125.59158325 250.92327881 C123.76224151 252.74145484 121.92605768 254.55254031 120.08959961 256.36352539 C118.84565187 257.59743868 117.60215691 258.83180861 116.35913086 260.06665039 C113.31617594 263.08759282 110.26706707 266.10219631 107.21459961 269.11352539 C101.01114185 265.10404031 95.12991722 260.82058243 89.33959961 256.23852539 C87.76203364 255.00864132 86.18391033 253.77947181 84.60522461 252.55102539 C82.01472962 250.53004042 79.44079504 248.49244192 76.88647461 246.42602539 C75.96350586 245.70415039 75.04053711 244.98227539 74.08959961 244.23852539 C72.94104492 243.31426758 72.94104492 243.31426758 71.76928711 242.37133789 C67.53553513 240.28683004 63.53492591 240.43123449 59.10571289 241.73364258 C56.97162355 242.55158623 54.91078938 243.46037688 52.83959961 244.42602539 C52.12932617 244.73475586 51.41905273 245.04348633 50.68725586 245.36157227 C47.18156418 246.94146178 45.38835787 247.852888 43.21459961 251.11352539 C42.66388318 253.30643441 42.66388318 253.30643441 42.3449707 255.76855469 C42.1349794 257.17967781 42.1349794 257.17967781 41.92074585 258.61930847 C41.77795197 259.63189224 41.63515808 260.64447601 41.48803711 261.68774414 C41.33549469 262.72671341 41.18295227 263.76568268 41.02578735 264.83613586 C40.53992279 268.15677196 40.06464509 271.478826 39.58959961 274.80102539 C39.26217039 277.05177776 38.9340539 279.30243027 38.60522461 281.55297852 C37.80036939 287.07202651 37.00420235 292.59227577 36.21459961 298.11352539 C30.53629883 298.13817244 24.85802891 298.15636001 19.1796875 298.16845703 C17.24641376 298.17349795 15.31314385 298.18033058 13.37988281 298.18896484 C10.60733089 298.20104104 7.8348292 298.20675596 5.06225586 298.21118164 C3.75757103 298.21892357 3.75757103 298.21892357 2.42652893 298.2268219 C0.35554147 298.22701724 -1.71534363 298.17560707 -3.78540039 298.11352539 C-5.33694668 296.5619791 -5.19852268 294.88457726 -5.49389648 292.7331543 C-5.62428314 291.80193756 -5.7546698 290.87072083 -5.88900757 289.9112854 C-6.02755157 288.89779022 -6.16609558 287.88429504 -6.30883789 286.84008789 C-6.61042778 284.7150178 -6.91252703 282.59001995 -7.21508789 280.46508789 C-7.69001864 277.09927428 -8.1611486 273.73307327 -8.62329102 270.36547852 C-9.06976652 267.12615625 -9.53184716 263.88936909 -9.99633789 260.65258789 C-10.13083344 259.64314117 -10.26532898 258.63369446 -10.40390015 257.59365845 C-10.54059113 256.65613739 -10.6772821 255.71861633 -10.81811523 254.75268555 C-10.93279144 253.92741364 -11.04746765 253.10214172 -11.1656189 252.25186157 C-12.07966416 249.09827265 -13.76452915 247.68327513 -16.57543945 246.11450195 C-18.72186828 245.1797497 -20.87334425 244.26161025 -23.03540039 243.36352539 C-24.14334961 242.87045898 -24.14334961 242.87045898 -25.27368164 242.36743164 C-30.14740358 240.33026745 -33.54293414 239.56042942 -38.78540039 241.11352539 C-41.03663388 242.56659428 -42.90182182 243.94670622 -44.91040039 245.67602539 C-46.11168246 246.66524682 -47.31494716 247.65206362 -48.51977539 248.63696289 C-49.18299805 249.18320312 -49.8462207 249.72944336 -50.52954102 250.29223633 C-54.99414365 253.89677481 -59.58733732 257.33594092 -64.16040039 260.80102539 C-66.001618 262.20067055 -67.84276956 263.60040261 -69.68383789 265.00024414 C-71.05091089 266.03815538 -72.41805204 267.07597692 -73.78540039 268.11352539 C-77.84025051 266.48624602 -80.62852993 263.61057588 -83.67993164 260.59008789 C-84.23154465 260.04750336 -84.78315765 259.50491882 -85.35148621 258.94589233 C-86.5114453 257.80040329 -87.6686453 256.65211438 -88.82324219 255.5012207 C-90.59718602 253.73923495 -92.38893075 251.99676123 -94.18188477 250.25415039 C-95.30737753 249.13811521 -96.43176596 248.02096499 -97.55493164 246.90258789 C-98.36411797 246.12270004 -98.36411797 246.12270004 -99.18965149 245.32705688 C-102.78157221 241.69037206 -102.78157221 241.69037206 -102.79931641 239.01660156 C-101.61883002 236.80088006 -100.3224747 234.8697882 -98.79321289 232.87524414 C-98.17518799 232.0620874 -97.55716309 231.24893066 -96.92041016 230.41113281 C-95.92545532 229.11912964 -95.92545532 229.11912964 -94.91040039 227.80102539 C-93.54700529 225.99902819 -92.18372511 224.19694404 -90.82055664 222.39477539 C-88.34916647 219.1488404 -85.85721635 215.92087949 -83.34399414 212.70727539 C-82.3451489 211.40530507 -81.34644139 210.10322906 -80.34790039 208.80102539 C-79.64914795 207.93320435 -79.64914795 207.93320435 -78.9362793 207.04785156 C-75.80912761 202.93573712 -75.09293219 200.21563106 -75.78540039 195.11352539 C-76.65551467 192.25437936 -77.79404648 189.57930374 -79.03540039 186.86352539 C-79.33575195 186.15711914 -79.63610352 185.45071289 -79.94555664 184.72290039 C-81.69278257 180.79721831 -82.91042276 178.27318572 -86.78540039 176.11352539 C-89.90010405 175.34743114 -93.04360127 174.94756761 -96.22290039 174.54321289 C-97.13998779 174.41665314 -98.0570752 174.29009338 -99.00195312 174.15969849 C-101.9283674 173.75804172 -104.85665417 173.37277305 -107.78540039 172.98852539 C-110.71360156 172.59377118 -113.64132511 172.19568287 -116.56884766 171.79592896 C-118.38915556 171.54852108 -120.20994622 171.30463359 -122.03125 171.06466675 C-122.85890869 170.95430084 -123.68656738 170.84393494 -124.53930664 170.73022461 C-125.62707397 170.58724442 -125.62707397 170.58724442 -126.73681641 170.44137573 C-128.79295214 170.11231683 -130.77395402 169.64862533 -132.78540039 169.11352539 C-132.81004744 163.43522461 -132.82823501 157.7569547 -132.84033203 152.07861328 C-132.84537295 150.14533954 -132.85220558 148.21206963 -132.86083984 146.27880859 C-132.87291604 143.50625667 -132.87863096 140.73375498 -132.88305664 137.96118164 C-132.89079857 136.65649681 -132.89079857 136.65649681 -132.8986969 135.32545471 C-132.89889224 133.25446725 -132.84748207 131.18358215 -132.78540039 129.11352539 C-131.25156085 127.57968585 -129.64222455 127.71283376 -127.51269531 127.42089844 C-126.60472702 127.29373947 -125.69675873 127.16658051 -124.76127625 127.03556824 C-123.7727919 126.90016129 -122.78430756 126.76475433 -121.76586914 126.62524414 C-119.69089125 126.32847295 -117.61602471 126.0309223 -115.54125977 125.73266602 C-112.25701257 125.26432986 -108.97237651 124.80095369 -105.68554688 124.35107422 C-102.52246445 123.91592734 -99.36298257 123.45981599 -96.20336914 123.00024414 C-94.72975166 122.80624275 -94.72975166 122.80624275 -93.22636414 122.60832214 C-87.85728111 121.83351232 -87.85728111 121.83351232 -83.22485352 119.1796875 C-81.40438691 116.56662629 -80.25316681 113.95504546 -79.09790039 110.98852539 C-78.6815332 109.93407227 -78.26516602 108.87961914 -77.83618164 107.79321289 C-77.31604492 106.46676758 -77.31604492 106.46676758 -76.78540039 105.11352539 C-76.45540039 104.45352539 -76.12540039 103.79352539 -75.78540039 103.11352539 C-75.14875712 98.00930717 -75.31140229 95.21180971 -78.39086914 91.02758789 C-79.56682541 89.58301387 -80.76199867 88.15393496 -81.97290039 86.73852539 C-83.25322152 85.17324769 -84.53047998 83.60546072 -85.80493164 82.03540039 C-86.46187012 81.23295898 -87.11880859 80.43051758 -87.7956543 79.60375977 C-91.06838788 75.50782326 -94.11506987 71.25480669 -97.16040039 66.98852539 C-97.72525146 66.2004248 -98.29010254 65.41232422 -98.87207031 64.6003418 C-100.17953635 62.77352744 -101.48411555 60.94474523 -102.78540039 59.11352539 C-100.93775976 55.08602361 -98.25803557 52.40020649 -95.09790039 49.36352539 C-91.55590058 45.89759538 -88.08405778 42.43483652 -84.84790039 38.67602539 C-84.31551758 38.05985352 -83.78313477 37.44368164 -83.23461914 36.80883789 C-82.29193401 35.70607415 -81.35659104 34.59697695 -80.42993164 33.48071289 C-79.16040039 32.05102539 -79.16040039 32.05102539 -76.78540039 30.11352539 C-73.05019587 30.4359373 -70.80897342 31.52367439 -67.92211914 33.85180664 C-66.8504248 34.70319214 -66.8504248 34.70319214 -65.75708008 35.57177734 C-65.00330078 36.1836792 -64.24952148 36.79558105 -63.47290039 37.42602539 C-61.86811141 38.69771702 -60.26262805 39.96853282 -58.65649414 41.23852539 C-57.84680176 41.88305664 -57.03710938 42.52758789 -56.20288086 43.19165039 C-52.50289991 46.13310162 -48.78350242 49.04617534 -45.03540039 51.92602539 C-44.39304443 52.43496338 -43.75068848 52.94390137 -43.08886719 53.46826172 C-39.39421765 56.29323785 -36.60212818 58.1561513 -31.78540039 58.11352539 C-28.76423105 57.29426872 -25.95952713 56.12273992 -23.09790039 54.86352539 C-21.95998047 54.39366211 -21.95998047 54.39366211 -20.79907227 53.91430664 C-15.76757144 51.77492114 -15.76757144 51.77492114 -11.78540039 48.11352539 C-11.09954181 45.93854146 -11.09954181 45.93854146 -10.81811523 43.47436523 C-10.68142426 42.53684418 -10.54473328 41.59932312 -10.40390015 40.63339233 C-10.2694046 39.62394562 -10.13490906 38.6144989 -9.99633789 37.57446289 C-9.84758209 36.5378653 -9.69882629 35.5012677 -9.54556274 34.43325806 C-9.07202015 31.11989476 -8.61545529 27.80447397 -8.16040039 24.48852539 C-7.69533159 21.16592045 -7.22674944 17.84386377 -6.7538147 14.52236938 C-6.46030559 12.45423828 -6.17192126 10.38537252 -5.88900757 8.31576538 C-5.75862091 7.38454865 -5.62823425 6.45333191 -5.49389648 5.49389648 C-5.38081146 4.67021576 -5.26772644 3.84653503 -5.1512146 2.99789429 C-4.47348498 -0.49320195 -3.82720138 0.11477902 0 0 Z " fill="#98A3AB" transform="translate(239.785400390625,170.886474609375)"/>
<path d="M0 0 C1.14398362 0.0070235 1.14398362 0.0070235 2.31107801 0.01418889 C3.1215175 0.011282 3.93195699 0.00837512 4.76695526 0.00538015 C7.51190755 -0.00198116 10.25664057 0.00505184 13.00159162 0.01190388 C14.97767289 0.00960187 16.95375331 0.0064271 18.92983192 0.00244939 C24.3828289 -0.00594291 29.83575638 -0.00175332 35.28875369 0.00442183 C41.16066386 0.00892728 47.03256167 0.00197208 52.90446943 -0.00353801 C64.41657046 -0.01245414 75.92864549 -0.01050015 87.44074756 -0.00471273 C96.7928021 -0.00013432 106.14485167 0.00047354 115.49690717 -0.00176036 C116.16053955 -0.00191313 116.82417193 -0.0020659 117.50791438 -0.0022233 C120.20157704 -0.00284594 122.89523969 -0.00348274 125.58890233 -0.00414283 C150.87561465 -0.01026566 176.16231275 -0.00470627 201.44902287 0.00605096 C223.9320075 0.01554271 246.41496949 0.01469347 268.89795393 0.00512898 C294.13738169 -0.00557215 319.37679689 -0.00983149 344.61622661 -0.00364649 C347.30508099 -0.00300502 349.99393536 -0.00237935 352.68278974 -0.00176036 C353.67594159 -0.00152313 353.67594159 -0.00152313 354.68915712 -0.00128111 C364.70299896 0.0009972 374.71683161 -0.00168526 384.73067182 -0.00671947 C396.11285884 -0.01231553 407.49501826 -0.01083883 418.87720209 -0.00015798 C424.68999408 0.00511598 430.50273997 0.00712631 436.31553167 0.00054371 C441.6287699 -0.00538239 446.94191896 -0.00219634 452.25514901 0.00849882 C454.18512461 0.01074712 456.11510762 0.0095649 458.04507852 0.00474724 C460.65303494 -0.00126728 463.26067926 0.00483474 465.86861891 0.01418889 C466.63127465 0.00950655 467.39393039 0.00482422 468.17969692 0 C473.36154771 0.03757042 473.36154771 0.03757042 475.58984846 2.26587117 C475.58984846 28.00587117 475.58984846 53.74587117 475.58984846 80.26587117 C316.19984846 80.26587117 156.80984846 80.26587117 -7.41015154 80.26587117 C-7.41015154 0.05372646 -7.41015154 0.05372646 0 0 Z " fill="#98A3AB" transform="translate(21.410151541233063,42.73412883281708)"/>
<path d="M0 0 C13.43343272 8.63270276 21.65227378 20.10345892 25.3984375 35.6875 C27.65684479 49.66405835 24.10014825 62.321858 16.8125 74.25 C8.85116065 85.11342601 -1.41144338 91.39854695 -14.1875 95.25 C-14.78691406 95.44207031 -15.38632812 95.63414062 -16.00390625 95.83203125 C-26.56548373 97.85365699 -37.44321164 96.64504994 -47.1875 92.25 C-47.97382813 91.899375 -48.76015625 91.54875 -49.5703125 91.1875 C-63.07853047 84.40985753 -71.57747275 72.89012178 -76.4609375 58.85546875 C-80.26110436 45.22798865 -78.34167878 32.09171953 -72 19.5625 C-64.27906313 6.73350428 -52.6794372 -2.22742285 -38.30615234 -6.28051758 C-25.09225503 -9.20864901 -11.60868964 -6.49660613 0 0 Z " fill="#F0F0F0" transform="translate(282.1875,274.75)"/>
<path d="M0 0 C13.75406783 11.02736233 23.83599058 26.13822879 26.35400391 43.78369141 C27.99806414 63.89080901 23.68721087 81.82890097 10.41650391 97.53759766 C4.50984587 103.97003776 -1.97599415 108.6351369 -9.64599609 112.78369141 C-10.69013672 113.35603516 -10.69013672 113.35603516 -11.75537109 113.93994141 C-27.37982326 121.69342895 -45.45721173 121.55874023 -61.77685547 116.42529297 C-79.49784132 110.34238403 -92.57588173 97.11083748 -100.80029297 80.57470703 C-107.26295678 66.88818806 -108.17039269 49.21936629 -104.08349609 34.65869141 C-99.86146703 23.45407581 -94.15330295 14.20144767 -85.64599609 5.78369141 C-84.76041016 4.84783203 -84.76041016 4.84783203 -83.85693359 3.89306641 C-61.95047628 -17.53086982 -24.06234161 -17.78086412 0 0 Z M-78.86865234 18.62353516 C-88.61034556 30.46343922 -92.56701851 43.63798946 -91.64599609 58.78369141 C-89.51103252 73.11327746 -82.66938272 85.34593612 -71.48974609 94.56103516 C-59.25424354 103.27218099 -46.35869043 105.99544159 -31.64599609 104.78369141 C-18.28829495 102.28625797 -5.98659741 95.02897929 2.33056641 84.21337891 C10.53307321 71.96197512 14.25275473 58.61065628 11.89306641 43.91259766 C8.42029792 29.83767127 1.06528655 17.99072054 -11.08349609 9.90869141 C-33.73648057 -3.58128811 -60.41460382 -0.96266358 -78.86865234 18.62353516 Z " fill="#4E4E4E" transform="translate(295.64599609375,266.21630859375)"/>
<path d="M0 0 C7.41898133 5.19552156 12.71856514 11.11501498 15 20 C16.19982057 29.67422892 15.14351381 37.23055039 9.45703125 45.1484375 C4.37192564 51.40881924 -2.01605144 56.24353132 -10 58 C-19.68273214 58.94465679 -28.5516722 57.01210076 -36.1796875 50.8046875 C-42.67342411 44.36669111 -46.02527779 37.28669946 -46.3125 28.1875 C-46.14492332 19.17187468 -43.59960317 11.76350885 -37.24609375 5.18359375 C-27.40399109 -4.04217371 -12.22902396 -6.93421105 0 0 Z " fill="#4D4E4E" transform="translate(159,56)"/>
<path d="M0 0 C7.62310312 4.0704494 13.96803504 10.0723307 17.140625 18.19921875 C19.49910349 26.48387413 18.98581302 35.45872494 15.31640625 43.2578125 C10.60639722 51.44530484 4.34318325 55.42123912 -4.375 58.75 C-12.98503548 60.4115858 -20.23821844 59.87114201 -27.9375 55.4375 C-34.76059532 50.52172527 -39.45953441 45.5428455 -41.9375 37.4375 C-42.185 36.633125 -42.4325 35.82875 -42.6875 35 C-43.69509682 24.67213261 -42.46687281 16.58468851 -35.9375 8.1875 C-26.58129639 -1.56515291 -12.7592948 -5.03772157 0 0 Z " fill="#4E4E4E" transform="translate(69.9375,54.5625)"/>
<path d="M0 0 C8.82738623 5.0442207 13.99159859 11.72870203 17.16015625 21.234375 C18.04567276 31.45410652 16.89352643 40.81053443 10.47265625 49.109375 C4.34254949 55.58090543 -4.28725769 59.22718989 -13.08984375 59.609375 C-22.50456251 59.37974771 -29.19139362 55.73790061 -35.9296875 49.30859375 C-42.02969593 42.68465821 -44.39767424 34.498407 -44.15234375 25.58984375 C-43.14502404 17.99717147 -39.27258663 10.59820359 -33.83984375 5.234375 C-23.81460436 -1.94438456 -11.91584472 -4.72179268 0 0 Z " fill="#4E4E4E" transform="translate(242.83984375,54.765625)"/>
<path d="M0 0 C4.75982924 2.62772498 7.04616381 6.26349144 8.75 11.375 C9.33780907 17.37065248 8.05011216 21.46221167 4.75 26.375 C0.45962659 30.55811407 -2.29041976 31.24857547 -8.125 31.625 C-12.1577943 31.5575369 -14.83673463 30.62465217 -18.25 28.375 C-22.13448797 24.27470714 -23.99070608 20.66542965 -24.625 15.0625 C-24.02803879 9.19238142 -21.96204009 5.00352594 -17.6875 0.9375 C-12.05295824 -2.67438574 -5.98080244 -2.69415586 0 0 Z " fill="#D6EFEF" transform="translate(151.25,68.625)"/>
<path d="M0 0 C4.46588135 3.01187347 7.20597568 6.62716486 8.6875 11.8125 C9.19382697 17.28083123 8.35602225 21.00915994 5.6875 25.8125 C1.85533988 29.87500854 -1.9044666 31.93000643 -7.5 32.1875 C-12.80906254 32.1182137 -16.36672581 30.29515515 -20.3125 26.8125 C-24.16834365 21.75170521 -24.09452816 15.92653833 -23.3125 9.8125 C-22.03547398 5.67736811 -19.71232244 2.77767177 -16.125 0.375 C-10.76779798 -2.29210487 -5.52618304 -1.98108449 0 0 Z " fill="#D6EFEF" transform="translate(65.3125,68.1875)"/>
<path d="M0 0 C4.97015055 2.77181473 7.68947742 6.35067098 9.25 11.8125 C9.92408026 17.76687561 8.53725611 21.9346361 5.25 26.8125 C0.64456095 31.19328349 -3.21399877 32.1927171 -9.40234375 32.08203125 C-13.22808433 31.64280313 -15.91284717 30.41444845 -18.75 27.8125 C-22.40024636 23.12549728 -23.46147621 18.14648479 -23.19921875 12.27734375 C-22.1925364 6.75372145 -19.45519449 3.02508275 -14.9375 -0.1875 C-9.42305227 -1.91752282 -5.39841671 -1.70949862 0 0 Z " fill="#D7EFEF" transform="translate(236.75,68.1875)"/>
</svg>
