<?xml version="1.0" encoding="UTF-8"?>
<svg
version="1.1"
viewBox="0 0 512 512"
xmlns="http://www.w3.org/2000/svg">
  <path
    d="M0 0 C5.27833512 3.94228594 9.54939168 8.38061272 13.578125 13.5546875 C19.93363321 21.29700571 25.09734859 27.17114889 35.484375 28.27734375 C40.70190254 28.58359445 45.87493107 28.36719996 51.09375 28.12109375 C58.80396153 27.77522396 66.39436986 28.74783523 72.375 34.0625 C77.31247196 39.04730461 79.94164674 44.34569144 80.05517578 51.45532227 C79.90521737 54.01880949 79.74933892 56.58195543 79.58837891 59.14477539 C78.92475946 70.59590522 79.21332767 79.73082622 87.12014771 88.61099243 C88.58367491 90.14059145 90.08598602 91.60906552 91.625 93.0625 C92.11989929 93.53715698 92.61479858 94.01181396 93.12469482 94.50085449 C96.21830888 97.39181898 99.20514757 100.10389811 103 102 C106.65888013 101.8561245 106.65888013 101.8561245 110 101 C110.75925781 100.835 111.51851563 100.67 112.30078125 100.5 C112.96464844 100.335 113.62851562 100.17 114.3125 100 C135.87097037 95.09535649 157.81270021 99.20714485 176.9375 110.05859375 C195.94205731 122.10612562 209.17729853 140.554361 214.8125 162.3125 C219.24634478 185.34810736 215.62818035 208.14930166 202.81835938 227.81396484 C189.89872824 246.62465557 170.51313721 259.739039 148 264 C144.99560959 264.5141742 142.04287945 264.83038003 139 265 C137.700625 265.07927734 137.700625 265.07927734 136.375 265.16015625 C123.18663285 265.57229272 108.76873169 263.17623039 97 257 C95 254 95 254 95.0625 250.8125 C93.34076517 244.63451031 88.14946034 242.40946004 83 239 C82.34 238.34 81.68 237.68 81 237 C80.99780016 238.93428391 80.99780016 238.93428391 80.99555588 240.90764427 C80.95983153 271.53825719 80.90355812 302.16875604 80.82207905 332.79927882 C80.81206194 336.5717519 80.80221775 340.34422541 80.79248047 344.11669922 C80.78956841 345.24321695 80.78956841 345.24321695 80.78659752 346.39249261 C80.75560094 358.54280229 80.73860342 370.6930931 80.72680578 382.84343486 C80.71438206 395.31661377 80.68685317 407.78969385 80.64538693 420.26281035 C80.62028636 427.9555432 80.6068802 435.64811205 80.60857043 443.34088643 C80.60860378 449.24592978 80.5875915 455.15078242 80.55883217 461.05575943 C80.55032556 463.47360563 80.54858837 465.89148678 80.55419731 468.30934143 C80.56084688 471.61677745 80.54289209 474.92322386 80.51898193 478.2305603 C80.53062256 479.65764614 80.53062256 479.65764614 80.54249835 481.11356199 C80.44708551 488.59588899 78.81025136 495.51372396 74.03515625 501.4375 C73.38417969 501.953125 72.73320312 502.46875 72.0625 503 C71.41410156 503.53625 70.76570313 504.0725 70.09765625 504.625 C66.0687799 507.26590219 62.55004448 508.24975167 57.75313091 508.25726891 C56.71005738 508.2637178 55.66698385 508.27016669 54.59230202 508.276811 C53.4528206 508.2737138 52.31333917 508.2706166 51.139328 508.26742554 C49.9238018 508.27195665 48.7082756 508.27648776 47.45591527 508.28115618 C44.08491723 508.2916286 40.7141325 508.29312567 37.34313333 508.29076743 C33.70634519 508.29035928 30.06958887 508.30139826 26.43281555 508.31088257 C19.30869313 508.327494 12.1846038 508.33299218 5.06046363 508.33410732 C-0.7307344 508.33505775 -6.5219215 508.33916775 -12.31311607 508.34550858 C-28.73363903 508.36312151 -45.15413585 508.37234739 -61.57466833 508.37084763 C-62.4598642 508.37076772 -63.34506008 508.3706878 -64.25708008 508.37060547 C-65.58649589 508.37048283 -65.58649589 508.37048283 -66.9427686 508.37035771 C-81.30571305 508.36954483 -95.66855264 508.38868279 -110.03146676 508.4168822 C-124.78059302 508.44561129 -139.52966813 508.45942248 -154.27882308 508.45769465 C-162.55879405 508.45703075 -170.83865508 508.46252307 -179.11860085 508.48405075 C-186.16850029 508.50226291 -193.21823997 508.50660967 -200.26815275 508.4930319 C-203.86413862 508.4865023 -207.45981798 508.48638434 -211.05577469 508.5037384 C-214.95678402 508.52237077 -218.85734594 508.50991422 -222.75837708 508.49447632 C-223.89116634 508.50476344 -225.0239556 508.51505057 -226.19107181 508.52564943 C-233.91305695 508.45806556 -239.27421853 507.26492697 -245.2421875 502.03515625 C-245.78101563 501.38417969 -246.31984375 500.73320312 -246.875 500.0625 C-247.42929688 499.41410156 -247.98359375 498.76570313 -248.5546875 498.09765625 C-251.64988021 493.60544412 -252.25165705 489.75245918 -252.26564884 484.34756756 C-252.27005371 483.68910612 -252.27445857 483.03064468 -252.27899691 482.35222986 C-252.29132412 480.14227559 -252.2894433 477.93256455 -252.28761292 475.72257996 C-252.29349717 474.12354041 -252.30023635 472.52450381 -252.30775779 470.92547113 C-252.32583614 466.52839305 -252.33135248 462.13137493 -252.33474457 457.73426425 C-252.3405012 452.99316617 -252.35762665 448.25210659 -252.37309265 443.5110321 C-252.40784534 432.06174822 -252.42342987 420.61246752 -252.43721595 409.16314241 C-252.44417687 403.77226041 -252.45333361 398.38138224 -252.46232414 392.99050331 C-252.49152516 375.07270357 -252.51632045 357.15490759 -252.52694798 339.2370863 C-252.52763867 338.09034123 -252.52832936 336.94359617 -252.52904099 335.76210125 C-252.529733 334.61260561 -252.53042502 333.46310996 -252.531138 332.27878112 C-252.53255 329.94944457 -252.53397081 327.62010802 -252.53540039 325.29077148 C-252.53610556 324.13533894 -252.53681073 322.9799064 -252.53753727 321.78946076 C-252.54979133 303.0615606 -252.59259528 284.33386271 -252.64834059 265.60604652 C-252.70509874 246.38207276 -252.73559646 227.15820132 -252.73996013 207.93414289 C-252.74304377 197.13898531 -252.75757498 186.34410885 -252.80124092 175.54903221 C-252.83831351 166.35811242 -252.85153855 157.16754987 -252.83353604 147.97656604 C-252.82507394 143.28677313 -252.8279674 138.59771 -252.86135483 133.90801239 C-252.89165659 129.61377369 -252.88959171 125.32080606 -252.86186682 121.02656118 C-252.85752247 119.47407469 -252.86499301 117.92150023 -252.88553984 116.36914363 C-253.04723147 103.33714342 -253.04723147 103.33714342 -248.65128422 98.23486614 C-247.46046426 97.12762905 -246.24392158 96.04722742 -245 95 C-243.89798163 93.87101793 -242.80452304 92.73354223 -241.72421265 91.58377075 C-240.59121573 90.43899634 -239.45566502 89.29674506 -238.31787109 88.15673828 C-237.69089828 87.52480057 -237.06392548 86.89286285 -236.41795349 86.24177551 C-234.37250663 84.18189024 -232.32333454 82.12576864 -230.2734375 80.0703125 C-229.56898121 79.36302883 -228.86452492 78.65574516 -228.13872147 77.92702866 C-224.42037226 74.1937718 -220.69922181 70.46333517 -216.97558594 66.73535156 C-213.13438518 62.88863756 -209.30257099 59.03271152 -205.47281456 55.17460823 C-202.51816573 52.20135211 -199.55684623 49.23480922 -196.593647 46.27007675 C-195.17738402 44.85078911 -193.76362016 43.42900307 -192.35242844 42.004673 C-190.38306909 40.01827248 -188.40447876 38.04153723 -186.42333984 36.06689453 C-185.55510338 35.18483589 -185.55510338 35.18483589 -184.66932678 34.28495789 C-184.12564957 33.74684982 -183.58197235 33.20874176 -183.02182007 32.65432739 C-182.55618841 32.18722918 -182.09055676 31.72013096 -181.61081505 31.23887825 C-177.9305918 28.40841764 -174.31861686 27.75011613 -169.76713562 27.75949097 C-168.21703545 27.75536697 -168.21703545 27.75536697 -166.63562012 27.75115967 C-165.5128064 27.75835022 -164.38999268 27.76554077 -163.2331543 27.77294922 C-162.04248856 27.77265717 -160.85182281 27.77236511 -159.62507629 27.77206421 C-156.36920876 27.77321702 -153.11351418 27.78323261 -149.85768104 27.79721212 C-146.45174397 27.80973297 -143.04580333 27.81089105 -139.6398468 27.81326294 C-133.19427462 27.81947374 -126.74877046 27.83587911 -120.3032282 27.85596192 C-112.96347914 27.8783334 -105.6237268 27.88931749 -98.28395212 27.89935279 C-83.18926354 27.92024571 -68.09463858 27.95541388 -53 28 C-52.85755859 26.74445312 -52.71511719 25.48890625 -52.56835938 24.1953125 C-51.65454817 16.14054228 -47.58872356 9.04885785 -41.75 3.5 C-30.42256099 -5.50193829 -12.69839699 -8.1010863 0 0 Z M145 196 C143.40346255 199.26248958 142.79805553 201.05759249 143.5625 204.625 C145.36934976 207.61023004 147.02129045 209.17215551 150 211 C154.22171035 211.80841262 155.66577399 211.21440914 159.3125 208.875 C162.29594255 205.68341029 163.09028144 204.3335089 163 200 C161.39436079 196.36618495 159.5079651 193.90432391 156 192 C150.94412004 191.2469966 148.49479851 192.31104602 145 196 Z "
    fill="#FDF7DD"
    transform="translate(274,4)"
  />

  <path
    d="M0 0 C5.27833512 3.94228594 9.54939168 8.38061272 13.578125 13.5546875 C19.93363321 21.29700571 25.09734859 27.17114889 35.484375 28.27734375 C40.70190254 28.58359445 45.87493107 28.36719996 51.09375 28.12109375 C58.80396153 27.77522396 66.39436986 28.74783523 72.375 34.0625 C77.31247196 39.04730461 79.94164674 44.34569144 80.05517578 51.45532227 C79.90521737 54.01880949 79.74933892 56.58195543 79.58837891 59.14477539 C78.92475946 70.59590522 79.21332767 79.73082622 87.12014771 88.61099243 C88.58367491 90.14059145 90.08598602 91.60906552 91.625 93.0625 C92.11989929 93.53715698 92.61479858 94.01181396 93.12469482 94.50085449 C96.21830888 97.39181898 99.20514757 100.10389811 103 102 C106.65888013 101.8561245 106.65888013 101.8561245 110 101 C110.75925781 100.835 111.51851563 100.67 112.30078125 100.5 C112.96464844 100.335 113.62851562 100.17 114.3125 100 C135.87097037 95.09535649 157.81270021 99.20714485 176.9375 110.05859375 C195.94205731 122.10612562 209.17729853 140.554361 214.8125 162.3125 C219.24634478 185.34810736 215.62818035 208.14930166 202.81835938 227.81396484 C189.89872824 246.62465557 170.51313721 259.739039 148 264 C144.99560959 264.5141742 142.04287945 264.83038003 139 265 C137.700625 265.07927734 137.700625 265.07927734 136.375 265.16015625 C123.18663285 265.57229272 108.76873169 263.17623039 97 257 C95 254 95 254 95.0625 250.8125 C93.34076517 244.63451031 88.14946034 242.40946004 83 239 C82.34 238.34 81.68 237.68 81 237 C80.99780016 238.93428391 80.99780016 238.93428391 80.99555588 240.90764427 C80.95983153 271.53825719 80.90355812 302.16875604 80.82207905 332.79927882 C80.81206194 336.5717519 80.80221775 340.34422541 80.79248047 344.11669922 C80.78956841 345.24321695 80.78956841 345.24321695 80.78659752 346.39249261 C80.75560094 358.54280229 80.73860342 370.6930931 80.72680578 382.84343486 C80.71438206 395.31661377 80.68685317 407.78969385 80.64538693 420.26281035 C80.62028636 427.9555432 80.6068802 435.64811205 80.60857043 443.34088643 C80.60860378 449.24592978 80.5875915 455.15078242 80.55883217 461.05575943 C80.55032556 463.47360563 80.54858837 465.89148678 80.55419731 468.30934143 C80.56084688 471.61677745 80.54289209 474.92322386 80.51898193 478.2305603 C80.53062256 479.65764614 80.53062256 479.65764614 80.54249835 481.11356199 C80.44708551 488.59588899 78.81025136 495.51372396 74.03515625 501.4375 C73.38417969 501.953125 72.73320312 502.46875 72.0625 503 C71.41410156 503.53625 70.76570313 504.0725 70.09765625 504.625 C66.0687799 507.26590219 62.55004448 508.24975167 57.75313091 508.25726891 C56.71005738 508.2637178 55.66698385 508.27016669 54.59230202 508.276811 C53.4528206 508.2737138 52.31333917 508.2706166 51.139328 508.26742554 C49.9238018 508.27195665 48.7082756 508.27648776 47.45591527 508.28115618 C44.08491723 508.2916286 40.7141325 508.29312567 37.34313333 508.29076743 C33.70634519 508.29035928 30.06958887 508.30139826 26.43281555 508.31088257 C19.30869313 508.327494 12.1846038 508.33299218 5.06046363 508.33410732 C-0.7307344 508.33505775 -6.5219215 508.33916775 -12.31311607 508.34550858 C-28.73363903 508.36312151 -45.15413585 508.37234739 -61.57466833 508.37084763 C-62.4598642 508.37076772 -63.34506008 508.3706878 -64.25708008 508.37060547 C-65.58649589 508.37048283 -65.58649589 508.37048283 -66.9427686 508.37035771 C-81.30571305 508.36954483 -95.66855264 508.38868279 -110.03146676 508.4168822 C-124.78059302 508.44561129 -139.52966813 508.45942248 -154.27882308 508.45769465 C-162.55879405 508.45703075 -170.83865508 508.46252307 -179.11860085 508.48405075 C-186.16850029 508.50226291 -193.21823997 508.50660967 -200.26815275 508.4930319 C-203.86413862 508.4865023 -207.45981798 508.48638434 -211.05577469 508.5037384 C-214.95678402 508.52237077 -218.85734594 508.50991422 -222.75837708 508.49447632 C-223.89116634 508.50476344 -225.0239556 508.51505057 -226.19107181 508.52564943 C-233.91305695 508.45806556 -239.27421853 507.26492697 -245.2421875 502.03515625 C-245.78101563 501.38417969 -246.31984375 500.73320312 -246.875 500.0625 C-247.42929688 499.41410156 -247.98359375 498.76570313 -248.5546875 498.09765625 C-251.64988021 493.60544412 -252.25165705 489.75245918 -252.26564884 484.34756756 C-252.27005371 483.68910612 -252.27445857 483.03064468 -252.27899691 482.35222986 C-252.29132412 480.14227559 -252.2894433 477.93256455 -252.28761292 475.72257996 C-252.29349717 474.12354041 -252.30023635 472.52450381 -252.30775779 470.92547113 C-252.32583614 466.52839305 -252.33135248 462.13137493 -252.33474457 457.73426425 C-252.3405012 452.99316617 -252.35762665 448.25210659 -252.37309265 443.5110321 C-252.40784534 432.06174822 -252.42342987 420.61246752 -252.43721595 409.16314241 C-252.44417687 403.77226041 -252.45333361 398.38138224 -252.46232414 392.99050331 C-252.49152516 375.07270357 -252.51632045 357.15490759 -252.52694798 339.2370863 C-252.52763867 338.09034123 -252.52832936 336.94359617 -252.52904099 335.76210125 C-252.529733 334.61260561 -252.53042502 333.46310996 -252.531138 332.27878112 C-252.53255 329.94944457 -252.53397081 327.62010802 -252.53540039 325.29077148 C-252.53610556 324.13533894 -252.53681073 322.9799064 -252.53753727 321.78946076 C-252.54979133 303.0615606 -252.59259528 284.33386271 -252.64834059 265.60604652 C-252.70509874 246.38207276 -252.73559646 227.15820132 -252.73996013 207.93414289 C-252.74304377 197.13898531 -252.75757498 186.34410885 -252.80124092 175.54903221 C-252.83831351 166.35811242 -252.85153855 157.16754987 -252.83353604 147.97656604 C-252.82507394 143.28677313 -252.8279674 138.59771 -252.86135483 133.90801239 C-252.89165659 129.61377369 -252.88959171 125.32080606 -252.86186682 121.02656118 C-252.85752247 119.47407469 -252.86499301 117.92150023 -252.88553984 116.36914363 C-253.04723147 103.33714342 -253.04723147 103.33714342 -248.65128422 98.23486614 C-247.46046426 97.12762905 -246.24392158 96.04722742 -245 95 C-243.89798163 93.87101793 -242.80452304 92.73354223 -241.72421265 91.58377075 C-240.59121573 90.43899634 -239.45566502 89.29674506 -238.31787109 88.15673828 C-237.69089828 87.52480057 -237.06392548 86.89286285 -236.41795349 86.24177551 C-234.37250663 84.18189024 -232.32333454 82.12576864 -230.2734375 80.0703125 C-229.56898121 79.36302883 -228.86452492 78.65574516 -228.13872147 77.92702866 C-224.42037226 74.1937718 -220.69922181 70.46333517 -216.97558594 66.73535156 C-213.13438518 62.88863756 -209.30257099 59.03271152 -205.47281456 55.17460823 C-202.51816573 52.20135211 -199.55684623 49.23480922 -196.593647 46.27007675 C-195.17738402 44.85078911 -193.76362016 43.42900307 -192.35242844 42.004673 C-190.38306909 40.01827248 -188.40447876 38.04153723 -186.42333984 36.06689453 C-185.55510338 35.18483589 -185.55510338 35.18483589 -184.66932678 34.28495789 C-184.12564957 33.74684982 -183.58197235 33.20874176 -183.02182007 32.65432739 C-182.55618841 32.18722918 -182.09055676 31.72013096 -181.61081505 31.23887825 C-177.9305918 28.40841764 -174.31861686 27.75011613 -169.76713562 27.75949097 C-168.21703545 27.75536697 -168.21703545 27.75536697 -166.63562012 27.75115967 C-165.5128064 27.75835022 -164.38999268 27.76554077 -163.2331543 27.77294922 C-162.04248856 27.77265717 -160.85182281 27.77236511 -159.62507629 27.77206421 C-156.36920876 27.77321702 -153.11351418 27.78323261 -149.85768104 27.79721212 C-146.45174397 27.80973297 -143.04580333 27.81089105 -139.6398468 27.81326294 C-133.19427462 27.81947374 -126.74877046 27.83587911 -120.3032282 27.85596192 C-112.96347914 27.8783334 -105.6237268 27.88931749 -98.28395212 27.89935279 C-83.18926354 27.92024571 -68.09463858 27.95541388 -53 28 C-52.85755859 26.74445312 -52.71511719 25.48890625 -52.56835938 24.1953125 C-51.65454817 16.14054228 -47.58872356 9.04885785 -41.75 3.5 C-30.42256099 -5.50193829 -12.69839699 -8.1010863 0 0 Z M-166 44 C-166.33 60.17 -166.66 76.34 -167 93 C-169.95031627 101.8509488 -171.71205156 106.36099814 -179.35083008 111.06225586 C-184.87497825 113.766013 -190.32674913 113.60272833 -196.375 113.609375 C-197.5400708 113.62591125 -198.7051416 113.64244751 -199.90551758 113.65948486 C-203.60373277 113.70782552 -207.30153712 113.72930593 -211 113.75 C-213.5169476 113.77817116 -216.03387617 113.80810018 -218.55078125 113.83984375 C-224.7004466 113.91358099 -230.84999706 113.96530512 -237 114 C-237.11439168 161.4158329 -237.20252158 208.83165121 -237.25532665 256.24759484 C-237.26158034 261.84279783 -237.26805193 267.43800054 -237.2746582 273.03320312 C-237.27596976 274.14712857 -237.27728131 275.26105402 -237.2786326 276.40873478 C-237.30040166 294.4560322 -237.33983146 312.50325016 -237.38576398 330.55050041 C-237.43248685 349.06238757 -237.46028657 367.57423305 -237.47044247 386.08617675 C-237.47731028 397.51324928 -237.49901791 408.94009723 -237.53958233 420.36710064 C-237.56596921 428.19820012 -237.57401019 436.02918313 -237.56750689 443.86032386 C-237.56429768 448.38161625 -237.5692896 452.90251561 -237.59602737 457.42373848 C-237.62032099 461.56180742 -237.62161326 465.69921827 -237.60449447 469.83731721 C-237.60237809 471.33540843 -237.60875412 472.83354036 -237.62441591 474.33155121 C-237.98798953 482.95639702 -237.98798953 482.95639702 -235.18599224 490.88377094 C-230.36299299 494.08734785 -226.09888781 493.82059158 -220.42285156 493.74171448 C-218.64538984 493.75257935 -218.64538984 493.75257935 -216.83201981 493.76366371 C-213.54602143 493.77764862 -210.26139783 493.76471162 -206.97550011 493.74037087 C-203.43077442 493.72062955 -199.88617215 493.73548741 -196.34143066 493.74601746 C-189.39863542 493.76114212 -182.45626889 493.7442209 -175.51352692 493.71646655 C-167.42997565 493.68531337 -159.34651706 493.68552515 -151.26291704 493.68698429 C-136.84055209 493.68848625 -122.41838669 493.66099939 -107.99609375 493.61743164 C-93.99866093 493.57516917 -80.00140375 493.55391932 -66.00390625 493.5559082 C-65.14181817 493.55602807 -64.27973008 493.55614794 -63.39151812 493.55627144 C-62.10063068 493.55645304 -62.10063068 493.55645304 -60.7836647 493.5566383 C-44.85241367 493.55870772 -28.92123733 493.54103827 -12.9900105 493.51417865 C-7.35421845 493.50512807 -1.71844012 493.50193979 3.9173584 493.50058174 C10.78473154 493.49853552 17.65197882 493.48514424 24.51929855 493.45758332 C28.02370775 493.44373006 31.52795597 493.43459248 35.03239441 493.43836594 C38.82941171 493.43983349 42.62590686 493.42291648 46.42285156 493.40113831 C47.53325176 493.40578411 48.64365196 493.41042992 49.78770065 493.41521651 C56.92361874 493.44951174 56.92361874 493.44951174 63 490 C64.16561902 487.66876196 64.13232674 486.30414544 64.14539433 483.70684624 C64.15231896 482.80008168 64.1592436 481.89331712 64.16637808 480.95907485 C64.1689222 479.956386 64.17146631 478.95369714 64.17408752 477.92062378 C64.18058648 476.86031326 64.18708543 475.80000275 64.19378132 474.70756161 C64.21427038 471.13040677 64.22742366 467.55326339 64.24047852 463.97607422 C64.25328501 461.42048991 64.26642037 458.86490722 64.27986145 456.30932617 C64.32167786 447.89113954 64.35194862 439.47293351 64.37890625 431.0546875 C64.38121383 430.33835327 64.38352141 429.62201904 64.38589892 428.88397771 C64.43136706 414.65035886 64.46987376 400.41672448 64.49662876 386.18305779 C64.50261763 383.05188858 64.50870329 379.92071959 64.51489258 376.78955078 C64.51642556 376.01133768 64.51795854 375.23312458 64.51953798 374.43132927 C64.54519832 361.85176845 64.60202663 349.27254468 64.67135788 336.69315682 C64.74201566 323.76567986 64.78209197 310.83837641 64.79337829 297.9107095 C64.80051555 290.65750797 64.82106015 283.40489047 64.87640572 276.15188217 C64.92851803 269.31775768 64.93938672 262.48461445 64.92315483 255.65031433 C64.92375587 253.15107637 64.93790235 250.65179648 64.96710205 248.15272903 C65.13267181 233.19143142 63.88166465 222.78202456 56 210 C52.03153287 200.41577688 51.79127741 191.08541628 51.75 180.8125 C51.7190625 178.91661133 51.7190625 178.91661133 51.6875 176.98242188 C51.65857101 169.99245489 52.15065205 164.00009475 54.45019531 157.3737793 C55.15989842 154.30963928 55.14122357 152.96723598 54 150 C51.9073555 147.37077809 49.5314377 145.06686415 47.12109375 142.73046875 C46.4344313 142.04946609 45.74776886 141.36846344 45.04029846 140.66682434 C42.84858519 138.49747152 40.64336547 136.34245164 38.4375 134.1875 C36.94765561 132.71772085 35.45871203 131.24702799 33.97070312 129.77539062 C30.32416375 126.17291443 26.66544979 122.58322936 23 119 C20.14992472 120.36847194 18.17072717 121.61266877 16.01171875 123.93359375 C15.46966797 124.50013672 14.92761719 125.06667969 14.36914062 125.65039062 C13.25549255 126.83388423 12.14604538 128.02134609 11.04101562 129.21289062 C6.72222662 133.70504306 2.89600158 136.2875516 -3.37109375 137.43359375 C-9.73127741 137.44561678 -14.79825859 135.96608024 -19.5390625 131.57421875 C-24.38472802 126.09096566 -25.55512436 120.88836987 -25.35546875 113.7578125 C-24.30998513 105.64669779 -17.6915367 100.43478736 -11.92675781 95.21118164 C-10.14771006 93.59611048 -10.14771006 93.59611048 -8 91 C-8.17718739 88.32559862 -8.77324913 87.23708244 -10.62890625 85.296875 C-11.58603516 84.53117187 -11.58603516 84.53117187 -12.5625 83.75 C-13.20316406 83.22921875 -13.84382812 82.7084375 -14.50390625 82.171875 C-15.24447266 81.59179688 -15.24447266 81.59179688 -16 81 C-16.42297363 81.43868408 -16.84594727 81.87736816 -17.28173828 82.3293457 C-19.22139908 84.33175556 -21.17300091 86.3221189 -23.125 88.3125 C-23.79015625 89.00279297 -24.4553125 89.69308594 -25.140625 90.40429688 C-29.62511943 94.95473975 -33.42765812 98.52554834 -40 99.3984375 C-46.64699603 99.34650784 -51.62934112 99.29738369 -56.6171875 94.41796875 C-61.48914013 89.06814517 -63.16897453 84.75385357 -63.4609375 77.57421875 C-62.07720721 69.8464369 -57.27445031 64.73250781 -51.75 59.5 C-50.77546875 58.55253906 -50.77546875 58.55253906 -49.78125 57.5859375 C-48.19633703 56.04763961 -46.60284632 54.51956494 -45 53 C-46.20689255 49.89656201 -47.50596946 46.98806107 -49 44 C-87.61 44 -126.22 44 -166 44 Z M145 196 C143.40346255 199.26248958 142.79805553 201.05759249 143.5625 204.625 C145.36934976 207.61023004 147.02129045 209.17215551 150 211 C154.22171035 211.80841262 155.66577399 211.21440914 159.3125 208.875 C162.29594255 205.68341029 163.09028144 204.3335089 163 200 C161.39436079 196.36618495 159.5079651 193.90432391 156 192 C150.94412004 191.2469966 148.49479851 192.31104602 145 196 Z "
    fill="#020201"
    transform="translate(274,4)"
  />

  <path
    d="M0 0 C22.77772426 -0.71277232 46.04699348 7.38223947 63.30859375 22.16015625 C64.1078125 22.815 64.90703125 23.46984375 65.73046875 24.14453125 C82.59127404 38.49192458 94.67137735 60.00753848 97.30859375 82.16015625 C98.07949561 96.32361498 97.97238787 109.67728727 93.30859375 123.16015625 C92.99510986 124.09794922 92.99510986 124.09794922 92.67529297 125.0546875 C87.82167471 139.33559574 79.98131389 151.4692543 69.30859375 162.16015625 C68.56222656 162.918125 67.81585938 163.67609375 67.046875 164.45703125 C54.30562559 176.67178275 37.16705721 185.54333551 19.55859375 187.59765625 C18.48609375 187.45328125 17.41359375 187.30890625 16.30859375 187.16015625 C15.78652344 186.33902344 15.26445312 185.51789063 14.7265625 184.671875 C12.00617901 181.84601622 11.450547 181.75603271 7.71875 181.49609375 C5.93619963 181.48284059 4.15328014 181.49677463 2.37109375 181.53515625 C1.47712891 181.51582031 0.58316406 181.49648438 -0.33789062 181.4765625 C-5.97170414 181.51761536 -5.97170414 181.51761536 -10.5390625 184.69140625 C-11.24933594 185.50609375 -11.95960938 186.32078125 -12.69140625 187.16015625 C-24.19500791 189.46897771 -39.37354005 179.89058476 -48.69140625 174.16015625 C-52.17104599 171.64897568 -55.43536413 168.95187864 -58.69140625 166.16015625 C-59.28050781 165.71542969 -59.86960937 165.27070313 -60.4765625 164.8125 C-76.75056161 152.23189076 -86.5729816 130.68582061 -90.3046875 110.91015625 C-93.06666734 84.12732149 -88.6883099 60.00055694 -72.69140625 38.16015625 C-69.83713284 34.67000619 -66.82807465 31.39630854 -63.69140625 28.16015625 C-63.16546875 27.56074219 -62.63953125 26.96132813 -62.09765625 26.34375 C-46.60865821 9.3137547 -22.33367878 1.32899975 0 0 Z "
    fill="#7ED060"
    transform="translate(184.69140625,277.83984375)"
  />

  <path
    d="M0 0 C7.63975696 3.08031 12.62500289 8.08684187 18.33154297 13.89331055 C19.34337401 14.90791118 20.3560996 15.92162038 21.36964417 16.93450928 C24.10336386 19.67133671 26.82467591 22.42020472 29.54398489 25.1713407 C32.39559781 28.05179452 35.25905018 30.92042833 38.12136841 33.79023743 C43.53460021 39.22102536 48.93797509 44.66150498 54.3374759 50.10594159 C62.27424214 58.10804368 70.22385494 66.09736841 78.17582893 74.08435535 C78.75862425 74.66972008 79.34141956 75.2550848 79.94187534 75.85818785 C81.10348115 77.02489076 82.26511948 78.19156129 83.42679131 79.35819846 C86.83165521 82.77833483 90.23293992 86.20198144 93.63120723 89.628672 C95.73965251 91.75409296 97.85002167 93.87759654 99.960783 96.00071716 C100.94128635 96.98790326 101.92090518 97.97596877 102.89958763 98.9649601 C104.23179096 100.31103095 105.5673252 101.65380283 106.90304565 102.99638367 C107.65036894 103.74982402 108.39769222 104.50326437 109.16766167 105.27953625 C111.95163372 107.89353112 114.00791082 108.32857991 117.8125 108.296875 C121.44068511 107.80447845 124.69329511 106.3719384 128.05859375 104.97265625 C143.92597596 99.72567329 162.39675515 102.54368702 177.0625 109.625 C195.00352923 118.75853789 206.95681933 133.54998831 213.16796875 152.578125 C217.93542549 172.18513018 214.47129286 190.75552922 204 208 C193.50680875 223.02144883 177.86814211 234.24664035 159.625 237.625 C146.67870687 238.95915998 134.19319093 238.23799582 121.828125 233.8828125 C117.54688952 232.54640474 113.82301277 233.13680667 109.7890625 235.046875 C109.19867188 235.36140625 108.60828125 235.6759375 108 236 C106.24673802 234.75457942 104.49752378 233.50345947 102.75 232.25 C101.77546875 231.55390625 100.8009375 230.8578125 99.796875 230.140625 C94.8576818 226.36034864 94.8576818 226.36034864 93 224 C92.63671875 221.1875 92.63671875 221.1875 92.6875 218 C92.38668147 211.40400342 90.38676505 207.71337199 86.8515625 202.2578125 C79.1062205 188.62993227 76.50813892 170.95271987 80.33520508 155.76513672 C81.4031861 151.90185666 82.4569047 148.13056112 84.1953125 144.51171875 C85.32571767 140.98331816 85.35438514 138.41131963 84 135 C81.17926108 131.3236284 77.88791188 128.16732831 74.56640625 124.9453125 C73.60731927 123.99488867 72.64948699 123.04319717 71.69285583 122.09030151 C69.1800451 119.59466352 66.64931343 117.1179817 64.11474609 114.64447021 C62.04486101 112.61829103 59.98813903 110.57903288 57.93196201 108.5389576 C53.68780029 104.32871069 49.43349712 100.12858539 45.15844727 95.94970703 C44.40201431 95.2091507 43.64558136 94.46859436 42.8662262 93.70559692 C40.28245647 91.34421666 39.23858299 91.02396876 35.67797852 90.66625977 C31.19395978 91.07314019 30.15039417 92.07272535 27.15234375 95.33984375 C26.29962891 96.23767578 25.44691406 97.13550781 24.56835938 98.06054688 C23.70017578 99.00994141 22.83199219 99.95933594 21.9375 100.9375 C20.20868207 102.8119833 18.46818746 104.67578093 16.71484375 106.52734375 C15.57196899 107.77632446 15.57196899 107.77632446 14.40600586 109.05053711 C11.54778984 111.36640265 9.64122537 111.80126172 6 112 C4.125 110.9375 4.125 110.9375 3 109 C2.55202365 105.29290765 2.5335956 103.61655471 4.82006836 100.59399414 C5.65159424 99.83207764 6.48312012 99.07016113 7.33984375 98.28515625 C8.23767578 97.43373047 9.13550781 96.58230469 10.06054688 95.70507812 C11.97445084 93.94709302 13.88851268 92.18927977 15.80273438 90.43164062 C16.70185547 89.57892578 17.60097656 88.72621094 18.52734375 87.84765625 C19.35999756 87.08461182 20.19265137 86.32156738 21.05053711 85.53540039 C23.50511993 82.34305943 23.80615842 79.97990136 24 76 C23.14615606 73.9690645 23.14615606 73.9690645 21.4375 72.4375 C20.79683594 71.78523438 20.15617187 71.13296875 19.49609375 70.4609375 C18.67238281 69.64882812 17.84867187 68.83671875 17 68 C15.88365501 66.80754833 14.77063793 65.61197633 13.66015625 64.4140625 C12.44158594 63.12880182 11.22151968 61.8449579 10 60.5625 C9.12879517 59.62071899 9.12879517 59.62071899 8.23999023 58.65991211 C5.25028077 55.59972822 3.48542931 54.13986081 -0.71484375 52.9296875 C-4.23855698 53.00510586 -5.13458358 53.13458358 -7.5625 55.5625 C-8.22121094 56.19414063 -8.87992188 56.82578125 -9.55859375 57.4765625 C-10.91920709 58.88289245 -12.2773023 60.29171302 -13.62548828 61.70996094 C-14.83245526 62.97867972 -16.0446103 64.24247989 -17.26147461 65.50170898 C-18.49014973 66.77803088 -19.70373802 68.06907481 -20.90063477 69.37524414 C-25.22155003 73.88617005 -25.22155003 73.88617005 -29.3125 74.484375 C-32 74 -32 74 -33.875 72.8125 C-35.42779196 70.31077962 -35.37080716 68.91636252 -35 66 C-33.17993164 63.62817383 -33.17993164 63.62817383 -30.66015625 61.20703125 C-29.76232422 60.32982422 -28.86449219 59.45261719 -27.93945312 58.54882812 C-26.99005859 57.64583984 -26.04066406 56.74285156 -25.0625 55.8125 C-23.1973815 54.00840788 -21.33400726 52.20251018 -19.47265625 50.39453125 C-18.22367554 49.20114136 -18.22367554 49.20114136 -16.94946289 47.98364258 C-14.56920199 45.56164887 -14.06404235 44.58124511 -13.69140625 41.19921875 C-14.07560575 37.21618845 -15.31603265 35.78411061 -17.9375 32.8125 C-22.82912607 27.19618859 -23.37183208 23.35380252 -23.265625 16.0078125 C-22.78966903 10.61831112 -21.01842168 7.84576647 -17.08203125 4.24609375 C-11.7107899 0.14873973 -6.69140827 -1.51763899 0 0 Z M159 185 C157.40346255 188.26248958 156.79805553 190.05759249 157.5625 193.625 C159.36934976 196.61023004 161.02129045 198.17215551 164 200 C168.22171035 200.80841262 169.66577399 200.21440914 173.3125 197.875 C176.29594255 194.68341029 177.09028144 193.3335089 177 189 C175.39436079 185.36618495 173.5079651 182.90432391 170 181 C164.94412004 180.2469966 162.49479851 181.31104602 159 185 Z "
    fill="#FDDF76"
    transform="translate(260,15)"
  />

  <path
    d="M0 0 C22.77772426 -0.71277232 46.04699348 7.38223947 63.30859375 22.16015625 C64.1078125 22.815 64.90703125 23.46984375 65.73046875 24.14453125 C82.59127404 38.49192458 94.67137735 60.00753848 97.30859375 82.16015625 C98.07949561 96.32361498 97.97238787 109.67728727 93.30859375 123.16015625 C92.99510986 124.09794922 92.99510986 124.09794922 92.67529297 125.0546875 C87.82167471 139.33559574 79.98131389 151.4692543 69.30859375 162.16015625 C68.56222656 162.918125 67.81585938 163.67609375 67.046875 164.45703125 C54.30562559 176.67178275 37.16705721 185.54333551 19.55859375 187.59765625 C16.30859375 187.16015625 16.30859375 187.16015625 13.80859375 185.09765625 C11.84258194 181.24754979 12.09140884 179.26815533 13.30859375 175.16015625 C15.93351966 172.11524219 19.03680513 171.67521655 22.8515625 170.8046875 C43.93360649 165.27442159 60.30438966 152.71139148 71.30859375 134.16015625 C73.184829 130.56286311 74.8075462 126.9276076 76.30859375 123.16015625 C76.60378906 122.47566406 76.89898437 121.79117188 77.203125 121.0859375 C84.18293213 104.13497732 83.38800917 82.94999461 76.49511719 66.18115234 C68.26757819 47.14300977 55.31843334 32.18139374 36.30859375 23.16015625 C14.30293745 14.45418618 -7.70393705 13.81094968 -29.69140625 23.16015625 C-37.54634489 26.80377431 -44.17960973 31.47774517 -50.69140625 37.16015625 C-51.61373047 37.93939453 -51.61373047 37.93939453 -52.5546875 38.734375 C-64.74541175 49.86016242 -73.376937 67.93727185 -74.99511719 84.21533203 C-75.12709273 87.28698836 -75.15970922 90.33587572 -75.12890625 93.41015625 C-75.11537109 95.04585571 -75.11537109 95.04585571 -75.1015625 96.71459961 C-74.68792015 116.13424639 -67.87813438 133.76977139 -54.69140625 148.16015625 C-54.12808594 148.79179687 -53.56476563 149.4234375 -52.984375 150.07421875 C-42.3497052 161.3813384 -28.49865508 167.62182377 -13.84375 171.88671875 C-10.52704772 173.22655139 -9.30595164 174.00823125 -7.69140625 177.16015625 C-7.75390625 180.72265625 -7.75390625 180.72265625 -8.69140625 184.16015625 C-10.7205232 186.1136263 -11.99334528 187.07788019 -14.8125 187.41015625 C-31.28761696 185.63206606 -46.3245268 176.76348783 -58.69140625 166.16015625 C-59.28050781 165.71542969 -59.86960937 165.27070313 -60.4765625 164.8125 C-76.75056161 152.23189076 -86.5729816 130.68582061 -90.3046875 110.91015625 C-93.06666734 84.12732149 -88.6883099 60.00055694 -72.69140625 38.16015625 C-69.83713284 34.67000619 -66.82807465 31.39630854 -63.69140625 28.16015625 C-63.16546875 27.56074219 -62.63953125 26.96132813 -62.09765625 26.34375 C-46.60865821 9.3137547 -22.33367878 1.32899975 0 0 Z "
    fill="#030403"
    transform="translate(184.69140625,277.83984375)"
  />

  <path
    d="M0 0 C0.46470703 0.39904541 0.92941406 0.79809082 1.40820312 1.20922852 C2.02630859 1.73959717 2.64441406 2.26996582 3.28125 2.81640625 C3.89033203 3.33920166 4.49941406 3.86199707 5.12695312 4.40063477 C6.34646507 5.44195681 7.57910381 6.46816052 8.82617188 7.47631836 C10.5 8.9375 10.5 8.9375 13 12 C13 15.79492518 12.08451938 18.72966459 10.95703125 22.3359375 C9.42036208 28.54693988 9.67126141 34.89096887 9.6875 41.25 C9.67138672 42.49652344 9.65527344 43.74304688 9.63867188 45.02734375 C9.63324009 55.42377248 11.30679247 64.73738451 15.4375 74.3125 C16.02337891 75.69888672 16.02337891 75.69888672 16.62109375 77.11328125 C17.96091203 80.10757087 17.96091203 80.10757087 20.0548563 83.00783253 C22.77137099 87.76986734 22.55293191 92.39590461 22.50120544 97.76139832 C22.50673984 98.83444774 22.51227424 99.90749717 22.51797634 101.01306325 C22.53157233 104.60293968 22.5166187 108.19211965 22.50170898 111.78198242 C22.50549245 114.35777583 22.51099272 116.93356721 22.51808167 119.50935364 C22.53199786 125.77499819 22.52447074 132.04044088 22.50940608 138.30607577 C22.49253109 145.60272549 22.49575798 152.89932513 22.49950016 160.19598833 C22.50537544 173.21297505 22.49121854 186.22986496 22.46655273 199.24682617 C22.44261809 211.87935004 22.43555464 224.51174464 22.44604492 237.14428711 C22.4574503 250.90344627 22.45939006 264.66254568 22.44494683 278.42170411 C22.44342098 279.88826103 22.44190063 281.35481796 22.44038582 282.82137489 C22.439628 283.54294402 22.43887019 284.26451315 22.43808941 285.00794801 C22.4333448 290.0952093 22.43519916 295.18244393 22.43945122 300.26970482 C22.4448877 307.11268997 22.43415229 313.95549256 22.41249657 320.79844475 C22.40691831 323.31396631 22.40647285 325.8295051 22.41144943 328.34502792 C22.41737712 331.77007071 22.40494508 335.19455982 22.38768005 338.61955261 C22.3936901 339.62255486 22.39970014 340.62555711 22.40589231 341.65895337 C22.39745237 342.57525031 22.38901243 343.49154725 22.38031673 344.43561077 C22.37877304 345.6214814 22.37877304 345.6214814 22.37719816 346.83130902 C21.89635252 349.59591846 20.90600256 350.96397476 19 353 C16.23434618 353.92188461 14.61716298 354.11785222 11.76953125 354.09765625 C10.56586914 354.09282227 10.56586914 354.09282227 9.33789062 354.08789062 C8.50451172 354.07951172 7.67113281 354.07113281 6.8125 354.0625 C5.96751953 354.05798828 5.12253906 354.05347656 4.25195312 354.04882812 C2.16793845 354.03705403 0.08396023 354.0191189 -2 354 C-1.83785997 353.46288934 -1.67571994 352.92577868 -1.50866657 352.37239194 C-0.90161363 349.54113157 -0.8685885 346.93906364 -0.8613348 344.04172897 C-0.85312313 342.20100001 -0.85312313 342.20100001 -0.84474558 340.32308459 C-0.84366938 338.95926593 -0.84268469 337.5954472 -0.84178162 336.23162842 C-0.83721597 334.78449468 -0.83221594 333.33736225 -0.82681805 331.89023137 C-0.81322785 327.90872081 -0.80581603 323.9272188 -0.79939139 319.94569111 C-0.79139133 315.65395924 -0.77769219 311.36224519 -0.76467896 307.07052612 C-0.74291062 299.63319201 -0.72476743 292.19585609 -0.70907402 284.75850677 C-0.68637865 274.00529717 -0.65823535 263.25210728 -0.62875474 252.49891439 C-0.58107475 235.05332142 -0.53781167 217.60772039 -0.49731445 200.16210938 C-0.4579616 183.21353529 -0.41653588 166.26496836 -0.37231445 149.31640625 C-0.36959018 148.27200869 -0.36686591 147.22761113 -0.36405908 146.15156516 C-0.35037964 140.91222267 -0.33665936 135.67288029 -0.32291877 130.43353796 C-0.2089476 86.9557069 -0.10213966 43.47786036 0 0 Z "
    fill="#FEF5CD"
    transform="translate(316,143)"
  />

  <path
    d="M0 0 C5.09620539 3.01237564 8.70841667 7.93775001 10.5625 13.5 C10.73238852 15.22395068 10.82859392 16.95582032 10.875 18.6875 C10.93107422 20.03908203 10.93107422 20.03908203 10.98828125 21.41796875 C10.02475407 28.39249119 6.00465904 33.65546485 1.07885742 38.5012207 C0.54331741 39.04376999 0.0077774 39.58631927 -0.54399109 40.14530945 C-2.29682448 41.91558428 -4.06368578 43.67101197 -5.83203125 45.42578125 C-7.06566305 46.66211153 -8.29870088 47.89903474 -9.53117371 49.13652039 C-12.10784175 51.71906441 -14.6915508 54.29428917 -17.28051758 56.86450195 C-20.58936133 60.15053382 -23.87988769 63.45423264 -27.16534901 66.76362324 C-29.70523484 69.31799776 -32.25461377 71.86272621 -34.80692101 74.40468407 C-36.02382252 75.61892806 -37.2377896 76.83612063 -38.44867897 78.05636024 C-40.14482002 79.76271987 -41.8533653 81.45563668 -43.56567383 83.14575195 C-44.05786407 83.64603912 -44.55005432 84.14632629 -45.05715942 84.66177368 C-50.09211362 89.57717713 -55.34166479 91.92806405 -62.4375 91.9375 C-63.406875 91.95683594 -64.37625 91.97617187 -65.375 91.99609375 C-72.32884322 90.86964211 -77.14427584 86.24489126 -81.921875 81.4140625 C-82.50414856 80.83465912 -83.08642212 80.25525574 -83.68634033 79.65829468 C-84.90672256 78.43994103 -86.12337652 77.21784239 -87.33642578 75.9921875 C-89.18590257 74.12661134 -91.05089026 72.27762905 -92.91796875 70.4296875 C-94.10773411 69.23794006 -95.29656871 68.04526254 -96.484375 66.8515625 C-97.0375238 66.30448639 -97.59067261 65.75741028 -98.1605835 65.1937561 C-102.97531458 60.2910843 -105.86562375 55.69469273 -105.875 48.625 C-105.70432661 43.10883618 -104.94779664 38.85393147 -101.4375 34.5 C-94.74462634 28.45525047 -90.0791498 27.02525148 -81.0546875 27.08984375 C-75.60830435 27.70741419 -72.46693338 29.95876198 -68.4375 33.5 C-67.22692049 34.54082038 -66.01516436 35.58027318 -64.80249023 36.61865234 C-63.85719704 37.4282692 -63.85719704 37.4282692 -62.89280701 38.25424194 C-62.41255569 38.6653421 -61.93230438 39.07644226 -61.4375 39.5 C-60.97475677 39.03059494 -60.51201355 38.56118988 -60.0352478 38.07756042 C-55.20989144 33.18574307 -50.3739357 28.30458986 -45.53173828 23.42944336 C-43.72692262 21.60955786 -41.92481082 19.78698667 -40.12548828 17.96166992 C-37.5360704 15.33579144 -34.93702605 12.71978094 -32.3359375 10.10546875 C-31.5357016 9.28974899 -30.7354657 8.47402924 -29.91098022 7.6335907 C-21.49781217 -0.78208463 -11.78915412 -5.11090497 0 0 Z "
    fill="#020201"
    transform="translate(233.4375,329.5)"
  />

  <path
    d="M0 0 C16.44024963 0.32584279 31.88882327 7.4568625 43.84375 18.71875 C57.42276673 33.08495611 64.59409294 50.13524276 64.41967773 69.96362305 C63.74842531 87.86296812 55.47296856 104.40194436 43 117 C33.08089485 125.81849211 20.11761389 133.53100428 6.625 134.625 C5.31402344 134.73714844 5.31402344 134.73714844 3.9765625 134.8515625 C3.32429688 134.90054688 2.67203125 134.94953125 2 135 C2 134.34 2 133.68 2 133 C3.54645854 131.98323395 5.14057023 131.03882877 6.75 130.125 C13.54909049 125.94841584 22.3374259 119.3251482 26 112 C25.38125 112.165 24.7625 112.33 24.125 112.5 C15.10069829 113.94388827 8.77105367 113.02832884 1 108 C-3.91394487 103.94065424 -6.98475477 99.0457357 -9 93 C-9.79386645 84.2154122 -9.08071317 77.90080806 -3.38671875 71.0625 C1.06550971 66.32398634 5.17522164 63.34802197 11.8046875 62.53125 C13.16106383 62.49691554 14.51824991 62.48716262 15.875 62.5 C16.58390381 62.50644531 17.29280762 62.51289063 18.02319336 62.51953125 C25.36573593 62.77642306 29.05439036 64.87212709 33.95703125 70.078125 C35.18563976 71.46938026 36.38793209 72.88460435 37.5546875 74.328125 C38.91427976 76.11720918 38.91427976 76.11720918 41 77 C40.77657482 72.91477047 40.51625937 68.83264368 40.25 64.75 C40.188125 63.61046875 40.12625 62.4709375 40.0625 61.296875 C38.90975425 44.3899373 32.23061868 29.62107623 21 17 C20.39542969 16.30132812 19.79085938 15.60265625 19.16796875 14.8828125 C14.27718641 9.59047119 8.74254555 6.15504633 2.5625 2.56640625 C1.716875 2.04949219 0.87125 1.53257813 0 1 C0 0.67 0 0.34 0 0 Z M8 82 C6.40346255 85.26248958 5.79805553 87.05759249 6.5625 90.625 C8.36934976 93.61023004 10.02129045 95.17215551 13 97 C17.22171035 97.80841262 18.66577399 97.21440914 22.3125 94.875 C25.29594255 91.68341029 26.09028144 90.3335089 26 86 C24.39436079 82.36618495 22.5079651 79.90432391 19 78 C13.94412004 77.2469966 11.49479851 78.31104602 8 82 Z "
    fill="#FBCE59"
    transform="translate(411,118)"
  />

  <path
    d="M0 0 C0.96360823 -0.0055344 1.92721645 -0.01106879 2.92002493 -0.0167709 C6.15760128 -0.03041326 9.39441153 -0.01538834 12.63197327 -0.00050354 C14.94954761 -0.00428542 17.2671197 -0.00978438 19.58468628 -0.01687622 C25.88633273 -0.03086578 32.18770722 -0.01963597 38.48933864 -0.00316501 C45.07737756 0.01066155 51.6654003 0.00422808 58.25344849 0.0007019 C69.31911955 -0.00273309 80.38468823 0.01140547 91.45033264 0.03465271 C102.83546471 0.05856847 114.22045341 0.06565931 125.60560608 0.05516052 C139.32362813 0.04253316 153.04154923 0.04504335 166.75956917 0.06081963 C171.9999045 0.06658379 177.24019183 0.06649333 182.48052788 0.06175423 C188.65044727 0.05698742 194.82016781 0.06707412 200.99004936 0.08870888 C203.25681386 0.09428116 205.52359744 0.09473803 207.79036331 0.08975601 C210.88023946 0.08381583 213.96950508 0.09628451 217.05932617 0.11352539 C217.96029728 0.10751535 218.8612684 0.1015053 219.78954166 0.09531313 C224.49245603 0.14316 227.85461491 0.30749116 231.59315491 3.50120544 C232.71815491 6.87620544 232.71815491 6.87620544 232.59315491 10.50120544 C230.61007603 13.29150899 229.01508771 15.17770282 225.57646263 15.96002126 C223.04564472 16.14843721 220.5591175 16.16740481 218.0213623 16.13612366 C216.56748465 16.14782359 216.56748465 16.14782359 215.08423573 16.15975988 C211.8334866 16.17971807 208.58390315 16.16389978 205.33314514 16.1481781 C203.00394506 16.15495244 200.67475034 16.16385453 198.3455658 16.17472839 C192.01714949 16.19754852 185.68914013 16.18867418 179.36071658 16.17283297 C173.41453811 16.16147067 167.46841028 16.17013598 161.52223051 16.17746894 C149.02885001 16.19172512 136.53565297 16.1753353 124.04230256 16.14846711 C113.32063612 16.12612313 102.59924031 16.13001282 91.87757874 16.15306091 C79.42732969 16.17981236 66.97724136 16.19035734 54.52696759 16.17499959 C47.93613978 16.16719473 41.34549845 16.16619226 34.75468254 16.18268204 C28.56001931 16.19709773 22.36586855 16.18715749 16.17126083 16.15821075 C13.89440195 16.15158479 11.61750013 16.1535232 9.34065819 16.16452408 C6.23917273 16.17813075 3.13934299 16.16112192 0.03796387 16.13612366 C-0.86912891 16.14727727 -1.7762217 16.15843087 -2.71080214 16.16992247 C-8.78198489 16.07459947 -8.78198489 16.07459947 -11.96589565 13.15292931 C-13.7280373 9.91012777 -14.0259642 8.13853019 -13.40684509 4.50120544 C-9.94787439 -0.65677901 -5.65289692 -0.06011515 0 0 Z "
    fill="#000000"
    transform="translate(78.40684509277344,229.49879455566406)"
  />

  <path
    d="M0 0 C0.9603791 -0.0055344 1.9207582 -0.01106879 2.9102397 -0.0167709 C6.13089277 -0.03039282 9.35077299 -0.01539942 12.57141113 -0.00050354 C14.8792809 -0.00428614 17.1871484 -0.00978569 19.49501038 -0.01687622 C25.76560745 -0.03085564 32.03593091 -0.01964339 38.30651283 -0.00316501 C44.86384937 0.01066923 51.42116977 0.00422727 57.97851562 0.0007019 C68.99113211 -0.00273202 80.00364566 0.01139915 91.01623535 0.03465271 C102.34602908 0.05857336 113.67567872 0.06565692 125.00549316 0.05516052 C138.65982964 0.04253325 152.3140647 0.04504266 165.96839905 0.06081963 C171.18361467 0.06658332 176.39878207 0.06649371 181.61399841 0.06175423 C187.75356274 0.0569875 193.89292723 0.06707374 200.03245354 0.08870888 C202.28793094 0.09428103 204.54342754 0.09473814 206.79890633 0.08975601 C209.87340334 0.08381566 212.94728683 0.09628478 216.02172852 0.11352539 C216.91812656 0.10751535 217.8145246 0.1015053 218.73808622 0.09531313 C223.43190754 0.14330469 226.77800999 0.3168533 230.51086426 3.50120544 C231.63586426 6.87620544 231.63586426 6.87620544 231.51086426 10.50120544 C229.52791374 13.29176512 227.93361532 15.17834698 224.49417198 15.9588443 C221.96324395 16.14548102 219.47678109 16.16258814 216.93907166 16.12939453 C215.485194 16.14003611 215.485194 16.14003611 214.00194508 16.15089267 C210.75117929 16.16850764 207.50160358 16.1503494 204.25085449 16.13230896 C201.92165583 16.13744638 199.59246105 16.14472631 197.26327515 16.1539917 C190.93484618 16.17253519 184.60683751 16.15954854 178.27842593 16.1399014 C172.33225254 16.12519775 166.38612411 16.13112069 160.43993986 16.13595831 C148.65858072 16.14452502 136.87738799 16.12785068 125.09606934 16.09812927 C113.66240451 16.06928529 102.22897933 16.06221141 90.79528809 16.07762146 C78.34504743 16.0943786 65.89492055 16.09842337 53.44467694 16.0809111 C46.8538807 16.07180073 40.26319038 16.06772196 33.67239189 16.07695198 C27.47778286 16.08459841 21.28352011 16.07254205 15.08897018 16.04510307 C12.8121131 16.03820125 10.53522377 16.03814039 8.25836754 16.0453186 C5.15707958 16.05397124 2.05687067 16.03812773 -1.04432678 16.01586914 C-1.95141956 16.02410991 -2.85851235 16.03235067 -3.79309279 16.04084116 C-9.84216493 15.96036837 -9.84216493 15.96036837 -13.04428005 13.68778896 C-15.19166473 10.43802778 -15.09981008 8.30095688 -14.48913574 4.50120544 C-10.21180354 -0.3164728 -6.01055603 -0.06440379 0 0 Z "
    fill="#020202"
    transform="translate(79.4891357421875,168.49879455566406)"
  />

  <path
    d="M0 0 C0.9724809 -0.00694553 1.9449618 -0.01389106 2.94691181 -0.02104706 C6.21443241 -0.0393833 9.48123239 -0.02903412 12.7487793 -0.01878357 C15.08768255 -0.02583863 17.42658124 -0.03458189 19.76547241 -0.04489136 C26.12487992 -0.06744012 32.4840392 -0.06443289 38.84347153 -0.05556989 C44.81738767 -0.04982444 50.79127483 -0.05949385 56.76518357 -0.06785773 C69.3181398 -0.08444022 81.87098366 -0.07571303 94.42393315 -0.05887216 C105.91209248 -0.04417271 117.39999034 -0.05880607 128.888116 -0.08764232 C140.68109994 -0.11702364 152.47396314 -0.12801246 164.26698208 -0.11846012 C170.88911997 -0.113382 177.51109283 -0.11579817 184.13320923 -0.13624763 C190.35820993 -0.15454973 196.58272309 -0.14871266 202.8076973 -0.12404823 C205.0958494 -0.11902323 207.3840383 -0.12257353 209.6721611 -0.13519669 C212.78900665 -0.15103505 215.9042285 -0.13626266 219.02099609 -0.11352539 C219.93266194 -0.12536112 220.84432779 -0.13719685 221.78361988 -0.14939123 C227.87822767 -0.05867426 227.87822767 -0.05867426 231.09968567 2.86251926 C232.51049805 5.5146637 232.51049805 5.5146637 232.57299805 8.5771637 C231.19580505 12.38469727 229.9693797 13.40210916 226.51049805 15.5146637 C223.34647473 16.09734474 220.23141982 16.0588381 217.0213623 16.02932739 C216.0609832 16.03627292 215.1006041 16.04321845 214.11112261 16.05037445 C210.89049645 16.0686824 207.67060374 16.05836935 204.44995117 16.04811096 C202.14207914 16.05516745 199.83421173 16.06391131 197.52635193 16.07421875 C191.2557755 16.09675142 184.98545101 16.09376403 178.71484947 16.08489728 C173.48343641 16.07979357 168.25207095 16.08707486 163.02066278 16.09436935 C149.97638967 16.11235332 136.93225736 16.10594503 123.88798934 16.08819955 C112.55899766 16.07350037 101.23027114 16.08813407 89.9013136 16.11696971 C78.26762092 16.14636045 66.63406146 16.15682877 55.00033331 16.14778751 C48.46926619 16.14285118 41.93840526 16.14511245 35.40736389 16.16557503 C29.26770524 16.18389 23.12854064 16.17802414 16.98890877 16.15337563 C14.73342703 16.14835476 12.47790792 16.15189034 10.22245598 16.16452408 C7.14760903 16.1803874 4.0744024 16.16556631 0.99963379 16.14285278 C0.10323575 16.15468851 -0.7931623 16.16652424 -1.71672392 16.17871863 C-6.13056216 16.11229721 -7.93992823 15.93662436 -11.54741669 13.16680813 C-13.48950195 10.5146637 -13.48950195 10.5146637 -14.05200195 7.4521637 C-12.54023313 -0.44262906 -6.70419015 -0.06060079 0 0 Z "
    fill="#060606"
    transform="translate(78.489501953125,199.48533630371094)"
  />

  <path
    d="M0 0 C0.79921875 -0.02835938 1.5984375 -0.05671875 2.421875 -0.0859375 C11.36880273 1.37226343 16.97077666 7.5369537 23.0625 13.7175293 C24.01848204 14.67300172 24.97533983 15.62759859 25.93299866 16.58139038 C28.51387281 19.15687592 31.08222449 21.74452047 33.64827347 24.33476615 C36.33860056 27.04646848 39.03995071 29.74714751 41.73999023 32.44917297 C46.26545931 36.98107409 50.78347762 41.52029014 55.29638672 46.06469727 C61.09620394 51.90494003 66.90754788 57.73356804 72.72280884 63.55842876 C77.72138733 68.56529194 82.71548238 73.57661981 87.70843506 78.58909249 C89.31548446 80.20221449 90.92300095 81.8148701 92.53051758 83.42752647 C95.04806677 85.95383066 97.5628307 88.48287604 100.07540703 91.01412582 C101.4430039 92.39080502 102.8130361 93.76506359 104.18312073 95.13926697 C104.98773239 95.95103394 105.79234406 96.7628009 106.62133789 97.59916687 C107.3262587 98.30836116 108.0311795 99.01755545 108.75746155 99.74824047 C110.25 101.375 110.25 101.375 110.25 102.375 C107.54057607 102.48361833 104.835561 102.56258577 102.125 102.625 C101.36445313 102.65851563 100.60390625 102.69203125 99.8203125 102.7265625 C98.69882812 102.74589844 98.69882812 102.74589844 97.5546875 102.765625 C96.5335083 102.7970459 96.5335083 102.7970459 95.49169922 102.82910156 C88.31230191 101.37476928 82.87914076 94.27249926 77.97167969 89.32373047 C77.05718048 88.40952332 76.14268127 87.49531616 75.20046997 86.55340576 C72.70453788 84.0580453 70.21480256 81.55658505 67.72616482 79.05395269 C65.11753218 76.43277381 62.50319263 73.81729934 59.88946533 71.20120239 C54.94395462 66.24948561 50.00356134 61.2926958 45.06500554 56.33404362 C39.44838635 50.69506461 33.82608479 45.06176586 28.20329428 39.42894149 C17.11214372 28.31776388 6.02746404 17.2001573 -5.05263138 6.07795525 C-6.28399096 4.84254283 -7.51661234 3.60838766 -8.75 2.375 C-5.73896062 0.6484866 -3.46590887 0.05518963 0 0 Z "
    fill="#FDCF5A"
    transform="translate(254.75,14.625)"
  />

  <path
    d="M0 0 C1.06335571 0.00966797 1.06335571 0.00966797 2.14819336 0.01953125 C9.50345052 0.2768679 13.02537767 2.43131202 18.08203125 7.4375 C23.9844953 13.78475258 25.59428725 18.77460472 25.4453125 27.42578125 C24.73843884 34.21004435 21.64309386 39.48699127 17.125 44.5 C11.16270744 48.53023001 4.87505735 51.51721402 -2.42578125 51.0234375 C-10.0410855 49.39592431 -16.749778 45.30476308 -21.0234375 38.734375 C-25.04567966 31.94505845 -25.5663942 26.26336913 -24.875 18.5 C-22.85249216 11.26283339 -17.43751293 5.67313289 -11.140625 1.83203125 C-7.35991207 0.28989835 -4.02534488 -0.03808724 0 0 Z M-7.875 19.5 C-9.47153745 22.76248958 -10.07694447 24.55759249 -9.3125 28.125 C-7.50565024 31.11023004 -5.85370955 32.67215551 -2.875 34.5 C1.34671035 35.30841262 2.79077399 34.71440914 6.4375 32.375 C9.42094255 29.18341029 10.21528144 27.8335089 10.125 23.5 C8.51936079 19.86618495 6.6329651 17.40432391 3.125 15.5 C-1.93087996 14.7469966 -4.38020149 15.81104602 -7.875 19.5 Z "
    fill="#030201"
    transform="translate(426.875,180.5)"
  />

  <path
    d="M0 0 C3.09399414 0.55688477 3.09399414 0.55688477 5.09399414 1.61938477 C6.73174633 4.79252962 5.88433389 7.15321445 5.09399414 10.55688477 C3.00875854 13.41075134 3.00875854 13.41075134 0.22631836 16.21679688 C-0.27952286 16.7347583 -0.78536407 17.25271973 -1.30653381 17.78637695 C-2.97326173 19.48446367 -4.66093985 21.15970773 -6.35131836 22.83422852 C-7.5221994 24.01169543 -8.69226193 25.18997679 -9.86154175 26.36903381 C-12.31155629 28.83238392 -14.77231067 31.28434061 -17.2409668 33.72900391 C-20.40068361 36.8601154 -23.53010695 40.01964898 -26.65187263 43.18854427 C-29.06042472 45.62630632 -31.48523539 48.04736332 -33.91515732 50.46380806 C-35.07583508 51.62233487 -36.23121388 52.78619618 -37.38107681 53.95545769 C-38.99173341 55.58866187 -40.62319813 57.19780125 -42.26196289 58.80273438 C-43.64643112 60.18337318 -43.64643112 60.18337318 -45.05886841 61.59190369 C-48.63107103 64.05729592 -50.64809314 64.11088625 -54.90600586 63.55688477 C-57.29291368 61.8574743 -59.05581194 60.36947015 -61.05834961 58.29907227 C-61.87584435 57.48806564 -61.87584435 57.48806564 -62.70985413 56.66067505 C-63.85353007 55.51737935 -64.98854571 54.36536208 -66.11523438 53.20532227 C-67.84027462 51.43520045 -69.5973777 49.70245208 -71.36108398 47.97094727 C-72.47059069 46.85322125 -73.57808483 45.7334931 -74.68334961 44.61157227 C-75.20823471 44.0956955 -75.73311981 43.57981873 -76.27391052 43.04830933 C-78.76711075 40.43960752 -79.86160651 38.92186105 -80.30273438 35.2956543 C-79.90600586 32.55688477 -79.90600586 32.55688477 -78.78100586 30.68188477 C-75.80680171 28.89736227 -74.34284384 28.90842477 -70.90600586 29.55688477 C-67.10244655 32.15558988 -63.94631705 35.43248827 -60.82788086 38.80297852 C-56.96388395 43.05040624 -56.96388395 43.05040624 -51.90600586 45.49438477 C-44.06591655 43.04435686 -37.84739903 34.55232569 -32.27709961 28.77954102 C-30.64975473 27.11523896 -29.02147188 25.45185361 -27.39233398 23.78930664 C-24.85350139 21.19474057 -22.32050261 18.59549295 -19.80273438 15.98046875 C-17.35189852 13.43892276 -14.87942026 10.92024289 -12.40209961 8.40454102 C-11.65399521 7.61717056 -10.90589081 6.82980011 -10.13511658 6.01856995 C-4.83354805 0.68912576 -4.83354805 0.68912576 0 0 Z "
    fill="#EDEBED"
    transform="translate(222.906005859375,342.443115234375)"
  />

  <path
    d="M0 0 C0.7354303 -0.00700928 1.4708606 -0.01401855 2.22857666 -0.02124023 C4.65537467 -0.03882069 7.08100299 -0.02719827 9.5078125 -0.01367188 C11.1964541 -0.0163668 12.88509418 -0.02024922 14.57373047 -0.02526855 C18.11115304 -0.03116364 21.64817133 -0.02260061 25.18554688 -0.00390625 C29.71870095 0.01888364 34.25090777 0.00576057 38.7840271 -0.01819611 C42.27049897 -0.03265401 45.75674645 -0.0280482 49.2432251 -0.01768494 C50.91457227 -0.01501761 52.58593985 -0.01828764 54.25726318 -0.02760315 C56.59393225 -0.03776907 58.92906994 -0.02226936 61.265625 0 C61.95561584 -0.00809692 62.64560669 -0.01619385 63.35650635 -0.02453613 C66.676863 0.03405532 68.38677976 0.33072924 71.06201172 2.36242676 C72.6328125 4.51757812 72.6328125 4.51757812 73.1328125 7.51757812 C72.52726805 11.1508448 71.476921 12.25902138 68.6328125 14.51757812 C65.6950321 15.98646833 63.06395638 15.67742493 59.78393555 15.71044922 C59.07966431 15.71862671 58.37539307 15.7268042 57.64978027 15.73522949 C55.31470593 15.76007999 52.97969237 15.77659867 50.64453125 15.79101562 C49.8472291 15.7963393 49.04992695 15.80166298 48.22846413 15.80714798 C44.00819485 15.83387832 39.78795513 15.85325338 35.56762695 15.86767578 C31.20937027 15.88432197 26.85187005 15.92909891 22.49389935 15.98004723 C19.14212683 16.01371028 15.79053407 16.0252521 12.43860817 16.03090286 C10.83222486 16.03761822 9.22585349 16.0528479 7.61963463 16.07679367 C5.36908796 16.10843024 3.12058387 16.10848565 0.86987305 16.10107422 C-0.40982864 16.10916107 -1.68953033 16.11724792 -3.00801086 16.12557983 C-7.26017463 15.35594992 -8.73274969 13.87562218 -11.3671875 10.51757812 C-11.9296875 7.45507812 -11.9296875 7.45507812 -11.3671875 4.51757812 C-8.18374347 0.16859874 -5.07348658 -0.05953649 0 0 Z "
    fill="#060605"
    transform="translate(157.3671875,138.482421875)"
  />

  <path
    d="M0 0 C0.09920549 5.15944873 0.17162646 10.31833689 0.21972656 15.47851562 C0.2397871 17.23219479 0.26704251 18.98580753 0.30175781 20.73925781 C0.35052302 23.26644318 0.37302392 25.79274091 0.390625 28.3203125 C0.41127014 29.09867462 0.43191528 29.87703674 0.45318604 30.6789856 C0.45531932 35.90631589 -0.54076573 38.85004461 -4 43 C-7.33155251 44.66577625 -11.06536059 44.12007856 -14.7265625 44.09765625 C-16.02078629 44.09553383 -16.02078629 44.09553383 -17.34115601 44.09336853 C-20.1024723 44.08776188 -22.86370812 44.07520827 -25.625 44.0625 C-27.4947905 44.05748586 -29.36458226 44.0529228 -31.234375 44.04882812 C-35.82294777 44.03779029 -40.41146023 44.0205212 -45 44 C-40.38361362 38.4657383 -35.48155243 33.32092132 -30.390625 28.22265625 C-29.58260437 27.41130722 -28.77458374 26.59995819 -27.94207764 25.76402283 C-26.24573645 24.06264655 -24.54806242 22.36259822 -22.84912109 20.66381836 C-20.23897808 18.05146877 -17.63695737 15.43120162 -15.03515625 12.81054688 C-13.38330156 11.15576166 -11.73097465 9.50144767 -10.078125 7.84765625 C-9.29794006 7.0602858 -8.51775513 6.27291534 -7.71392822 5.46168518 C-6.99267761 4.7435112 -6.271427 4.02533722 -5.52832031 3.28540039 C-4.89355774 2.6492128 -4.25879517 2.01302521 -3.60479736 1.3575592 C-2 0 -2 0 0 0 Z "
    fill="#8B7C8B"
    transform="translate(93,59)"
  />

  <path
    d="M0 0 C2.39706123 -0.10854617 4.78915838 -0.18753157 7.1875 -0.25 C7.86103516 -0.28351562 8.53457031 -0.31703125 9.22851562 -0.3515625 C12.66607289 -0.41863679 14.90243155 -0.05032478 17.96875 1.53125 C20.70773214 4.86016675 20.56469819 7.64498942 20.3125 11.75 C20.28994141 12.44738281 20.26738281 13.14476562 20.24414062 13.86328125 C20.18547048 15.57644935 20.09579256 17.28850623 20 19 C16.75723273 17.576445 14.59906696 15.84528935 12.109375 13.33984375 C11.40039062 12.62892578 10.69140625 11.91800781 9.9609375 11.18554688 C9.23132813 10.44369141 8.50171875 9.70183594 7.75 8.9375 C7.00492187 8.19177734 6.25984375 7.44605469 5.4921875 6.67773438 C0 1.14028159 0 1.14028159 0 0 Z "
    fill="#F4EBC5"
    transform="translate(318,48)"
  />
</svg>
