<?xml version="1.0" encoding="UTF-8"?>
<svg
  version="1.1"
  viewBox="0 0 512 512"
  xmlns="http://www.w3.org/2000/svg">
  <path
    d="M0 0 C1.01361099 -0.01248528 1.01361099 -0.01248528 2.04769897 -0.02522278 C4.25825927 -0.04911615 6.46852395 -0.05806584 8.67919922 -0.06469727 C10.22663454 -0.07367405 11.77406903 -0.08279607 13.32150269 -0.09205627 C16.55420027 -0.10848874 19.78679492 -0.11623679 23.01953125 -0.11914062 C27.15687333 -0.12454185 31.29324717 -0.16231663 35.43031502 -0.20788479 C38.62168921 -0.23764376 41.8128288 -0.24486379 45.00432968 -0.24586678 C46.52975816 -0.25006558 48.05518756 -0.26248648 49.58047867 -0.28338432 C51.71323372 -0.31029937 53.84372332 -0.30547802 55.9765625 -0.29296875 C57.18788849 -0.2980394 58.39921448 -0.30311005 59.64724731 -0.30833435 C63.78492642 0.48364713 65.29723404 2.02670679 67.85888672 5.30639648 C67.85888672 6.29639648 67.85888672 7.28639648 67.85888672 8.30639648 C74.12888672 8.30639648 80.39888672 8.30639648 86.85888672 8.30639648 C87.18888672 6.65639648 87.51888672 5.00639648 87.85888672 3.30639648 C90.079244 0.94617266 91.42927225 0.36433579 94.6472432 -0.06965101 C95.73140245 -0.07013806 96.81556171 -0.07062512 97.93257427 -0.07112694 C99.18552719 -0.07895018 100.4384801 -0.08677342 101.72940129 -0.09483373 C103.12239248 -0.08834731 104.51538238 -0.08157733 105.90837097 -0.07455444 C107.38621581 -0.07801002 108.86405807 -0.0827739 110.34189492 -0.08873618 C114.40871685 -0.10129045 118.47532829 -0.09505569 122.54215109 -0.08577752 C126.92608499 -0.07900514 131.30998205 -0.08945945 135.69390869 -0.09771729 C144.28572689 -0.11107787 152.87746659 -0.10816606 161.46928789 -0.09947936 C168.45329498 -0.09271015 175.43728003 -0.0917828 182.42128944 -0.09505081 C183.91111077 -0.09574036 183.91111077 -0.09574036 185.4310295 -0.09644384 C187.44865479 -0.097403 189.46628008 -0.09837564 191.48390535 -0.09936161 C210.41829556 -0.10792289 229.35264224 -0.09807097 248.28702531 -0.08196051 C264.53080889 -0.068567 280.77452814 -0.07087603 297.01831055 -0.0847168 C315.87619804 -0.10077741 334.73404732 -0.10708795 353.5919407 -0.09788001 C355.60376218 -0.09692436 357.61558367 -0.09598125 359.62740517 -0.09505081 C361.11220901 -0.09435657 361.11220901 -0.09435657 362.62700888 -0.09364831 C369.59942891 -0.09105909 376.57182468 -0.09542816 383.54424095 -0.10248947 C392.04631888 -0.11091046 400.54831373 -0.10861214 409.05038216 -0.09264724 C413.38766712 -0.08477101 417.72481366 -0.08166172 422.06209755 -0.0915947 C426.03536366 -0.10055619 430.00836349 -0.09558486 433.98160557 -0.07966204 C435.41635806 -0.07632025 436.85113321 -0.07799474 438.28587105 -0.0852894 C450.2612873 -0.14148873 459.49627986 1.49540809 468.85888672 9.30639648 C477.26466093 18.1516883 478.30608422 27.14004865 478.27880859 38.91088867 C478.2861589 40.27502635 478.29474792 41.63915783 478.30447388 43.00328064 C478.32658502 46.68689798 478.32962625 50.37029099 478.32772636 54.05396557 C478.32760631 57.13333169 478.33618381 60.21265088 478.34450388 63.29200387 C478.36369624 70.55383229 478.36663523 77.81554575 478.35986328 85.07739258 C478.35320818 92.56667954 478.37615489 100.05547578 478.41317701 107.54466319 C478.44384857 113.98307913 478.45523736 120.42133687 478.4513402 126.85982442 C478.44927197 130.7019554 478.45476439 134.5437034 478.47923279 138.38576508 C478.50145908 141.99428038 478.49965785 145.60199353 478.47930527 149.21051216 C478.47425947 151.16585701 478.49393811 153.12121658 478.51431274 155.07646179 C478.50310394 156.23996658 478.49189514 157.40347137 478.48034668 158.60223389 C478.48105919 159.61318996 478.4817717 160.62414604 478.4825058 161.66573715 C477.62764425 165.28557206 475.93408805 166.35212274 472.85888672 168.30639648 C472.19888672 168.30639648 471.53888672 168.30639648 470.85888672 168.30639648 C470.85888672 174.57639648 470.85888672 180.84639648 470.85888672 187.30639648 C472.50888672 187.96639648 474.15888672 188.62639648 475.85888672 189.30639648 C478.4246681 191.87217786 478.10505945 193.56854799 478.13569772 197.06663847 C478.13260052 197.87887263 478.12950331 198.69110679 478.12631226 199.5279541 C478.13084337 200.38832039 478.13537448 201.24868669 478.1400429 202.13512468 C478.15276336 205.03536792 478.15106159 207.93542521 478.14941406 210.83569336 C478.15539482 212.90840905 478.16219931 214.98112251 478.16976929 217.05383301 C478.18748937 222.69884592 478.19212738 228.34379826 478.19340086 233.98883629 C478.19529717 238.70018295 478.20265219 243.41151541 478.20974505 248.12285662 C478.22605183 259.24328864 478.23091217 270.36368826 478.22949219 281.48413086 C478.22829231 292.95045199 478.24935818 304.4165844 478.28097951 315.8828578 C478.3071558 325.72586944 478.31785881 335.56881954 478.31658137 345.41186571 C478.31607184 351.29087475 478.32174922 357.16971644 478.34293747 363.0486908 C478.36234071 368.5841656 478.36242981 374.11931391 478.34790421 379.65480042 C478.34581714 381.68242877 478.35051087 383.71007766 478.36262512 385.7376709 C478.43489874 398.67676457 478.34110368 409.52282097 468.98779297 419.48217773 C461.10531237 426.2365235 453.27375978 428.46281972 443.11603165 428.43782425 C442.33968365 428.43987688 441.56333565 428.44192952 440.76346195 428.44404435 C438.15253378 428.4497152 435.54165835 428.448257 432.9307251 428.44683838 C431.04366487 428.44942196 429.15660519 428.4524351 427.26954627 428.45584178 C422.076295 428.46391576 416.88305754 428.46570157 411.68980074 428.46643925 C406.09184174 428.46828909 400.49388991 428.47583604 394.89593506 428.48257446 C382.65221664 428.49616077 370.4085015 428.50218286 358.1647768 428.50658512 C350.52171319 428.50934683 342.87865083 428.51358404 335.23558807 428.51808929 C314.07945452 428.53028196 292.92332205 428.54061691 271.76718521 428.54396439 C270.39927987 428.54418602 269.03137452 428.5444078 267.66346918 428.54462974 C266.29227065 428.54485038 264.92107212 428.54507086 263.54987359 428.54529119 C260.79903682 428.54573374 258.04820005 428.54618085 255.29736328 428.54663086 C254.27429325 428.54679495 254.27429325 428.54679495 253.23055513 428.54696235 C231.11303456 428.55059333 208.99554677 428.56651543 186.87803875 428.58982122 C163.49183134 428.61441882 140.10564788 428.62813045 116.71942496 428.6293323 C103.97205293 428.63024957 91.22472381 428.6360149 78.47736359 428.65415192 C67.62391619 428.66953974 56.77052498 428.67468111 45.91706875 428.66641381 C40.37879796 428.66250276 34.84064034 428.66345922 29.30238342 428.67747116 C24.2318869 428.69018246 19.16158893 428.68903688 14.0910928 428.67688045 C12.2573104 428.67491866 10.42351408 428.67802406 8.58975127 428.68672481 C-4.31378388 428.74407 -14.81159339 427.92405621 -25.14111328 419.30639648 C-33.97772482 410.00773989 -34.58202514 400.28496887 -34.52879333 388.06130981 C-34.53296915 386.50235386 -34.53844802 384.94340095 -34.54511315 383.38445365 C-34.55955413 379.11197885 -34.55532725 374.83969718 -34.54794633 370.56721187 C-34.54321362 365.95496614 -34.55572545 361.34276212 -34.56596375 356.73052979 C-34.5831552 347.69910356 -34.58399101 338.6677469 -34.57875084 329.63630857 C-34.57470846 322.29485359 -34.57615352 314.95341917 -34.5814991 307.61196518 C-34.58224752 306.56684978 -34.58299594 305.52173438 -34.58376705 304.44494881 C-34.58529853 302.32175239 -34.58683688 300.19855598 -34.58838201 298.07535957 C-34.60210838 278.16663247 -34.59666846 258.25794467 -34.5851968 238.34921847 C-34.57526489 220.1402386 -34.58820414 201.93136035 -34.61213099 183.72239615 C-34.63652035 165.02037879 -34.64613022 146.31840875 -34.63947827 127.6163758 C-34.63598561 117.11863174 -34.63822118 106.62096583 -34.65572929 96.1232338 C-34.67044923 87.18648513 -34.67108942 78.24986965 -34.65365838 69.3131236 C-34.64514422 64.75489594 -34.64300901 60.19690622 -34.65830994 55.63869095 C-34.67215462 51.46254337 -34.66739682 47.28683762 -34.6480707 43.11071561 C-34.64430969 41.60338566 -34.64723562 40.09602033 -34.65768235 38.58872189 C-34.7321511 27.01739318 -33.31808641 17.73996543 -25.12939453 9.06030273 C-17.95105009 2.72812856 -9.49503468 0.08329116 0 0 Z "
    fill="#F5F4F5"
    transform="translate(34.14111328125,41.693603515625)"
  />

  <path
    d="M0 0 C1.01361099 -0.01248528 1.01361099 -0.01248528 2.04769897 -0.02522278 C4.25825927 -0.04911615 6.46852395 -0.05806584 8.67919922 -0.06469727 C10.22663454 -0.07367405 11.77406903 -0.08279607 13.32150269 -0.09205627 C16.55420027 -0.10848874 19.78679492 -0.11623679 23.01953125 -0.11914062 C27.15687333 -0.12454185 31.29324717 -0.16231663 35.43031502 -0.20788479 C38.62168921 -0.23764376 41.8128288 -0.24486379 45.00432968 -0.24586678 C46.52975816 -0.25006558 48.05518756 -0.26248648 49.58047867 -0.28338432 C51.71323372 -0.31029937 53.84372332 -0.30547802 55.9765625 -0.29296875 C57.18788849 -0.2980394 58.39921448 -0.30311005 59.64724731 -0.30833435 C63.78492642 0.48364713 65.29723404 2.02670679 67.85888672 5.30639648 C67.85888672 6.29639648 67.85888672 7.28639648 67.85888672 8.30639648 C74.12888672 8.30639648 80.39888672 8.30639648 86.85888672 8.30639648 C87.18888672 6.65639648 87.51888672 5.00639648 87.85888672 3.30639648 C90.079244 0.94617266 91.42927225 0.36433579 94.6472432 -0.06965101 C95.73140245 -0.07013806 96.81556171 -0.07062512 97.93257427 -0.07112694 C99.18552719 -0.07895018 100.4384801 -0.08677342 101.72940129 -0.09483373 C103.12239248 -0.08834731 104.51538238 -0.08157733 105.90837097 -0.07455444 C107.38621581 -0.07801002 108.86405807 -0.0827739 110.34189492 -0.08873618 C114.40871685 -0.10129045 118.47532829 -0.09505569 122.54215109 -0.08577752 C126.92608499 -0.07900514 131.30998205 -0.08945945 135.69390869 -0.09771729 C144.28572689 -0.11107787 152.87746659 -0.10816606 161.46928789 -0.09947936 C168.45329498 -0.09271015 175.43728003 -0.0917828 182.42128944 -0.09505081 C183.91111077 -0.09574036 183.91111077 -0.09574036 185.4310295 -0.09644384 C187.44865479 -0.097403 189.46628008 -0.09837564 191.48390535 -0.09936161 C210.41829556 -0.10792289 229.35264224 -0.09807097 248.28702531 -0.08196051 C264.53080889 -0.068567 280.77452814 -0.07087603 297.01831055 -0.0847168 C315.87619804 -0.10077741 334.73404732 -0.10708795 353.5919407 -0.09788001 C355.60376218 -0.09692436 357.61558367 -0.09598125 359.62740517 -0.09505081 C361.11220901 -0.09435657 361.11220901 -0.09435657 362.62700888 -0.09364831 C369.59942891 -0.09105909 376.57182468 -0.09542816 383.54424095 -0.10248947 C392.04631888 -0.11091046 400.54831373 -0.10861214 409.05038216 -0.09264724 C413.38766712 -0.08477101 417.72481366 -0.08166172 422.06209755 -0.0915947 C426.03536366 -0.10055619 430.00836349 -0.09558486 433.98160557 -0.07966204 C435.41635806 -0.07632025 436.85113321 -0.07799474 438.28587105 -0.0852894 C450.2612873 -0.14148873 459.49627986 1.49540809 468.85888672 9.30639648 C477.26466093 18.1516883 478.30608422 27.14004865 478.27880859 38.91088867 C478.2861589 40.27502635 478.29474792 41.63915783 478.30447388 43.00328064 C478.32658502 46.68689798 478.32962625 50.37029099 478.32772636 54.05396557 C478.32760631 57.13333169 478.33618381 60.21265088 478.34450388 63.29200387 C478.36369624 70.55383229 478.36663523 77.81554575 478.35986328 85.07739258 C478.35320818 92.56667954 478.37615489 100.05547578 478.41317701 107.54466319 C478.44384857 113.98307913 478.45523736 120.42133687 478.4513402 126.85982442 C478.44927197 130.7019554 478.45476439 134.5437034 478.47923279 138.38576508 C478.50145908 141.99428038 478.49965785 145.60199353 478.47930527 149.21051216 C478.47425947 151.16585701 478.49393811 153.12121658 478.51431274 155.07646179 C478.50310394 156.23996658 478.49189514 157.40347137 478.48034668 158.60223389 C478.48105919 159.61318996 478.4817717 160.62414604 478.4825058 161.66573715 C477.85888672 164.30639648 477.85888672 164.30639648 475.54660797 166.69415665 C472.85888672 168.30639648 472.85888672 168.30639648 469.23388672 167.80639648 C465.85888672 166.30639648 465.85888672 166.30639648 462.85888672 162.30639648 C462.85888672 144.81639648 462.85888672 127.32639648 462.85888672 109.30639648 C303.79888672 109.30639648 144.73888672 109.30639648 -19.14111328 109.30639648 C-19.05861328 156.99139648 -18.97611328 204.67639648 -18.89111328 253.80639648 C-18.87532227 268.87360352 -18.85953125 283.94081055 -18.84326172 299.46459961 C-18.81004966 312.94843261 -18.81004966 312.94843261 -18.77154541 326.43225098 C-18.75451213 332.44692853 -18.74835448 338.4614973 -18.74957275 344.47619629 C-18.75094035 351.41296581 -18.73851931 358.34954729 -18.70907439 365.286257 C-18.69444554 368.83467046 -18.68600246 372.38279127 -18.69528913 375.93122959 C-18.70190562 379.73275273 -18.68408274 383.53340359 -18.66009521 387.33483887 C-18.66785603 388.43959312 -18.67561684 389.54434738 -18.68361282 390.68257904 C-18.61326186 396.990277 -17.96674098 402.11930577 -14.14111328 407.30639648 C-8.69749298 411.63907387 -4.46497181 412.4545839 2.29596996 412.44061756 C3.44734958 412.44414591 3.44734958 412.44414591 4.6219894 412.44774553 C7.2151446 412.45444584 9.80824982 412.453977 12.40141296 412.4535675 C14.27096073 412.45686549 16.14050779 412.46059091 18.01005393 412.46470898 C23.16414656 412.47474455 28.31822753 412.47844827 33.47232854 412.48109829 C39.02463298 412.48499672 44.57692815 412.49457535 50.12922668 412.50331116 C63.5460015 412.5230883 76.96277708 412.53314321 90.37956282 412.54203895 C96.69392284 412.54641967 103.00828202 412.55178702 109.32264137 412.55702782 C130.30626969 412.57404109 151.28989785 412.58856102 172.27353191 412.59577656 C173.63078206 412.59625132 174.98803221 412.5967272 176.34528236 412.59720422 C177.0183609 412.5974406 177.69143944 412.59767697 178.3849143 412.59792051 C181.79510238 412.59912172 185.20529045 412.60033716 188.61547852 412.6015625 C189.63062429 412.60192272 189.63062429 412.60192272 190.66627807 412.60229023 C212.61015804 412.61018372 234.55398398 412.63361632 256.49784036 412.66611844 C279.69430327 412.70041318 302.89073586 412.72012622 326.08722812 412.7234208 C338.73345078 412.72558814 351.37959401 412.73436958 364.02579308 412.75988197 C374.79405534 412.78155533 385.5622189 412.78965596 396.33050051 412.77991519 C401.82613774 412.77536079 407.32157116 412.77732297 412.81718063 412.79667664 C417.84766253 412.81423954 422.87779088 412.81336651 427.90827618 412.79777934 C429.72864409 412.79539281 431.54903604 412.79978071 433.36936709 412.81160799 C435.84420707 412.8266925 438.31778876 412.81707907 440.79259777 412.80138111 C441.85234654 412.81671442 441.85234654 412.81671442 442.93350437 412.8323575 C448.27263198 412.75845965 452.48237522 411.27636443 456.85888672 408.30639648 C461.3856765 402.61889137 462.005738 398.1671527 461.9901886 391.11402893 C461.99230431 390.26899258 461.99442003 389.42395623 461.99659985 388.55331272 C462.00260898 385.71131017 462.00159906 382.8693519 462.00073242 380.02734375 C462.00376326 377.99400761 462.0072845 375.96067215 462.01126099 373.92733765 C462.01915529 369.5435281 462.02429686 365.15972672 462.02755165 360.77591133 C462.03345416 353.84772872 462.04998657 346.91959769 462.06889343 339.99143982 C462.07523089 337.62125877 462.08155651 335.25107768 462.0878706 332.88089657 C462.09103641 331.69387484 462.09420222 330.50685312 462.09746397 329.28386104 C462.13957655 313.15035006 462.17252934 297.01686308 462.18481445 280.88330078 C462.19318257 270.00565712 462.21562595 259.12814102 462.25417012 248.25056118 C462.27397118 242.49138156 462.2863219 236.73239281 462.28133583 230.97317696 C462.27670495 225.55832149 462.29040923 220.14382827 462.31834793 214.72904587 C462.32528575 212.73922731 462.32535862 210.7493715 462.31814766 208.75955391 C462.30931133 206.04784965 462.32486767 203.33735347 462.34663391 200.62574768 C462.33819137 199.83401911 462.32974884 199.04229054 462.32105047 198.22657019 C462.3734421 194.7090395 462.56356512 192.69902373 464.70730877 189.84893703 C467.54187215 187.81674064 469.36700234 187.30639648 472.85888672 187.30639648 C475.51103115 188.77751732 475.51103115 188.77751732 477.85888672 191.30639648 C478.35807998 194.31483768 478.53123518 196.75973481 478.48707581 199.76846313 C478.49771739 201.06157585 478.49771739 201.06157585 478.50857395 202.38081205 C478.52620352 205.2752403 478.50802368 208.16833443 478.48999023 211.06274414 C478.49512738 213.13575859 478.50240711 215.20876869 478.51167297 217.2817688 C478.53022802 222.91855091 478.51721954 228.55486152 478.49758267 234.19162416 C478.4812157 240.09132736 478.49000697 245.99100022 478.49510193 251.89071655 C478.49962719 261.80555763 478.48373143 271.72021034 478.45581055 281.63500977 C478.42380979 293.08663043 478.42375252 304.53791031 478.44102532 315.989555 C478.45691377 327.01001088 478.45013844 338.03034222 478.4330883 349.05079269 C478.4262278 353.73716943 478.42724021 358.42344603 478.43463326 363.10982132 C478.44231834 368.63716031 478.43009708 374.16411382 478.40278435 379.69138718 C478.39592076 381.71577562 478.39578069 383.7402002 478.40299988 385.7645874 C478.44374772 398.68404376 478.32477735 409.54020516 468.98779297 419.48217773 C461.10531237 426.2365235 453.27375978 428.46281972 443.11603165 428.43782425 C442.33968365 428.43987688 441.56333565 428.44192952 440.76346195 428.44404435 C438.15253378 428.4497152 435.54165835 428.448257 432.9307251 428.44683838 C431.04366487 428.44942196 429.15660519 428.4524351 427.26954627 428.45584178 C422.076295 428.46391576 416.88305754 428.46570157 411.68980074 428.46643925 C406.09184174 428.46828909 400.49388991 428.47583604 394.89593506 428.48257446 C382.65221664 428.49616077 370.4085015 428.50218286 358.1647768 428.50658512 C350.52171319 428.50934683 342.87865083 428.51358404 335.23558807 428.51808929 C314.07945452 428.53028196 292.92332205 428.54061691 271.76718521 428.54396439 C270.39927987 428.54418602 269.03137452 428.5444078 267.66346918 428.54462974 C266.29227065 428.54485038 264.92107212 428.54507086 263.54987359 428.54529119 C260.79903682 428.54573374 258.04820005 428.54618085 255.29736328 428.54663086 C254.27429325 428.54679495 254.27429325 428.54679495 253.23055513 428.54696235 C231.11303456 428.55059333 208.99554677 428.56651543 186.87803875 428.58982122 C163.49183134 428.61441882 140.10564788 428.62813045 116.71942496 428.6293323 C103.97205293 428.63024957 91.22472381 428.6360149 78.47736359 428.65415192 C67.62391619 428.66953974 56.77052498 428.67468111 45.91706875 428.66641381 C40.37879796 428.66250276 34.84064034 428.66345922 29.30238342 428.67747116 C24.2318869 428.69018246 19.16158893 428.68903688 14.0910928 428.67688045 C12.2573104 428.67491866 10.42351408 428.67802406 8.58975127 428.68672481 C-4.31378388 428.74407 -14.81159339 427.92405621 -25.14111328 419.30639648 C-33.97772482 410.00773989 -34.58202514 400.28496887 -34.52879333 388.06130981 C-34.53296915 386.50235386 -34.53844802 384.94340095 -34.54511315 383.38445365 C-34.55955413 379.11197885 -34.55532725 374.83969718 -34.54794633 370.56721187 C-34.54321362 365.95496614 -34.55572545 361.34276212 -34.56596375 356.73052979 C-34.5831552 347.69910356 -34.58399101 338.6677469 -34.57875084 329.63630857 C-34.57470846 322.29485359 -34.57615352 314.95341917 -34.5814991 307.61196518 C-34.58224752 306.56684978 -34.58299594 305.52173438 -34.58376705 304.44494881 C-34.58529853 302.32175239 -34.58683688 300.19855598 -34.58838201 298.07535957 C-34.60210838 278.16663247 -34.59666846 258.25794467 -34.5851968 238.34921847 C-34.57526489 220.1402386 -34.58820414 201.93136035 -34.61213099 183.72239615 C-34.63652035 165.02037879 -34.64613022 146.31840875 -34.63947827 127.6163758 C-34.63598561 117.11863174 -34.63822118 106.62096583 -34.65572929 96.1232338 C-34.67044923 87.18648513 -34.67108942 78.24986965 -34.65365838 69.3131236 C-34.64514422 64.75489594 -34.64300901 60.19690622 -34.65830994 55.63869095 C-34.67215462 51.46254337 -34.66739682 47.28683762 -34.6480707 43.11071561 C-34.64430969 41.60338566 -34.64723562 40.09602033 -34.65768235 38.58872189 C-34.7321511 27.01739318 -33.31808641 17.73996543 -25.12939453 9.06030273 C-17.95105009 2.72812856 -9.49503468 0.08329116 0 0 Z "
    fill="#81C8EA"
    transform="translate(34.14111328125,41.693603515625)"
  />

  <path
    d="M0 0 C0.81881653 -0.00902847 1.63763306 -0.01805695 2.48126221 -0.02735901 C4.21273147 -0.04184799 5.94425532 -0.05074489 7.67578125 -0.05444336 C10.30564487 -0.06630486 12.93313374 -0.11546986 15.5625 -0.16601562 C17.24998863 -0.17548498 18.93749158 -0.18271756 20.625 -0.1875 C21.79104767 -0.21679848 21.79104767 -0.21679848 22.98065186 -0.24668884 C28.96175001 -0.19804335 32.91882619 1.64939066 37.578125 5.37109375 C40.93977557 9.07752899 42.6498768 11.54091596 42.89453125 16.50390625 C42.95737305 17.71240234 42.95737305 17.71240234 43.02148438 18.9453125 C43.06080078 19.78707031 43.10011719 20.62882812 43.140625 21.49609375 C43.18380859 22.34558594 43.22699219 23.19507813 43.27148438 24.0703125 C43.37766736 26.17037598 43.47840997 28.27071323 43.578125 30.37109375 C44.834555 31.00016063 46.09108521 31.62902738 47.34765625 32.2578125 C48.04737549 32.60803467 48.74709473 32.95825684 49.46801758 33.3190918 C50.16435303 33.66625244 50.86068848 34.01341309 51.578125 34.37109375 C52.20549561 34.68925049 52.83286621 35.00740723 53.47924805 35.33520508 C57.34187045 37.16964718 59.51919043 37.71171597 63.578125 36.37109375 C65.86454087 34.41836891 65.86454087 34.41836891 67.953125 31.99609375 C72.97077331 26.77939823 76.21580489 24.79805503 83.515625 23.87109375 C92.79695158 24.34573207 99.71628846 33.04202943 105.84350586 39.24536133 C107.39440609 40.81241422 108.96079472 42.36269649 110.52929688 43.91210938 C111.53221382 44.91700775 112.53420028 45.92283583 113.53515625 46.9296875 C114.43210205 47.83001709 115.32904785 48.73034668 116.25317383 49.65795898 C120.49142787 54.60384969 122.13556073 58.81696633 121.84765625 65.21484375 C120.99501265 72.03599253 116.37937306 75.73112585 111.5390625 80.125 C109.23616331 82.76278294 108.59325813 83.87029652 108.578125 87.37109375 C109.47517982 90.10636959 110.71338513 92.6208053 112.015625 95.18359375 C112.35400391 95.87646484 112.69238281 96.56933594 113.04101562 97.28320312 C113.87442707 98.98524057 114.72464424 100.6790309 115.578125 102.37109375 C116.7125 102.38527344 117.846875 102.39945312 119.015625 102.4140625 C134.84953543 102.82829627 134.84953543 102.82829627 140.578125 108.37109375 C145.41300438 113.57788693 145.75222053 117.82551564 145.81640625 124.6953125 C145.824478 125.51554398 145.83254974 126.33577545 145.84086609 127.18086243 C145.85469368 128.91832373 145.86542176 130.65581204 145.87329102 132.39331055 C145.88478932 134.16129574 145.90520705 135.92924682 145.93481445 137.69702148 C145.97772102 140.25919044 145.99369341 142.82032777 146.00390625 145.3828125 C146.02141434 146.16331467 146.03892242 146.94381683 146.05696106 147.74797058 C146.03133779 154.32115597 144.15951423 159.6420511 139.59765625 164.46484375 C131.58425185 169.57072974 123.73111245 168.94448275 114.578125 168.37109375 C115.18140625 169.13292969 115.7846875 169.89476562 116.40625 170.6796875 C126.3317887 183.50284314 130.80546045 194.94817653 129.578125 211.37109375 C128.75137047 216.94994998 127.92821289 221.05168968 123.828125 225.05859375 C119.73671814 226.71089267 117.95006345 227.31834708 113.578125 226.37109375 C109.94737076 223.67328291 106.78509835 220.55289462 103.578125 217.37109375 C98.65647611 212.30887698 98.65647611 212.30887698 92.328125 209.68359375 C88.83665873 210.55646032 87.58038629 211.36770182 85.578125 214.37109375 C84.65928092 217.69817632 84.65928092 217.69817632 85.578125 221.37109375 C87.57452111 224.38076643 90.01367994 226.84026501 92.578125 229.37109375 C93.67253906 230.46744141 93.67253906 230.46744141 94.7890625 231.5859375 C96.17512275 232.96949583 97.57020315 234.34411157 98.9765625 235.70703125 C101.10360582 237.91708113 101.54138867 239.04781402 101.890625 242.12109375 C101.47586828 246.4345636 100.54617665 248.19103841 97.578125 251.37109375 C89.09828204 256.03937843 76.59686334 255.72804567 67.35546875 253.64453125 C58.64719498 250.63154201 50.93128565 245.84685168 43.578125 240.37109375 C43.55234375 241.50546875 43.5265625 242.63984375 43.5 243.80859375 C42.98672561 259.29437399 42.98672561 259.29437399 38.578125 265.37109375 C30.78850238 271.57099746 22.57827328 270.65826769 13.12866211 270.72119141 C11.31212519 270.73771274 9.49565225 270.76495225 7.67944336 270.80322266 C5.04767455 270.85833572 2.41742649 270.87991891 -0.21484375 270.89453125 C-1.0172197 270.91720062 -1.81959564 270.93987 -2.64628601 270.96322632 C-8.66550277 270.94096221 -12.79231758 269.24510909 -17.421875 265.37109375 C-23.1288284 258.51591822 -22.22949674 248.83573718 -22.421875 240.37109375 C-24.97573892 239.14067753 -27.53718265 237.93704791 -30.109375 236.74609375 C-30.83060547 236.39546875 -31.55183594 236.04484375 -32.29492188 235.68359375 C-36.56192257 233.69855281 -36.56192257 233.69855281 -41.15625 233.87890625 C-43.80750238 235.62507592 -45.81808835 237.55034145 -47.984375 239.87109375 C-52.31248366 244.49174355 -55.18972399 246.64876817 -61.609375 246.87109375 C-62.48980469 246.92265625 -63.37023437 246.97421875 -64.27734375 247.02734375 C-73.50425405 245.10172769 -80.37781382 236.87586137 -86.734375 230.43359375 C-87.61416016 229.56541016 -88.49394531 228.69722656 -89.40039062 227.80273438 C-100.99721939 216.15307268 -100.99721939 216.15307268 -100.984375 208.43359375 C-100.62132703 200.69247416 -96.48973022 196.29223856 -91.046875 191.18359375 C-89.98339844 190.26513672 -89.98339844 190.26513672 -88.8984375 189.328125 C-87.1694716 187.47116205 -87.1694716 187.47116205 -87.53515625 185.05859375 C-88.59388138 181.84977045 -89.74575394 178.70278567 -90.984375 175.55859375 C-91.66693359 173.81642578 -91.66693359 173.81642578 -92.36328125 172.0390625 C-92.71261719 171.15863281 -93.06195313 170.27820313 -93.421875 169.37109375 C-94.55625 169.3453125 -95.690625 169.31953125 -96.859375 169.29296875 C-113.36599814 168.74762799 -113.36599814 168.74762799 -118.421875 164.37109375 C-123.6068643 158.60853602 -124.58883276 153.67576123 -124.66015625 146.01171875 C-124.668228 145.1891156 -124.67629974 144.36651245 -124.68461609 143.51898193 C-124.6984422 141.7773244 -124.70917095 140.03563994 -124.71704102 138.29394531 C-124.72855109 136.51912457 -124.74898759 134.74433817 -124.77856445 132.96972656 C-124.82139069 130.40015222 -124.83743144 127.83160639 -124.84765625 125.26171875 C-124.86516434 124.4760553 -124.88267242 123.69039185 -124.90071106 122.88092041 C-124.87612178 116.57235363 -123.16745767 112.36505432 -118.82421875 107.62890625 C-115.0077205 104.67748094 -112.19375576 103.3064559 -107.41015625 103.0546875 C-106.65283203 103.01279297 -105.89550781 102.97089844 -105.11523438 102.92773438 C-104.32955078 102.88841797 -103.54386719 102.84910156 -102.734375 102.80859375 C-101.93708984 102.76541016 -101.13980469 102.72222656 -100.31835938 102.67773438 C-98.35306053 102.57182007 -96.38749004 102.47096824 -94.421875 102.37109375 C-94.78539062 101.860625 -95.14890625 101.35015625 -95.5234375 100.82421875 C-105.16466844 86.88151555 -109.74228559 74.4348614 -108.421875 57.37109375 C-107.58114638 53.39450875 -106.0184186 50.28885313 -103.796875 46.87109375 C-100.69517459 44.91212507 -98.42822682 44.62592514 -94.7890625 44.79296875 C-90.28035112 45.89410618 -87.5376345 49.09701314 -84.421875 52.37109375 C-83.13147903 53.66402987 -81.83987672 54.95576352 -80.546875 56.24609375 C-79.71542969 57.10847656 -79.71542969 57.10847656 -78.8671875 57.98828125 C-76.54011633 60.21472231 -75.34078993 60.37860163 -72.046875 60.68359375 C-68.4516285 60.65690578 -68.4516285 60.65690578 -65.984375 58.80859375 C-63.76262787 55.34266822 -63.85585141 53.44646358 -64.421875 49.37109375 C-66.37879774 46.60822636 -68.78426649 44.43805755 -71.296875 42.18359375 C-72.59017441 40.98633142 -73.87939909 39.78464909 -75.1640625 38.578125 C-75.7401123 38.05710205 -76.31616211 37.5360791 -76.90966797 36.99926758 C-79.36432057 34.35637475 -80.31920609 32.04577513 -80.859375 28.49609375 C-80.2767532 24.33450945 -78.63746555 21.9360001 -75.421875 19.37109375 C-66.5356551 14.43841035 -55.75944643 15.51903507 -46.296875 17.99609375 C-39.08052134 20.2673122 -31.66144175 23.11991565 -26.2421875 28.55859375 C-24.61379845 30.60628858 -24.61379845 30.60628858 -22.421875 30.37109375 C-22.39609375 29.14132813 -22.3703125 27.9115625 -22.34375 26.64453125 C-22.28744494 25.01168443 -22.23009815 23.3788733 -22.171875 21.74609375 C-22.15769531 20.93785156 -22.14351563 20.12960938 -22.12890625 19.296875 C-21.90857391 13.87669949 -20.98564225 10.68721186 -17.421875 6.37109375 C-11.71835824 1.23792867 -7.61560617 0.05199516 0 0 Z "
    fill="#030303"
    transform="translate(326.421875,169.62890625)"
  />

  <path
    d="M0 0 C1.01361099 -0.01248528 1.01361099 -0.01248528 2.04769897 -0.02522278 C4.25825927 -0.04911615 6.46852395 -0.05806584 8.67919922 -0.06469727 C10.22663454 -0.07367405 11.77406903 -0.08279607 13.32150269 -0.09205627 C16.55420027 -0.10848874 19.78679492 -0.11623679 23.01953125 -0.11914062 C27.15687333 -0.12454185 31.29324717 -0.16231663 35.43031502 -0.20788479 C38.62168921 -0.23764376 41.8128288 -0.24486379 45.00432968 -0.24586678 C46.52975816 -0.25006558 48.05518756 -0.26248648 49.58047867 -0.28338432 C51.71323372 -0.31029937 53.84372332 -0.30547802 55.9765625 -0.29296875 C57.18788849 -0.2980394 58.39921448 -0.30311005 59.64724731 -0.30833435 C63.79770267 0.4860926 65.3023549 2.00231164 67.85888672 5.30639648 C67.98388672 8.86889648 67.98388672 8.86889648 66.85888672 12.30639648 C64.14521971 15.07777762 62.5116859 16.20774682 58.64724731 16.79173279 C57.43592133 16.78553421 56.22459534 16.77933563 54.9765625 16.77294922 C54.30432648 16.77525543 53.63209045 16.77756165 52.93948364 16.77993774 C51.48647161 16.78255875 50.03342092 16.77616546 48.58047867 16.76168633 C46.27580362 16.73971959 43.97243541 16.74354187 41.66769409 16.75416565 C35.94416541 16.77579062 30.22092965 16.75851713 24.49743652 16.73266602 C19.65836449 16.71121094 14.82013373 16.70939273 9.98107529 16.73558235 C7.71893909 16.73991414 5.45828844 16.71535281 3.19631958 16.69004822 C-4.99319858 16.52050242 -4.99319858 16.52050242 -12.44238281 19.46679688 C-29.9835881 37.92362325 -18.89786594 78.25207206 -19.14111328 94.30639648 C139.91888672 94.30639648 298.97888672 94.30639648 462.85888672 94.30639648 C466.22953114 55.42697684 466.22953114 55.42697684 456.85888672 20.30639648 C452.72563523 17.5063351 449.48051139 16.93157894 444.54354763 16.93280888 C443.28762922 16.92581913 442.0317108 16.91882939 440.73773426 16.91162783 C439.35180169 16.91902059 437.96587055 16.92668281 436.5799408 16.93458557 C435.10164459 16.93201017 433.62335021 16.92810846 432.1450606 16.92299598 C428.08643039 16.91272317 424.02801763 16.9210246 419.9693979 16.93229282 C415.59103317 16.94114472 411.21269925 16.93264366 406.83433533 16.92608643 C399.24860095 16.9169291 391.66292706 16.91825919 384.07719231 16.92627144 C373.10404514 16.93749725 362.13098427 16.9284674 351.15784461 16.91370963 C333.3475001 16.88993599 315.53716624 16.87657175 297.72680664 16.87255859 C296.66087111 16.87231373 295.59493559 16.87206886 294.49669898 16.87181657 C282.60035852 16.86926985 270.70401888 16.86870429 258.80767822 16.86975098 C254.49198405 16.87008401 250.17628988 16.8703694 245.8605957 16.87060547 C244.79565464 16.87066826 243.73071358 16.87073104 242.63350158 16.87079573 C224.88867954 16.87140013 207.14390668 16.8565378 189.39910513 16.82977241 C178.45074458 16.81394819 167.50254256 16.81172926 156.55418027 16.82690644 C149.05626089 16.83635441 141.55843727 16.83164264 134.06052916 16.81569261 C129.7317845 16.80697673 125.40329402 16.80490948 121.07456207 16.82021904 C117.11385592 16.83411562 113.15361077 16.82974294 109.19292993 16.81069802 C107.75830629 16.80707742 106.32364642 16.81026189 104.88905727 16.8208477 C102.94220608 16.83424837 100.99522489 16.82073358 99.04838467 16.80582523 C97.96601668 16.80593257 96.88364869 16.80603991 95.76848167 16.8061505 C92.1174574 16.17904808 90.4585367 14.90623765 87.85888672 12.30639648 C86.73388672 8.86889648 86.73388672 8.86889648 86.85888672 5.30639648 C89.31541708 2.19746457 90.84708984 0.5233232 94.7714417 -0.318048 C95.85522123 -0.31777562 96.93900076 -0.31750323 98.0556221 -0.3172226 C99.31056607 -0.32902793 100.56551003 -0.34083327 101.8584826 -0.35299635 C103.24853427 -0.3408045 104.63858189 -0.32814335 106.02862549 -0.31506348 C107.50733761 -0.31939223 108.98604467 -0.325908 110.46473861 -0.33442354 C114.52944691 -0.35144042 118.59354063 -0.33721641 122.65821671 -0.31790876 C127.0414611 -0.30250127 131.4246292 -0.31587877 135.80787659 -0.32565308 C144.39627657 -0.34019379 152.98444049 -0.32793044 161.57281813 -0.30653983 C171.57443851 -0.28254313 181.57600464 -0.28424349 191.57764742 -0.28684574 C209.42616295 -0.2905378 227.27456723 -0.26969647 245.12304688 -0.2355957 C262.43980727 -0.2025231 279.75645084 -0.18833387 297.07324219 -0.19458008 C315.92638387 -0.201347 334.77947658 -0.19887374 353.63261104 -0.17922068 C355.12877121 -0.17766145 355.12877121 -0.17766145 356.65515684 -0.17607072 C358.65845575 -0.17397982 360.66175463 -0.17186884 362.6650535 -0.16973755 C369.63497521 -0.16284576 376.60488182 -0.16217205 383.57480621 -0.16362 C392.07321151 -0.16506108 400.57152162 -0.15534423 409.06989536 -0.13167363 C413.40515455 -0.1198279 417.7402812 -0.11267895 422.0755558 -0.1185112 C426.04694394 -0.12369593 430.01805248 -0.11494937 433.98939285 -0.0952366 C435.42343746 -0.09051021 436.85750943 -0.09077971 438.29154983 -0.09664696 C450.26117775 -0.14087406 459.50063955 1.49904527 468.85888672 9.30639648 C477.26466093 18.1516883 478.30608422 27.14004865 478.27880859 38.91088867 C478.2861589 40.27502635 478.29474792 41.63915783 478.30447388 43.00328064 C478.32658502 46.68689798 478.32962625 50.37029099 478.32772636 54.05396557 C478.32760631 57.13333169 478.33618381 60.21265088 478.34450388 63.29200387 C478.36369624 70.55383229 478.36663523 77.81554575 478.35986328 85.07739258 C478.35320818 92.56667954 478.37615489 100.05547578 478.41317701 107.54466319 C478.44384857 113.98307913 478.45523736 120.42133687 478.4513402 126.85982442 C478.44927197 130.7019554 478.45476439 134.5437034 478.47923279 138.38576508 C478.50145908 141.99428038 478.49965785 145.60199353 478.47930527 149.21051216 C478.47425947 151.16585701 478.49393811 153.12121658 478.51431274 155.07646179 C478.50310394 156.23996658 478.49189514 157.40347137 478.48034668 158.60223389 C478.48105919 159.61318996 478.4817717 160.62414604 478.4825058 161.66573715 C477.85888672 164.30639648 477.85888672 164.30639648 475.54660797 166.69415665 C472.85888672 168.30639648 472.85888672 168.30639648 469.23388672 167.80639648 C465.85888672 166.30639648 465.85888672 166.30639648 462.85888672 162.30639648 C462.85888672 144.81639648 462.85888672 127.32639648 462.85888672 109.30639648 C303.79888672 109.30639648 144.73888672 109.30639648 -19.14111328 109.30639648 C-19.05861328 156.99139648 -18.97611328 204.67639648 -18.89111328 253.80639648 C-18.87532227 268.87360352 -18.85953125 283.94081055 -18.84326172 299.46459961 C-18.81004966 312.94843261 -18.81004966 312.94843261 -18.77154541 326.43225098 C-18.75451213 332.44692853 -18.74835448 338.4614973 -18.74957275 344.47619629 C-18.75094035 351.41296581 -18.73851931 358.34954729 -18.70907439 365.286257 C-18.69444554 368.83467046 -18.68600246 372.38279127 -18.69528913 375.93122959 C-18.70190562 379.73275273 -18.68408274 383.53340359 -18.66009521 387.33483887 C-18.66785603 388.43959312 -18.67561684 389.54434738 -18.68361282 390.68257904 C-18.61326186 396.990277 -17.96674098 402.11930577 -14.14111328 407.30639648 C-8.69749298 411.63907387 -4.46497181 412.4545839 2.29596996 412.44061756 C3.44734958 412.44414591 3.44734958 412.44414591 4.6219894 412.44774553 C7.2151446 412.45444584 9.80824982 412.453977 12.40141296 412.4535675 C14.27096073 412.45686549 16.14050779 412.46059091 18.01005393 412.46470898 C23.16414656 412.47474455 28.31822753 412.47844827 33.47232854 412.48109829 C39.02463298 412.48499672 44.57692815 412.49457535 50.12922668 412.50331116 C63.5460015 412.5230883 76.96277708 412.53314321 90.37956282 412.54203895 C96.69392284 412.54641967 103.00828202 412.55178702 109.32264137 412.55702782 C130.30626969 412.57404109 151.28989785 412.58856102 172.27353191 412.59577656 C173.63078206 412.59625132 174.98803221 412.5967272 176.34528236 412.59720422 C177.0183609 412.5974406 177.69143944 412.59767697 178.3849143 412.59792051 C181.79510238 412.59912172 185.20529045 412.60033716 188.61547852 412.6015625 C189.63062429 412.60192272 189.63062429 412.60192272 190.66627807 412.60229023 C212.61015804 412.61018372 234.55398398 412.63361632 256.49784036 412.66611844 C279.69430327 412.70041318 302.89073586 412.72012622 326.08722812 412.7234208 C338.73345078 412.72558814 351.37959401 412.73436958 364.02579308 412.75988197 C374.79405534 412.78155533 385.5622189 412.78965596 396.33050051 412.77991519 C401.82613774 412.77536079 407.32157116 412.77732297 412.81718063 412.79667664 C417.84766253 412.81423954 422.87779088 412.81336651 427.90827618 412.79777934 C429.72864409 412.79539281 431.54903604 412.79978071 433.36936709 412.81160799 C435.84420707 412.8266925 438.31778876 412.81707907 440.79259777 412.80138111 C441.85234654 412.81671442 441.85234654 412.81671442 442.93350437 412.8323575 C448.27263198 412.75845965 452.48237522 411.27636443 456.85888672 408.30639648 C461.3856765 402.61889137 462.005738 398.1671527 461.9901886 391.11402893 C461.99230431 390.26899258 461.99442003 389.42395623 461.99659985 388.55331272 C462.00260898 385.71131017 462.00159906 382.8693519 462.00073242 380.02734375 C462.00376326 377.99400761 462.0072845 375.96067215 462.01126099 373.92733765 C462.01915529 369.5435281 462.02429686 365.15972672 462.02755165 360.77591133 C462.03345416 353.84772872 462.04998657 346.91959769 462.06889343 339.99143982 C462.07523089 337.62125877 462.08155651 335.25107768 462.0878706 332.88089657 C462.09103641 331.69387484 462.09420222 330.50685312 462.09746397 329.28386104 C462.13957655 313.15035006 462.17252934 297.01686308 462.18481445 280.88330078 C462.19318257 270.00565712 462.21562595 259.12814102 462.25417012 248.25056118 C462.27397118 242.49138156 462.2863219 236.73239281 462.28133583 230.97317696 C462.27670495 225.55832149 462.29040923 220.14382827 462.31834793 214.72904587 C462.32528575 212.73922731 462.32535862 210.7493715 462.31814766 208.75955391 C462.30931133 206.04784965 462.32486767 203.33735347 462.34663391 200.62574768 C462.33819137 199.83401911 462.32974884 199.04229054 462.32105047 198.22657019 C462.3734421 194.7090395 462.56356512 192.69902373 464.70730877 189.84893703 C467.54187215 187.81674064 469.36700234 187.30639648 472.85888672 187.30639648 C475.51103115 188.77751732 475.51103115 188.77751732 477.85888672 191.30639648 C478.35807998 194.31483768 478.53123518 196.75973481 478.48707581 199.76846313 C478.49771739 201.06157585 478.49771739 201.06157585 478.50857395 202.38081205 C478.52620352 205.2752403 478.50802368 208.16833443 478.48999023 211.06274414 C478.49512738 213.13575859 478.50240711 215.20876869 478.51167297 217.2817688 C478.53022802 222.91855091 478.51721954 228.55486152 478.49758267 234.19162416 C478.4812157 240.09132736 478.49000697 245.99100022 478.49510193 251.89071655 C478.49962719 261.80555763 478.48373143 271.72021034 478.45581055 281.63500977 C478.42380979 293.08663043 478.42375252 304.53791031 478.44102532 315.989555 C478.45691377 327.01001088 478.45013844 338.03034222 478.4330883 349.05079269 C478.4262278 353.73716943 478.42724021 358.42344603 478.43463326 363.10982132 C478.44231834 368.63716031 478.43009708 374.16411382 478.40278435 379.69138718 C478.39592076 381.71577562 478.39578069 383.7402002 478.40299988 385.7645874 C478.44374772 398.68404376 478.32477735 409.54020516 468.98779297 419.48217773 C461.10531237 426.2365235 453.27375978 428.46281972 443.11603165 428.43782425 C442.33968365 428.43987688 441.56333565 428.44192952 440.76346195 428.44404435 C438.15253378 428.4497152 435.54165835 428.448257 432.9307251 428.44683838 C431.04366487 428.44942196 429.15660519 428.4524351 427.26954627 428.45584178 C422.076295 428.46391576 416.88305754 428.46570157 411.68980074 428.46643925 C406.09184174 428.46828909 400.49388991 428.47583604 394.89593506 428.48257446 C382.65221664 428.49616077 370.4085015 428.50218286 358.1647768 428.50658512 C350.52171319 428.50934683 342.87865083 428.51358404 335.23558807 428.51808929 C314.07945452 428.53028196 292.92332205 428.54061691 271.76718521 428.54396439 C270.39927987 428.54418602 269.03137452 428.5444078 267.66346918 428.54462974 C266.29227065 428.54485038 264.92107212 428.54507086 263.54987359 428.54529119 C260.79903682 428.54573374 258.04820005 428.54618085 255.29736328 428.54663086 C254.27429325 428.54679495 254.27429325 428.54679495 253.23055513 428.54696235 C231.11303456 428.55059333 208.99554677 428.56651543 186.87803875 428.58982122 C163.49183134 428.61441882 140.10564788 428.62813045 116.71942496 428.6293323 C103.97205293 428.63024957 91.22472381 428.6360149 78.47736359 428.65415192 C67.62391619 428.66953974 56.77052498 428.67468111 45.91706875 428.66641381 C40.37879796 428.66250276 34.84064034 428.66345922 29.30238342 428.67747116 C24.2318869 428.69018246 19.16158893 428.68903688 14.0910928 428.67688045 C12.2573104 428.67491866 10.42351408 428.67802406 8.58975127 428.68672481 C-4.31378388 428.74407 -14.81159339 427.92405621 -25.14111328 419.30639648 C-33.97772482 410.00773989 -34.58202514 400.28496887 -34.52879333 388.06130981 C-34.53296915 386.50235386 -34.53844802 384.94340095 -34.54511315 383.38445365 C-34.55955413 379.11197885 -34.55532725 374.83969718 -34.54794633 370.56721187 C-34.54321362 365.95496614 -34.55572545 361.34276212 -34.56596375 356.73052979 C-34.5831552 347.69910356 -34.58399101 338.6677469 -34.57875084 329.63630857 C-34.57470846 322.29485359 -34.57615352 314.95341917 -34.5814991 307.61196518 C-34.58224752 306.56684978 -34.58299594 305.52173438 -34.58376705 304.44494881 C-34.58529853 302.32175239 -34.58683688 300.19855598 -34.58838201 298.07535957 C-34.60210838 278.16663247 -34.59666846 258.25794467 -34.5851968 238.34921847 C-34.57526489 220.1402386 -34.58820414 201.93136035 -34.61213099 183.72239615 C-34.63652035 165.02037879 -34.64613022 146.31840875 -34.63947827 127.6163758 C-34.63598561 117.11863174 -34.63822118 106.62096583 -34.65572929 96.1232338 C-34.67044923 87.18648513 -34.67108942 78.24986965 -34.65365838 69.3131236 C-34.64514422 64.75489594 -34.64300901 60.19690622 -34.65830994 55.63869095 C-34.67215462 51.46254337 -34.66739682 47.28683762 -34.6480707 43.11071561 C-34.64430969 41.60338566 -34.64723562 40.09602033 -34.65768235 38.58872189 C-34.7321511 27.01739318 -33.31808641 17.73996543 -25.12939453 9.06030273 C-17.95105009 2.72812856 -9.49503468 0.08329116 0 0 Z "
    fill="#000101"
    transform="translate(34.14111328125,41.693603515625)"
  />

  <path
    d="M0 0 C0.81206923 -0.00508782 1.62413846 -0.01017564 2.46081585 -0.01541764 C5.1975032 -0.03118508 7.93416407 -0.03967856 10.67088318 -0.04811096 C12.62699554 -0.05764614 14.58310619 -0.06753715 16.53921509 -0.07775879 C22.9781849 -0.10918888 29.41716779 -0.12941863 35.85618591 -0.14796448 C36.9512844 -0.1512618 38.04638288 -0.15455912 39.17466617 -0.15795636 C49.50160511 -0.18874411 59.82854692 -0.21545468 70.15551853 -0.23237514 C83.36803549 -0.25427606 96.58014573 -0.29622629 109.79250008 -0.36581272 C119.08007541 -0.41306725 128.36754107 -0.43731087 137.65523285 -0.44457203 C143.20290321 -0.44952698 148.75011557 -0.4645929 154.29765511 -0.50431633 C159.52051054 -0.54122026 164.74264713 -0.5495798 169.9656086 -0.5363102 C171.87918983 -0.53636409 173.79280321 -0.54663641 175.7062645 -0.56806183 C193.17201773 -0.75312004 193.17201773 -0.75312004 199.72477627 4.6361227 C204.43540808 9.41573862 207.53756001 14.4546804 207.78977966 21.28562927 C207.26003445 28.96693488 204.71167762 34.67623132 199.22727966 40.16062927 C192.88206453 44.71579518 187.0395659 45.3101905 179.42874146 45.30107117 C178.65015536 45.30404229 177.87156926 45.30701341 177.06938964 45.31007457 C174.46404972 45.31873666 171.85875588 45.3202677 169.25340271 45.32176208 C167.38389488 45.32639198 165.51438799 45.33141687 163.6448822 45.33680725 C158.56835711 45.34991572 153.49184523 45.35637304 148.41530585 45.36081791 C145.24274821 45.36375081 142.07019416 45.367856 138.89763832 45.37232208 C128.9685657 45.38599219 119.03950131 45.39566154 109.11041993 45.39952397 C97.65380541 45.40400533 86.19731015 45.42155889 74.74073189 45.45052457 C65.88112891 45.47214595 57.02155947 45.48222848 48.16193038 45.48356509 C42.87214528 45.48461268 37.58247237 45.49051088 32.29271507 45.5083847 C27.3162004 45.52487348 22.33988218 45.52701693 17.36334991 45.5182457 C15.53967322 45.51747579 13.71598592 45.52181192 11.89233589 45.53170395 C9.39691421 45.54444322 6.90218628 45.53853619 4.4067688 45.52812195 C3.690311 45.53617835 2.97385321 45.54423476 2.23568457 45.5525353 C-4.64771002 45.48564902 -11.23018868 43.52158298 -16.38600159 38.78953552 C-21.37906222 32.9244474 -23.66144507 26.51173747 -23.24928284 18.83250427 C-22.06773583 12.20809317 -18.86800517 7.71172657 -13.58522034 3.66062927 C-8.8966089 0.43328679 -5.64747028 0.0086963 0 0 Z "
    fill="#050606"
    transform="translate(263.77272033691406,75.83937072753906)"
  />

  <path
    d="M0 0 C9.30052852 0.04115278 17.37074844 2.91359227 24.3984375 9.1171875 C31.26476406 16.49402161 35.15030908 23.87636732 35.125 34 C35.12886719 35.546875 35.12886719 35.546875 35.1328125 37.125 C35.01732711 39.62491901 34.67387065 41.61172313 34 44 C33.33935111 47.20352386 33.32301778 49.78867504 34 53 C35.41538962 55.15153523 35.41538962 55.15153523 37.45166016 57.20898438 C38.27434387 58.08466064 39.09702759 58.96033691 39.94464111 59.86254883 C40.96059175 60.91079692 41.97928052 61.95639495 43 63 C43.59171745 63.60552704 44.18343491 64.21105408 44.79308319 64.83493042 C49.95966561 70.10226658 55.1775957 75.31778875 60.3984375 80.53125 C62.08247218 82.21595929 63.76635847 83.90081691 65.45010376 85.58581543 C68.96006918 89.0972476 72.47181818 92.60688339 75.98486328 96.11523438 C80.49084212 100.61548562 84.99227495 105.12025327 89.49240685 109.6263504 C92.95977505 113.09732562 96.42951328 116.56592375 99.89998245 120.03379822 C101.56173757 121.69488605 103.22274961 123.35671761 104.88300705 125.01930237 C107.1948251 127.33365254 109.50981125 129.64478589 111.82568359 131.95507812 C112.85427994 132.98671082 112.85427994 132.98671082 113.90365601 134.03918457 C114.53424927 134.66695801 115.16484253 135.29473145 115.81454468 135.94152832 C116.36054007 136.48714668 116.90653545 137.03276505 117.46907616 137.5949173 C120.29135648 140.23157106 120.29135648 140.23157106 123.9375 141.01171875 C124.9584375 140.85123047 124.9584375 140.85123047 126 140.6875 C126.680625 140.58824219 127.36125 140.48898437 128.0625 140.38671875 C130.20446315 140.00096755 130.20446315 140.00096755 133 139 C143.20567563 137.86603604 151.99278881 140.10610412 160.609375 145.69140625 C167.53861479 151.26037582 171.22281364 158.66844093 174 167 C174.12781786 169.67394964 174.04391871 172.32095857 174 175 C173.36384766 174.41992188 173.36384766 174.41992188 172.71484375 173.828125 C165.76935021 167.66113733 159.30371145 163.52476334 149.76171875 163.6640625 C143.98869076 164.36629787 139.09982384 166.81073133 135.07421875 171.0078125 C129.69700794 177.96353627 129.10209279 184.31350438 130 193 C132.06818373 198.80979413 135.92246 203.45645542 140 208 C132.64300763 208.65395488 125.84841617 206.61189758 119.7265625 202.45703125 C113.1407401 196.94361288 106.58039705 189.67879057 105 181 C104.61757329 174.14464712 104.37676481 167.22316699 105.9375 160.5 C106.00794393 156.55514005 105.7972411 156.32668884 103.28125 153.59375 C102.31916626 152.54477539 102.31916626 152.54477539 101.33764648 151.47460938 C100.18051147 150.24967773 100.18051147 150.24967773 99 149 C98.55447784 148.52280518 98.10895569 148.04561035 97.64993286 147.55395508 C94.54935711 144.23516565 91.40671495 140.9614966 88.23022461 137.71533203 C87.11209198 136.56528082 86.00210355 135.40725874 84.90014648 134.24169922 C83.28707891 132.53733492 81.64918707 130.86071703 80.00390625 129.1875 C79.52031143 128.66575195 79.03671661 128.14400391 78.53846741 127.60644531 C75.73534495 124.81872934 73.62956639 123.6465717 69.74975586 123.48828125 C68.51233643 123.65714844 67.27491699 123.82601562 66 124 C63.59167906 127.61248141 63.27639145 128.73874968 64 133 C65.92393422 136.03779087 68.47165322 138.4600553 71 141 C71.59522461 141.60215332 72.19044922 142.20430664 72.80371094 142.82470703 C77.17518457 147.24418367 81.5768399 151.63228935 86 156 C82.12608206 159.87391794 76.65795595 159.18876298 71.4375 159.25 C55.61412361 159.2409622 42.57872625 153.78150247 31 143 C18.71358487 130.232622 14.80716995 115.84748534 14.734375 98.61328125 C15.0183898 94.74984467 15.81280141 91.6699512 17 88 C20.94069102 91.25107009 24.627137 94.57365616 28.15625 98.26953125 C28.86910156 99.01267578 29.58195312 99.75582031 30.31640625 100.52148438 C31.78191928 102.05909331 33.23757572 103.60615259 34.68359375 105.16210938 C39.05923411 109.85735262 39.05923411 109.85735262 44.87890625 112.109375 C48.04405598 112.26399701 48.04405598 112.26399701 50.4375 110.4375 C52.5255694 107.18011174 52.62716286 105.83975538 52 102 C49.93975008 99.08619258 47.41858958 96.69765515 44.8515625 94.23046875 C44.12383636 93.50886063 43.39611023 92.7872525 42.64633179 92.04377747 C40.31957639 89.74395564 37.9725341 87.4660879 35.625 85.1875 C34.05077064 83.63479331 32.47783756 82.08077119 30.90625 80.52539062 C28.03044468 77.69173229 25.15315077 74.85981058 22.25634766 72.04760742 C21.67454742 71.48168381 21.09274719 70.91576019 20.49331665 70.33268738 C19.02031487 68.90103986 19.02031487 68.90103986 17 68 C15.205625 68.2165625 15.205625 68.2165625 13.375 68.4375 C0.79570345 69.89596917 -9.10199247 70.37684193 -20 63 C-22.875 60.625 -22.875 60.625 -25 58 C-25.50015625 57.41476562 -26.0003125 56.82953125 -26.515625 56.2265625 C-32.02137558 49.46464553 -34.55685166 42.72400937 -34 34 C-33.5875 34.38671875 -33.175 34.7734375 -32.75 35.171875 C-24.95224374 42.2037802 -19.06741863 44.78170336 -8.34765625 44.44921875 C-2.09943852 43.61077646 1.71293272 40.60838905 5.875 36.0625 C10.10299172 29.96921782 10.69654808 24.24634693 10 17 C8.81024649 10.97552086 5.95759074 7.47984268 1.42578125 3.4453125 C0 2 0 2 0 0 Z "
    fill="#E2E2E3"
    transform="translate(267,201)"
  />

  <path
    d="M0 0 C1.0374939 0.00303635 1.0374939 0.00303635 2.09594727 0.00613403 C2.80243408 0.00517731 3.5089209 0.00422058 4.23681641 0.00323486 C5.7331552 0.00255321 7.22949694 0.00440649 8.72583008 0.00857544 C11.02374884 0.01392396 13.32147213 0.00863003 15.61938477 0.00222778 C17.06990603 0.00288857 18.52042718 0.00416974 19.97094727 0.00613403 C20.66260986 0.0041098 21.35427246 0.00208557 22.06689453 0 C26.91849503 0.0239943 26.91849503 0.0239943 28.03344727 1.13894653 C28.1283439 3.04742323 28.21730857 4.95643311 28.27197266 6.8664856 C28.36114006 17.22803001 28.36114006 17.22803001 33.03344727 26.13894653 C39.66249214 32.11875505 52.08247079 37.39438044 61.03344727 37.70144653 C69.89149434 36.89317036 73.93048955 32.55767735 79.70141602 26.12332153 C82.03344727 24.13894653 82.03344727 24.13894653 83.86547852 24.23049927 C88.51682527 26.17956022 91.85481556 30.44295633 95.36230469 33.96682739 C96.84464574 35.45014415 98.34705262 36.91083573 99.85180664 38.37136841 C100.78444336 39.301427 101.71708008 40.2314856 102.67797852 41.18972778 C103.5375415 42.04220093 104.39710449 42.89467407 105.28271484 43.77297974 C107.03344727 46.13894653 107.03344727 46.13894653 106.91235352 48.3298645 C105.74219841 50.73843376 104.19744016 52.15096785 102.22094727 53.95144653 C97.32884958 58.72058306 93.85161912 62.59728069 93.70922852 69.75222778 C93.80117679 75.40549696 95.42765546 79.84197592 97.72094727 84.95144653 C98.06061523 85.77064575 98.4002832 86.58984497 98.75024414 87.43386841 C101.59923486 94.01051054 105.29289089 99.14949074 112.03344727 102.13894653 C115.11410321 102.59507014 118.17278955 102.69482081 121.28344727 102.76394653 C129.92773987 103.03323914 129.92773987 103.03323914 131.03344727 104.13894653 C131.1466201 106.49122972 131.19761264 108.81306601 131.20141602 111.16629028 C131.20474442 111.87040543 131.20807281 112.57452057 131.21150208 113.29997253 C131.21657382 114.79210759 131.21891032 116.28425403 131.21875 117.77639771 C131.22093485 120.06345261 131.23908275 122.35002406 131.25805664 124.63699341 C131.2609908 126.08425738 131.26297545 127.53152365 131.26391602 128.97879028 C131.27110153 129.6652916 131.27828705 130.35179291 131.28569031 131.05909729 C131.26227096 135.91012284 131.26227096 135.91012284 129.03344727 138.13894653 C125.29944716 138.39928519 121.60286493 138.50543416 117.86157227 138.52957153 C111.40238477 138.72079748 107.68432697 140.48806683 103.03344727 145.13894653 C101.11547852 144.96707153 101.11547852 144.96707153 98.84594727 144.38894653 C97.63551758 144.0892395 97.63551758 144.0892395 96.40063477 143.78347778 C94.41604776 143.24311994 92.44198753 142.66430065 90.47094727 142.07644653 C86.62946067 141.02876837 82.98911367 140.55533247 79.03344727 140.13894653 C79.19071289 139.0780481 79.34797852 138.01714966 79.51000977 136.92410278 C82.32202404 114.15279146 79.86957832 94.87848251 65.83032227 76.20925903 C61.42202849 70.68473923 61.42202849 70.68473923 55.22094727 67.76394653 C52.00954765 67.92051028 52.00954765 67.92051028 49.53344727 69.63894653 C47.9149711 72.33640681 47.46400053 74.00835114 48.09985352 77.11550903 C49.34252513 79.80883077 51.09290728 81.51338231 53.15844727 83.63894653 C62.92182929 93.77664353 66.21241659 105.79661218 66.22094727 119.51394653 C66.23319336 120.54261841 66.24543945 121.57129028 66.25805664 122.63113403 C66.26816406 127.86003763 66.15637054 132.25538391 64.03344727 137.13894653 C59.29153992 133.18040035 54.80847893 129.05525514 50.45556641 124.67459106 C49.84006927 124.05923996 49.22457214 123.44388885 48.59042358 122.80989075 C46.58076729 120.79954443 44.57466453 118.78569242 42.56860352 116.77175903 C41.16635183 115.36763992 39.76387745 113.96374318 38.3611908 112.56005859 C34.68803459 108.88310274 31.01789272 105.20315262 27.34838867 101.52255249 C23.59614959 97.76004417 19.84104234 94.00040075 16.08618164 90.24050903 C8.7324739 82.87610904 1.38195018 75.50853986 -5.96655273 68.13894653 C-1.41514189 65.10467264 2.51125376 65.01628192 7.88500977 65.14675903 C9.53243164 65.17189575 9.53243164 65.17189575 11.21313477 65.19754028 C13.51798262 65.24196479 15.82269419 65.29410158 18.12719727 65.35379028 C19.77075195 65.37505981 19.77075195 65.37505981 21.44750977 65.39675903 C22.44733887 65.41883423 23.44716797 65.44090942 24.47729492 65.46365356 C27.05369219 65.3406676 27.05369219 65.3406676 28.85913086 63.84158325 C30.82430376 60.99228682 30.39094071 58.475552 30.03344727 55.13894653 C29.03344727 53.13894653 29.03344727 53.13894653 27.03344727 52.13894653 C21.44678451 50.84971667 15.85724071 50.99105981 10.15844727 51.01394653 C8.7256543 51.00814575 8.7256543 51.00814575 7.26391602 51.00222778 C1.76009932 51.0097776 -3.52218134 51.32808271 -8.96655273 52.13894653 C-9.02262695 51.23015747 -9.02262695 51.23015747 -9.07983398 50.30300903 C-9.51817405 44.7163219 -10.51234503 39.6933642 -12.24780273 34.36550903 C-12.60358398 33.2633606 -12.60358398 33.2633606 -12.96655273 32.13894653 C-13.21018555 31.43254028 -13.45381836 30.72613403 -13.70483398 29.99832153 C-13.79120117 29.38472778 -13.87756836 28.77113403 -13.96655273 28.13894653 C-12.32225444 26.45020775 -10.65271056 24.78589139 -8.96655273 23.13894653 C-6.92604211 18.37540966 -6.59419955 13.92330876 -6.40405273 8.82644653 C-6.03785299 0.02986108 -6.03785299 0.02986108 0 0 Z "
    fill="#837C85"
    transform="translate(325.966552734375,184.86105346679688)"
  />

  <path
    d="M0 0 C1.155 0.45375 2.31 0.9075 3.5 1.375 C10.44507999 3.727186 17.7444119 4.24328222 25 5 C24.855625 5.53625 24.71125 6.0725 24.5625 6.625 C20.33707553 24.46568108 22.8998567 43.89849002 32.04589844 59.82080078 C41.85486487 75.62896237 55.42870379 85.96541342 73 92 C73.69738281 92.24492187 74.39476562 92.48984375 75.11328125 92.7421875 C86.61671908 96.00335628 100.53521617 94.51775645 112 92 C112.10957031 92.96679688 112.21914063 93.93359375 112.33203125 94.9296875 C112.49058594 96.23164063 112.64914062 97.53359375 112.8125 98.875 C112.93637085 99.89968384 112.93637085 99.89968384 113.06274414 100.94506836 C113.60338539 105.05036655 114.47035816 108.66801374 115.9375 112.5625 C117.2482005 116.47513564 117.2482005 116.47513564 116.1484375 118.80078125 C114.8125 120.375 114.8125 120.375 112 123 C109.30957063 126.82372668 109.59157674 131.18169472 109.4375 135.6875 C109.12115385 143.87884615 109.12115385 143.87884615 108 145 C105.63601532 145.1007812 103.30188689 145.13973215 100.9375 145.1328125 C100.23101318 145.13376923 99.52452637 145.13472595 98.79663086 145.13571167 C97.30029207 145.13639333 95.80395033 145.13454005 94.30761719 145.13037109 C92.00969843 145.12502257 89.71197514 145.13031651 87.4140625 145.13671875 C85.96354123 145.13605797 84.51302009 145.1347768 83.0625 145.1328125 C82.0250061 145.13584885 82.0250061 145.13584885 80.96655273 145.13894653 C76.11495224 145.11495224 76.11495224 145.11495224 75 144 C74.90512618 142.21004735 74.8160651 140.41954095 74.76074219 138.62792969 C74.49128699 130.5694229 74.17008331 123.99297553 67.9765625 118.0625 C63.93569564 115.26252926 59.68186694 113.55139689 55.125 111.75 C54.25230469 111.38648438 53.37960937 111.02296875 52.48046875 110.6484375 C46.81705374 108.3830715 41.98983693 106.94733085 35.8828125 108.55859375 C30.57260735 111.21369632 26.99899872 114.83386656 23.078125 119.26953125 C21 121 21 121 19.18383789 120.89257812 C14.51552978 118.98454744 11.17670349 114.69405298 7.67114258 111.17211914 C6.18880152 109.68880238 4.68639464 108.2281108 3.18164062 106.76757812 C2.24900391 105.83751953 1.31636719 104.90746094 0.35546875 103.94921875 C-0.50409424 103.09674561 -1.36365723 102.24427246 -2.24926758 101.3659668 C-4 99 -4 99 -3.89477539 96.82275391 C-2.61220602 94.21002187 -0.7695651 92.64120574 1.375 90.6875 C6.38130818 85.81649744 8.68146829 82.57070116 9.31640625 75.453125 C9.24210435 69.93001704 7.07346486 65.29780091 4.875 60.3125 C4.49601562 59.38888672 4.11703125 58.46527344 3.7265625 57.51367188 C1.29667671 51.88848627 -0.86855717 48.41400871 -6 45 C-10.51639823 43.49453392 -15.19985745 43.64249038 -19.92773438 43.48242188 C-25.78544586 43.21455414 -25.78544586 43.21455414 -28 41 C-28.18713986 38.57432881 -28.25585278 36.26502333 -28.23046875 33.83984375 C-28.23001053 33.13477188 -28.22955231 32.42970001 -28.2290802 31.70326233 C-28.22605863 30.21288368 -28.2181751 28.72250816 -28.20581055 27.23217773 C-28.18754456 24.94308367 -28.18530091 22.65439373 -28.18554688 20.36523438 C-28.18063206 18.91926731 -28.1748039 17.47330301 -28.16796875 16.02734375 C-28.16685593 15.33881821 -28.1657431 14.65029266 -28.16459656 13.94090271 C-28.11605499 9.11605499 -28.11605499 9.11605499 -27 8 C-23.75054664 7.79548895 -20.50845079 7.65422341 -17.25390625 7.5703125 C-11.11160048 7.29681465 -6.26308574 6.03097439 -1.5625 1.8125 C-1.046875 1.214375 -0.53125 0.61625 0 0 Z "
    fill="#847D86"
    transform="translate(245,280)"
  />

  <path
    d="M0 0 C0.78463749 -0.00623996 1.56927498 -0.01247993 2.37768936 -0.01890898 C5.00958463 -0.03487699 7.64055863 -0.02222024 10.27246094 -0.00964355 C12.15816794 -0.01506299 14.04387071 -0.02218465 15.92956543 -0.03088379 C21.05350598 -0.04914126 26.17712489 -0.04203958 31.30107117 -0.02936745 C36.65905637 -0.01925235 42.01701373 -0.02862898 47.375 -0.03491211 C56.37342278 -0.04219286 65.37171432 -0.03258957 74.37011719 -0.0135498 C84.77894229 0.00821971 95.18745401 0.00116865 105.59627151 -0.02085543 C114.52715363 -0.03899722 123.45794132 -0.04157371 132.38883591 -0.03110075 C137.72546273 -0.02485912 143.06194217 -0.02404861 148.39855957 -0.0372467 C153.41535641 -0.0487868 158.43174855 -0.04081311 163.44850159 -0.01766968 C165.29158353 -0.01237274 167.13469943 -0.01391314 168.97776794 -0.02272034 C171.49019841 -0.03362079 174.00132493 -0.01997986 176.51367188 0 C177.2463541 -0.00892289 177.97903633 -0.01784577 178.73392105 -0.02703905 C182.1340988 0.02555879 183.95833232 0.2834821 186.70953369 2.35218048 C188.25683594 4.50793457 188.25683594 4.50793457 188.75683594 7.50793457 C188.15129149 11.14120125 187.10094444 12.24937782 184.25683594 14.50793457 C181.26176666 16.00546921 178.19051735 15.64868295 174.90603638 15.64164734 C173.75614473 15.64504567 173.75614473 15.64504567 172.58302295 15.64851266 C170.00048329 15.65486993 167.41799587 15.65402219 164.83544922 15.65319824 C162.9894504 15.65618867 161.1434522 15.65959093 159.29745483 15.66337585 C154.27266822 15.6722322 149.24789862 15.67455466 144.22310495 15.67519164 C140.03311637 15.6761395 135.84313177 15.6798164 131.65314472 15.68336374 C121.76990042 15.69151461 111.88666524 15.69394741 102.00341797 15.6932373 C91.79807685 15.69263643 81.59278857 15.70318874 71.38746083 15.71898097 C62.63498628 15.73204386 53.88252904 15.73742172 45.13004482 15.7367819 C39.89849739 15.73652653 34.66699689 15.73939904 29.43545914 15.74995995 C24.51566025 15.75961983 19.59595335 15.75973464 14.67615128 15.75244331 C12.86853908 15.75139482 11.06092123 15.75377598 9.25331879 15.75980377 C6.78930425 15.76748942 4.32561013 15.76290175 1.86160278 15.75517273 C0.78387877 15.76288807 0.78387877 15.76288807 -0.31561744 15.77075928 C-3.93789786 15.74558108 -6.74004903 15.64152819 -9.74316406 13.50793457 C-12.07065751 10.0166944 -12.24615722 8.61571206 -11.74316406 4.50793457 C-8.53371901 0.00559137 -5.16420776 -0.06289171 0 0 Z "
    fill="#F1F0F1"
    transform="translate(267.7431640625,90.4920654296875)"
  />

  <path
    d="M0 0 C2.97 0.99 5.94 1.98 9 3 C8.97643433 4.41140259 8.97643433 4.41140259 8.95239258 5.85131836 C8.07737086 30.16826428 8.07737086 30.16826428 12 54 C12.22574707 54.77375977 12.45149414 55.54751953 12.68408203 56.34472656 C18.11010374 74.30552312 26.18763512 89.48575204 38 104 C38.99 105.485 38.99 105.485 40 107 C39.38253906 107.25652344 38.76507813 107.51304687 38.12890625 107.77734375 C31.75961975 110.65661025 27.59809125 114.03687683 23.0078125 119.3046875 C21 121 21 121 19.18823242 120.89038086 C14.51609837 118.98931282 11.17701766 114.69436862 7.67114258 111.17211914 C6.18880152 109.68880238 4.68639464 108.2281108 3.18164062 106.76757812 C2.24900391 105.83751953 1.31636719 104.90746094 0.35546875 103.94921875 C-0.50409424 103.09674561 -1.36365723 102.24427246 -2.24926758 101.3659668 C-4 99 -4 99 -3.89477539 96.82275391 C-2.61220602 94.21002187 -0.7695651 92.64120574 1.375 90.6875 C6.38130818 85.81649744 8.68146829 82.57070116 9.31640625 75.453125 C9.24210435 69.93001704 7.07346486 65.29780091 4.875 60.3125 C4.49601562 59.38888672 4.11703125 58.46527344 3.7265625 57.51367188 C1.29667671 51.88848627 -0.86855717 48.41400871 -6 45 C-10.51639823 43.49453392 -15.19985745 43.64249038 -19.92773438 43.48242188 C-25.78544586 43.21455414 -25.78544586 43.21455414 -28 41 C-28.18713986 38.57432881 -28.25585278 36.26502333 -28.23046875 33.83984375 C-28.23001053 33.13477188 -28.22955231 32.42970001 -28.2290802 31.70326233 C-28.22605863 30.21288368 -28.2181751 28.72250816 -28.20581055 27.23217773 C-28.18754456 24.94308367 -28.18530091 22.65439373 -28.18554688 20.36523438 C-28.18063206 18.91926731 -28.1748039 17.47330301 -28.16796875 16.02734375 C-28.16685593 15.33881821 -28.1657431 14.65029266 -28.16459656 13.94090271 C-28.11605499 9.11605499 -28.11605499 9.11605499 -27 8 C-23.75054664 7.79548895 -20.50845079 7.65422341 -17.25390625 7.5703125 C-11.11160048 7.29681465 -6.26308574 6.03097439 -1.5625 1.8125 C-1.046875 1.214375 -0.53125 0.61625 0 0 Z "
    fill="#6E6470"
    transform="translate(245,280)"
  />

  <path
    d="M0 0 C5.83755814 0.46085985 11.15738374 2.76868591 16 6 C17.359375 7.73046875 17.359375 7.73046875 18 10 C17.79503906 11.13566406 17.59007812 12.27132813 17.37890625 13.44140625 C16.62972112 16.98997095 16.62972112 16.98997095 18.58984375 19.52734375 C19.36457031 20.32269531 20.13929688 21.11804688 20.9375 21.9375 C24.97766454 26.48979808 27.82726467 30.97237312 30.5 36.4375 C30.83765381 37.12384521 31.17530762 37.81019043 31.52319336 38.51733398 C34.97292732 45.7365681 35.18258367 51.46953729 35.1875 59.375 C35.19974609 60.40367187 35.21199219 61.43234375 35.22460938 62.4921875 C35.23471679 67.7210911 35.12292327 72.11643737 33 77 C28.25809265 73.04145382 23.77503166 68.9163086 19.42211914 64.53564453 C18.80662201 63.92029343 18.19112488 63.30494232 17.55697632 62.67094421 C15.54732002 60.6605979 13.54121726 58.64674589 11.53515625 56.6328125 C10.13290456 55.22869339 8.73043019 53.82479664 7.32774353 52.42111206 C3.65458732 48.74415621 -0.01555454 45.06420609 -3.68505859 41.38360596 C-7.43729767 37.62109763 -11.19240493 33.86145421 -14.94726562 30.1015625 C-22.30097336 22.73716251 -29.65149708 15.36959333 -37 8 C-32.43839334 4.95892889 -28.56555563 4.87780924 -23.18359375 5.078125 C-22.08982422 5.10390625 -20.99605469 5.1296875 -19.86914062 5.15625 C-17.57699787 5.21886972 -15.28522877 5.29705816 -12.99414062 5.390625 C-6.5072581 5.73584042 -6.5072581 5.73584042 -1.22265625 2.484375 C-0.81917969 1.66453125 -0.41570312 0.8446875 0 0 Z "
    fill="#F7F6F7"
    transform="translate(357,245)"
  />

  <path
    d="M0 0 C3.94069102 3.25107009 7.627137 6.57365616 11.15625 10.26953125 C12.22552734 11.38424805 12.22552734 11.38424805 13.31640625 12.52148438 C14.78191928 14.05909331 16.23757572 15.60615259 17.68359375 17.16210938 C21.05616398 20.64750519 23.09589528 22.74732846 27.84375 24.07421875 C31.02771572 24.15400498 31.02771572 24.15400498 34 23 C36.19693068 24.95249197 38.35311342 26.93120994 40.5 28.9375 C41.43005859 29.75444336 41.43005859 29.75444336 42.37890625 30.58789062 C46.84056432 34.82891726 46.84056432 34.82891726 47.31616211 38.32226562 C47.24609375 40.71484375 47.24609375 40.71484375 46.97827148 42.92553711 C47.01479269 46.41228665 49.09717209 48.15194881 51.4453125 50.5390625 C52.28835938 51.35117187 53.13140625 52.16328125 54 53 C55.27069327 54.27619708 56.53867535 55.55509651 57.8046875 56.8359375 C61.51404124 60.58014779 65.24976331 64.29677688 69 68 C65.12608206 71.87391794 59.65795595 71.18876298 54.4375 71.25 C38.61412361 71.2409622 25.57872625 65.78150247 14 55 C1.71358487 42.232622 -2.19283005 27.84748534 -2.265625 10.61328125 C-1.9816102 6.74984467 -1.18719859 3.6699512 0 0 Z "
    fill="#F5F4F5"
    transform="translate(284,289)"
  />

  <path
    d="M0 0 C1.06831558 -0.0112793 2.13663116 -0.02255859 3.23731995 -0.03417969 C4.98763771 -0.0220343 4.98763771 -0.0220343 6.77331543 -0.00964355 C8.00617783 -0.01665283 9.23904022 -0.02366211 10.50926208 -0.03088379 C13.88763011 -0.04547371 17.26501838 -0.04205322 20.64333153 -0.02936745 C24.17955207 -0.01923622 27.71573092 -0.02863345 31.25195312 -0.03491211 C37.19030265 -0.0421882 43.12845315 -0.03260199 49.06677246 -0.0135498 C55.93110049 0.00821909 62.7949533 0.00116768 69.65926981 -0.02085543 C75.55409769 -0.03901069 81.44878255 -0.04156721 87.34362936 -0.03110075 C90.86381412 -0.02486642 94.38377554 -0.02402825 97.90394592 -0.0372467 C101.82803808 -0.05095279 105.75159846 -0.03195329 109.67565918 -0.00964355 C110.84253769 -0.01774048 112.0094162 -0.0258374 113.21165466 -0.03417969 C114.27997025 -0.02290039 115.34828583 -0.01162109 116.44897461 0 C117.37663383 0.0015081 118.30429306 0.0030162 119.26006317 0.00457001 C122.4982614 0.66597979 123.69624987 1.94879044 125.7244873 4.50793457 C126.46061413 8.35215243 126.12941646 9.90739197 123.93701172 13.15890503 C119.08231349 16.70870826 114.63359034 16.20690268 108.76159668 16.15490723 C107.54970169 16.16366882 106.3378067 16.17243042 105.08918762 16.18145752 C101.77258783 16.19967591 98.45755063 16.19543305 95.14103889 16.17956209 C91.66667746 16.16688185 88.1923817 16.17864907 84.71801758 16.18649292 C78.88395228 16.1955834 73.05020371 16.18361775 67.21618652 16.15979004 C60.47616173 16.13257943 53.7368932 16.14139405 46.99688673 16.16892207 C41.20475791 16.19162966 35.41285646 16.19480531 29.6206975 16.18172872 C26.16360615 16.17394308 22.70687001 16.17286758 19.24980164 16.18941116 C15.39536257 16.20656872 11.54176704 16.18277317 7.68737793 16.15490723 C6.54436722 16.16502838 5.40135651 16.17514954 4.22370911 16.18557739 C-3.49023666 16.08213615 -3.49023666 16.08213615 -7.48803711 13.15890503 C-9.68044185 9.90739197 -10.01163952 8.35215243 -9.2755127 4.50793457 C-6.40181079 0.88201916 -4.58672167 0.00745667 0 0 Z "
    fill="#050505"
    transform="translate(51.2755126953125,312.4920654296875)"
  />

  <path
    d="M0 0 C1.06831558 -0.0112793 2.13663116 -0.02255859 3.23731995 -0.03417969 C4.98763771 -0.0220343 4.98763771 -0.0220343 6.77331543 -0.00964355 C8.00617783 -0.01665283 9.23904022 -0.02366211 10.50926208 -0.03088379 C13.88763011 -0.04547371 17.26501838 -0.04205322 20.64333153 -0.02936745 C24.17955207 -0.01923622 27.71573092 -0.02863345 31.25195312 -0.03491211 C37.19030265 -0.0421882 43.12845315 -0.03260199 49.06677246 -0.0135498 C55.93110049 0.00821909 62.7949533 0.00116768 69.65926981 -0.02085543 C75.55409769 -0.03901069 81.44878255 -0.04156721 87.34362936 -0.03110075 C90.86381412 -0.02486642 94.38377554 -0.02402825 97.90394592 -0.0372467 C101.82803808 -0.05095279 105.75159846 -0.03195329 109.67565918 -0.00964355 C110.84253769 -0.01774048 112.0094162 -0.0258374 113.21165466 -0.03417969 C114.27997025 -0.02290039 115.34828583 -0.01162109 116.44897461 0 C117.37663383 0.0015081 118.30429306 0.0030162 119.26006317 0.00457001 C122.4982614 0.66597979 123.69624987 1.94879044 125.7244873 4.50793457 C126.46061413 8.35215243 126.12941646 9.90739197 123.93701172 13.15890503 C119.08231349 16.70870826 114.63359034 16.20690268 108.76159668 16.15490723 C107.54970169 16.16366882 106.3378067 16.17243042 105.08918762 16.18145752 C101.77258783 16.19967591 98.45755063 16.19543305 95.14103889 16.17956209 C91.66667746 16.16688185 88.1923817 16.17864907 84.71801758 16.18649292 C78.88395228 16.1955834 73.05020371 16.18361775 67.21618652 16.15979004 C60.47616173 16.13257943 53.7368932 16.14139405 46.99688673 16.16892207 C41.20475791 16.19162966 35.41285646 16.19480531 29.6206975 16.18172872 C26.16360615 16.17394308 22.70687001 16.17286758 19.24980164 16.18941116 C15.39536257 16.20656872 11.54176704 16.18277317 7.68737793 16.15490723 C6.54436722 16.16502838 5.40135651 16.17514954 4.22370911 16.18557739 C-3.49023666 16.08213615 -3.49023666 16.08213615 -7.48803711 13.15890503 C-9.68044185 9.90739197 -10.01163952 8.35215243 -9.2755127 4.50793457 C-6.40181079 0.88201916 -4.58672167 0.00745667 0 0 Z "
    fill="#050505"
    transform="translate(51.2755126953125,252.4920654296875)"
  />

  <path
    d="M0 0 C4.97725721 2.97793613 8.40745897 7.07491608 10.9375 12.25 C12.52227874 20.33237155 12.17368043 27.40645812 7.5625 34.4375 C3.55165479 38.78335781 -0.65429205 42.14595812 -6.64453125 42.7734375 C-15.8557925 42.87323448 -20.07244021 42.09196866 -27.125 36.1875 C-31.90855914 30.49894318 -34.15934488 25.41753496 -33.82421875 17.89453125 C-32.56255405 9.87849998 -27.67577113 4.93366733 -21.4375 0.125 C-15.15752973 -3.24172367 -6.41573614 -2.8500674 0 0 Z "
    fill="#020303"
    transform="translate(195.4375,77.5625)"
  />

  <path d="M0 0 C4.97725721 2.97793613 8.40745897 7.07491608 10.9375 12.25 C12.52227874 20.33237155 12.17368043 27.40645812 7.5625 34.4375 C3.65330104 38.67322138 -0.56685384 42.14855914 -6.42578125 42.73828125 C-14.60014295 42.76709804 -19.89276278 42.57942617 -26.1875 37 C-31.56857115 30.87155786 -33.93869383 26.27848378 -33.75390625 18 C-32.94794947 11.4727451 -29.40879395 6.59951354 -24.4375 2.4375 C-17.46330085 -2.93844518 -8.11228578 -3.60372695 0 0 Z " fill="#030303" transform="translate(135.4375,77.5625)"/>

  <path
    d="M0 0 C4.97725721 2.97793613 8.40745897 7.07491608 10.9375 12.25 C12.52227874 20.33237155 12.17368043 27.40645812 7.5625 34.4375 C3.65330104 38.67322138 -0.56685384 42.14855914 -6.42578125 42.73828125 C-14.60014295 42.76709804 -19.89276278 42.57942617 -26.1875 37 C-31.56857115 30.87155786 -33.93869383 26.27848378 -33.75390625 18 C-32.94794947 11.4727451 -29.40879395 6.59951354 -24.4375 2.4375 C-17.46330085 -2.93844518 -8.11228578 -3.60372695 0 0 Z "
    fill="#020303"
    transform="translate(75.4375,77.5625)"
  />

  <path
    d="M0 0 C1.13240616 -0.01051392 1.13240616 -0.01051392 2.28768921 -0.02124023 C4.77940823 -0.03882385 7.26998849 -0.02719698 9.76171875 -0.01367188 C11.49520078 -0.0163667 13.22868134 -0.02024905 14.9621582 -0.02526855 C18.59373376 -0.03116407 22.22491555 -0.02259914 25.85644531 -0.00390625 C30.5106592 0.01888359 35.16395046 0.00576076 39.81813049 -0.01819611 C43.39724678 -0.03265279 46.97614445 -0.02804875 50.55526733 -0.01768494 C52.27127186 -0.01501728 53.98729626 -0.01828881 55.70327759 -0.02760315 C58.10219871 -0.03776695 60.4996275 -0.02227194 62.8984375 0 C63.60712982 -0.00809692 64.31582214 -0.01619385 65.04598999 -0.02453613 C68.40828041 0.03327332 70.17508525 0.30959536 72.88598633 2.36633301 C74.44921875 4.51757812 74.44921875 4.51757812 75.01171875 7.45507812 C74.2479463 11.61339479 72.72468494 12.89283361 69.44921875 15.51757812 C66.74914999 16.01406871 64.6765594 16.2043391 61.984375 16.16455078 C60.88341995 16.17769318 60.88341995 16.17769318 59.76022339 16.19110107 C57.34344686 16.2130382 54.92851259 16.19856459 52.51171875 16.18164062 C50.82690074 16.18501045 49.1420851 16.18986445 47.45727539 16.19613647 C43.92993983 16.20350003 40.40323829 16.19281958 36.87597656 16.16943359 C32.35957881 16.14094539 27.84466663 16.15735224 23.32832336 16.18729591 C19.85035046 16.20538332 16.37272848 16.19960441 12.89474487 16.18665695 C11.22980574 16.18332689 9.56483451 16.18739599 7.89993286 16.19905472 C5.57045392 16.21178822 3.24336392 16.19235628 0.9140625 16.16455078 C0.22923798 16.17467194 -0.45558655 16.18479309 -1.16116333 16.19522095 C-4.9433964 16.11178452 -6.49197563 15.5647011 -9.48217773 13.16854858 C-11.55078125 10.51757812 -11.55078125 10.51757812 -12.11328125 7.45507812 C-10.79999998 0.5968315 -6.19297605 -0.07075575 0 0 Z "
    fill="#050505"
    transform="translate(102.55078125,342.482421875)"
  />

  <path
    d="M0 0 C1.74814517 2.62221776 2.83165747 4.9405341 4.0625 7.8125 C6.80437433 13.39417274 10.45326537 16.3109748 16 19 C19.79394355 20.26929668 23.62519715 20.15281515 27.58026123 20.15821838 C28.34730322 20.16315636 29.11434521 20.16809434 29.9046309 20.17318195 C32.47645749 20.18854772 35.04825913 20.19691508 37.62011719 20.20532227 C39.46305053 20.21490151 41.30598168 20.22491162 43.14891052 20.23532104 C48.15469832 20.26237111 53.16049555 20.28338015 58.16631603 20.30332303 C63.3967225 20.32518192 68.62709989 20.35257109 73.85748291 20.37937927 C83.76317985 20.42930745 93.66889293 20.47424583 103.57462144 20.51740164 C114.85142331 20.56677293 126.12819602 20.62169147 137.40496969 20.67708123 C160.60328592 20.7909032 183.80163012 20.89774179 207 21 C203.60822282 24.62569285 201.71937025 25.93287671 196.63346386 26.13142776 C195.20652416 26.13955308 193.77954669 26.14211701 192.35258484 26.14044189 C191.56612935 26.14341302 190.77967387 26.14638414 189.9693864 26.1494453 C187.32552751 26.15813942 184.68171386 26.15964114 182.0378418 26.16113281 C180.14567976 26.16576047 178.25351865 26.17078506 176.36135864 26.17617798 C171.21460371 26.18930879 166.06786182 26.19574824 160.92109275 26.20018864 C157.70668407 26.2031182 154.49227897 26.20722278 151.27787209 26.21169281 C141.22385572 26.22536939 131.16984752 26.23503532 121.11582249 26.2388947 C109.50408718 26.24337633 97.89246953 26.26092845 86.28077 26.2898953 C77.30913764 26.31150045 68.33753841 26.32159836 59.36588031 26.32293582 C54.00570678 26.32398466 48.64564384 26.32990936 43.28549767 26.34775543 C38.2433544 26.36421596 33.20140507 26.36640141 28.15924454 26.35761642 C26.30892862 26.35684497 24.45860235 26.36120295 22.60831261 26.37107468 C20.08143218 26.3837652 17.55524166 26.37793331 15.02836609 26.36749268 C14.29693648 26.37554908 13.56550686 26.38360548 12.81191272 26.39190602 C6.5437057 26.33137405 2.68441976 24.60955666 -1.8125 20.3125 C-4.37529997 16.43168861 -5.33012275 13.6306407 -5 9 C-4.01764097 5.43981941 -2.6415336 2.6415336 0 0 Z "
    fill="#79BCE1"
    transform="translate(240,100)"
  />

  <path
    d="M0 0 C1.16801147 -0.01260864 2.33602295 -0.02521729 3.53942871 -0.03820801 C4.79678833 -0.03011108 6.05414795 -0.02201416 7.34960938 -0.01367188 C8.64402954 -0.01749878 9.93844971 -0.02132568 11.27209473 -0.02526855 C14.00922783 -0.03115875 16.74583796 -0.02261726 19.48291016 -0.00390625 C22.98707964 0.01888443 26.49002371 0.00575858 29.99414825 -0.01819611 C33.34189958 -0.03614642 36.68932325 -0.02356948 40.03710938 -0.01367188 C41.29446899 -0.0217688 42.55182861 -0.02986572 43.84729004 -0.03820801 C45.59930725 -0.01929504 45.59930725 -0.01929504 47.38671875 0 C48.41390015 0.00318237 49.44108154 0.00636475 50.49938965 0.00964355 C53.9050474 0.65176336 55.08992652 1.81162899 57.19335938 4.51757812 C57.92410195 8.33367824 57.58802878 9.9147528 55.45703125 13.16967773 C51.15614738 17.21381083 44.92957119 16.20717535 39.41210938 16.14648438 C37.54274719 16.15010231 37.54274719 16.15010231 35.63562012 16.15379333 C32.32942813 16.15256424 29.02442895 16.1275297 25.71844482 16.09405518 C23.69499612 16.08008942 21.67238767 16.08365819 19.64892578 16.09399414 C15.75709709 16.11276655 11.86641742 16.10334152 7.97460938 16.08398438 C6.76929565 16.08894424 5.56398193 16.09390411 4.32214355 16.09901428 C-3.97188407 15.9822268 -3.97188407 15.9822268 -8.0703125 13.70092773 C-9.80664062 11.51757812 -9.80664062 11.51757812 -10.36914062 8.01757812 C-9.35356885 1.69846485 -6.11515425 0.01894573 0 0 Z "
    fill="#050505"
    transform="translate(119.806640625,282.482421875)"
  />

  <path
    d="M0 0 C1.43866173 -0.00929787 1.43866173 -0.00929787 2.90638733 -0.01878357 C4.93294256 -0.0258812 6.95955611 -0.02270872 8.98608398 -0.01000977 C12.08361425 0.00384345 15.17811611 -0.03020044 18.27539062 -0.06835938 C20.24609449 -0.06931071 22.21680213 -0.06745096 24.1875 -0.0625 C25.11159164 -0.07575821 26.03568329 -0.08901642 26.98777771 -0.10267639 C31.53312623 -0.0370174 33.54623628 0.10374123 37.27563477 2.91430664 C39.16015625 5.56640625 39.16015625 5.56640625 39.28515625 8.62890625 C37.84079848 12.40028486 36.60902682 13.45402872 33.16015625 15.56640625 C29.99200421 16.15758911 26.87625354 16.15099683 23.66015625 16.1328125 C22.74685547 16.13901108 21.83355469 16.14520966 20.89257812 16.15159607 C18.96615665 16.15868395 17.03967379 16.15553826 15.11328125 16.14282227 C12.16942495 16.12894993 9.22874457 16.16304886 6.28515625 16.20117188 C4.41015547 16.20212307 2.53515073 16.20026422 0.66015625 16.1953125 C-0.21705078 16.20857071 -1.09425781 16.22182892 -1.99804688 16.23548889 C-6.4243724 16.16819313 -8.28238239 15.99433616 -11.8984375 13.21850586 C-13.83984375 10.56640625 -13.83984375 10.56640625 -14.40234375 7.50390625 C-12.86938987 -0.50151958 -6.7890318 -0.03635907 0 0 Z "
    fill="#060606"
    transform="translate(55.83984375,282.43359375)"
  />

  <path
    d="M0 0 C1.69866211 -0.03577148 1.69866211 -0.03577148 3.43164062 -0.07226562 C12.68543439 -0.05590653 12.68543439 -0.05590653 15.8125 2.9375 C17.5625 5.5625 17.5625 5.5625 18.125 8.125 C17.39216697 11.30060981 16.04847913 12.51522307 13.5625 14.5625 C9.58198202 16.55275899 4.62702497 15.87881959 0.25 15.9375 C-0.79607422 15.97488281 -1.84214844 16.01226562 -2.91992188 16.05078125 C-10.64715398 16.13931733 -10.64715398 16.13931733 -14.6328125 13.23046875 C-16.83886241 9.96914389 -17.17649543 8.42169838 -16.4375 4.5625 C-11.98569492 -1.1301948 -6.70176511 -0.06462281 0 0 Z "
    fill="#060606"
    transform="translate(58.4375,342.4375)"
  />

  <path
    d="M0 0 C1.55104893 2.32657339 2.82336701 4.51231096 4.0625 7 C4.40410156 7.680625 4.74570313 8.36125 5.09765625 9.0625 C6 11 6 11 7 14 C8.74867483 15.08431094 8.74867483 15.08431094 11 16 C11.86625 16.515625 12.7325 17.03125 13.625 17.5625 C18.04758102 19.44619192 22.23750523 19.7270507 27 20 C27 20.33 27 20.66 27 21 C25.948125 21.28875 24.89625 21.5775 23.8125 21.875 C20.16592122 22.85744576 20.16592122 22.85744576 17.5 24.125 C12.97302692 25.70944058 9.27660456 25.47559778 4.8125 23.8125 C0.44927619 21.00064465 -1.86545691 18.06445429 -3.375 13.125 C-4.2679894 8.98904912 -3.57828378 5.94570945 -2 2 C-1.34 1.34 -0.68 0.68 0 0 Z "
    fill="#77B8DC"
    transform="translate(161,100)"
  />

  <path
    d="M0 0 C2.4375 1.625 2.4375 1.625 4 4 C4.60605429 7.63632575 4.47161336 9.28314769 2.4375 12.375 C-0.95870843 14.63913895 -3.00099302 14.64269755 -7 14 C-9.69500656 11.58140437 -10.80636871 9.99236035 -11.5 6.4375 C-10.19781462 0.08934627 -5.87567428 -0.83938204 0 0 Z "
    fill="#AAE8A0"
    transform="translate(188,91)"
  />

  <path
    d="M0 0 C2.4375 1.625 2.4375 1.625 4 4 C4.60605429 7.63632575 4.47161336 9.28314769 2.4375 12.375 C-0.95870843 14.63913895 -3.00099302 14.64269755 -7 14 C-9.69500656 11.58140437 -10.80636871 9.99236035 -11.5 6.4375 C-10.19781462 0.08934627 -5.87567428 -0.83938204 0 0 Z "
    fill="#F7D979"
    transform="translate(128,91)"
  />

  <path
    d="M0 0 C2.4375 1.625 2.4375 1.625 4 4 C4.60605429 7.63632575 4.47161336 9.28314769 2.4375 12.375 C-0.95870843 14.63913895 -3.00099302 14.64269755 -7 14 C-9.69500656 11.58140437 -10.80636871 9.99236035 -11.5 6.4375 C-10.19781462 0.08934627 -5.87567428 -0.83938204 0 0 Z "
    fill="#DA5C74"
    transform="translate(68,91)"
  />
</svg>
