<?xml version="1.0" encoding="UTF-8"?>
<svg
  version="1.1"
  viewBox="0 0 512 512"
  xmlns="http://www.w3.org/2000/svg">
<path d="M0 0 C0.99356506 0.00182281 1.98713013 0.00364563 3.01080322 0.00552368 C17.504692 0.05030022 31.61636097 0.51139787 45.875 3.3125 C46.77057617 3.47347168 47.66615234 3.63444336 48.58886719 3.80029297 C92.19563051 11.68952492 133.33356217 31.37899133 166.875 60.3125 C167.62007813 60.94671875 168.36515625 61.5809375 169.1328125 62.234375 C182.63779833 74.04551515 195.30918743 86.79610228 205.875 101.3125 C206.73149066 102.46244831 207.58826433 103.61218589 208.4453125 104.76171875 C214.48534209 112.95184258 219.86867614 121.45629618 224.875 130.3125 C225.2771875 131.01971191 225.679375 131.72692383 226.09375 132.45556641 C240.84611537 158.65830287 250.38135806 187.59880797 254.875 217.3125 C255.05160156 218.43495117 255.22820312 219.55740234 255.41015625 220.71386719 C257.0670586 232.32697743 257.27373513 243.84429945 257.25 255.5625 C257.24918427 257.08052216 257.24918427 257.08052216 257.24835205 258.62921143 C257.20761956 275.15780572 256.30424222 291.09163999 252.875 307.3125 C252.65537598 308.35438477 252.43575195 309.39626953 252.20947266 310.46972656 C242.11185215 356.76299311 219.75271242 399.17663721 186.875 433.3125 C186.24287598 433.97185547 185.61075195 434.63121094 184.95947266 435.31054688 C175.81502521 444.79880305 166.51765991 453.5387044 155.875 461.3125 C154.72394983 462.17056152 153.57290823 463.02863451 152.421875 463.88671875 C144.23069386 469.92486829 135.71695895 475.28345521 126.875 480.3125 C126.24319824 480.67698242 125.61139648 481.04146484 124.96044922 481.41699219 C98.93104716 496.31535669 69.51389511 505.95897542 39.875 510.3125 C38.67037109 510.48982666 37.46574219 510.66715332 36.22460938 510.84985352 C24.5673269 512.44882494 13.00313934 512.67090972 1.25 512.625 C0.28044373 512.62317719 -0.68911255 512.62135437 -1.68804932 512.61947632 C-16.01979259 512.57412737 -30.03395512 512.15545422 -44.125 509.3125 C-45.02686035 509.13557617 -45.9287207 508.95865234 -46.85791016 508.77636719 C-53.33082573 507.47752189 -59.73520862 505.97073805 -66.125 504.3125 C-66.95563965 504.09754883 -67.7862793 503.88259766 -68.64208984 503.66113281 C-109.11050039 492.92838092 -146.04181601 471.28690378 -176.125 442.3125 C-176.78435547 441.68037598 -177.44371094 441.04825195 -178.12304688 440.39697266 C-187.61130305 431.25252521 -196.3512044 421.95515991 -204.125 411.3125 C-204.98306152 410.16144983 -205.84113451 409.01040823 -206.69921875 407.859375 C-212.73736829 399.66819386 -218.09595521 391.15445895 -223.125 382.3125 C-223.48948242 381.68069824 -223.85396484 381.04889648 -224.22949219 380.39794922 C-245.83534998 342.64967428 -255.60198095 299.88310003 -255.4375 256.6875 C-255.43534485 255.66959381 -255.4331897 254.65168762 -255.43096924 253.60293579 C-255.38129854 238.99386477 -255.13040191 224.66174147 -252.125 210.3125 C-251.92632324 209.33764648 -251.72764648 208.36279297 -251.52294922 207.35839844 C-241.40232806 158.9765226 -219.4858123 114.98821731 -185.125 79.3125 C-184.49287598 78.65314453 -183.86075195 77.99378906 -183.20947266 77.31445312 C-174.06502521 67.82619695 -164.76765991 59.0862956 -154.125 51.3125 C-152.97394983 50.45443848 -151.82290823 49.59636549 -150.671875 48.73828125 C-142.48224019 42.70072604 -133.97961724 37.31792698 -125.125 32.3125 C-124.41778809 31.9103125 -123.71057617 31.508125 -122.98193359 31.09375 C-99.84654164 18.0683259 -74.67537591 9.31948539 -48.6875 4 C-47.96860596 3.85264404 -47.24971191 3.70528809 -46.5090332 3.5534668 C-31.03054085 0.61150193 -15.71897313 -0.05987337 0 0 Z M-73.125 101.3125 C-73.79789063 101.91449219 -74.47078125 102.51648438 -75.1640625 103.13671875 C-113.16087321 138.88253357 -129.49900427 196.7541953 -131.125 247.3125 C-131.14691406 247.98071777 -131.16882813 248.64893555 -131.19140625 249.33740234 C-132.51684132 296.40139265 -121.63932347 348.90657982 -93.125 387.3125 C-92.35671875 388.36308594 -91.5884375 389.41367187 -90.796875 390.49609375 C-70.93690425 417.23279662 -44.39871769 438.63651225 -10.66015625 443.99902344 C17.40359653 447.4691562 44.56210988 439.5125019 67.1171875 422.546875 C72.26520311 418.3759615 77.08208052 413.8829633 81.875 409.3125 C82.59558594 408.64476562 83.31617188 407.97703125 84.05859375 407.2890625 C112.86248714 379.81814606 128.31000838 337.64442804 134.875 299.3125 C135.03726074 298.37390137 135.19952148 297.43530273 135.36669922 296.46826172 C139.83237822 269.30089564 139.56146596 240.42140193 134.875 213.3125 C134.71402832 212.3726123 134.55305664 211.43272461 134.38720703 210.46435547 C127.61346267 172.57433296 112.18169225 135.75939772 85.875 107.3125 C85.12331543 106.49507324 85.12331543 106.49507324 84.35644531 105.66113281 C64.92238969 84.77406368 38.47627548 69.19664786 9.40234375 67.9765625 C-23.20091285 67.44828236 -49.33348551 79.4385849 -73.125 101.3125 Z " fill="#E61326" transform="translate(255.125,-0.3125)"/>
<path d="M0 0 C1.17792114 0.66104736 1.17792114 0.66104736 2.37963867 1.33544922 C7.05934754 4.308174 10.73257188 8.39552309 14.625 12.3125 C15.96860596 13.66239014 15.96860596 13.66239014 17.33935547 15.03955078 C24.16459592 21.98116573 30.30582038 29.11916206 36 37 C36.85334392 38.14774758 37.70752439 39.29487362 38.5625 40.44140625 C44.60747076 48.63251369 49.99188169 57.14062179 55 66 C55.4021875 66.70721191 55.804375 67.41442383 56.21875 68.14306641 C70.97111537 94.34580287 80.50635806 123.28630797 85 153 C85.17660156 154.12245117 85.35320312 155.24490234 85.53515625 156.40136719 C87.1920586 168.01447743 87.39873513 179.53179945 87.375 191.25 C87.37418427 192.76802216 87.37418427 192.76802216 87.37335205 194.31671143 C87.33261956 210.84530572 86.42924222 226.77913999 83 243 C82.78037598 244.04188477 82.56075195 245.08376953 82.33447266 246.15722656 C72.23047061 292.47974974 49.85962611 334.81986474 17 369 C16.3306543 369.70189453 15.66130859 370.40378906 14.97167969 371.12695312 C12.74445839 373.45212862 10.49997407 375.75934826 8.25 378.0625 C7.54085449 378.80153564 6.83170898 379.54057129 6.10107422 380.30200195 C1.97285807 384.47516356 -1.40384376 386.95355009 -7 389 C-8.23316762 389.6378165 -9.45428271 390.29933356 -10.6640625 390.98046875 C-27.47109741 400.37401296 -45.21318681 406.84216358 -64 411 C-65.0516333 411.24556641 -65.0516333 411.24556641 -66.12451172 411.49609375 C-106.64575271 420.65857011 -150.95182865 412.00185977 -187.22802734 392.92871094 C-188.79653639 392.10663758 -190.37604037 391.30561767 -191.95703125 390.5078125 C-213.8927518 379.13849321 -232.74674303 361.3704147 -249 343 C-248.67 342.34 -248.34 341.68 -248 341 C-247.50113281 341.53367187 -247.00226563 342.06734375 -246.48828125 342.6171875 C-226.15278916 363.7193678 -199.13062884 378.56248537 -169.45263672 379.47241211 C-137.31612321 379.77267886 -110.89919585 365.81032918 -88 344 C-87.35289062 343.40574219 -86.70578125 342.81148438 -86.0390625 342.19921875 C-57.54324012 315.24190321 -42.44659418 272.64062446 -36 235 C-35.83773926 234.06140137 -35.67547852 233.12280273 -35.50830078 232.15576172 C-31.04262178 204.98839564 -31.31353404 176.10890193 -36 149 C-36.16097168 148.0601123 -36.32194336 147.12022461 -36.48779297 146.15185547 C-43.267203 108.23014113 -58.71660973 71.49440101 -85 43 C-85.46873535 42.48743652 -85.9374707 41.97487305 -86.42041016 41.44677734 C-105.43319829 20.88980337 -132.05706189 5.85652078 -160.47265625 4.6640625 C-188.43028901 4.21105676 -213.66434279 12.58119916 -235 31 C-235.66 30.67 -236.32 30.34 -237 30 C-222.33011724 14.41711228 -206.81461812 1.91521211 -187.83789062 -8.02978516 C-186.12271536 -8.93521907 -184.42759578 -9.87836456 -182.734375 -10.82421875 C-124.573067 -42.08240964 -54.84790654 -33.17752386 0 0 Z " fill="#DB3030" transform="translate(425,64)"/>
<path d="M0 0 C0.66 0.66 1.32 1.32 2 2 C-1.3 4.97 -4.6 7.94 -8 11 C-8 8 -8 8 -6.25 5.95703125 C-5.5075 5.24933594 -4.765 4.54164062 -4 3.8125 C-2.88625 2.73935547 -2.88625 2.73935547 -1.75 1.64453125 C-1.1725 1.10183594 -0.595 0.55914062 0 0 Z " fill="#B00E0E" transform="translate(187,94)"/>
</svg>
